999
dxfrw 0.6.3
  0
SECTION
  2
HEADER
  9
$ACADVER
  1
AC1021
  9
$DWGCODEPAGE
  3
ANSI_1252
  9
$INSBASE
 10
0
 20
0
 30
0
  9
$EXTMIN
 10
-89.9924
 20
-130
 30
0
  9
$EXTMAX
 10
186.995
 20
61.9659
 30
0
  9
$LIMMIN
 10
0
 20
0
  9
$LIMMAX
 10
420
 20
297
  9
$ORTHOMODE
 70
    0
  9
$REGENMODE
 70
    1
  9
$FILLMODE
 70
    1
  9
$QTEXTMODE
 70
    0
  9
$MIRRTEXT
 70
    0
  9
$LTSCALE
 40
1
  9
$ATTMODE
 70
    0
  9
$TEXTSIZE
 40
2.5
  9
$TRACEWID
 40
15.68
  9
$TEXTSTYLE
  7
STANDARD
  9
$CLAYER
  8
0
  9
$CELTYPE
  6
BYLAYER
  9
$CECOLOR
 62
  256
  9
$CELTSCALE
 40
1
  9
$DISPSILH
 70
    0
  9
$DIMSCALE
 40
1
  9
$DIMASZ
 40
2.5
  9
$DIMEXO
 40
0.625
  9
$DIMDLI
 40
3.75
  9
$DIMRND
 40
0
  9
$DIMDLE
 40
0
  9
$DIMEXE
 40
1.25
  9
$DIMTP
 40
0
  9
$DIMTM
 40
0
  9
$DIMTXT
 40
2.5
  9
$DIMCEN
 40
2.5
  9
$DIMTSZ
 40
0
  9
$DIMTOL
 70
    0
  9
$DIMLIM
 70
    0
  9
$DIMTIH
 70
    0
  9
$DIMTOH
 70
    0
  9
$DIMSE1
 70
    0
  9
$DIMSE2
 70
    0
  9
$DIMTAD
 70
    1
  9
$DIMZIN
 70
    8
  9
$DIMBLK
  1

  9
$DIMASO
 70
    1
  9
$DIMSHO
 70
    1
  9
$DIMPOST
  1

  9
$DIMAPOST
  1

  9
$DIMALT
 70
    0
  9
$DIMALTD
 70
    3
  9
$DIMALTF
 40
0.03937
  9
$DIMLFAC
 40
1
  9
$DIMTOFL
 70
    1
  9
$DIMTVP
 40
0
  9
$DIMTIX
 70
    0
  9
$DIMSOXD
 70
    0
  9
$DIMSAH
 70
    0
  9
$DIMBLK1
  1

  9
$DIMBLK2
  1

  9
$DIMSTYLE
  2
STANDARD
  9
$DIMCLRD
 70
    0
  9
$DIMCLRE
 70
    0
  9
$DIMCLRT
 70
    0
  9
$DIMTFAC
 40
1
  9
$DIMGAP
 40
0.625
  9
$DIMJUST
 70
    0
  9
$DIMSD1
 70
    0
  9
$DIMSD2
 70
    0
  9
$DIMTOLJ
 70
    0
  9
$DIMTZIN
 70
    8
  9
$DIMALTZ
 70
    0
  9
$DIMALTTZ
 70
    0
  9
$DIMUPT
 70
    0
  9
$DIMDEC
 70
    1
  9
$DIMTDEC
 70
    2
  9
$DIMALTU
 70
    2
  9
$DIMALTTD
 70
    3
  9
$DIMTXSTY
  7
standard
  9
$DIMAUNIT
 70
    0
  9
$DIMADEC
 70
    2
  9
$DIMALTRND
 40
0
  9
$DIMAZIN
 70
    0
  9
$DIMDSEP
 70
   44
  9
$DIMATFIT
 70
    3
  9
$DIMFRAC
 70
    0
  9
$DIMLDRBLK
  1
STANDARD
  9
$DIMLUNIT
 70
    2
  9
$DIMLWD
 70
   -2
  9
$DIMLWE
 70
   -2
  9
$DIMTMOVE
 70
    0
  9
$DIMFXL
 40
1
  9
$DIMFXLON
 70
    0
  9
$DIMJOGANG
 40
0.7854
  9
$DIMTFILL
 70
    0
  9
$DIMTFILLCLR
 70
    0
  9
$DIMARCSYM
 70
    0
  9
$DIMLTYPE
  6

  9
$DIMLTEX1
  6

  9
$DIMLTEX2
  6

  9
$LUNITS
 70
    2
  9
$LUPREC
 70
    4
  9
$SKETCHINC
 40
1
  9
$FILLETRAD
 40
0
  9
$AUNITS
 70
    0
  9
$AUPREC
 70
    2
  9
$MENU
  1
.
  9
$ELEVATION
 40
0
  9
$PELEVATION
 40
0
  9
$THICKNESS
 40
0
  9
$LIMCHECK
 70
    0
  9
$CHAMFERA
 40
0
  9
$CHAMFERB
 40
0
  9
$CHAMFERC
 40
0
  9
$CHAMFERD
 40
0
  9
$SKPOLY
 70
    0
  9
$USRTIMER
 70
    1
  9
$ANGBASE
 50
0
  9
$ANGDIR
 70
    0
  9
$PDMODE
 70
   34
  9
$PDSIZE
 40
0
  9
$PLINEWID
 40
0
  9
$SPLFRAME
 70
    0
  9
$SPLINETYPE
 70
    2
  9
$SPLINESEGS
 70
    8
  9
$HANDSEED
  5
20000
  9
$SURFTAB1
 70
    6
  9
$SURFTAB2
 70
    6
  9
$SURFTYPE
 70
    6
  9
$SURFU
 70
    6
  9
$SURFV
 70
    6
  9
$UCSBASE
  2

  9
$UCSNAME
  2

  9
$UCSORG
 10
0
 20
0
 30
0
  9
$UCSXDIR
 10
1
 20
0
 30
0
  9
$UCSYDIR
 10
0
 20
1
 30
0
  9
$UCSORTHOREF
  2

  9
$UCSORTHOVIEW
 70
    0
  9
$UCSORGTOP
 10
0
 20
0
 30
0
  9
$UCSORGBOTTOM
 10
0
 20
0
 30
0
  9
$UCSORGLEFT
 10
0
 20
0
 30
0
  9
$UCSORGRIGHT
 10
0
 20
0
 30
0
  9
$UCSORGFRONT
 10
0
 20
0
 30
0
  9
$UCSORGBACK
 10
0
 20
0
 30
0
  9
$PUCSBASE
  2

  9
$PUCSNAME
  2

  9
$PUCSORG
 10
0
 20
0
 30
0
  9
$PUCSXDIR
 10
1
 20
0
 30
0
  9
$PUCSYDIR
 10
0
 20
1
 30
0
  9
$PUCSORTHOREF
  2

  9
$PUCSORTHOVIEW
 70
    0
  9
$PUCSORGTOP
 10
0
 20
0
 30
0
  9
$PUCSORGBOTTOM
 10
0
 20
0
 30
0
  9
$PUCSORGLEFT
 10
0
 20
0
 30
0
  9
$PUCSORGRIGHT
 10
0
 20
0
 30
0
  9
$PUCSORGFRONT
 10
0
 20
0
 30
0
  9
$PUCSORGBACK
 10
0
 20
0
 30
0
  9
$USERI1
 70
    0
  9
$USERI2
 70
    0
  9
$USERI3
 70
    0
  9
$USERI4
 70
    0
  9
$USERI5
 70
    0
  9
$USERR1
 40
0
  9
$USERR2
 40
0
  9
$USERR3
 40
0
  9
$USERR4
 40
0
  9
$USERR5
 40
0
  9
$WORLDVIEW
 70
    1
  9
$SHADEDGE
 70
    3
  9
$SHADEDIF
 70
   70
  9
$TILEMODE
 70
    1
  9
$MAXACTVP
 70
   64
  9
$PINSBASE
 10
101.7586751084437
 20
137.7826673904063
 30
0
  9
$PLIMCHECK
 70
    0
  9
$PEXTMIN
 10
0
 20
0
 30
0
  9
$PEXTMAX
 10
0
 20
0
 30
0
  9
$GRIDMODE
 70
    1
  9
$SNAPSTYLE
 70
    0
  9
$GRIDUNIT
 10
0
 20
0
  9
$PLIMMIN
 10
0
 20
0
  9
$PLIMMAX
 10
297
 20
210
  9
$UNITMODE
 70
    0
  9
$VISRETAIN
 70
    1
  9
$PLINEGEN
 70
    0
  9
$PSLTSCALE
 70
    1
  9
$TREEDEPTH
 70
 3020
  9
$CMLSTYLE
  2
Standard
  9
$CMLJUST
 70
    0
  9
$CMLSCALE
 40
20
  9
$PROXYGRAPHICS
 70
    1
  9
$MEASUREMENT
 70
    1
  9
$CELWEIGHT
370
   -1
  9
$ENDCAPS
280
    0
  9
$JOINSTYLE
280
    0
  9
$LWDISPLAY
290
    0
  9
$INSUNITS
 70
    4
  9
$HYPERLINKBASE
  1

  9
$STYLESHEET
  1

  9
$XEDIT
290
    1
  9
$CEPSNTYPE
380
    0
  9
$PSTYLEMODE
290
    1
  9
$EXTNAMES
290
    1
  9
$PSVPSCALE
 40
0.9637160892401099
  9
$OLESTARTUP
290
    0
  9
$SORTENTS
280
  127
  9
$INDEXCTL
280
    0
  9
$HIDETEXT
280
    1
  9
$XCLIPFRAME
290
    0
  9
$HALOGAP
280
    0
  9
$OBSCOLOR
 70
  257
  9
$OBSLTYPE
280
    0
  9
$INTERSECTIONDISPLAY
280
    0
  9
$INTERSECTIONCOLOR
 70
  257
  9
$DIMASSOC
280
    1
  9
$PROJECTNAME
  1

  9
$CAMERADISPLAY
290
    0
  9
$LENSLENGTH
 40
50
  9
$CAMERAHEIGHT
 40
0
  9
$STEPSPERSEC
 40
2
  9
$STEPSIZE
 40
50
  9
$3DDWFPREC
 40
2
  9
$PSOLWIDTH
 40
5
  9
$PSOLHEIGHT
 40
80
  9
$LOFTANG1
 40
1.570796326794897
  9
$LOFTANG2
 40
1.570796326794897
  9
$LOFTMAG1
 40
0
  9
$LOFTMAG2
 40
0
  9
$LOFTPARAM
 70
    7
  9
$LOFTNORMALS
280
    1
  9
$LATITUDE
 40
1
  9
$LONGITUDE
 40
1
  9
$NORTHDIRECTION
 40
0
  9
$TIMEZONE
 70
-8000
  9
$LIGHTGLYPHDISPLAY
280
    1
  9
$TILEMODELIGHTSYNCH
280
    1
  9
$SOLIDHIST
280
    1
  9
$SHOWHIST
280
    1
  9
$DWFFRAME
280
    2
  9
$DGNFRAME
280
    0
  9
$REALWORLDSCALE
290
    1
  9
$INTERFERECOLOR
 62
    1
  9
$CSHADOW
280
    0
  9
$SHADOWPLANELOCATION
 40
0
  0
ENDSEC
  0
SECTION
  2
CLASSES
  0
ENDSEC
  0
SECTION
  2
TABLES
  0
TABLE
  2
VPORT
  5
8
330
0
100
AcDbSymbolTable
 70
    1
  0
VPORT
  5
31
330
2
100
AcDbSymbolTableRecord
100
AcDbViewportTableRecord
  2
*ACTIVE
 70
    0
 10
0
 20
0
 11
1
 21
1
 12
148.3791623986887
 22
76.66807500333138
 13
0
 23
0
 14
10
 24
10
 15
10
 25
10
 16
0
 26
0
 36
1
 17
0
 27
0
 37
0
 40
375.4091948438985
 41
1.176056338028169
 42
50
 43
0
 44
0
 50
0
 51
0
 71
    0
 72
  100
 73
    1
 74
    3
 75
    0
 76
    1
 77
    0
 78
    0
281
    0
 65
    1
110
0
120
0
130
0
111
1
121
0
131
0
112
0
122
1
132
0
 79
    0
146
0
348
10020
 60
    7
 61
    5
292
1
282
    1
141
0
142
0
 63
  250
421
3358443
  0
ENDTAB
  0
TABLE
  2
LTYPE
  5
5
330
0
100
AcDbSymbolTable
 70
    4
  0
LTYPE
  5
14
330
5
100
AcDbSymbolTableRecord
100
AcDbLinetypeTableRecord
  2
ByBlock
 70
    0
  3

 72
   65
 73
    0
 40
0
  0
LTYPE
  5
15
330
5
100
AcDbSymbolTableRecord
100
AcDbLinetypeTableRecord
  2
ByLayer
 70
    0
  3

 72
   65
 73
    0
 40
0
  0
LTYPE
  5
16
330
5
100
AcDbSymbolTableRecord
100
AcDbLinetypeTableRecord
  2
Continuous
 70
    0
  3
Solid line
 72
   65
 73
    0
 40
0
  0
LTYPE
  5
32
330
5
100
AcDbSymbolTableRecord
100
AcDbLinetypeTableRecord
  2
DOT
 70
    0
  3
Dot . . . . . . . . . . . . . . . . . . . . . .
 72
   65
 73
    2
 40
6.35
 49
0
 74
    0
 49
-6.35
 74
    0
  0
LTYPE
  5
33
330
5
100
AcDbSymbolTableRecord
100
AcDbLinetypeTableRecord
  2
DOTTINY
 70
    0
  3
Dot (.15x) .....................................
 72
   65
 73
    2
 40
0.9525
 49
0
 74
    0
 49
-0.9525
 74
    0
  0
LTYPE
  5
34
330
5
100
AcDbSymbolTableRecord
100
AcDbLinetypeTableRecord
  2
DOT2
 70
    0
  3
Dot (.5x) .....................................
 72
   65
 73
    2
 40
3.175
 49
0
 74
    0
 49
-3.175
 74
    0
  0
LTYPE
  5
35
330
5
100
AcDbSymbolTableRecord
100
AcDbLinetypeTableRecord
  2
DOTX2
 70
    0
  3
Dot (2x) .  .  .  .  .  .  .  .  .  .  .  .  .
 72
   65
 73
    2
 40
12.7
 49
0
 74
    0
 49
-12.7
 74
    0
  0
LTYPE
  5
36
330
5
100
AcDbSymbolTableRecord
100
AcDbLinetypeTableRecord
  2
DASHED
 70
    0
  3
Dashed _ _ _ _ _ _ _ _ _ _ _ _ _ _ _ _ _
 72
   65
 73
    2
 40
19.05
 49
12.7
 74
    0
 49
-6.35
 74
    0
  0
LTYPE
  5
37
330
5
100
AcDbSymbolTableRecord
100
AcDbLinetypeTableRecord
  2
DASHEDTINY
 70
    0
  3
Dashed (.15x) _ _ _ _ _ _ _ _ _ _ _ _ _ _ _ _ _
 72
   65
 73
    2
 40
2.8575
 49
1.905
 74
    0
 49
-0.9525
 74
    0
  0
LTYPE
  5
38
330
5
100
AcDbSymbolTableRecord
100
AcDbLinetypeTableRecord
  2
DASHED2
 70
    0
  3
Dashed (.5x) _ _ _ _ _ _ _ _ _ _ _ _ _ _ _ _ _
 72
   65
 73
    2
 40
9.524999999999999
 49
6.35
 74
    0
 49
-3.175
 74
    0
  0
LTYPE
  5
39
330
5
100
AcDbSymbolTableRecord
100
AcDbLinetypeTableRecord
  2
DASHEDX2
 70
    0
  3
Dashed (2x) ____  ____  ____  ____  ____  ___
 72
   65
 73
    2
 40
38.09999999999999
 49
25.4
 74
    0
 49
-12.7
 74
    0
  0
LTYPE
  5
3A
330
5
100
AcDbSymbolTableRecord
100
AcDbLinetypeTableRecord
  2
DASHDOT
 70
    0
  3
Dash dot __ . __ . __ . __ . __ . __ . __ . __
 72
   65
 73
    4
 40
25.4
 49
12.7
 74
    0
 49
-6.35
 74
    0
 49
0
 74
    0
 49
-6.35
 74
    0
  0
LTYPE
  5
3B
330
5
100
AcDbSymbolTableRecord
100
AcDbLinetypeTableRecord
  2
DASHDOTTINY
 70
    0
  3
Dash dot (.15x) _._._._._._._._._._._._._._._.
 72
   65
 73
    4
 40
3.81
 49
1.905
 74
    0
 49
-0.9525
 74
    0
 49
0
 74
    0
 49
-0.9525
 74
    0
  0
LTYPE
  5
3C
330
5
100
AcDbSymbolTableRecord
100
AcDbLinetypeTableRecord
  2
DASHDOT2
 70
    0
  3
Dash dot (.5x) _._._._._._._._._._._._._._._.
 72
   65
 73
    4
 40
12.7
 49
6.35
 74
    0
 49
-3.175
 74
    0
 49
0
 74
    0
 49
-3.175
 74
    0
  0
LTYPE
  5
3D
330
5
100
AcDbSymbolTableRecord
100
AcDbLinetypeTableRecord
  2
DASHDOTX2
 70
    0
  3
Dash dot (2x) ____  .  ____  .  ____  .  ___
 72
   65
 73
    4
 40
50.8
 49
25.4
 74
    0
 49
-12.7
 74
    0
 49
0
 74
    0
 49
-12.7
 74
    0
  0
LTYPE
  5
3E
330
5
100
AcDbSymbolTableRecord
100
AcDbLinetypeTableRecord
  2
DIVIDE
 70
    0
  3
Divide ____ . . ____ . . ____ . . ____ . . ____
 72
   65
 73
    6
 40
31.75
 49
12.7
 74
    0
 49
-6.35
 74
    0
 49
0
 74
    0
 49
-6.35
 74
    0
 49
0
 74
    0
 49
-6.35
 74
    0
  0
LTYPE
  5
3F
330
5
100
AcDbSymbolTableRecord
100
AcDbLinetypeTableRecord
  2
DIVIDETINY
 70
    0
  3
Divide (.15x) __..__..__..__..__..__..__..__.._
 72
   65
 73
    6
 40
4.7625
 49
1.905
 74
    0
 49
-0.9525
 74
    0
 49
0
 74
    0
 49
-0.9525
 74
    0
 49
0
 74
    0
 49
-0.9525
 74
    0
  0
LTYPE
  5
40
330
5
100
AcDbSymbolTableRecord
100
AcDbLinetypeTableRecord
  2
DIVIDE2
 70
    0
  3
Divide (.5x) __..__..__..__..__..__..__..__.._
 72
   65
 73
    6
 40
15.875
 49
6.35
 74
    0
 49
-3.175
 74
    0
 49
0
 74
    0
 49
-3.175
 74
    0
 49
0
 74
    0
 49
-3.175
 74
    0
  0
LTYPE
  5
41
330
5
100
AcDbSymbolTableRecord
100
AcDbLinetypeTableRecord
  2
DIVIDEX2
 70
    0
  3
Divide (2x) ________  .  .  ________  .  .  _
 72
   65
 73
    6
 40
63.5
 49
25.4
 74
    0
 49
-12.7
 74
    0
 49
0
 74
    0
 49
-12.7
 74
    0
 49
0
 74
    0
 49
-12.7
 74
    0
  0
LTYPE
  5
42
330
5
100
AcDbSymbolTableRecord
100
AcDbLinetypeTableRecord
  2
BORDER
 70
    0
  3
Border __ __ . __ __ . __ __ . __ __ . __ __ .
 72
   65
 73
    6
 40
44.45
 49
12.7
 74
    0
 49
-6.35
 74
    0
 49
12.7
 74
    0
 49
-6.35
 74
    0
 49
0
 74
    0
 49
-6.35
 74
    0
  0
LTYPE
  5
43
330
5
100
AcDbSymbolTableRecord
100
AcDbLinetypeTableRecord
  2
BORDERTINY
 70
    0
  3
Border (.15x) __.__.__.__.__.__.__.__.__.__.__.
 72
   65
 73
    6
 40
6.6675
 49
1.905
 74
    0
 49
-0.9525
 74
    0
 49
1.905
 74
    0
 49
-0.9525
 74
    0
 49
0
 74
    0
 49
-0.9525
 74
    0
  0
LTYPE
  5
44
330
5
100
AcDbSymbolTableRecord
100
AcDbLinetypeTableRecord
  2
BORDER2
 70
    0
  3
Border (.5x) __.__.__.__.__.__.__.__.__.__.__.
 72
   65
 73
    6
 40
22.225
 49
6.35
 74
    0
 49
-3.175
 74
    0
 49
6.35
 74
    0
 49
-3.175
 74
    0
 49
0
 74
    0
 49
-3.175
 74
    0
  0
LTYPE
  5
45
330
5
100
AcDbSymbolTableRecord
100
AcDbLinetypeTableRecord
  2
BORDERX2
 70
    0
  3
Border (2x) ____  ____  .  ____  ____  .  ___
 72
   65
 73
    6
 40
88.89999999999999
 49
25.4
 74
    0
 49
-12.7
 74
    0
 49
25.4
 74
    0
 49
-12.7
 74
    0
 49
0
 74
    0
 49
-12.7
 74
    0
  0
LTYPE
  5
46
330
5
100
AcDbSymbolTableRecord
100
AcDbLinetypeTableRecord
  2
CENTER
 70
    0
  3
Center ____ _ ____ _ ____ _ ____ _ ____ _ ____
 72
   65
 73
    4
 40
50.8
 49
31.75
 74
    0
 49
-6.35
 74
    0
 49
6.35
 74
    0
 49
-6.35
 74
    0
  0
LTYPE
  5
47
330
5
100
AcDbSymbolTableRecord
100
AcDbLinetypeTableRecord
  2
CENTERTINY
 70
    0
  3
Center (.15x) ___ _ ___ _ ___ _ ___ _ ___ _ ___
 72
   65
 73
    4
 40
7.62
 49
4.7625
 74
    0
 49
-0.9525
 74
    0
 49
0.9525
 74
    0
 49
-0.9525
 74
    0
  0
LTYPE
  5
48
330
5
100
AcDbSymbolTableRecord
100
AcDbLinetypeTableRecord
  2
CENTER2
 70
    0
  3
Center (.5x) ___ _ ___ _ ___ _ ___ _ ___ _ ___
 72
   65
 73
    4
 40
28.575
 49
19.05
 74
    0
 49
-3.175
 74
    0
 49
3.175
 74
    0
 49
-3.175
 74
    0
  0
LTYPE
  5
49
330
5
100
AcDbSymbolTableRecord
100
AcDbLinetypeTableRecord
  2
CENTERX2
 70
    0
  3
Center (2x) ________  __  ________  __  _____
 72
   65
 73
    4
 40
101.6
 49
63.5
 74
    0
 49
-12.7
 74
    0
 49
12.7
 74
    0
 49
-12.7
 74
    0
  0
ENDTAB
  0
TABLE
  2
LAYER
  5
2
330
0
100
AcDbSymbolTable
 70
    1
  0
LAYER
  5
10
330
2
100
AcDbSymbolTableRecord
100
AcDbLayerTableRecord
  2
0
 70
    4
 62
    7
  6
CONTINUOUS
370
   13
390
F
  0
LAYER
  5
4A
330
2
100
AcDbSymbolTableRecord
100
AcDbLayerTableRecord
  2
edge
 70
    4
 62
    7
  6
CONTINUOUS
370
   50
390
F
  0
LAYER
  5
4B
330
2
100
AcDbSymbolTableRecord
100
AcDbLayerTableRecord
  2
frame
 70
    4
 62
    7
  6
CONTINUOUS
370
   -3
390
F
  0
LAYER
  5
4C
330
2
100
AcDbSymbolTableRecord
100
AcDbLayerTableRecord
  2
text
 70
    4
 62
    7
  6
CONTINUOUS
370
    0
390
F
  0
ENDTAB
  0
TABLE
  2
STYLE
  5
3
330
0
100
AcDbSymbolTable
 70
    3
  0
STYLE
  5
4D
330
2
100
AcDbSymbolTableRecord
100
AcDbTextStyleTableRecord
  2
standard
 70
    0
 40
0
 41
1
 50
0
 71
    0
 42
1
  3
standard
  4

  0
ENDTAB
  0
TABLE
  2
VIEW
  5
6
330
0
100
AcDbSymbolTable
 70
    0
  0
ENDTAB
  0
TABLE
  2
UCS
  5
7
330
0
100
AcDbSymbolTable
 70
    0
  0
ENDTAB
  0
TABLE
  2
APPID
  5
9
330
0
100
AcDbSymbolTable
 70
    1
  0
APPID
  5
12
330
9
100
AcDbSymbolTableRecord
100
AcDbRegAppTableRecord
  2
ACAD
 70
    0
  0
APPID
  5
4E
330
9
100
AcDbSymbolTableRecord
100
AcDbRegAppTableRecord
  2
LibreCad
 70
    0
  0
ENDTAB
  0
TABLE
  2
DIMSTYLE
  5
A
330
0
100
AcDbSymbolTable
 70
    1
100
AcDbDimStyleTable
 71
    1
  0
DIMSTYLE
105
4F
330
A
100
AcDbSymbolTableRecord
100
AcDbDimStyleTableRecord
  2
Standard
 70
    0
 40
1
 41
2.5
 42
0.625
 43
0.38
 44
1.25
 45
0
 46
0
 47
0
 48
0
 49
1
140
2.5
141
0.09
142
0
143
25.4
144
1
145
0
146
1
147
0.625
148
0
 71
    0
 72
    0
 73
    0
 74
    1
 75
    0
 76
    0
 77
    0
 78
    8
 79
    0
170
    0
171
    2
172
    0
173
    0
174
    0
175
    0
176
    0
177
    0
178
    0
179
    2
271
    1
272
    4
273
    2
274
    2
275
    0
276
    0
277
    2
278
   44
279
    0
280
    0
281
    0
282
    0
283
    1
284
    0
285
    0
286
    0
288
    0
289
    3
340
standard
341

371
   -2
372
   -2
  0
ENDTAB
  0
TABLE
  2
BLOCK_RECORD
  5
1
330
0
100
AcDbSymbolTable
 70
    2
  0
BLOCK_RECORD
  5
1F
330
1
100
AcDbSymbolTableRecord
100
AcDbBlockTableRecord
  2
*Model_Space
 70
    0
280
    1
281
    0
  0
BLOCK_RECORD
  5
1E
330
1
100
AcDbSymbolTableRecord
100
AcDbBlockTableRecord
  2
*Paper_Space
 70
    0
280
    1
281
    0
  0
BLOCK_RECORD
  5
50
330
1
100
AcDbSymbolTableRecord
100
AcDbBlockTableRecord
  2
*D14
 70
    0
280
    1
281
    0
  0
BLOCK_RECORD
  5
53
330
1
100
AcDbSymbolTableRecord
100
AcDbBlockTableRecord
  2
*D8
 70
    0
280
    1
281
    0
  0
BLOCK_RECORD
  5
56
330
1
100
AcDbSymbolTableRecord
100
AcDbBlockTableRecord
  2
*D11
 70
    0
280
    1
281
    0
  0
BLOCK_RECORD
  5
59
330
1
100
AcDbSymbolTableRecord
100
AcDbBlockTableRecord
  2
*D7
 70
    0
280
    1
281
    0
  0
BLOCK_RECORD
  5
5C
330
1
100
AcDbSymbolTableRecord
100
AcDbBlockTableRecord
  2
*D2
 70
    0
280
    1
281
    0
  0
BLOCK_RECORD
  5
5F
330
1
100
AcDbSymbolTableRecord
100
AcDbBlockTableRecord
  2
*D9
 70
    0
280
    1
281
    0
  0
BLOCK_RECORD
  5
62
330
1
100
AcDbSymbolTableRecord
100
AcDbBlockTableRecord
  2
*D10
 70
    0
280
    1
281
    0
  0
BLOCK_RECORD
  5
65
330
1
100
AcDbSymbolTableRecord
100
AcDbBlockTableRecord
  2
*D5
 70
    0
280
    1
281
    0
  0
BLOCK_RECORD
  5
68
330
1
100
AcDbSymbolTableRecord
100
AcDbBlockTableRecord
  2
*D16
 70
    0
280
    1
281
    0
  0
BLOCK_RECORD
  5
6B
330
1
100
AcDbSymbolTableRecord
100
AcDbBlockTableRecord
  2
*D1
 70
    0
280
    1
281
    0
  0
BLOCK_RECORD
  5
6E
330
1
100
AcDbSymbolTableRecord
100
AcDbBlockTableRecord
  2
*D3
 70
    0
280
    1
281
    0
  0
BLOCK_RECORD
  5
71
330
1
100
AcDbSymbolTableRecord
100
AcDbBlockTableRecord
  2
*D12
 70
    0
280
    1
281
    0
  0
BLOCK_RECORD
  5
74
330
1
100
AcDbSymbolTableRecord
100
AcDbBlockTableRecord
  2
*D4
 70
    0
280
    1
281
    0
  0
BLOCK_RECORD
  5
77
330
1
100
AcDbSymbolTableRecord
100
AcDbBlockTableRecord
  2
*D13
 70
    0
280
    1
281
    0
  0
BLOCK_RECORD
  5
7A
330
1
100
AcDbSymbolTableRecord
100
AcDbBlockTableRecord
  2
*D15
 70
    0
280
    1
281
    0
  0
BLOCK_RECORD
  5
7D
330
1
100
AcDbSymbolTableRecord
100
AcDbBlockTableRecord
  2
*D6
 70
    0
280
    1
281
    0
  0
ENDTAB
  0
ENDSEC
  0
SECTION
  2
BLOCKS
  0
BLOCK
  5
20
330
1F
100
AcDbEntity
  8
0
100
AcDbBlockBegin
  2
*Model_Space
 70
    0
 10
0
 20
0
 30
0
  3
*Model_Space
  1

  0
ENDBLK
  5
21
330
1F
100
AcDbEntity
  8
0
100
AcDbBlockEnd
  0
BLOCK
  5
1C
330
1B
100
AcDbEntity
  8
0
100
AcDbBlockBegin
  2
*Paper_Space
 70
    0
 10
0
 20
0
 30
0
  3
*Paper_Space
  1

  0
ENDBLK
  5
1D
330
1F
100
AcDbEntity
  8
0
100
AcDbBlockEnd
  0
BLOCK
  5
51
330
50
100
AcDbEntity
  8
0
100
AcDbBlockBegin
  2
*D14
 70
    1
 10
0
 20
0
  3
*D14
  1

  0
LINE
  5
80
100
AcDbEntity
  8
0
  6
ByBlock
 62
    0
370
   -2
100
AcDbLine
 10
103
 20
-9
 11
103
 21
0
  0
SOLID
  5
81
100
AcDbEntity
  8
0
  6
ByBlock
 62
    0
370
   -2
100
AcDbTrace
 10
103
 20
-9
 30
0
 11
102.5837153422272
 21
-6.5
 31
0
 12
103.4162846577728
 22
-6.5
 32
0
 13
103.4162846577728
 23
-6.5
 33
0
  0
SOLID
  5
82
100
AcDbEntity
  8
0
  6
ByBlock
 62
    0
370
   -2
100
AcDbTrace
 10
103
 20
0
 30
0
 11
103.4162846577728
 21
-2.5
 31
0
 12
102.5837153422272
 22
-2.5
 32
0
 13
102.5837153422272
 23
-2.5
 33
0
  0
MTEXT
  5
83
100
AcDbEntity
  8
0
  6
CONTINUOUS
 62
    0
370
   -2
100
AcDbMText
 10
101.125
 20
-4.5
 30
0
 40
2.5
 41
1.111111111111266
 71
    5
 72
    1
  1
9
  7
standard
210
0
220
0
230
1
 50
90
 73
    2
 44
1
  0
LINE
  5
84
100
AcDbEntity
  8
0
  6
ByBlock
 62
    0
370
   -2
100
AcDbLine
 10
48.625
 20
-9
 11
104.25
 21
-9
  0
LINE
  5
85
100
AcDbEntity
  8
0
  6
ByBlock
 62
    0
370
   -2
100
AcDbLine
 10
48.625
 20
0
 11
104.25
 21
0
  0
ENDBLK
  5
52
330
50
100
AcDbEntity
  8
0
100
AcDbBlockEnd
  0
BLOCK
  5
54
330
53
100
AcDbEntity
  8
0
100
AcDbBlockBegin
  2
*D8
 70
    1
 10
0
 20
0
  3
*D8
  1

  0
LINE
  5
86
100
AcDbEntity
  8
0
  6
ByBlock
 62
    0
370
   -2
100
AcDbLine
 10
98
 20
-70
 11
46
 21
-70
  0
SOLID
  5
87
100
AcDbEntity
  8
0
  6
ByBlock
 62
    0
370
   -2
100
AcDbTrace
 10
98
 20
-70
 30
0
 11
95.5
 21
-70.41628465777283
 31
0
 12
95.5
 22
-69.58371534222717
 32
0
 13
95.5
 23
-69.58371534222717
 33
0
  0
SOLID
  5
88
100
AcDbEntity
  8
0
  6
ByBlock
 62
    0
370
   -2
100
AcDbTrace
 10
46
 20
-70
 30
0
 11
48.5
 21
-69.58371534222717
 31
0
 12
48.5
 22
-70.41628465777283
 32
0
 13
48.5
 23
-70.41628465777283
 33
0
  0
MTEXT
  5
89
100
AcDbEntity
  8
0
  6
CONTINUOUS
 62
    0
370
   -2
100
AcDbMText
 10
72
 20
-68.125
 30
0
 40
2.5
 41
3.055555555555711
 71
    5
 72
    1
  1
52
  7
standard
210
0
220
0
230
1
 50
360
 73
    2
 44
1
  0
LINE
  5
8A
100
AcDbEntity
  8
0
  6
ByBlock
 62
    0
370
   -2
100
AcDbLine
 10
98
 20
-60.625
 11
98
 21
-71.25
  0
LINE
  5
8B
100
AcDbEntity
  8
0
  6
ByBlock
 62
    0
370
   -2
100
AcDbLine
 10
46
 20
-60.625
 11
46
 21
-71.25
  0
ENDBLK
  5
55
330
53
100
AcDbEntity
  8
0
100
AcDbBlockEnd
  0
BLOCK
  5
57
330
56
100
AcDbEntity
  8
0
100
AcDbBlockBegin
  2
*D11
 70
    1
 10
0
 20
0
  3
*D11
  1

  0
LINE
  5
8C
100
AcDbEntity
  8
0
  6
ByBlock
 62
    0
370
   -2
100
AcDbLine
 10
7.5
 20
5
 11
-5
 21
5
  0
SOLID
  5
8D
100
AcDbEntity
  8
0
  6
ByBlock
 62
    0
370
   -2
100
AcDbTrace
 10
2.5
 20
5
 30
0
 11
5
 21
5.41628465777284
 31
0
 12
5
 22
4.583715342227159
 32
0
 13
5
 23
4.583715342227159
 33
0
  0
SOLID
  5
8E
100
AcDbEntity
  8
0
  6
ByBlock
 62
    0
370
   -2
100
AcDbTrace
 10
5.551115123125783e-17
 20
5
 30
0
 11
-2.5
 21
4.583715342227159
 31
0
 12
-2.5
 22
5.416284657772841
 32
0
 13
-2.5
 23
5.416284657772841
 33
0
  0
MTEXT
  5
8F
100
AcDbEntity
  8
0
  6
CONTINUOUS
 62
    0
370
   -2
100
AcDbMText
 10
5.138888888888967
 20
6.874999999999999
 30
0
 40
2.5
 41
4.027777777777933
 71
    5
 72
    1
  1
2,5
  7
standard
210
0
220
0
230
1
 50
360
 73
    2
 44
1
  0
LINE
  5
90
100
AcDbEntity
  8
0
  6
ByBlock
 62
    0
370
   -2
100
AcDbLine
 10
2.5
 20
-1.875
 11
2.5
 21
6.25
  0
LINE
  5
91
100
AcDbEntity
  8
0
  6
ByBlock
 62
    0
370
   -2
100
AcDbLine
 10
9.378136370461261e-17
 20
-1.875
 11
1.320515761779674e-16
 21
6.25
  0
ENDBLK
  5
58
330
56
100
AcDbEntity
  8
0
100
AcDbBlockEnd
  0
BLOCK
  5
5A
330
59
100
AcDbEntity
  8
0
100
AcDbBlockBegin
  2
*D7
 70
    1
 10
0
 20
0
  3
*D7
  1

  0
LINE
  5
92
100
AcDbEntity
  8
0
  6
ByBlock
 62
    0
370
   -2
100
AcDbLine
 10
85
 20
-65
 11
98
 21
-65
  0
SOLID
  5
93
100
AcDbEntity
  8
0
  6
ByBlock
 62
    0
370
   -2
100
AcDbTrace
 10
85
 20
-65
 30
0
 11
87.5
 21
-64.58371534222717
 31
0
 12
87.5
 22
-65.41628465777283
 32
0
 13
87.5
 23
-65.41628465777283
 33
0
  0
SOLID
  5
94
100
AcDbEntity
  8
0
  6
ByBlock
 62
    0
370
   -2
100
AcDbTrace
 10
98
 20
-65
 30
0
 11
95.5
 21
-65.41628465777283
 31
0
 12
95.5
 22
-64.58371534222717
 32
0
 13
95.5
 23
-64.58371534222717
 33
0
  0
MTEXT
  5
95
100
AcDbEntity
  8
0
  6
CONTINUOUS
 62
    0
370
   -2
100
AcDbMText
 10
91.5
 20
-63.125
 30
0
 40
2.5
 41
2.500000000000155
 71
    5
 72
    1
  1
13
  7
standard
210
0
220
0
230
1
 50
0
 73
    2
 44
1
  0
LINE
  5
96
100
AcDbEntity
  8
0
  6
ByBlock
 62
    0
370
   -2
100
AcDbLine
 10
85
 20
-22.625
 11
85
 21
-66.25
  0
LINE
  5
97
100
AcDbEntity
  8
0
  6
ByBlock
 62
    0
370
   -2
100
AcDbLine
 10
98
 20
-22.625
 11
98
 21
-66.25
  0
ENDBLK
  5
5B
330
59
100
AcDbEntity
  8
0
100
AcDbBlockEnd
  0
BLOCK
  5
5D
330
5C
100
AcDbEntity
  8
0
100
AcDbBlockBegin
  2
*D2
 70
    1
 10
0
 20
0
  3
*D2
  1

  0
LINE
  5
98
100
AcDbEntity
  8
0
  6
ByBlock
 62
    0
370
   -2
100
AcDbLine
 10
0
 20
20
 11
98
 21
20
  0
SOLID
  5
99
100
AcDbEntity
  8
0
  6
ByBlock
 62
    0
370
   -2
100
AcDbTrace
 10
0
 20
20
 30
0
 11
2.5
 21
20.41628465777284
 31
0
 12
2.5
 22
19.58371534222716
 32
0
 13
2.5
 23
19.58371534222716
 33
0
  0
SOLID
  5
9A
100
AcDbEntity
  8
0
  6
ByBlock
 62
    0
370
   -2
100
AcDbTrace
 10
98
 20
20
 30
0
 11
95.5
 21
19.58371534222716
 31
0
 12
95.5
 22
20.41628465777284
 32
0
 13
95.5
 23
20.41628465777284
 33
0
  0
MTEXT
  5
9B
100
AcDbEntity
  8
0
  6
CONTINUOUS
 62
    0
370
   -2
100
AcDbMText
 10
49
 20
21.875
 30
0
 40
2.5
 41
3.055555555555711
 71
    5
 72
    1
  1
98
  7
standard
210
0
220
0
230
1
 50
0
 73
    2
 44
1
  0
LINE
  5
9C
100
AcDbEntity
  8
0
  6
ByBlock
 62
    0
370
   -2
100
AcDbLine
 10
3.827021247335479e-17
 20
0.625
 11
7.654042494670958e-17
 21
21.25
  0
LINE
  5
9D
100
AcDbEntity
  8
0
  6
ByBlock
 62
    0
370
   -2
100
AcDbLine
 10
98
 20
0.625
 11
98
 21
21.25
  0
ENDBLK
  5
5E
330
5C
100
AcDbEntity
  8
0
100
AcDbBlockEnd
  0
BLOCK
  5
60
330
5F
100
AcDbEntity
  8
0
100
AcDbBlockBegin
  2
*D9
 70
    1
 10
0
 20
0
  3
*D9
  1

  0
LINE
  5
9E
100
AcDbEntity
  8
0
  6
ByBlock
 62
    0
370
   -2
100
AcDbLine
 10
98
 20
-75
 11
25
 21
-75
  0
SOLID
  5
9F
100
AcDbEntity
  8
0
  6
ByBlock
 62
    0
370
   -2
100
AcDbTrace
 10
98
 20
-75
 30
0
 11
95.5
 21
-75.41628465777283
 31
0
 12
95.5
 22
-74.58371534222717
 32
0
 13
95.5
 23
-74.58371534222717
 33
0
  0
SOLID
  5
A0
100
AcDbEntity
  8
0
  6
ByBlock
 62
    0
370
   -2
100
AcDbTrace
 10
25
 20
-75
 30
0
 11
27.5
 21
-74.58371534222717
 31
0
 12
27.5
 22
-75.41628465777283
 32
0
 13
27.5
 23
-75.41628465777283
 33
0
  0
MTEXT
  5
A1
100
AcDbEntity
  8
0
  6
CONTINUOUS
 62
    0
370
   -2
100
AcDbMText
 10
61.5
 20
-73.125
 30
0
 40
2.5
 41
3.055555555555711
 71
    5
 72
    1
  1
73
  7
standard
210
0
220
0
230
1
 50
360
 73
    2
 44
1
  0
LINE
  5
A2
100
AcDbEntity
  8
0
  6
ByBlock
 62
    0
370
   -2
100
AcDbLine
 10
98
 20
-60.625
 11
98
 21
-76.25
  0
LINE
  5
A3
100
AcDbEntity
  8
0
  6
ByBlock
 62
    0
370
   -2
100
AcDbLine
 10
25
 20
-42.625
 11
25
 21
-76.25
  0
ENDBLK
  5
61
330
5F
100
AcDbEntity
  8
0
100
AcDbBlockEnd
  0
BLOCK
  5
63
330
62
100
AcDbEntity
  8
0
100
AcDbBlockBegin
  2
*D10
 70
    1
 10
0
 20
0
  3
*D10
  1

  0
LINE
  5
A4
100
AcDbEntity
  8
0
  6
ByBlock
 62
    0
370
   -2
100
AcDbLine
 10
79
 20
-26.5
 11
91
 21
-17.5
  0
SOLID
  5
A5
100
AcDbEntity
  8
0
  6
ByBlock
 62
    0
370
   -2
100
AcDbTrace
 10
83
 20
-23.5
 30
0
 11
81.2497707946637
 21
-25.33302772621827
 31
0
 12
80.7502292053363
 22
-24.66697227378173
 32
0
 13
80.7502292053363
 23
-24.66697227378173
 33
0
  0
SOLID
  5
A6
100
AcDbEntity
  8
0
  6
ByBlock
 62
    0
370
   -2
100
AcDbTrace
 10
87
 20
-20.5
 30
0
 11
88.7502292053363
 21
-18.66697227378173
 31
0
 12
89.2497707946637
 22
-19.33302772621827
 32
0
 13
89.2497707946637
 23
-19.33302772621827
 33
0
  0
MTEXT
  5
A7
100
AcDbEntity
  8
0
  6
CONTINUOUS
 62
    0
370
   -2
100
AcDbMText
 10
83.875
 20
-20.5
 30
0
 40
2.5
 41
1.111111111111266
 71
    5
 72
    1
  1
5
  7
standard
210
0
220
0
230
1
 50
36.86989764584401
 73
    2
 44
1
  0
ENDBLK
  5
64
330
62
100
AcDbEntity
  8
0
100
AcDbBlockEnd
  0
BLOCK
  5
66
330
65
100
AcDbEntity
  8
0
100
AcDbBlockBegin
  2
*D5
 70
    1
 10
0
 20
0
  3
*D5
  1

  0
LINE
  5
A8
100
AcDbEntity
  8
0
  6
ByBlock
 62
    0
370
   -2
100
AcDbLine
 10
-15
 20
-42.00000000000001
 11
-15
 21
1.921351966416296e-15
  0
SOLID
  5
A9
100
AcDbEntity
  8
0
  6
ByBlock
 62
    0
370
   -2
100
AcDbTrace
 10
-15
 20
-42.00000000000001
 30
0
 11
-15.41628465777284
 21
-39.50000000000001
 31
0
 12
-14.58371534222716
 22
-39.50000000000001
 32
0
 13
-14.58371534222716
 23
-39.50000000000001
 33
0
  0
SOLID
  5
AA
100
AcDbEntity
  8
0
  6
ByBlock
 62
    0
370
   -2
100
AcDbTrace
 10
-15
 20
1.921351966416296e-15
 30
0
 11
-14.58371534222716
 21
-2.499999999999998
 31
0
 12
-15.41628465777284
 22
-2.499999999999998
 32
0
 13
-15.41628465777284
 23
-2.499999999999998
 33
0
  0
MTEXT
  5
AB
100
AcDbEntity
  8
0
  6
CONTINUOUS
 62
    0
370
   -2
100
AcDbMText
 10
-16.875
 20
-21
 30
0
 40
2.5
 41
3.333333333333333
 71
    5
 72
    1
  1
42
  7
standard
210
0
220
0
230
1
 50
90
 73
    2
 44
1
  0
LINE
  5
AC
100
AcDbEntity
  8
0
  6
ByBlock
 62
    0
370
   -2
100
AcDbLine
 10
24.075
 20
-42
 11
-16.25
 21
-42.00000000000001
  0
LINE
  5
AD
100
AcDbEntity
  8
0
  6
ByBlock
 62
    0
370
   -2
100
AcDbLine
 10
24.075
 20
-1.177486043626928e-16
 11
-16.25
 21
2.074432816309715e-15
  0
ENDBLK
  5
67
330
65
100
AcDbEntity
  8
0
100
AcDbBlockEnd
  0
BLOCK
  5
69
330
68
100
AcDbEntity
  8
0
100
AcDbBlockBegin
  2
*D16
 70
    1
 10
0
 20
0
  3
*D16
  1

  0
LINE
  5
AE
100
AcDbEntity
  8
0
  6
ByBlock
 62
    0
370
   -2
100
AcDbLine
 10
112
 20
0
 11
112
 21
-60
  0
SOLID
  5
AF
100
AcDbEntity
  8
0
  6
ByBlock
 62
    0
370
   -2
100
AcDbTrace
 10
112
 20
0
 30
0
 11
112.4162846577728
 21
-2.5
 31
0
 12
111.5837153422272
 22
-2.5
 32
0
 13
111.5837153422272
 23
-2.5
 33
0
  0
SOLID
  5
B0
100
AcDbEntity
  8
0
  6
ByBlock
 62
    0
370
   -2
100
AcDbTrace
 10
112
 20
-60
 30
0
 11
111.5837153422272
 21
-57.5
 31
0
 12
112.4162846577728
 22
-57.5
 32
0
 13
112.4162846577728
 23
-57.5
 33
0
  0
MTEXT
  5
B1
100
AcDbEntity
  8
0
  6
CONTINUOUS
 62
    0
370
   -2
100
AcDbMText
 10
110.125
 20
-30
 30
0
 40
2.5
 41
3.055555555555711
 71
    5
 72
    1
  1
60
  7
standard
210
0
220
0
230
1
 50
90
 73
    2
 44
1
  0
LINE
  5
B2
100
AcDbEntity
  8
0
  6
ByBlock
 62
    0
370
   -2
100
AcDbLine
 10
98.625
 20
0
 11
113.25
 21
0
  0
LINE
  5
B3
100
AcDbEntity
  8
0
  6
ByBlock
 62
    0
370
   -2
100
AcDbLine
 10
98.625
 20
-60
 11
113.25
 21
-60
  0
ENDBLK
  5
6A
330
68
100
AcDbEntity
  8
0
100
AcDbBlockEnd
  0
BLOCK
  5
6C
330
6B
100
AcDbEntity
  8
0
100
AcDbBlockBegin
  2
*D1
 70
    1
 10
0
 20
0
  3
*D1
  1

  0
LINE
  5
B4
100
AcDbEntity
  8
0
  6
ByBlock
 62
    0
370
   -2
100
AcDbLine
 10
0
 20
15
 11
48
 21
15
  0
SOLID
  5
B5
100
AcDbEntity
  8
0
  6
ByBlock
 62
    0
370
   -2
100
AcDbTrace
 10
0
 20
15
 30
0
 11
2.5
 21
15.41628465777284
 31
0
 12
2.5
 22
14.58371534222716
 32
0
 13
2.5
 23
14.58371534222716
 33
0
  0
SOLID
  5
B6
100
AcDbEntity
  8
0
  6
ByBlock
 62
    0
370
   -2
100
AcDbTrace
 10
48
 20
15
 30
0
 11
45.5
 21
14.58371534222716
 31
0
 12
45.5
 22
15.41628465777284
 32
0
 13
45.5
 23
15.41628465777284
 33
0
  0
MTEXT
  5
B7
100
AcDbEntity
  8
0
  6
CONTINUOUS
 62
    0
370
   -2
100
AcDbMText
 10
24
 20
16.875
 30
0
 40
2.5
 41
3.333333333333333
 71
    5
 72
    1
  1
48
  7
standard
210
0
220
0
230
1
 50
0
 73
    2
 44
1
  0
LINE
  5
B8
100
AcDbEntity
  8
0
  6
ByBlock
 62
    0
370
   -2
100
AcDbLine
 10
3.827021247335479e-17
 20
0.625
 11
7.654042494670958e-17
 21
16.25
  0
LINE
  5
B9
100
AcDbEntity
  8
0
  6
ByBlock
 62
    0
370
   -2
100
AcDbLine
 10
48
 20
0.625
 11
48
 21
16.25
  0
ENDBLK
  5
6D
330
6B
100
AcDbEntity
  8
0
100
AcDbBlockEnd
  0
BLOCK
  5
6F
330
6E
100
AcDbEntity
  8
0
100
AcDbBlockBegin
  2
*D3
 70
    1
 10
0
 20
0
  3
*D3
  1

  0
LINE
  5
BA
100
AcDbEntity
  8
0
  6
ByBlock
 62
    0
370
   -2
100
AcDbLine
 10
0
 20
10
 11
37
 21
10
  0
SOLID
  5
BB
100
AcDbEntity
  8
0
  6
ByBlock
 62
    0
370
   -2
100
AcDbTrace
 10
0
 20
10
 30
0
 11
2.5
 21
10.41628465777284
 31
0
 12
2.5
 22
9.583715342227158
 32
0
 13
2.5
 23
9.583715342227158
 33
0
  0
SOLID
  5
BC
100
AcDbEntity
  8
0
  6
ByBlock
 62
    0
370
   -2
100
AcDbTrace
 10
37
 20
10
 30
0
 11
34.5
 21
9.58371534222716
 31
0
 12
34.5
 22
10.41628465777284
 32
0
 13
34.5
 23
10.41628465777284
 33
0
  0
MTEXT
  5
BD
100
AcDbEntity
  8
0
  6
CONTINUOUS
 62
    0
370
   -2
100
AcDbMText
 10
18.5
 20
11.875
 30
0
 40
2.5
 41
3.055555555555711
 71
    5
 72
    1
  1
37
  7
standard
210
0
220
0
230
1
 50
0
 73
    2
 44
1
  0
LINE
  5
BE
100
AcDbEntity
  8
0
  6
ByBlock
 62
    0
370
   -2
100
AcDbLine
 10
-1.005076656047898e-16
 20
0.625
 11
7.654042494670958e-17
 21
11.25
  0
LINE
  5
BF
100
AcDbEntity
  8
0
  6
ByBlock
 62
    0
370
   -2
100
AcDbLine
 10
37
 20
0.625
 11
37
 21
11.25
  0
ENDBLK
  5
70
330
6E
100
AcDbEntity
  8
0
100
AcDbBlockEnd
  0
BLOCK
  5
72
330
71
100
AcDbEntity
  8
0
100
AcDbBlockBegin
  2
*D12
 70
    1
 10
0
 20
0
  3
*D12
  1

  0
LINE
  5
C0
100
AcDbEntity
  8
0
  6
ByBlock
 62
    0
370
   -2
100
AcDbLine
 10
-5
 20
5
 11
-5
 21
-7.5
  0
SOLID
  5
C1
100
AcDbEntity
  8
0
  6
ByBlock
 62
    0
370
   -2
100
AcDbTrace
 10
-5
 20
4.440892098500626e-16
 30
0
 11
-5.41628465777284
 21
2.5
 31
0
 12
-4.583715342227159
 22
2.5
 32
0
 13
-4.583715342227159
 23
2.5
 33
0
  0
SOLID
  5
C2
100
AcDbEntity
  8
0
  6
ByBlock
 62
    0
370
   -2
100
AcDbTrace
 10
-5
 20
-2.5
 30
0
 11
-4.583715342227159
 21
-5
 31
0
 12
-5.416284657772841
 22
-5
 32
0
 13
-5.416284657772841
 23
-5
 33
0
  0
MTEXT
  5
C3
100
AcDbEntity
  8
0
  6
CONTINUOUS
 62
    0
370
   -2
100
AcDbMText
 10
-6.875
 20
2.638888888888967
 30
0
 40
2.5
 41
4.027777777777933
 71
    5
 72
    1
  1
2,5
  7
standard
210
0
220
0
230
1
 50
90
 73
    2
 44
1
  0
LINE
  5
C4
100
AcDbEntity
  8
0
  6
ByBlock
 62
    0
370
   -2
100
AcDbLine
 10
1.875
 20
7.654042494670958e-17
 11
-6.25
 21
5.971700597434817e-16
  0
LINE
  5
C5
100
AcDbEntity
  8
0
  6
ByBlock
 62
    0
370
   -2
100
AcDbLine
 10
1.875
 20
-2.5
 11
-6.25
 21
-2.5
  0
ENDBLK
  5
73
330
71
100
AcDbEntity
  8
0
100
AcDbBlockEnd
  0
BLOCK
  5
75
330
74
100
AcDbEntity
  8
0
100
AcDbBlockBegin
  2
*D4
 70
    1
 10
0
 20
0
  3
*D4
  1

  0
LINE
  5
C6
100
AcDbEntity
  8
0
  6
ByBlock
 62
    0
370
   -2
100
AcDbLine
 10
-10
 20
8.881784197001252e-16
 11
-10
 21
-6.999999999999999
  0
SOLID
  5
C7
100
AcDbEntity
  8
0
  6
ByBlock
 62
    0
370
   -2
100
AcDbTrace
 10
-10
 20
8.881784197001252e-16
 30
0
 11
-9.58371534222716
 21
-2.499999999999999
 31
0
 12
-10.41628465777284
 22
-2.499999999999999
 32
0
 13
-10.41628465777284
 23
-2.499999999999999
 33
0
  0
SOLID
  5
C8
100
AcDbEntity
  8
0
  6
ByBlock
 62
    0
370
   -2
100
AcDbTrace
 10
-10
 20
-6.999999999999999
 30
0
 11
-10.41628465777284
 21
-4.499999999999999
 31
0
 12
-9.583715342227158
 22
-4.499999999999999
 32
0
 13
-9.583715342227158
 23
-4.499999999999999
 33
0
  0
MTEXT
  5
C9
100
AcDbEntity
  8
0
  6
CONTINUOUS
 62
    0
370
   -2
100
AcDbMText
 10
-11.875
 20
-3.499999999999999
 30
0
 40
2.5
 41
1.111111111111111
 71
    5
 72
    1
  1
7
  7
standard
210
0
220
0
230
1
 50
90
 73
    2
 44
1
  0
LINE
  5
CA
100
AcDbEntity
  8
0
  6
ByBlock
 62
    0
370
   -2
100
AcDbLine
 10
-0.625
 20
7.654042494670958e-17
 11
-11.25
 21
1.041259269593544e-15
  0
LINE
  5
CB
100
AcDbEntity
  8
0
  6
ByBlock
 62
    0
370
   -2
100
AcDbLine
 10
-0.625
 20
-7
 11
-11.25
 21
-6.999999999999999
  0
ENDBLK
  5
76
330
74
100
AcDbEntity
  8
0
100
AcDbBlockEnd
  0
BLOCK
  5
78
330
77
100
AcDbEntity
  8
0
100
AcDbBlockBegin
  2
*D13
 70
    1
 10
0
 20
0
  3
*D13
  1

  0
LINE
  5
CC
100
AcDbEntity
  8
0
  6
ByBlock
 62
    0
370
   -2
100
AcDbLine
 10
29.7729707730092
 20
-37.2270292269908
 11
20.2270292269908
 21
-46.7729707730092
  0
SOLID
  5
CD
100
AcDbEntity
  8
0
  6
ByBlock
 62
    0
370
   -2
100
AcDbTrace
 10
26.23743686707646
 20
-40.76256313292354
 30
0
 11
27.71084611562774
 21
-38.70043847554207
 31
0
 12
28.29956152445793
 22
-39.28915388437227
 32
0
 13
28.29956152445793
 23
-39.28915388437227
 33
0
  0
SOLID
  5
CE
100
AcDbEntity
  8
0
  6
ByBlock
 62
    0
370
   -2
100
AcDbTrace
 10
23.76256313292354
 20
-43.23743686707646
 30
0
 11
22.28915388437227
 21
-45.29956152445793
 31
0
 12
21.70043847554207
 22
-44.71084611562773
 32
0
 13
21.70043847554207
 23
-44.71084611562773
 33
0
  0
MTEXT
  5
CF
100
AcDbEntity
  8
0
  6
CONTINUOUS
 62
    0
370
   -2
100
AcDbMText
 10
26.77758788048296
 20
-37.57076169006749
 30
0
 40
2.5
 41
4.027777777778088
 71
    5
 72
    1
  1
3,5
  7
standard
210
0
220
0
230
1
 50
45
 73
    2
 44
1
  0
ENDBLK
  5
79
330
77
100
AcDbEntity
  8
0
100
AcDbBlockEnd
  0
BLOCK
  5
7B
330
7A
100
AcDbEntity
  8
0
100
AcDbBlockBegin
  2
*D15
 70
    1
 10
0
 20
0
  3
*D15
  1

  0
LINE
  5
D0
100
AcDbEntity
  8
0
  6
ByBlock
 62
    0
370
   -2
100
AcDbLine
 10
108
 20
0
 11
108
 21
-22
  0
SOLID
  5
D1
100
AcDbEntity
  8
0
  6
ByBlock
 62
    0
370
   -2
100
AcDbTrace
 10
108
 20
0
 30
0
 11
108.4162846577728
 21
-2.5
 31
0
 12
107.5837153422272
 22
-2.5
 32
0
 13
107.5837153422272
 23
-2.5
 33
0
  0
SOLID
  5
D2
100
AcDbEntity
  8
0
  6
ByBlock
 62
    0
370
   -2
100
AcDbTrace
 10
108
 20
-22
 30
0
 11
107.5837153422272
 21
-19.5
 31
0
 12
108.4162846577728
 22
-19.5
 32
0
 13
108.4162846577728
 23
-19.5
 33
0
  0
MTEXT
  5
D3
100
AcDbEntity
  8
0
  6
CONTINUOUS
 62
    0
370
   -2
100
AcDbMText
 10
106.125
 20
-11
 30
0
 40
2.5
 41
3.055555555555556
 71
    5
 72
    1
  1
22
  7
standard
210
0
220
0
230
1
 50
90
 73
    2
 44
1
  0
LINE
  5
D4
100
AcDbEntity
  8
0
  6
ByBlock
 62
    0
370
   -2
100
AcDbLine
 10
98.625
 20
0
 11
109.25
 21
0
  0
LINE
  5
D5
100
AcDbEntity
  8
0
  6
ByBlock
 62
    0
370
   -2
100
AcDbLine
 10
85.625
 20
-22
 11
109.25
 21
-22
  0
ENDBLK
  5
7C
330
7A
100
AcDbEntity
  8
0
100
AcDbBlockEnd
  0
BLOCK
  5
7E
330
7D
100
AcDbEntity
  8
0
100
AcDbBlockBegin
  2
*D6
 70
    1
 10
0
 20
0
  3
*D6
  1

  0
LINE
  5
D6
100
AcDbEntity
  8
0
  6
ByBlock
 62
    0
370
   -2
100
AcDbLine
 10
-20
 20
-51
 11
-20
 21
2.060573933704291e-15
  0
SOLID
  5
D7
100
AcDbEntity
  8
0
  6
ByBlock
 62
    0
370
   -2
100
AcDbTrace
 10
-20
 20
-51
 30
0
 11
-20.41628465777285
 21
-48.5
 31
0
 12
-19.58371534222716
 22
-48.5
 32
0
 13
-19.58371534222716
 23
-48.5
 33
0
  0
SOLID
  5
D8
100
AcDbEntity
  8
0
  6
ByBlock
 62
    0
370
   -2
100
AcDbTrace
 10
-20
 20
2.060573933704291e-15
 30
0
 11
-19.58371534222716
 21
-2.499999999999998
 31
0
 12
-20.41628465777284
 22
-2.499999999999998
 32
0
 13
-20.41628465777284
 23
-2.499999999999998
 33
0
  0
MTEXT
  5
D9
100
AcDbEntity
  8
0
  6
CONTINUOUS
 62
    0
370
   -2
100
AcDbMText
 10
-21.875
 20
-25.5
 30
0
 40
2.5
 41
2.500000000000155
 71
    5
 72
    1
  1
51
  7
standard
210
0
220
0
230
1
 50
90
 73
    2
 44
1
  0
LINE
  5
DA
100
AcDbEntity
  8
0
  6
ByBlock
 62
    0
370
   -2
100
AcDbLine
 10
8.375
 20
-51
 11
-21.25
 21
-51
  0
LINE
  5
DB
100
AcDbEntity
  8
0
  6
ByBlock
 62
    0
370
   -2
100
AcDbLine
 10
8.375
 20
7.654042494670958e-17
 11
-21.25
 21
2.21365478359771e-15
  0
ENDBLK
  5
7F
330
7D
100
AcDbEntity
  8
0
100
AcDbBlockEnd
  0
ENDSEC
  0
SECTION
  2
ENTITIES
  0
LINE
  5
DC
100
AcDbEntity
  8
edge
  6
ByLayer
 62
  256
370
   -1
100
AcDbLine
 10
64.0354
 20
61.9603
 11
64.04209999999999
 21
61.9659
  0
DIMENSION
  5
DD
100
AcDbEntity
  8
0
  6
ByLayer
 62
  256
370
   -1
100
AcDbDimension
  2
*D1
 10
48
 20
15
 30
0
 11
24
 21
16.875
 31
0
 70
   32
 71
    5
 72
    0
  3
Standard
 53
0
210
0
220
0
230
1
100
AcDbAlignedDimension
 13
0
 23
0
 33
0
 14
48
 24
0
 34
0
100
AcDbRotatedDimension
  0
DIMENSION
  5
DE
100
AcDbEntity
  8
0
  6
ByLayer
 62
  256
370
   -1
100
AcDbDimension
  2
*D2
 10
98
 20
20
 30
0
 11
49
 21
21.875
 31
0
 70
   32
 71
    5
 72
    0
  3
Standard
 53
0
210
0
220
0
230
1
100
AcDbAlignedDimension
 13
0
 23
0
 33
0
 14
98
 24
0
 34
0
100
AcDbRotatedDimension
  0
DIMENSION
  5
DF
100
AcDbEntity
  8
0
  6
ByLayer
 62
  256
370
   -1
100
AcDbDimension
  2
*D3
 10
37.6
 20
10
 30
0
 11
18.5
 21
11.875
 31
0
 70
   32
 71
    5
 72
    0
  3
Standard
 53
0
210
0
220
0
230
1
100
AcDbAlignedDimension
 13
-1.387778780781446e-16
 23
5.551115123125783e-17
 33
0
 14
37
 24
0
 34
0
100
AcDbRotatedDimension
  0
CIRCLE
  5
E0
100
AcDbEntity
  8
edge
  6
ByLayer
 62
  256
370
   -1
100
AcDbCircle
 10
2.5
 20
-2.5
 40
1.75
  0
DIMENSION
  5
E1
100
AcDbEntity
  8
0
  6
ByLayer
 62
  256
370
   -1
100
AcDbDimension
  2
*D4
 10
-10
 20
-6.999999999999999
 30
0
 11
-11.875
 21
-3.499999999999999
 31
0
 70
   32
 71
    5
 72
    0
  3
Standard
 53
0
210
0
220
0
230
1
100
AcDbAlignedDimension
 13
0
 23
0
 33
0
 14
0
 24
-7
 34
0
 50
90
100
AcDbRotatedDimension
  0
DIMENSION
  5
E2
100
AcDbEntity
  8
0
  6
ByLayer
 62
  256
370
   -1
100
AcDbDimension
  2
*D5
 10
-15
 20
4.66755876330559e-15
 30
0
 11
-16.875
 21
-21
 31
0
 70
   32
 71
    5
 72
    0
  3
Standard
 53
0
210
0
220
0
230
1
100
AcDbAlignedDimension
 13
24.7
 23
-42
 33
0
 14
24.7
 24
-1.942890293094024e-16
 34
0
 50
90
100
AcDbRotatedDimension
  0
CIRCLE
  5
E3
100
AcDbEntity
  8
edge
  6
ByLayer
 62
  256
370
   -1
100
AcDbCircle
 10
25
 20
-42
 40
1.75
  0
LINE
  5
E4
100
AcDbEntity
  8
edge
  6
ByLayer
 62
  256
370
   -1
100
AcDbLine
 10
37
 20
-9
 11
48
 21
-9
  0
LINE
  5
E5
100
AcDbEntity
  8
edge
  6
ByLayer
 62
  256
370
   -1
100
AcDbLine
 10
37
 20
0
 11
37
 21
-9
  0
LINE
  5
E6
100
AcDbEntity
  8
edge
  6
ByLayer
 62
  256
370
   -1
100
AcDbLine
 10
48
 20
-9
 11
48
 21
0
  0
LINE
  5
E7
100
AcDbEntity
  8
edge
  6
ByLayer
 62
  256
370
   -1
100
AcDbLine
 10
48
 20
-2.775557561562891e-17
 11
98.00000000000001
 21
-1.110223024625157e-16
  0
LINE
  5
E8
100
AcDbEntity
  8
edge
  6
ByLayer
 62
  256
370
   -1
100
AcDbLine
 10
98.00000000000001
 20
0
 11
98
 21
-60
  0
LINE
  5
E9
100
AcDbEntity
  8
edge
  6
ByLayer
 62
  256
370
   -1
100
AcDbLine
 10
98
 20
-60
 11
46
 21
-60
  0
LINE
  5
EA
100
AcDbEntity
  8
edge
  6
ByLayer
 62
  256
370
   -1
100
AcDbLine
 10
46
 20
-60
 11
46
 21
-51
  0
LINE
  5
EB
100
AcDbEntity
  8
edge
  6
ByLayer
 62
  256
370
   -1
100
AcDbLine
 10
9
 20
-51
 11
9
 21
-7
  0
LINE
  5
EC
100
AcDbEntity
  8
edge
  6
ByLayer
 62
  256
370
   -1
100
AcDbLine
 10
46
 20
-51
 11
9
 21
-51
  0
LINE
  5
ED
100
AcDbEntity
  8
edge
  6
ByLayer
 62
  256
370
   -1
100
AcDbLine
 10
9
 20
-7
 11
-1.110223024625157e-16
 21
-7
  0
LINE
  5
EE
100
AcDbEntity
  8
edge
  6
ByLayer
 62
  256
370
   -1
100
AcDbLine
 10
1
 20
0
 11
37
 21
-2.775557561562891e-17
  0
LINE
  5
EF
100
AcDbEntity
  8
edge
  6
ByLayer
 62
  256
370
   -1
100
AcDbLine
 10
9
 20
-7
 11
-1.110223024625157e-16
 21
-7
  0
LINE
  5
F0
100
AcDbEntity
  8
edge
  6
ByLayer
 62
  256
370
   -1
100
AcDbLine
 10
-8.326672684688674e-17
 20
-7
 11
0
 21
0
  0
LINE
  5
F1
100
AcDbEntity
  8
edge
  6
ByLayer
 62
  256
370
   -1
100
AcDbLine
 10
0
 20
0
 11
37
 21
-2.775557561562891e-17
  0
DIMENSION
  5
F2
100
AcDbEntity
  8
0
  6
CONTINUOUS
 62
  256
370
   -1
100
AcDbDimension
  2
*D6
 10
-20
 20
3.551475717527324e-15
 30
0
 11
-21.875
 21
-25.5
 31
0
 70
   32
 71
    5
 72
    0
  3
Standard
 53
0
210
0
220
0
230
1
100
AcDbAlignedDimension
 13
9
 23
-51
 33
0
 14
9
 24
0
 34
0
 50
90
100
AcDbRotatedDimension
  0
DIMENSION
  5
F3
100
AcDbEntity
  8
0
  6
CONTINUOUS
 62
  256
370
   -1
100
AcDbDimension
  2
*D7
 10
98
 20
-65
 30
0
 11
91.5
 21
-63.125
 31
0
 70
   32
 71
    5
 72
    0
  3
Standard
 53
0
210
0
220
0
230
1
100
AcDbAlignedDimension
 13
85
 23
-22
 33
0
 14
98
 24
-22
 34
0
100
AcDbRotatedDimension
  0
DIMENSION
  5
F4
100
AcDbEntity
  8
0
  6
CONTINUOUS
 62
  256
370
   -1
100
AcDbDimension
  2
*D8
 10
46
 20
-70
 30
0
 11
72
 21
-68.125
 31
0
 70
   32
 71
    5
 72
    0
  3
Standard
 53
0
210
0
220
0
230
1
100
AcDbAlignedDimension
 13
98
 23
-60
 33
0
 14
46
 24
-60
 34
0
100
AcDbRotatedDimension
  0
DIMENSION
  5
F5
100
AcDbEntity
  8
0
  6
CONTINUOUS
 62
  256
370
   -1
100
AcDbDimension
  2
*D9
 10
25
 20
-75
 30
0
 11
61.5
 21
-73.125
 31
0
 70
   32
 71
    5
 72
    0
  3
Standard
 53
0
210
0
220
0
230
1
100
AcDbAlignedDimension
 13
98
 23
-60
 33
0
 14
25
 24
-42
 34
0
100
AcDbRotatedDimension
  0
CIRCLE
  5
F6
100
AcDbEntity
  8
edge
  6
CONTINUOUS
 62
  256
370
   -1
100
AcDbCircle
 10
95.5
 20
-57.5
 40
1.75
  0
CIRCLE
  5
F7
100
AcDbEntity
  8
edge
  6
CONTINUOUS
 62
  256
370
   -1
100
AcDbCircle
 10
85
 20
-22
 40
2.5
  0
CIRCLE
  5
F8
100
AcDbEntity
  8
edge
  6
CONTINUOUS
 62
  256
370
   -1
100
AcDbCircle
 10
95.50000000000001
 20
-2.5
 40
1.75
  0
DIMENSION
  5
F9
100
AcDbEntity
  8
0
  6
CONTINUOUS
 62
  256
370
   -1
100
AcDbDimension
  2
*D10
 10
83
 20
-23.5
 30
0
 11
83.875
 21
-20.5
 31
0
 70
   35
 71
    5
 72
    0
  3
Standard
 53
0
210
0
220
0
230
1
100
AcDbDiametricDimension
 15
87
 25
-20.5
 35
0
 40
0
  0
DIMENSION
  5
FA
100
AcDbEntity
  8
0
  6
ByLayer
 62
  256
370
   -1
100
AcDbDimension
  2
*D11
 10
5.147537009115152e-16
 20
5
 30
0
 11
1.25
 21
6.875
 31
0
 70
   32
 71
    5
 72
    0
  3
Standard
 53
0
210
0
220
0
230
1
100
AcDbAlignedDimension
 13
2.5
 23
-2.5
 33
0
 14
5.551115123125783e-17
 24
-2.5
 34
0
100
AcDbRotatedDimension
  0
DIMENSION
  5
FB
100
AcDbEntity
  8
0
  6
ByLayer
 62
  256
370
   -1
100
AcDbDimension
  2
*D12
 10
-5
 20
-2.499999999999999
 30
0
 11
-6.875
 21
-1.25
 31
0
 70
   32
 71
    5
 72
    0
  3
Standard
 53
0
210
0
220
0
230
1
100
AcDbAlignedDimension
 13
2.5
 23
0
 33
0
 14
2.5
 24
-2.5
 34
0
 50
90
100
AcDbRotatedDimension
  0
DIMENSION
  5
FC
100
AcDbEntity
  8
0
  6
CONTINUOUS
 62
  256
370
   -1
100
AcDbDimension
  2
*D13
 10
26.23743686707646
 20
-40.76256313292354
 30
0
 11
23.67417478527522
 21
-40.67417478527523
 31
0
 70
   35
 71
    5
 72
    0
  3
Standard
 53
0
210
0
220
0
230
1
100
AcDbDiametricDimension
 15
23.76256313292354
 25
-43.23743686707646
 35
0
 40
0
  0
DIMENSION
  5
FD
100
AcDbEntity
  8
0
  6
ByLayer
 62
  256
370
   -1
100
AcDbDimension
  2
*D14
 10
103
 20
-12
 30
0
 11
101.125
 21
-4.5
 31
0
 70
   32
 71
    5
 72
    0
  3
Standard
 53
0
210
0
220
0
230
1
100
AcDbAlignedDimension
 13
48
 23
-9
 33
0
 14
48
 24
0
 34
0
 50
90
100
AcDbRotatedDimension
  0
DIMENSION
  5
FE
100
AcDbEntity
  8
0
  6
CONTINUOUS
 62
  256
370
   -1
100
AcDbDimension
  2
*D15
 10
108
 20
-22
 30
0
 11
106.125
 21
-11
 31
0
 70
   32
 71
    5
 72
    0
  3
Standard
 53
0
210
0
220
0
230
1
100
AcDbAlignedDimension
 13
98
 23
0
 33
0
 14
85
 24
-22
 34
0
 50
90
100
AcDbRotatedDimension
  0
DIMENSION
  5
FF
100
AcDbEntity
  8
0
  6
CONTINUOUS
 62
  256
370
   -1
100
AcDbDimension
  2
*D16
 10
112
 20
-60
 30
0
 11
110.125
 21
-30
 31
0
 70
   32
 71
    5
 72
    0
  3
Standard
 53
0
210
0
220
0
230
1
100
AcDbAlignedDimension
 13
98
 23
0
 33
0
 14
98
 24
-60
 34
0
 50
90
100
AcDbRotatedDimension
  0
LINE
  5
100
100
AcDbEntity
  8
frame
  6
ByLayer
 62
  256
370
   -1
100
AcDbLine
 10
77.01300000000001
 20
-96.01400000000001
 11
77.01300000000001
 21
-128.018
  0
LINE
  5
101
100
AcDbEntity
  8
frame
  6
ByLayer
 62
  256
370
   -1
100
AcDbLine
 10
77.01300000000001
 20
-128.018
 11
185.013
 21
-128.018
  0
LINE
  5
102
100
AcDbEntity
  8
frame
  6
ByLayer
 62
  256
370
   -1
100
AcDbLine
 10
185.013
 20
-128.018
 11
185.013
 21
-96.01400000000001
  0
LINE
  5
103
100
AcDbEntity
  8
frame
  6
ByLayer
 62
  256
370
   -1
100
AcDbLine
 10
185.013
 20
-96.01400000000001
 11
77.01300000000001
 21
-96.01400000000001
  0
LINE
  5
104
100
AcDbEntity
  8
frame
  6
ByLayer
 62
  256
370
   -1
100
AcDbLine
 10
-89.9924
 20
59.9924
 11
-89.9924
 21
-130
  0
LINE
  5
105
100
AcDbEntity
  8
frame
  6
ByLayer
 62
  256
370
   -1
100
AcDbLine
 10
-89.9924
 20
-130
 11
186.995
 21
-130
  0
LINE
  5
106
100
AcDbEntity
  8
frame
  6
ByLayer
 62
  256
370
   -1
100
AcDbLine
 10
186.995
 20
-130
 11
186.995
 21
59.9924
  0
LINE
  5
107
100
AcDbEntity
  8
frame
  6
ByLayer
 62
  256
370
   -1
100
AcDbLine
 10
186.995
 20
59.9924
 11
-89.9924
 21
59.9924
  0
LINE
  5
108
100
AcDbEntity
  8
frame
  6
ByLayer
 62
  256
370
   -1
100
AcDbLine
 10
-88.0112
 20
58.0112
 11
-88.0112
 21
-128.018
  0
LINE
  5
109
100
AcDbEntity
  8
frame
  6
ByLayer
 62
  256
370
   -1
100
AcDbLine
 10
-88.0112
 20
-128.018
 11
185.013
 21
-128.018
  0
LINE
  5
10A
100
AcDbEntity
  8
frame
  6
ByLayer
 62
  256
370
   -1
100
AcDbLine
 10
185.013
 20
-128.018
 11
185.013
 21
58.0112
  0
LINE
  5
10B
100
AcDbEntity
  8
frame
  6
ByLayer
 62
  256
370
   -1
100
AcDbLine
 10
185.013
 20
58.0112
 11
-88.0112
 21
58.0112
  0
LINE
  5
10C
100
AcDbEntity
  8
frame
  6
ByLayer
 62
  256
370
   -1
100
AcDbLine
 10
-40.0052
 20
58.0112
 11
-40.0052
 21
59.9924
  0
LINE
  5
10D
100
AcDbEntity
  8
frame
  6
ByLayer
 62
  256
370
   -1
100
AcDbLine
 10
10.00700000000001
 20
58.0112
 11
10.00700000000001
 21
59.9924
  0
LINE
  5
10E
100
AcDbEntity
  8
frame
  6
ByLayer
 62
  256
370
   -1
100
AcDbLine
 10
59.995
 20
58.0112
 11
59.995
 21
59.9924
  0
LINE
  5
10F
100
AcDbEntity
  8
frame
  6
ByLayer
 62
  256
370
   -1
100
AcDbLine
 10
110.007
 20
58.0112
 11
110.007
 21
59.9924
  0
LINE
  5
110
100
AcDbEntity
  8
frame
  6
ByLayer
 62
  256
370
   -1
100
AcDbLine
 10
159.994
 20
58.0112
 11
159.994
 21
59.9924
  0
LINE
  5
111
100
AcDbEntity
  8
frame
  6
ByLayer
 62
  256
370
   -1
100
AcDbLine
 10
-64.0082
 20
58.41759999999999
 11
-64.7448
 21
58.41759999999999
  0
LINE
  5
112
100
AcDbEntity
  8
frame
  6
ByLayer
 62
  256
370
   -1
100
AcDbLine
 10
-64.3892
 20
58.41759999999999
 11
-64.3892
 21
59.71299999999999
  0
LINE
  5
113
100
AcDbEntity
  8
frame
  6
ByLayer
 62
  256
370
   -1
100
AcDbLine
 10
-64.3892
 20
59.71299999999999
 11
-64.5162
 21
59.5352
  0
LINE
  5
114
100
AcDbEntity
  8
frame
  6
ByLayer
 62
  256
370
   -1
100
AcDbLine
 10
-64.5162
 20
59.5352
 11
-64.6178
 21
59.40819999999999
  0
LINE
  5
115
100
AcDbEntity
  8
frame
  6
ByLayer
 62
  256
370
   -1
100
AcDbLine
 10
-64.6178
 20
59.40819999999999
 11
-64.7448
 21
59.3574
  0
LINE
  5
116
100
AcDbEntity
  8
frame
  6
ByLayer
 62
  256
370
   -1
100
AcDbLine
 10
-14.7576
 20
59.6114
 11
-14.7068
 21
59.6622
  0
LINE
  5
117
100
AcDbEntity
  8
frame
  6
ByLayer
 62
  256
370
   -1
100
AcDbLine
 10
-14.7068
 20
59.6622
 11
-14.57980000000001
 21
59.71299999999999
  0
LINE
  5
118
100
AcDbEntity
  8
frame
  6
ByLayer
 62
  256
370
   -1
100
AcDbLine
 10
-14.57980000000001
 20
59.71299999999999
 11
-14.27500000000001
 21
59.71299999999999
  0
LINE
  5
119
100
AcDbEntity
  8
frame
  6
ByLayer
 62
  256
370
   -1
100
AcDbLine
 10
-14.27500000000001
 20
59.71299999999999
 11
-14.148
 21
59.6622
  0
LINE
  5
11A
100
AcDbEntity
  8
frame
  6
ByLayer
 62
  256
370
   -1
100
AcDbLine
 10
-14.148
 20
59.6622
 11
-14.0972
 21
59.6114
  0
LINE
  5
11B
100
AcDbEntity
  8
frame
  6
ByLayer
 62
  256
370
   -1
100
AcDbLine
 10
-14.0972
 20
59.6114
 11
-14.021
 21
59.48439999999999
  0
LINE
  5
11C
100
AcDbEntity
  8
frame
  6
ByLayer
 62
  256
370
   -1
100
AcDbLine
 10
-14.021
 20
59.48439999999999
 11
-14.021
 21
59.3574
  0
LINE
  5
11D
100
AcDbEntity
  8
frame
  6
ByLayer
 62
  256
370
   -1
100
AcDbLine
 10
-14.021
 20
59.3574
 11
-14.0972
 21
59.17959999999999
  0
LINE
  5
11E
100
AcDbEntity
  8
frame
  6
ByLayer
 62
  256
370
   -1
100
AcDbLine
 10
-14.0972
 20
59.17959999999999
 11
-14.8338
 21
58.41759999999999
  0
LINE
  5
11F
100
AcDbEntity
  8
frame
  6
ByLayer
 62
  256
370
   -1
100
AcDbLine
 10
-14.8338
 20
58.41759999999999
 11
-14.021
 21
58.41759999999999
  0
LINE
  5
120
100
AcDbEntity
  8
frame
  6
ByLayer
 62
  256
370
   -1
100
AcDbLine
 10
35.179
 20
59.71299999999999
 11
35.992
 21
59.71299999999999
  0
LINE
  5
121
100
AcDbEntity
  8
frame
  6
ByLayer
 62
  256
370
   -1
100
AcDbLine
 10
35.992
 20
59.71299999999999
 11
35.56
 21
59.2304
  0
LINE
  5
122
100
AcDbEntity
  8
frame
  6
ByLayer
 62
  256
370
   -1
100
AcDbLine
 10
35.56
 20
59.2304
 11
35.738
 21
59.2304
  0
LINE
  5
123
100
AcDbEntity
  8
frame
  6
ByLayer
 62
  256
370
   -1
100
AcDbLine
 10
35.738
 20
59.2304
 11
35.86499999999999
 21
59.17959999999999
  0
LINE
  5
124
100
AcDbEntity
  8
frame
  6
ByLayer
 62
  256
370
   -1
100
AcDbLine
 10
35.86499999999999
 20
59.17959999999999
 11
35.91500000000001
 21
59.10339999999999
  0
LINE
  5
125
100
AcDbEntity
  8
frame
  6
ByLayer
 62
  256
370
   -1
100
AcDbLine
 10
35.91500000000001
 20
59.10339999999999
 11
35.992
 21
58.9764
  0
LINE
  5
126
100
AcDbEntity
  8
frame
  6
ByLayer
 62
  256
370
   -1
100
AcDbLine
 10
35.992
 20
58.9764
 11
35.992
 21
58.6716
  0
LINE
  5
127
100
AcDbEntity
  8
frame
  6
ByLayer
 62
  256
370
   -1
100
AcDbLine
 10
35.992
 20
58.6716
 11
35.91500000000001
 21
58.5446
  0
LINE
  5
128
100
AcDbEntity
  8
frame
  6
ByLayer
 62
  256
370
   -1
100
AcDbLine
 10
35.91500000000001
 20
58.5446
 11
35.86499999999999
 21
58.49379999999999
  0
LINE
  5
129
100
AcDbEntity
  8
frame
  6
ByLayer
 62
  256
370
   -1
100
AcDbLine
 10
35.86499999999999
 20
58.49379999999999
 11
35.738
 21
58.41759999999999
  0
LINE
  5
12A
100
AcDbEntity
  8
frame
  6
ByLayer
 62
  256
370
   -1
100
AcDbLine
 10
35.738
 20
58.41759999999999
 11
35.38200000000001
 21
58.41759999999999
  0
LINE
  5
12B
100
AcDbEntity
  8
frame
  6
ByLayer
 62
  256
370
   -1
100
AcDbLine
 10
35.38200000000001
 20
58.41759999999999
 11
35.255
 21
58.49379999999999
  0
LINE
  5
12C
100
AcDbEntity
  8
frame
  6
ByLayer
 62
  256
370
   -1
100
AcDbLine
 10
35.255
 20
58.49379999999999
 11
35.179
 21
58.5446
  0
LINE
  5
12D
100
AcDbEntity
  8
frame
  6
ByLayer
 62
  256
370
   -1
100
AcDbLine
 10
85.852
 20
59.2812
 11
85.852
 21
58.41759999999999
  0
LINE
  5
12E
100
AcDbEntity
  8
frame
  6
ByLayer
 62
  256
370
   -1
100
AcDbLine
 10
85.547
 20
59.78919999999999
 11
85.24199999999999
 21
58.8494
  0
LINE
  5
12F
100
AcDbEntity
  8
frame
  6
ByLayer
 62
  256
370
   -1
100
AcDbLine
 10
85.24199999999999
 20
58.8494
 11
86.03
 21
58.8494
  0
LINE
  5
130
100
AcDbEntity
  8
frame
  6
ByLayer
 62
  256
370
   -1
100
AcDbLine
 10
135.915
 20
59.71299999999999
 11
135.306
 21
59.71299999999999
  0
LINE
  5
131
100
AcDbEntity
  8
frame
  6
ByLayer
 62
  256
370
   -1
100
AcDbLine
 10
135.306
 20
59.71299999999999
 11
135.255
 21
59.10339999999999
  0
LINE
  5
132
100
AcDbEntity
  8
frame
  6
ByLayer
 62
  256
370
   -1
100
AcDbLine
 10
135.255
 20
59.10339999999999
 11
135.306
 21
59.17959999999999
  0
LINE
  5
133
100
AcDbEntity
  8
frame
  6
ByLayer
 62
  256
370
   -1
100
AcDbLine
 10
135.306
 20
59.17959999999999
 11
135.433
 21
59.2304
  0
LINE
  5
134
100
AcDbEntity
  8
frame
  6
ByLayer
 62
  256
370
   -1
100
AcDbLine
 10
135.433
 20
59.2304
 11
135.737
 21
59.2304
  0
LINE
  5
135
100
AcDbEntity
  8
frame
  6
ByLayer
 62
  256
370
   -1
100
AcDbLine
 10
135.737
 20
59.2304
 11
135.864
 21
59.17959999999999
  0
LINE
  5
136
100
AcDbEntity
  8
frame
  6
ByLayer
 62
  256
370
   -1
100
AcDbLine
 10
135.864
 20
59.17959999999999
 11
135.915
 21
59.10339999999999
  0
LINE
  5
137
100
AcDbEntity
  8
frame
  6
ByLayer
 62
  256
370
   -1
100
AcDbLine
 10
135.915
 20
59.10339999999999
 11
135.991
 21
58.9764
  0
LINE
  5
138
100
AcDbEntity
  8
frame
  6
ByLayer
 62
  256
370
   -1
100
AcDbLine
 10
135.991
 20
58.9764
 11
135.991
 21
58.6716
  0
LINE
  5
139
100
AcDbEntity
  8
frame
  6
ByLayer
 62
  256
370
   -1
100
AcDbLine
 10
135.991
 20
58.6716
 11
135.915
 21
58.5446
  0
LINE
  5
13A
100
AcDbEntity
  8
frame
  6
ByLayer
 62
  256
370
   -1
100
AcDbLine
 10
135.915
 20
58.5446
 11
135.864
 21
58.49379999999999
  0
LINE
  5
13B
100
AcDbEntity
  8
frame
  6
ByLayer
 62
  256
370
   -1
100
AcDbLine
 10
135.864
 20
58.49379999999999
 11
135.737
 21
58.41759999999999
  0
LINE
  5
13C
100
AcDbEntity
  8
frame
  6
ByLayer
 62
  256
370
   -1
100
AcDbLine
 10
135.737
 20
58.41759999999999
 11
135.433
 21
58.41759999999999
  0
LINE
  5
13D
100
AcDbEntity
  8
frame
  6
ByLayer
 62
  256
370
   -1
100
AcDbLine
 10
135.433
 20
58.41759999999999
 11
135.306
 21
58.49379999999999
  0
LINE
  5
13E
100
AcDbEntity
  8
frame
  6
ByLayer
 62
  256
370
   -1
100
AcDbLine
 10
135.306
 20
58.49379999999999
 11
135.255
 21
58.5446
  0
LINE
  5
13F
100
AcDbEntity
  8
frame
  6
ByLayer
 62
  256
370
   -1
100
AcDbLine
 10
185.852
 20
59.71299999999999
 11
185.598
 21
59.71299999999999
  0
LINE
  5
140
100
AcDbEntity
  8
frame
  6
ByLayer
 62
  256
370
   -1
100
AcDbLine
 10
185.598
 20
59.71299999999999
 11
185.471
 21
59.6622
  0
LINE
  5
141
100
AcDbEntity
  8
frame
  6
ByLayer
 62
  256
370
   -1
100
AcDbLine
 10
185.471
 20
59.6622
 11
185.42
 21
59.6114
  0
LINE
  5
142
100
AcDbEntity
  8
frame
  6
ByLayer
 62
  256
370
   -1
100
AcDbLine
 10
185.42
 20
59.6114
 11
185.293
 21
59.40819999999999
  0
LINE
  5
143
100
AcDbEntity
  8
frame
  6
ByLayer
 62
  256
370
   -1
100
AcDbLine
 10
185.293
 20
59.40819999999999
 11
185.242
 21
59.17959999999999
  0
LINE
  5
144
100
AcDbEntity
  8
frame
  6
ByLayer
 62
  256
370
   -1
100
AcDbLine
 10
185.242
 20
59.17959999999999
 11
185.242
 21
58.6716
  0
LINE
  5
145
100
AcDbEntity
  8
frame
  6
ByLayer
 62
  256
370
   -1
100
AcDbLine
 10
185.242
 20
58.6716
 11
185.293
 21
58.5446
  0
LINE
  5
146
100
AcDbEntity
  8
frame
  6
ByLayer
 62
  256
370
   -1
100
AcDbLine
 10
185.293
 20
58.5446
 11
185.369
 21
58.49379999999999
  0
LINE
  5
147
100
AcDbEntity
  8
frame
  6
ByLayer
 62
  256
370
   -1
100
AcDbLine
 10
185.369
 20
58.49379999999999
 11
185.471
 21
58.41759999999999
  0
LINE
  5
148
100
AcDbEntity
  8
frame
  6
ByLayer
 62
  256
370
   -1
100
AcDbLine
 10
185.471
 20
58.41759999999999
 11
185.725
 21
58.41759999999999
  0
LINE
  5
149
100
AcDbEntity
  8
frame
  6
ByLayer
 62
  256
370
   -1
100
AcDbLine
 10
185.725
 20
58.41759999999999
 11
185.852
 21
58.49379999999999
  0
LINE
  5
14A
100
AcDbEntity
  8
frame
  6
ByLayer
 62
  256
370
   -1
100
AcDbLine
 10
185.852
 20
58.49379999999999
 11
185.902
 21
58.5446
  0
LINE
  5
14B
100
AcDbEntity
  8
frame
  6
ByLayer
 62
  256
370
   -1
100
AcDbLine
 10
185.902
 20
58.5446
 11
185.979
 21
58.6716
  0
LINE
  5
14C
100
AcDbEntity
  8
frame
  6
ByLayer
 62
  256
370
   -1
100
AcDbLine
 10
185.979
 20
58.6716
 11
185.979
 21
58.9764
  0
LINE
  5
14D
100
AcDbEntity
  8
frame
  6
ByLayer
 62
  256
370
   -1
100
AcDbLine
 10
185.979
 20
58.9764
 11
185.902
 21
59.10339999999999
  0
LINE
  5
14E
100
AcDbEntity
  8
frame
  6
ByLayer
 62
  256
370
   -1
100
AcDbLine
 10
185.902
 20
59.10339999999999
 11
185.852
 21
59.17959999999999
  0
LINE
  5
14F
100
AcDbEntity
  8
frame
  6
ByLayer
 62
  256
370
   -1
100
AcDbLine
 10
185.852
 20
59.17959999999999
 11
185.725
 21
59.2304
  0
LINE
  5
150
100
AcDbEntity
  8
frame
  6
ByLayer
 62
  256
370
   -1
100
AcDbLine
 10
185.725
 20
59.2304
 11
185.471
 21
59.2304
  0
LINE
  5
151
100
AcDbEntity
  8
frame
  6
ByLayer
 62
  256
370
   -1
100
AcDbLine
 10
185.471
 20
59.2304
 11
185.369
 21
59.17959999999999
  0
LINE
  5
152
100
AcDbEntity
  8
frame
  6
ByLayer
 62
  256
370
   -1
100
AcDbLine
 10
185.369
 20
59.17959999999999
 11
185.293
 21
59.10339999999999
  0
LINE
  5
153
100
AcDbEntity
  8
frame
  6
ByLayer
 62
  256
370
   -1
100
AcDbLine
 10
185.293
 20
59.10339999999999
 11
185.242
 21
58.9764
  0
LINE
  5
154
100
AcDbEntity
  8
frame
  6
ByLayer
 62
  256
370
   -1
100
AcDbLine
 10
-40.0052
 20
-128.018
 11
-40.0052
 21
-130
  0
LINE
  5
155
100
AcDbEntity
  8
frame
  6
ByLayer
 62
  256
370
   -1
100
AcDbLine
 10
10.00700000000001
 20
-128.018
 11
10.00700000000001
 21
-130
  0
LINE
  5
156
100
AcDbEntity
  8
frame
  6
ByLayer
 62
  256
370
   -1
100
AcDbLine
 10
59.995
 20
-128.018
 11
59.995
 21
-130
  0
LINE
  5
157
100
AcDbEntity
  8
frame
  6
ByLayer
 62
  256
370
   -1
100
AcDbLine
 10
110.007
 20
-128.018
 11
110.007
 21
-130
  0
LINE
  5
158
100
AcDbEntity
  8
frame
  6
ByLayer
 62
  256
370
   -1
100
AcDbLine
 10
159.994
 20
-128.018
 11
159.994
 21
-130
  0
LINE
  5
159
100
AcDbEntity
  8
frame
  6
ByLayer
 62
  256
370
   -1
100
AcDbLine
 10
-64.0082
 20
-129.593
 11
-64.7448
 21
-129.593
  0
LINE
  5
15A
100
AcDbEntity
  8
frame
  6
ByLayer
 62
  256
370
   -1
100
AcDbLine
 10
-64.3892
 20
-129.593
 11
-64.3892
 21
-128.298
  0
LINE
  5
15B
100
AcDbEntity
  8
frame
  6
ByLayer
 62
  256
370
   -1
100
AcDbLine
 10
-64.3892
 20
-128.298
 11
-64.5162
 21
-128.476
  0
LINE
  5
15C
100
AcDbEntity
  8
frame
  6
ByLayer
 62
  256
370
   -1
100
AcDbLine
 10
-64.5162
 20
-128.476
 11
-64.6178
 21
-128.603
  0
LINE
  5
15D
100
AcDbEntity
  8
frame
  6
ByLayer
 62
  256
370
   -1
100
AcDbLine
 10
-64.6178
 20
-128.603
 11
-64.7448
 21
-128.653
  0
LINE
  5
15E
100
AcDbEntity
  8
frame
  6
ByLayer
 62
  256
370
   -1
100
AcDbLine
 10
-14.7576
 20
-128.399
 11
-14.7068
 21
-128.349
  0
LINE
  5
15F
100
AcDbEntity
  8
frame
  6
ByLayer
 62
  256
370
   -1
100
AcDbLine
 10
-14.7068
 20
-128.349
 11
-14.57980000000001
 21
-128.298
  0
LINE
  5
160
100
AcDbEntity
  8
frame
  6
ByLayer
 62
  256
370
   -1
100
AcDbLine
 10
-14.57980000000001
 20
-128.298
 11
-14.27500000000001
 21
-128.298
  0
LINE
  5
161
100
AcDbEntity
  8
frame
  6
ByLayer
 62
  256
370
   -1
100
AcDbLine
 10
-14.27500000000001
 20
-128.298
 11
-14.148
 21
-128.349
  0
LINE
  5
162
100
AcDbEntity
  8
frame
  6
ByLayer
 62
  256
370
   -1
100
AcDbLine
 10
-14.148
 20
-128.349
 11
-14.0972
 21
-128.399
  0
LINE
  5
163
100
AcDbEntity
  8
frame
  6
ByLayer
 62
  256
370
   -1
100
AcDbLine
 10
-14.0972
 20
-128.399
 11
-14.021
 21
-128.526
  0
LINE
  5
164
100
AcDbEntity
  8
frame
  6
ByLayer
 62
  256
370
   -1
100
AcDbLine
 10
-14.021
 20
-128.526
 11
-14.021
 21
-128.653
  0
LINE
  5
165
100
AcDbEntity
  8
frame
  6
ByLayer
 62
  256
370
   -1
100
AcDbLine
 10
-14.021
 20
-128.653
 11
-14.0972
 21
-128.831
  0
LINE
  5
166
100
AcDbEntity
  8
frame
  6
ByLayer
 62
  256
370
   -1
100
AcDbLine
 10
-14.0972
 20
-128.831
 11
-14.8338
 21
-129.593
  0
LINE
  5
167
100
AcDbEntity
  8
frame
  6
ByLayer
 62
  256
370
   -1
100
AcDbLine
 10
-14.8338
 20
-129.593
 11
-14.021
 21
-129.593
  0
LINE
  5
168
100
AcDbEntity
  8
frame
  6
ByLayer
 62
  256
370
   -1
100
AcDbLine
 10
35.179
 20
-128.298
 11
35.992
 21
-128.298
  0
LINE
  5
169
100
AcDbEntity
  8
frame
  6
ByLayer
 62
  256
370
   -1
100
AcDbLine
 10
35.992
 20
-128.298
 11
35.56
 21
-128.78
  0
LINE
  5
16A
100
AcDbEntity
  8
frame
  6
ByLayer
 62
  256
370
   -1
100
AcDbLine
 10
35.56
 20
-128.78
 11
35.738
 21
-128.78
  0
LINE
  5
16B
100
AcDbEntity
  8
frame
  6
ByLayer
 62
  256
370
   -1
100
AcDbLine
 10
35.738
 20
-128.78
 11
35.86499999999999
 21
-128.831
  0
LINE
  5
16C
100
AcDbEntity
  8
frame
  6
ByLayer
 62
  256
370
   -1
100
AcDbLine
 10
35.86499999999999
 20
-128.831
 11
35.91500000000001
 21
-128.907
  0
LINE
  5
16D
100
AcDbEntity
  8
frame
  6
ByLayer
 62
  256
370
   -1
100
AcDbLine
 10
35.91500000000001
 20
-128.907
 11
35.992
 21
-129.034
  0
LINE
  5
16E
100
AcDbEntity
  8
frame
  6
ByLayer
 62
  256
370
   -1
100
AcDbLine
 10
35.992
 20
-129.034
 11
35.992
 21
-129.339
  0
LINE
  5
16F
100
AcDbEntity
  8
frame
  6
ByLayer
 62
  256
370
   -1
100
AcDbLine
 10
35.992
 20
-129.339
 11
35.91500000000001
 21
-129.466
  0
LINE
  5
170
100
AcDbEntity
  8
frame
  6
ByLayer
 62
  256
370
   -1
100
AcDbLine
 10
35.91500000000001
 20
-129.466
 11
35.86499999999999
 21
-129.517
  0
LINE
  5
171
100
AcDbEntity
  8
frame
  6
ByLayer
 62
  256
370
   -1
100
AcDbLine
 10
35.86499999999999
 20
-129.517
 11
35.738
 21
-129.593
  0
LINE
  5
172
100
AcDbEntity
  8
frame
  6
ByLayer
 62
  256
370
   -1
100
AcDbLine
 10
35.738
 20
-129.593
 11
35.38200000000001
 21
-129.593
  0
LINE
  5
173
100
AcDbEntity
  8
frame
  6
ByLayer
 62
  256
370
   -1
100
AcDbLine
 10
35.38200000000001
 20
-129.593
 11
35.255
 21
-129.517
  0
LINE
  5
174
100
AcDbEntity
  8
frame
  6
ByLayer
 62
  256
370
   -1
100
AcDbLine
 10
35.255
 20
-129.517
 11
35.179
 21
-129.466
  0
LINE
  5
175
100
AcDbEntity
  8
frame
  6
ByLayer
 62
  256
370
   -1
100
AcDbLine
 10
85.852
 20
-128.73
 11
85.852
 21
-129.593
  0
LINE
  5
176
100
AcDbEntity
  8
frame
  6
ByLayer
 62
  256
370
   -1
100
AcDbLine
 10
85.547
 20
-128.222
 11
85.24199999999999
 21
-129.161
  0
LINE
  5
177
100
AcDbEntity
  8
frame
  6
ByLayer
 62
  256
370
   -1
100
AcDbLine
 10
85.24199999999999
 20
-129.161
 11
86.03
 21
-129.161
  0
LINE
  5
178
100
AcDbEntity
  8
frame
  6
ByLayer
 62
  256
370
   -1
100
AcDbLine
 10
135.915
 20
-128.298
 11
135.306
 21
-128.298
  0
LINE
  5
179
100
AcDbEntity
  8
frame
  6
ByLayer
 62
  256
370
   -1
100
AcDbLine
 10
135.306
 20
-128.298
 11
135.255
 21
-128.907
  0
LINE
  5
17A
100
AcDbEntity
  8
frame
  6
ByLayer
 62
  256
370
   -1
100
AcDbLine
 10
135.255
 20
-128.907
 11
135.306
 21
-128.831
  0
LINE
  5
17B
100
AcDbEntity
  8
frame
  6
ByLayer
 62
  256
370
   -1
100
AcDbLine
 10
135.306
 20
-128.831
 11
135.433
 21
-128.78
  0
LINE
  5
17C
100
AcDbEntity
  8
frame
  6
ByLayer
 62
  256
370
   -1
100
AcDbLine
 10
135.433
 20
-128.78
 11
135.737
 21
-128.78
  0
LINE
  5
17D
100
AcDbEntity
  8
frame
  6
ByLayer
 62
  256
370
   -1
100
AcDbLine
 10
135.737
 20
-128.78
 11
135.864
 21
-128.831
  0
LINE
  5
17E
100
AcDbEntity
  8
frame
  6
ByLayer
 62
  256
370
   -1
100
AcDbLine
 10
135.864
 20
-128.831
 11
135.915
 21
-128.907
  0
LINE
  5
17F
100
AcDbEntity
  8
frame
  6
ByLayer
 62
  256
370
   -1
100
AcDbLine
 10
135.915
 20
-128.907
 11
135.991
 21
-129.034
  0
LINE
  5
180
100
AcDbEntity
  8
frame
  6
ByLayer
 62
  256
370
   -1
100
AcDbLine
 10
135.991
 20
-129.034
 11
135.991
 21
-129.339
  0
LINE
  5
181
100
AcDbEntity
  8
frame
  6
ByLayer
 62
  256
370
   -1
100
AcDbLine
 10
135.991
 20
-129.339
 11
135.915
 21
-129.466
  0
LINE
  5
182
100
AcDbEntity
  8
frame
  6
ByLayer
 62
  256
370
   -1
100
AcDbLine
 10
135.915
 20
-129.466
 11
135.864
 21
-129.517
  0
LINE
  5
183
100
AcDbEntity
  8
frame
  6
ByLayer
 62
  256
370
   -1
100
AcDbLine
 10
135.864
 20
-129.517
 11
135.737
 21
-129.593
  0
LINE
  5
184
100
AcDbEntity
  8
frame
  6
ByLayer
 62
  256
370
   -1
100
AcDbLine
 10
135.737
 20
-129.593
 11
135.433
 21
-129.593
  0
LINE
  5
185
100
AcDbEntity
  8
frame
  6
ByLayer
 62
  256
370
   -1
100
AcDbLine
 10
135.433
 20
-129.593
 11
135.306
 21
-129.517
  0
LINE
  5
186
100
AcDbEntity
  8
frame
  6
ByLayer
 62
  256
370
   -1
100
AcDbLine
 10
135.306
 20
-129.517
 11
135.255
 21
-129.466
  0
LINE
  5
187
100
AcDbEntity
  8
frame
  6
ByLayer
 62
  256
370
   -1
100
AcDbLine
 10
185.852
 20
-128.298
 11
185.598
 21
-128.298
  0
LINE
  5
188
100
AcDbEntity
  8
frame
  6
ByLayer
 62
  256
370
   -1
100
AcDbLine
 10
185.598
 20
-128.298
 11
185.471
 21
-128.349
  0
LINE
  5
189
100
AcDbEntity
  8
frame
  6
ByLayer
 62
  256
370
   -1
100
AcDbLine
 10
185.471
 20
-128.349
 11
185.42
 21
-128.399
  0
LINE
  5
18A
100
AcDbEntity
  8
frame
  6
ByLayer
 62
  256
370
   -1
100
AcDbLine
 10
185.42
 20
-128.399
 11
185.293
 21
-128.603
  0
LINE
  5
18B
100
AcDbEntity
  8
frame
  6
ByLayer
 62
  256
370
   -1
100
AcDbLine
 10
185.293
 20
-128.603
 11
185.242
 21
-128.831
  0
LINE
  5
18C
100
AcDbEntity
  8
frame
  6
ByLayer
 62
  256
370
   -1
100
AcDbLine
 10
185.242
 20
-128.831
 11
185.242
 21
-129.339
  0
LINE
  5
18D
100
AcDbEntity
  8
frame
  6
ByLayer
 62
  256
370
   -1
100
AcDbLine
 10
185.242
 20
-129.339
 11
185.293
 21
-129.466
  0
LINE
  5
18E
100
AcDbEntity
  8
frame
  6
ByLayer
 62
  256
370
   -1
100
AcDbLine
 10
185.293
 20
-129.466
 11
185.369
 21
-129.517
  0
LINE
  5
18F
100
AcDbEntity
  8
frame
  6
ByLayer
 62
  256
370
   -1
100
AcDbLine
 10
185.369
 20
-129.517
 11
185.471
 21
-129.593
  0
LINE
  5
190
100
AcDbEntity
  8
frame
  6
ByLayer
 62
  256
370
   -1
100
AcDbLine
 10
185.471
 20
-129.593
 11
185.725
 21
-129.593
  0
LINE
  5
191
100
AcDbEntity
  8
frame
  6
ByLayer
 62
  256
370
   -1
100
AcDbLine
 10
185.725
 20
-129.593
 11
185.852
 21
-129.517
  0
LINE
  5
192
100
AcDbEntity
  8
frame
  6
ByLayer
 62
  256
370
   -1
100
AcDbLine
 10
185.852
 20
-129.517
 11
185.902
 21
-129.466
  0
LINE
  5
193
100
AcDbEntity
  8
frame
  6
ByLayer
 62
  256
370
   -1
100
AcDbLine
 10
185.902
 20
-129.466
 11
185.979
 21
-129.339
  0
LINE
  5
194
100
AcDbEntity
  8
frame
  6
ByLayer
 62
  256
370
   -1
100
AcDbLine
 10
185.979
 20
-129.339
 11
185.979
 21
-129.034
  0
LINE
  5
195
100
AcDbEntity
  8
frame
  6
ByLayer
 62
  256
370
   -1
100
AcDbLine
 10
185.979
 20
-129.034
 11
185.902
 21
-128.907
  0
LINE
  5
196
100
AcDbEntity
  8
frame
  6
ByLayer
 62
  256
370
   -1
100
AcDbLine
 10
185.902
 20
-128.907
 11
185.852
 21
-128.831
  0
LINE
  5
197
100
AcDbEntity
  8
frame
  6
ByLayer
 62
  256
370
   -1
100
AcDbLine
 10
185.852
 20
-128.831
 11
185.725
 21
-128.78
  0
LINE
  5
198
100
AcDbEntity
  8
frame
  6
ByLayer
 62
  256
370
   -1
100
AcDbLine
 10
185.725
 20
-128.78
 11
185.471
 21
-128.78
  0
LINE
  5
199
100
AcDbEntity
  8
frame
  6
ByLayer
 62
  256
370
   -1
100
AcDbLine
 10
185.471
 20
-128.78
 11
185.369
 21
-128.831
  0
LINE
  5
19A
100
AcDbEntity
  8
frame
  6
ByLayer
 62
  256
370
   -1
100
AcDbLine
 10
185.369
 20
-128.831
 11
185.293
 21
-128.907
  0
LINE
  5
19B
100
AcDbEntity
  8
frame
  6
ByLayer
 62
  256
370
   -1
100
AcDbLine
 10
185.293
 20
-128.907
 11
185.242
 21
-129.034
  0
LINE
  5
19C
100
AcDbEntity
  8
frame
  6
ByLayer
 62
  256
370
   -1
100
AcDbLine
 10
-89.9924
 20
10.0052
 11
-88.0112
 21
10.0052
  0
LINE
  5
19D
100
AcDbEntity
  8
frame
  6
ByLayer
 62
  256
370
   -1
100
AcDbLine
 10
-89.9924
 20
-40.00700000000001
 11
-88.0112
 21
-40.00700000000001
  0
LINE
  5
19E
100
AcDbEntity
  8
frame
  6
ByLayer
 62
  256
370
   -1
100
AcDbLine
 10
-89.9924
 20
-89.995
 11
-88.0112
 21
-89.995
  0
LINE
  5
19F
100
AcDbEntity
  8
frame
  6
ByLayer
 62
  256
370
   -1
100
AcDbLine
 10
-89.3066
 20
34.79560000000001
 11
-88.697
 21
34.79560000000001
  0
LINE
  5
1A0
100
AcDbEntity
  8
frame
  6
ByLayer
 62
  256
370
   -1
100
AcDbLine
 10
-89.43360000000001
 20
34.41460000000001
 11
-89.0018
 21
35.71000000000001
  0
LINE
  5
1A1
100
AcDbEntity
  8
frame
  6
ByLayer
 62
  256
370
   -1
100
AcDbLine
 10
-89.0018
 20
35.71000000000001
 11
-88.56999999999999
 21
34.41460000000001
  0
LINE
  5
1A2
100
AcDbEntity
  8
frame
  6
ByLayer
 62
  256
370
   -1
100
AcDbLine
 10
-88.90020000000001
 20
-14.88679999999999
 11
-88.72239999999999
 21
-14.9376
  0
LINE
  5
1A3
100
AcDbEntity
  8
frame
  6
ByLayer
 62
  256
370
   -1
100
AcDbLine
 10
-88.72239999999999
 20
-14.9376
 11
-88.64619999999999
 21
-15.0138
  0
LINE
  5
1A4
100
AcDbEntity
  8
frame
  6
ByLayer
 62
  256
370
   -1
100
AcDbLine
 10
-88.64619999999999
 20
-15.0138
 11
-88.59540000000001
 21
-15.1408
  0
LINE
  5
1A5
100
AcDbEntity
  8
frame
  6
ByLayer
 62
  256
370
   -1
100
AcDbLine
 10
-88.59540000000001
 20
-15.1408
 11
-88.59540000000001
 21
-15.3186
  0
LINE
  5
1A6
100
AcDbEntity
  8
frame
  6
ByLayer
 62
  256
370
   -1
100
AcDbLine
 10
-88.59540000000001
 20
-15.3186
 11
-88.64619999999999
 21
-15.4456
  0
LINE
  5
1A7
100
AcDbEntity
  8
frame
  6
ByLayer
 62
  256
370
   -1
100
AcDbLine
 10
-88.64619999999999
 20
-15.4456
 11
-88.72239999999999
 21
-15.49639999999999
  0
LINE
  5
1A8
100
AcDbEntity
  8
frame
  6
ByLayer
 62
  256
370
   -1
100
AcDbLine
 10
-88.72239999999999
 20
-15.49639999999999
 11
-88.82400000000001
 21
-15.57259999999999
  0
LINE
  5
1A9
100
AcDbEntity
  8
frame
  6
ByLayer
 62
  256
370
   -1
100
AcDbLine
 10
-88.82400000000001
 20
-15.57259999999999
 11
-89.33199999999999
 21
-15.57259999999999
  0
LINE
  5
1AA
100
AcDbEntity
  8
frame
  6
ByLayer
 62
  256
370
   -1
100
AcDbLine
 10
-89.33199999999999
 20
-15.57259999999999
 11
-89.33199999999999
 21
-14.27719999999999
  0
LINE
  5
1AB
100
AcDbEntity
  8
frame
  6
ByLayer
 62
  256
370
   -1
100
AcDbLine
 10
-89.33199999999999
 20
-14.27719999999999
 11
-88.90020000000001
 21
-14.27719999999999
  0
LINE
  5
1AC
100
AcDbEntity
  8
frame
  6
ByLayer
 62
  256
370
   -1
100
AcDbLine
 10
-88.90020000000001
 20
-14.27719999999999
 11
-88.7732
 21
-14.328
  0
LINE
  5
1AD
100
AcDbEntity
  8
frame
  6
ByLayer
 62
  256
370
   -1
100
AcDbLine
 10
-88.7732
 20
-14.328
 11
-88.72239999999999
 21
-14.3788
  0
LINE
  5
1AE
100
AcDbEntity
  8
frame
  6
ByLayer
 62
  256
370
   -1
100
AcDbLine
 10
-88.72239999999999
 20
-14.3788
 11
-88.64619999999999
 21
-14.50579999999999
  0
LINE
  5
1AF
100
AcDbEntity
  8
frame
  6
ByLayer
 62
  256
370
   -1
100
AcDbLine
 10
-88.64619999999999
 20
-14.50579999999999
 11
-88.64619999999999
 21
-14.6328
  0
LINE
  5
1B0
100
AcDbEntity
  8
frame
  6
ByLayer
 62
  256
370
   -1
100
AcDbLine
 10
-88.64619999999999
 20
-14.6328
 11
-88.72239999999999
 21
-14.7598
  0
LINE
  5
1B1
100
AcDbEntity
  8
frame
  6
ByLayer
 62
  256
370
   -1
100
AcDbLine
 10
-88.72239999999999
 20
-14.7598
 11
-88.7732
 21
-14.81059999999999
  0
LINE
  5
1B2
100
AcDbEntity
  8
frame
  6
ByLayer
 62
  256
370
   -1
100
AcDbLine
 10
-88.7732
 20
-14.81059999999999
 11
-88.90020000000001
 21
-14.88679999999999
  0
LINE
  5
1B3
100
AcDbEntity
  8
frame
  6
ByLayer
 62
  256
370
   -1
100
AcDbLine
 10
-88.90020000000001
 20
-14.88679999999999
 11
-89.33199999999999
 21
-14.88679999999999
  0
LINE
  5
1B4
100
AcDbEntity
  8
frame
  6
ByLayer
 62
  256
370
   -1
100
AcDbLine
 10
-88.59540000000001
 20
-65.458
 11
-88.64619999999999
 21
-65.50899999999999
  0
LINE
  5
1B5
100
AcDbEntity
  8
frame
  6
ByLayer
 62
  256
370
   -1
100
AcDbLine
 10
-88.64619999999999
 20
-65.50899999999999
 11
-88.82400000000001
 21
-65.58500000000001
  0
LINE
  5
1B6
100
AcDbEntity
  8
frame
  6
ByLayer
 62
  256
370
   -1
100
AcDbLine
 10
-88.82400000000001
 20
-65.58500000000001
 11
-88.95099999999999
 21
-65.58500000000001
  0
LINE
  5
1B7
100
AcDbEntity
  8
frame
  6
ByLayer
 62
  256
370
   -1
100
AcDbLine
 10
-88.95099999999999
 20
-65.58500000000001
 11
-89.1542
 21
-65.50899999999999
  0
LINE
  5
1B8
100
AcDbEntity
  8
frame
  6
ByLayer
 62
  256
370
   -1
100
AcDbLine
 10
-89.1542
 20
-65.50899999999999
 11
-89.25579999999999
 21
-65.38200000000001
  0
LINE
  5
1B9
100
AcDbEntity
  8
frame
  6
ByLayer
 62
  256
370
   -1
100
AcDbLine
 10
-89.25579999999999
 20
-65.38200000000001
 11
-89.33199999999999
 21
-65.255
  0
LINE
  5
1BA
100
AcDbEntity
  8
frame
  6
ByLayer
 62
  256
370
   -1
100
AcDbLine
 10
-89.33199999999999
 20
-65.255
 11
-89.3828
 21
-65.02600000000001
  0
LINE
  5
1BB
100
AcDbEntity
  8
frame
  6
ByLayer
 62
  256
370
   -1
100
AcDbLine
 10
-89.3828
 20
-65.02600000000001
 11
-89.3828
 21
-64.82300000000001
  0
LINE
  5
1BC
100
AcDbEntity
  8
frame
  6
ByLayer
 62
  256
370
   -1
100
AcDbLine
 10
-89.3828
 20
-64.82300000000001
 11
-89.33199999999999
 21
-64.595
  0
LINE
  5
1BD
100
AcDbEntity
  8
frame
  6
ByLayer
 62
  256
370
   -1
100
AcDbLine
 10
-89.33199999999999
 20
-64.595
 11
-89.25579999999999
 21
-64.46799999999999
  0
LINE
  5
1BE
100
AcDbEntity
  8
frame
  6
ByLayer
 62
  256
370
   -1
100
AcDbLine
 10
-89.25579999999999
 20
-64.46799999999999
 11
-89.1542
 21
-64.34100000000001
  0
LINE
  5
1BF
100
AcDbEntity
  8
frame
  6
ByLayer
 62
  256
370
   -1
100
AcDbLine
 10
-89.1542
 20
-64.34100000000001
 11
-88.95099999999999
 21
-64.28999999999999
  0
LINE
  5
1C0
100
AcDbEntity
  8
frame
  6
ByLayer
 62
  256
370
   -1
100
AcDbLine
 10
-88.95099999999999
 20
-64.28999999999999
 11
-88.82400000000001
 21
-64.28999999999999
  0
LINE
  5
1C1
100
AcDbEntity
  8
frame
  6
ByLayer
 62
  256
370
   -1
100
AcDbLine
 10
-88.82400000000001
 20
-64.28999999999999
 11
-88.64619999999999
 21
-64.34100000000001
  0
LINE
  5
1C2
100
AcDbEntity
  8
frame
  6
ByLayer
 62
  256
370
   -1
100
AcDbLine
 10
-88.64619999999999
 20
-64.34100000000001
 11
-88.59540000000001
 21
-64.39099999999999
  0
LINE
  5
1C3
100
AcDbEntity
  8
frame
  6
ByLayer
 62
  256
370
   -1
100
AcDbLine
 10
-89.33199999999999
 20
-115.572
 11
-89.33199999999999
 21
-114.277
  0
LINE
  5
1C4
100
AcDbEntity
  8
frame
  6
ByLayer
 62
  256
370
   -1
100
AcDbLine
 10
-89.33199999999999
 20
-114.277
 11
-89.02719999999999
 21
-114.277
  0
LINE
  5
1C5
100
AcDbEntity
  8
frame
  6
ByLayer
 62
  256
370
   -1
100
AcDbLine
 10
-89.02719999999999
 20
-114.277
 11
-88.82400000000001
 21
-114.328
  0
LINE
  5
1C6
100
AcDbEntity
  8
frame
  6
ByLayer
 62
  256
370
   -1
100
AcDbLine
 10
-88.82400000000001
 20
-114.328
 11
-88.72239999999999
 21
-114.455
  0
LINE
  5
1C7
100
AcDbEntity
  8
frame
  6
ByLayer
 62
  256
370
   -1
100
AcDbLine
 10
-88.72239999999999
 20
-114.455
 11
-88.64619999999999
 21
-114.582
  0
LINE
  5
1C8
100
AcDbEntity
  8
frame
  6
ByLayer
 62
  256
370
   -1
100
AcDbLine
 10
-88.64619999999999
 20
-114.582
 11
-88.59540000000001
 21
-114.81
  0
LINE
  5
1C9
100
AcDbEntity
  8
frame
  6
ByLayer
 62
  256
370
   -1
100
AcDbLine
 10
-88.59540000000001
 20
-114.81
 11
-88.59540000000001
 21
-115.014
  0
LINE
  5
1CA
100
AcDbEntity
  8
frame
  6
ByLayer
 62
  256
370
   -1
100
AcDbLine
 10
-88.59540000000001
 20
-115.014
 11
-88.64619999999999
 21
-115.242
  0
LINE
  5
1CB
100
AcDbEntity
  8
frame
  6
ByLayer
 62
  256
370
   -1
100
AcDbLine
 10
-88.64619999999999
 20
-115.242
 11
-88.72239999999999
 21
-115.369
  0
LINE
  5
1CC
100
AcDbEntity
  8
frame
  6
ByLayer
 62
  256
370
   -1
100
AcDbLine
 10
-88.72239999999999
 20
-115.369
 11
-88.82400000000001
 21
-115.496
  0
LINE
  5
1CD
100
AcDbEntity
  8
frame
  6
ByLayer
 62
  256
370
   -1
100
AcDbLine
 10
-88.82400000000001
 20
-115.496
 11
-89.02719999999999
 21
-115.572
  0
LINE
  5
1CE
100
AcDbEntity
  8
frame
  6
ByLayer
 62
  256
370
   -1
100
AcDbLine
 10
-89.02719999999999
 20
-115.572
 11
-89.33199999999999
 21
-115.572
  0
LINE
  5
1CF
100
AcDbEntity
  8
frame
  6
ByLayer
 62
  256
370
   -1
100
AcDbLine
 10
186.995
 20
10.0052
 11
185.013
 21
10.0052
  0
LINE
  5
1D0
100
AcDbEntity
  8
frame
  6
ByLayer
 62
  256
370
   -1
100
AcDbLine
 10
186.995
 20
-40.00700000000001
 11
185.013
 21
-40.00700000000001
  0
LINE
  5
1D1
100
AcDbEntity
  8
frame
  6
ByLayer
 62
  256
370
   -1
100
AcDbLine
 10
186.995
 20
-89.995
 11
185.013
 21
-89.995
  0
LINE
  5
1D2
100
AcDbEntity
  8
frame
  6
ByLayer
 62
  256
370
   -1
100
AcDbLine
 10
185.699
 20
34.79560000000001
 11
186.309
 21
34.79560000000001
  0
LINE
  5
1D3
100
AcDbEntity
  8
frame
  6
ByLayer
 62
  256
370
   -1
100
AcDbLine
 10
185.572
 20
34.41460000000001
 11
186.004
 21
35.71000000000001
  0
LINE
  5
1D4
100
AcDbEntity
  8
frame
  6
ByLayer
 62
  256
370
   -1
100
AcDbLine
 10
186.004
 20
35.71000000000001
 11
186.436
 21
34.41460000000001
  0
LINE
  5
1D5
100
AcDbEntity
  8
frame
  6
ByLayer
 62
  256
370
   -1
100
AcDbLine
 10
186.106
 20
-14.88679999999999
 11
186.283
 21
-14.9376
  0
LINE
  5
1D6
100
AcDbEntity
  8
frame
  6
ByLayer
 62
  256
370
   -1
100
AcDbLine
 10
186.283
 20
-14.9376
 11
186.36
 21
-15.0138
  0
LINE
  5
1D7
100
AcDbEntity
  8
frame
  6
ByLayer
 62
  256
370
   -1
100
AcDbLine
 10
186.36
 20
-15.0138
 11
186.41
 21
-15.1408
  0
LINE
  5
1D8
100
AcDbEntity
  8
frame
  6
ByLayer
 62
  256
370
   -1
100
AcDbLine
 10
186.41
 20
-15.1408
 11
186.41
 21
-15.3186
  0
LINE
  5
1D9
100
AcDbEntity
  8
frame
  6
ByLayer
 62
  256
370
   -1
100
AcDbLine
 10
186.41
 20
-15.3186
 11
186.36
 21
-15.4456
  0
LINE
  5
1DA
100
AcDbEntity
  8
frame
  6
ByLayer
 62
  256
370
   -1
100
AcDbLine
 10
186.36
 20
-15.4456
 11
186.283
 21
-15.49639999999999
  0
LINE
  5
1DB
100
AcDbEntity
  8
frame
  6
ByLayer
 62
  256
370
   -1
100
AcDbLine
 10
186.283
 20
-15.49639999999999
 11
186.182
 21
-15.57259999999999
  0
LINE
  5
1DC
100
AcDbEntity
  8
frame
  6
ByLayer
 62
  256
370
   -1
100
AcDbLine
 10
186.182
 20
-15.57259999999999
 11
185.674
 21
-15.57259999999999
  0
LINE
  5
1DD
100
AcDbEntity
  8
frame
  6
ByLayer
 62
  256
370
   -1
100
AcDbLine
 10
185.674
 20
-15.57259999999999
 11
185.674
 21
-14.27719999999999
  0
LINE
  5
1DE
100
AcDbEntity
  8
frame
  6
ByLayer
 62
  256
370
   -1
100
AcDbLine
 10
185.674
 20
-14.27719999999999
 11
186.106
 21
-14.27719999999999
  0
LINE
  5
1DF
100
AcDbEntity
  8
frame
  6
ByLayer
 62
  256
370
   -1
100
AcDbLine
 10
186.106
 20
-14.27719999999999
 11
186.233
 21
-14.328
  0
LINE
  5
1E0
100
AcDbEntity
  8
frame
  6
ByLayer
 62
  256
370
   -1
100
AcDbLine
 10
186.233
 20
-14.328
 11
186.283
 21
-14.3788
  0
LINE
  5
1E1
100
AcDbEntity
  8
frame
  6
ByLayer
 62
  256
370
   -1
100
AcDbLine
 10
186.283
 20
-14.3788
 11
186.36
 21
-14.50579999999999
  0
LINE
  5
1E2
100
AcDbEntity
  8
frame
  6
ByLayer
 62
  256
370
   -1
100
AcDbLine
 10
186.36
 20
-14.50579999999999
 11
186.36
 21
-14.6328
  0
LINE
  5
1E3
100
AcDbEntity
  8
frame
  6
ByLayer
 62
  256
370
   -1
100
AcDbLine
 10
186.36
 20
-14.6328
 11
186.283
 21
-14.7598
  0
LINE
  5
1E4
100
AcDbEntity
  8
frame
  6
ByLayer
 62
  256
370
   -1
100
AcDbLine
 10
186.283
 20
-14.7598
 11
186.233
 21
-14.81059999999999
  0
LINE
  5
1E5
100
AcDbEntity
  8
frame
  6
ByLayer
 62
  256
370
   -1
100
AcDbLine
 10
186.233
 20
-14.81059999999999
 11
186.106
 21
-14.88679999999999
  0
LINE
  5
1E6
100
AcDbEntity
  8
frame
  6
ByLayer
 62
  256
370
   -1
100
AcDbLine
 10
186.106
 20
-14.88679999999999
 11
185.674
 21
-14.88679999999999
  0
LINE
  5
1E7
100
AcDbEntity
  8
frame
  6
ByLayer
 62
  256
370
   -1
100
AcDbLine
 10
186.41
 20
-65.458
 11
186.36
 21
-65.50899999999999
  0
LINE
  5
1E8
100
AcDbEntity
  8
frame
  6
ByLayer
 62
  256
370
   -1
100
AcDbLine
 10
186.36
 20
-65.50899999999999
 11
186.182
 21
-65.58500000000001
  0
LINE
  5
1E9
100
AcDbEntity
  8
frame
  6
ByLayer
 62
  256
370
   -1
100
AcDbLine
 10
186.182
 20
-65.58500000000001
 11
186.055
 21
-65.58500000000001
  0
LINE
  5
1EA
100
AcDbEntity
  8
frame
  6
ByLayer
 62
  256
370
   -1
100
AcDbLine
 10
186.055
 20
-65.58500000000001
 11
185.852
 21
-65.50899999999999
  0
LINE
  5
1EB
100
AcDbEntity
  8
frame
  6
ByLayer
 62
  256
370
   -1
100
AcDbLine
 10
185.852
 20
-65.50899999999999
 11
185.75
 21
-65.38200000000001
  0
LINE
  5
1EC
100
AcDbEntity
  8
frame
  6
ByLayer
 62
  256
370
   -1
100
AcDbLine
 10
185.75
 20
-65.38200000000001
 11
185.674
 21
-65.255
  0
LINE
  5
1ED
100
AcDbEntity
  8
frame
  6
ByLayer
 62
  256
370
   -1
100
AcDbLine
 10
185.674
 20
-65.255
 11
185.623
 21
-65.02600000000001
  0
LINE
  5
1EE
100
AcDbEntity
  8
frame
  6
ByLayer
 62
  256
370
   -1
100
AcDbLine
 10
185.623
 20
-65.02600000000001
 11
185.623
 21
-64.82300000000001
  0
LINE
  5
1EF
100
AcDbEntity
  8
frame
  6
ByLayer
 62
  256
370
   -1
100
AcDbLine
 10
185.623
 20
-64.82300000000001
 11
185.674
 21
-64.595
  0
LINE
  5
1F0
100
AcDbEntity
  8
frame
  6
ByLayer
 62
  256
370
   -1
100
AcDbLine
 10
185.674
 20
-64.595
 11
185.75
 21
-64.46799999999999
  0
LINE
  5
1F1
100
AcDbEntity
  8
frame
  6
ByLayer
 62
  256
370
   -1
100
AcDbLine
 10
185.75
 20
-64.46799999999999
 11
185.852
 21
-64.34100000000001
  0
LINE
  5
1F2
100
AcDbEntity
  8
frame
  6
ByLayer
 62
  256
370
   -1
100
AcDbLine
 10
185.852
 20
-64.34100000000001
 11
186.055
 21
-64.28999999999999
  0
LINE
  5
1F3
100
AcDbEntity
  8
frame
  6
ByLayer
 62
  256
370
   -1
100
AcDbLine
 10
186.055
 20
-64.28999999999999
 11
186.182
 21
-64.28999999999999
  0
LINE
  5
1F4
100
AcDbEntity
  8
frame
  6
ByLayer
 62
  256
370
   -1
100
AcDbLine
 10
186.182
 20
-64.28999999999999
 11
186.36
 21
-64.34100000000001
  0
LINE
  5
1F5
100
AcDbEntity
  8
frame
  6
ByLayer
 62
  256
370
   -1
100
AcDbLine
 10
186.36
 20
-64.34100000000001
 11
186.41
 21
-64.39099999999999
  0
LINE
  5
1F6
100
AcDbEntity
  8
frame
  6
ByLayer
 62
  256
370
   -1
100
AcDbLine
 10
185.674
 20
-115.572
 11
185.674
 21
-114.277
  0
LINE
  5
1F7
100
AcDbEntity
  8
frame
  6
ByLayer
 62
  256
370
   -1
100
AcDbLine
 10
185.674
 20
-114.277
 11
185.979
 21
-114.277
  0
LINE
  5
1F8
100
AcDbEntity
  8
frame
  6
ByLayer
 62
  256
370
   -1
100
AcDbLine
 10
185.979
 20
-114.277
 11
186.182
 21
-114.328
  0
LINE
  5
1F9
100
AcDbEntity
  8
frame
  6
ByLayer
 62
  256
370
   -1
100
AcDbLine
 10
186.182
 20
-114.328
 11
186.283
 21
-114.455
  0
LINE
  5
1FA
100
AcDbEntity
  8
frame
  6
ByLayer
 62
  256
370
   -1
100
AcDbLine
 10
186.283
 20
-114.455
 11
186.36
 21
-114.582
  0
LINE
  5
1FB
100
AcDbEntity
  8
frame
  6
ByLayer
 62
  256
370
   -1
100
AcDbLine
 10
186.36
 20
-114.582
 11
186.41
 21
-114.81
  0
LINE
  5
1FC
100
AcDbEntity
  8
frame
  6
ByLayer
 62
  256
370
   -1
100
AcDbLine
 10
186.41
 20
-114.81
 11
186.41
 21
-115.014
  0
LINE
  5
1FD
100
AcDbEntity
  8
frame
  6
ByLayer
 62
  256
370
   -1
100
AcDbLine
 10
186.41
 20
-115.014
 11
186.36
 21
-115.242
  0
LINE
  5
1FE
100
AcDbEntity
  8
frame
  6
ByLayer
 62
  256
370
   -1
100
AcDbLine
 10
186.36
 20
-115.242
 11
186.283
 21
-115.369
  0
LINE
  5
1FF
100
AcDbEntity
  8
frame
  6
ByLayer
 62
  256
370
   -1
100
AcDbLine
 10
186.283
 20
-115.369
 11
186.182
 21
-115.496
  0
LINE
  5
200
100
AcDbEntity
  8
frame
  6
ByLayer
 62
  256
370
   -1
100
AcDbLine
 10
186.182
 20
-115.496
 11
185.979
 21
-115.572
  0
LINE
  5
201
100
AcDbEntity
  8
frame
  6
ByLayer
 62
  256
370
   -1
100
AcDbLine
 10
185.979
 20
-115.572
 11
185.674
 21
-115.572
  0
LINE
  5
202
100
AcDbEntity
  8
frame
  6
ByLayer
 62
  256
370
   -1
100
AcDbLine
 10
77.01300000000001
 20
-124.513
 11
185.013
 21
-124.513
  0
LINE
  5
203
100
AcDbEntity
  8
frame
  6
ByLayer
 62
  256
370
   -1
100
AcDbLine
 10
77.01300000000001
 20
-121.516
 11
185.013
 21
-121.516
  0
LINE
  5
204
100
AcDbEntity
  8
frame
  6
ByLayer
 62
  256
370
   -1
100
AcDbLine
 10
77.01300000000001
 20
-117.503
 11
185.013
 21
-117.503
  0
LINE
  5
205
100
AcDbEntity
  8
frame
  6
ByLayer
 62
  256
370
   -1
100
AcDbLine
 10
77.01300000000001
 20
-111.508
 11
185.013
 21
-111.508
  0
LINE
  5
206
100
AcDbEntity
  8
frame
  6
ByLayer
 62
  256
370
   -1
100
AcDbLine
 10
97.00200000000001
 20
-121.516
 11
97.00200000000001
 21
-124.513
  0
LINE
  5
207
100
AcDbEntity
  8
frame
  6
ByLayer
 62
  256
370
   -1
100
AcDbLine
 10
161.01
 20
-121.516
 11
161.01
 21
-128.018
  0
MTEXT
  5
208
100
AcDbEntity
  8
text
  6
ByLayer
 62
  256
370
   -1
100
AcDbMText
 10
78
 20
-122
 30
0
 40
2
 41
12.38888846488459
 71
    1
 72
    1
  1
Size: A/4
  7
standard
210
0
220
0
230
1
 50
0
 73
    2
 44
1
  0
MTEXT
  5
209
100
AcDbEntity
  8
text
  6
ByLayer
 62
  256
370
   -1
100
AcDbMText
 10
78
 20
-125
 30
0
 40
2
 41
19.94444444444466
 71
    1
 72
    1
  1
LibreCAD v2.1.2
  7
standard
210
0
220
0
230
1
 50
0
 73
    2
 44
1
  0
MTEXT
  5
20A
100
AcDbEntity
  8
text
  6
ByLayer
 62
  256
370
   -1
100
AcDbMText
 10
78
 20
-112
 30
0
 40
2
 41
10.83333290932913
 71
    1
 72
    1
  1
Sheet: /
  7
standard
210
0
220
0
230
1
 50
0
 73
    2
 44
1
  0
MTEXT
  5
20B
100
AcDbEntity
  8
text
  6
ByLayer
 62
  256
370
   -1
100
AcDbMText
 10
78
 20
-115
 30
0
 40
2
 41
48.83333539048249
 71
    1
 72
    1
  1
File: mini_serial_console-cover.dxf
  7
standard
210
0
220
0
230
1
 50
0
 73
    2
 44
1
  0
MTEXT
  5
20C
100
AcDbEntity
  8
text
  6
ByLayer
 62
  256
370
   -1
100
AcDbMText
 10
98
 20
-122
 30
0
 40
2
 41
24.277777777778
 71
    1
 72
    1
  1
Date: 2022. 10. 19.
  7
standard
210
0
220
0
230
1
 50
0
 73
    2
 44
1
  0
MTEXT
  5
20D
100
AcDbEntity
  8
text
  6
ByLayer
 62
  256
370
   -1
100
AcDbMText
 10
162
 20
-122
 30
0
 40
2
 41
9.722222222222221
 71
    1
 72
    1
  1
Rev: 1.0
  7
standard
210
0
220
0
230
1
 50
0
 73
    2
 44
1
  0
MTEXT
  5
20E
100
AcDbEntity
  8
text
  6
ByLayer
 62
  256
370
   -1
100
AcDbMText
 10
162
 20
-125
 30
0
 40
2
 41
7.5
 71
    1
 72
    1
  1
Id: 1/1
  7
standard
210
0
220
0
230
1
 50
0
 73
    2
 44
1
  0
MTEXT
  5
20F
100
AcDbEntity
  8
text
  6
ByLayer
 62
  256
370
   -1
100
AcDbMText
 10
78
 20
-108
 30
0
 40
2
 41
54.05555966985351
 71
    1
 72
    1
  1
Pozsar Zsolt - http://www.pozsarzs.hu
  7
standard
210
0
220
0
230
1
 50
0
 73
    2
 44
1
  0
MTEXT
  5
210
100
AcDbEntity
  8
text
  6
ByLayer
 62
  256
370
   -1
100
AcDbMText
 10
78
 20
-118
 30
0
 40
2
 41
33.16666872381573
 71
    1
 72
    1
  1
Title: Mini serial console
  7
standard
210
0
220
0
230
1
 50
0
 73
    2
 44
1
  0
MTEXT
  5
211
100
AcDbEntity
  8
text
  6
ByLayer
 62
  256
370
   -1
100
AcDbMText
 10
78
 20
-105
 30
0
 40
2
 41
27.27777777777815
 71
    1
 72
    1
  1
Polycarbonate cover
  7
standard
210
0
220
0
230
1
 50
0
 73
    2
 44
1
  0
MTEXT
  5
212
100
AcDbEntity
  8
text
  6
ByLayer
 62
  256
370
   -1
100
AcDbMText
 10
78
 20
-102
 30
0
 40
2
 41
5.722222222222222
 71
    1
 72
    1
  1
M 1:1
  7
standard
210
0
220
0
230
1
 50
0
 73
    2
 44
1
  0
MTEXT
  5
213
100
AcDbEntity
  8
text
  6
ByLayer
 62
  256
370
   -1
100
AcDbMText
 10
78
 20
-97
 30
0
 40
2
 41
17.50000000000037
 71
    1
 72
    1
  1
DN: 59/22/05
  7
standard
210
0
220
0
230
1
 50
0
 73
    2
 44
1
  0
ENDSEC
  0
SECTION
  2
OBJECTS
  0
DICTIONARY
  5
C
330
0
100
AcDbDictionary
281
    1
  3
ACAD_GROUP
350
D
  0
DICTIONARY
  5
D
330
C
100
AcDbDictionary
281
    1
  0
ENDSEC
  0
EOF
