M48
;DRILL file {KiCad 4.0.5+dfsg1-4+deb9u1} date Sun Oct  9 21:53:42 2022
;FORMAT={-:-/ absolute / metric / decimal}
FMAT,2
METRIC,TZ
T1C0.400
T2C0.600
T3C0.700
T4C0.800
T5C1.000
T6C1.016
T7C1.020
T8C1.100
T9C1.400
T10C1.520
%
G90
G05
M71
T1
X104.14Y-93.98
X106.68Y-95.25
X111.76Y-96.52
X114.3Y-97.79
X116.84Y-99.06
X118.745Y-107.315
X119.38Y-100.33
X123.825Y-114.3
X124.46Y-107.315
X125.73Y-96.52
X127.635Y-114.3
X128.27Y-97.79
X129.54Y-96.52
X130.81Y-99.06
X132.08Y-92.71
X133.35Y-100.33
X135.89Y-99.06
X147.32Y-88.9
X147.32Y-92.71
X148.59Y-81.28
X148.59Y-93.98
X148.59Y-96.52
X149.86Y-95.25
X151.765Y-81.28
X162.56Y-69.215
X167.64Y-69.85
X172.72Y-70.485
X177.8Y-71.12
X182.88Y-71.755
X187.96Y-72.39
T2
X109.22Y-87.376
X121.92Y-87.376
X134.62Y-87.376
X146.304Y-87.376
X160.02Y-88.9
X160.02Y-90.17
X160.02Y-91.44
X186.69Y-91.44
X186.69Y-92.71
X186.69Y-93.98
T3
X121.92Y-109.22
X121.92Y-111.76
X123.19Y-110.49
T4
X104.14Y-78.74
X109.14Y-78.74
X109.808Y-111.76
X109.855Y-107.95
X114.808Y-111.76
X114.935Y-107.95
X129.54Y-64.135
X129.54Y-69.215
X129.54Y-74.295
X129.54Y-79.375
X130.048Y-108.204
X133.35Y-64.135
X133.35Y-69.215
X133.35Y-74.295
X133.35Y-79.375
X135.128Y-108.204
X137.16Y-64.135
X137.16Y-69.215
X137.16Y-74.295
X137.16Y-79.375
X140.97Y-64.135
X140.97Y-69.215
X140.97Y-74.295
X140.97Y-79.375
X144.145Y-107.95
X144.145Y-112.395
X144.78Y-64.135
X144.78Y-69.215
X144.78Y-74.295
X144.78Y-79.375
X149.225Y-107.95
X149.225Y-112.395
X149.86Y-64.135
X149.86Y-69.215
X149.86Y-74.295
X149.86Y-79.375
X158.75Y-99.06
X158.75Y-102.87
X160.02Y-76.2
X160.02Y-81.28
X163.83Y-99.06
X163.83Y-102.87
X167.132Y-88.9
X167.132Y-93.98
X167.64Y-99.06
X167.64Y-102.87
X172.72Y-88.9
X172.72Y-93.9
X172.72Y-99.06
X172.72Y-102.87
X177.8Y-99.06
X177.8Y-104.06
X179.07Y-76.2
X179.07Y-81.28
X179.07Y-88.9
X179.07Y-93.98
X185.42Y-76.2
X185.42Y-81.28
T5
X185.42Y-101.6
X185.42Y-106.6
T6
X111.125Y-116.84
X113.665Y-116.84
X116.205Y-116.84
X118.745Y-116.84
X121.285Y-116.84
X123.825Y-116.84
X126.365Y-116.84
X128.905Y-116.84
X131.445Y-116.84
X133.985Y-116.84
X136.525Y-116.84
X139.065Y-116.84
X141.605Y-116.84
X144.145Y-116.84
X146.685Y-116.84
X149.225Y-116.84
X153.67Y-113.03
X153.67Y-115.57
X157.48Y-113.03
X157.48Y-115.57
X161.29Y-113.03
X161.29Y-115.57
T7
X104.14Y-85.09
X104.14Y-102.87
X106.68Y-85.09
X106.68Y-102.87
X109.22Y-85.09
X109.22Y-102.87
X111.76Y-85.09
X111.76Y-102.87
X114.3Y-85.09
X114.3Y-102.87
X116.84Y-85.09
X116.84Y-102.87
X119.38Y-85.09
X119.38Y-102.87
X121.92Y-85.09
X121.92Y-102.87
X124.46Y-85.09
X124.46Y-102.87
X127.Y-85.09
X127.Y-102.87
X129.54Y-85.09
X129.54Y-102.87
X132.08Y-85.09
X132.08Y-102.87
X134.62Y-85.09
X134.62Y-102.87
X137.16Y-85.09
X137.16Y-102.87
X139.7Y-85.09
X139.7Y-102.87
X142.24Y-85.09
X142.24Y-102.87
X144.78Y-85.09
X144.78Y-102.87
X147.32Y-85.09
X147.32Y-102.87
X149.86Y-85.09
X149.86Y-102.87
X152.17Y-91.44
X152.17Y-93.98
X152.17Y-96.52
X152.4Y-85.09
X152.4Y-102.87
T8
X167.64Y-107.95
X177.8Y-107.95
X179.07Y-85.09
X186.69Y-85.09
T9
X167.005Y-114.3
X173.355Y-114.3
X182.88Y-114.3
X189.23Y-114.3
T10
X157.48Y-63.5
X162.56Y-63.5
X167.64Y-63.5
X172.72Y-63.5
X177.8Y-63.5
X182.88Y-63.5
X187.96Y-63.5
X195.58Y-71.12
X195.58Y-76.2
X195.58Y-81.28
X195.58Y-87.63
X195.58Y-92.71
X195.58Y-97.79
X195.58Y-104.14
X195.58Y-109.22
T0
M30
