G04 #@! TF.FileFunction,Legend,Top*
%FSLAX46Y46*%
G04 Gerber Fmt 4.6, Leading zero omitted, Abs format (unit mm)*
G04 Created by KiCad (PCBNEW 4.0.5+dfsg1-4+deb9u1) date Sat Oct  1 11:34:18 2022*
%MOMM*%
%LPD*%
G01*
G04 APERTURE LIST*
%ADD10C,0.100000*%
%ADD11C,0.300000*%
%ADD12C,0.200000*%
%ADD13C,0.150000*%
%ADD14C,0.120000*%
G04 APERTURE END LIST*
D10*
D11*
X158497858Y-69663571D02*
X158497858Y-70020714D01*
X158140715Y-69877857D02*
X158497858Y-70020714D01*
X158855000Y-69877857D01*
X158283572Y-70306429D02*
X158497858Y-70020714D01*
X158712143Y-70306429D01*
X160783572Y-69663571D02*
X160783572Y-70020714D01*
X160426429Y-69877857D02*
X160783572Y-70020714D01*
X161140714Y-69877857D01*
X160569286Y-70306429D02*
X160783572Y-70020714D01*
X160997857Y-70306429D01*
X162855000Y-71163571D02*
X162855000Y-69663571D01*
X163355000Y-70735000D01*
X163855000Y-69663571D01*
X163855000Y-71163571D01*
X164569286Y-71163571D02*
X164569286Y-70163571D01*
X164569286Y-69663571D02*
X164497857Y-69735000D01*
X164569286Y-69806429D01*
X164640714Y-69735000D01*
X164569286Y-69663571D01*
X164569286Y-69806429D01*
X165283572Y-70163571D02*
X165283572Y-71163571D01*
X165283572Y-70306429D02*
X165355000Y-70235000D01*
X165497858Y-70163571D01*
X165712143Y-70163571D01*
X165855000Y-70235000D01*
X165926429Y-70377857D01*
X165926429Y-71163571D01*
X166640715Y-71163571D02*
X166640715Y-70163571D01*
X166640715Y-69663571D02*
X166569286Y-69735000D01*
X166640715Y-69806429D01*
X166712143Y-69735000D01*
X166640715Y-69663571D01*
X166640715Y-69806429D01*
X168426429Y-71092143D02*
X168569286Y-71163571D01*
X168855001Y-71163571D01*
X168997858Y-71092143D01*
X169069286Y-70949286D01*
X169069286Y-70877857D01*
X168997858Y-70735000D01*
X168855001Y-70663571D01*
X168640715Y-70663571D01*
X168497858Y-70592143D01*
X168426429Y-70449286D01*
X168426429Y-70377857D01*
X168497858Y-70235000D01*
X168640715Y-70163571D01*
X168855001Y-70163571D01*
X168997858Y-70235000D01*
X170283572Y-71092143D02*
X170140715Y-71163571D01*
X169855001Y-71163571D01*
X169712144Y-71092143D01*
X169640715Y-70949286D01*
X169640715Y-70377857D01*
X169712144Y-70235000D01*
X169855001Y-70163571D01*
X170140715Y-70163571D01*
X170283572Y-70235000D01*
X170355001Y-70377857D01*
X170355001Y-70520714D01*
X169640715Y-70663571D01*
X170997858Y-71163571D02*
X170997858Y-70163571D01*
X170997858Y-70449286D02*
X171069286Y-70306429D01*
X171140715Y-70235000D01*
X171283572Y-70163571D01*
X171426429Y-70163571D01*
X171926429Y-71163571D02*
X171926429Y-70163571D01*
X171926429Y-69663571D02*
X171855000Y-69735000D01*
X171926429Y-69806429D01*
X171997857Y-69735000D01*
X171926429Y-69663571D01*
X171926429Y-69806429D01*
X173283572Y-71163571D02*
X173283572Y-70377857D01*
X173212143Y-70235000D01*
X173069286Y-70163571D01*
X172783572Y-70163571D01*
X172640715Y-70235000D01*
X173283572Y-71092143D02*
X173140715Y-71163571D01*
X172783572Y-71163571D01*
X172640715Y-71092143D01*
X172569286Y-70949286D01*
X172569286Y-70806429D01*
X172640715Y-70663571D01*
X172783572Y-70592143D01*
X173140715Y-70592143D01*
X173283572Y-70520714D01*
X174212144Y-71163571D02*
X174069286Y-71092143D01*
X173997858Y-70949286D01*
X173997858Y-69663571D01*
X176569286Y-71092143D02*
X176426429Y-71163571D01*
X176140715Y-71163571D01*
X175997857Y-71092143D01*
X175926429Y-71020714D01*
X175855000Y-70877857D01*
X175855000Y-70449286D01*
X175926429Y-70306429D01*
X175997857Y-70235000D01*
X176140715Y-70163571D01*
X176426429Y-70163571D01*
X176569286Y-70235000D01*
X177426429Y-71163571D02*
X177283571Y-71092143D01*
X177212143Y-71020714D01*
X177140714Y-70877857D01*
X177140714Y-70449286D01*
X177212143Y-70306429D01*
X177283571Y-70235000D01*
X177426429Y-70163571D01*
X177640714Y-70163571D01*
X177783571Y-70235000D01*
X177855000Y-70306429D01*
X177926429Y-70449286D01*
X177926429Y-70877857D01*
X177855000Y-71020714D01*
X177783571Y-71092143D01*
X177640714Y-71163571D01*
X177426429Y-71163571D01*
X178569286Y-70163571D02*
X178569286Y-71163571D01*
X178569286Y-70306429D02*
X178640714Y-70235000D01*
X178783572Y-70163571D01*
X178997857Y-70163571D01*
X179140714Y-70235000D01*
X179212143Y-70377857D01*
X179212143Y-71163571D01*
X179855000Y-71092143D02*
X179997857Y-71163571D01*
X180283572Y-71163571D01*
X180426429Y-71092143D01*
X180497857Y-70949286D01*
X180497857Y-70877857D01*
X180426429Y-70735000D01*
X180283572Y-70663571D01*
X180069286Y-70663571D01*
X179926429Y-70592143D01*
X179855000Y-70449286D01*
X179855000Y-70377857D01*
X179926429Y-70235000D01*
X180069286Y-70163571D01*
X180283572Y-70163571D01*
X180426429Y-70235000D01*
X181355001Y-71163571D02*
X181212143Y-71092143D01*
X181140715Y-71020714D01*
X181069286Y-70877857D01*
X181069286Y-70449286D01*
X181140715Y-70306429D01*
X181212143Y-70235000D01*
X181355001Y-70163571D01*
X181569286Y-70163571D01*
X181712143Y-70235000D01*
X181783572Y-70306429D01*
X181855001Y-70449286D01*
X181855001Y-70877857D01*
X181783572Y-71020714D01*
X181712143Y-71092143D01*
X181569286Y-71163571D01*
X181355001Y-71163571D01*
X182712144Y-71163571D02*
X182569286Y-71092143D01*
X182497858Y-70949286D01*
X182497858Y-69663571D01*
X183855000Y-71092143D02*
X183712143Y-71163571D01*
X183426429Y-71163571D01*
X183283572Y-71092143D01*
X183212143Y-70949286D01*
X183212143Y-70377857D01*
X183283572Y-70235000D01*
X183426429Y-70163571D01*
X183712143Y-70163571D01*
X183855000Y-70235000D01*
X183926429Y-70377857D01*
X183926429Y-70520714D01*
X183212143Y-70663571D01*
X185926429Y-69663571D02*
X185926429Y-70020714D01*
X185569286Y-69877857D02*
X185926429Y-70020714D01*
X186283571Y-69877857D01*
X185712143Y-70306429D02*
X185926429Y-70020714D01*
X186140714Y-70306429D01*
X188212143Y-69663571D02*
X188212143Y-70020714D01*
X187855000Y-69877857D02*
X188212143Y-70020714D01*
X188569285Y-69877857D01*
X187997857Y-70306429D02*
X188212143Y-70020714D01*
X188426428Y-70306429D01*
D12*
X175895000Y-73660000D02*
X175895000Y-82550000D01*
X163195000Y-73660000D02*
X175895000Y-73660000D01*
X163195000Y-82550000D02*
X163195000Y-73660000D01*
X175895000Y-82550000D02*
X163195000Y-82550000D01*
X126365000Y-75565000D02*
X126365000Y-74930000D01*
X107315000Y-75565000D02*
X126365000Y-75565000D01*
X107315000Y-65405000D02*
X107315000Y-75565000D01*
X126365000Y-65405000D02*
X107315000Y-65405000D01*
X126365000Y-74930000D02*
X126365000Y-65405000D01*
D13*
X108759524Y-66717143D02*
X108711905Y-66764762D01*
X108569048Y-66812381D01*
X108473810Y-66812381D01*
X108330952Y-66764762D01*
X108235714Y-66669524D01*
X108188095Y-66574286D01*
X108140476Y-66383810D01*
X108140476Y-66240952D01*
X108188095Y-66050476D01*
X108235714Y-65955238D01*
X108330952Y-65860000D01*
X108473810Y-65812381D01*
X108569048Y-65812381D01*
X108711905Y-65860000D01*
X108759524Y-65907619D01*
X109330952Y-66812381D02*
X109235714Y-66764762D01*
X109188095Y-66717143D01*
X109140476Y-66621905D01*
X109140476Y-66336190D01*
X109188095Y-66240952D01*
X109235714Y-66193333D01*
X109330952Y-66145714D01*
X109473810Y-66145714D01*
X109569048Y-66193333D01*
X109616667Y-66240952D01*
X109664286Y-66336190D01*
X109664286Y-66621905D01*
X109616667Y-66717143D01*
X109569048Y-66764762D01*
X109473810Y-66812381D01*
X109330952Y-66812381D01*
X110092857Y-66145714D02*
X110092857Y-66812381D01*
X110092857Y-66240952D02*
X110140476Y-66193333D01*
X110235714Y-66145714D01*
X110378572Y-66145714D01*
X110473810Y-66193333D01*
X110521429Y-66288571D01*
X110521429Y-66812381D01*
X110997619Y-66145714D02*
X110997619Y-66812381D01*
X110997619Y-66240952D02*
X111045238Y-66193333D01*
X111140476Y-66145714D01*
X111283334Y-66145714D01*
X111378572Y-66193333D01*
X111426191Y-66288571D01*
X111426191Y-66812381D01*
X112283334Y-66764762D02*
X112188096Y-66812381D01*
X111997619Y-66812381D01*
X111902381Y-66764762D01*
X111854762Y-66669524D01*
X111854762Y-66288571D01*
X111902381Y-66193333D01*
X111997619Y-66145714D01*
X112188096Y-66145714D01*
X112283334Y-66193333D01*
X112330953Y-66288571D01*
X112330953Y-66383810D01*
X111854762Y-66479048D01*
X113188096Y-66764762D02*
X113092858Y-66812381D01*
X112902381Y-66812381D01*
X112807143Y-66764762D01*
X112759524Y-66717143D01*
X112711905Y-66621905D01*
X112711905Y-66336190D01*
X112759524Y-66240952D01*
X112807143Y-66193333D01*
X112902381Y-66145714D01*
X113092858Y-66145714D01*
X113188096Y-66193333D01*
X113473810Y-66145714D02*
X113854762Y-66145714D01*
X113616667Y-65812381D02*
X113616667Y-66669524D01*
X113664286Y-66764762D01*
X113759524Y-66812381D01*
X113854762Y-66812381D01*
X114330953Y-66812381D02*
X114235715Y-66764762D01*
X114188096Y-66717143D01*
X114140477Y-66621905D01*
X114140477Y-66336190D01*
X114188096Y-66240952D01*
X114235715Y-66193333D01*
X114330953Y-66145714D01*
X114473811Y-66145714D01*
X114569049Y-66193333D01*
X114616668Y-66240952D01*
X114664287Y-66336190D01*
X114664287Y-66621905D01*
X114616668Y-66717143D01*
X114569049Y-66764762D01*
X114473811Y-66812381D01*
X114330953Y-66812381D01*
X115092858Y-66812381D02*
X115092858Y-66145714D01*
X115092858Y-66336190D02*
X115140477Y-66240952D01*
X115188096Y-66193333D01*
X115283334Y-66145714D01*
X115378573Y-66145714D01*
X115664287Y-66764762D02*
X115759525Y-66812381D01*
X115950001Y-66812381D01*
X116045240Y-66764762D01*
X116092859Y-66669524D01*
X116092859Y-66621905D01*
X116045240Y-66526667D01*
X115950001Y-66479048D01*
X115807144Y-66479048D01*
X115711906Y-66431429D01*
X115664287Y-66336190D01*
X115664287Y-66288571D01*
X115711906Y-66193333D01*
X115807144Y-66145714D01*
X115950001Y-66145714D01*
X116045240Y-66193333D01*
X116521430Y-66717143D02*
X116569049Y-66764762D01*
X116521430Y-66812381D01*
X116473811Y-66764762D01*
X116521430Y-66717143D01*
X116521430Y-66812381D01*
X116521430Y-66193333D02*
X116569049Y-66240952D01*
X116521430Y-66288571D01*
X116473811Y-66240952D01*
X116521430Y-66193333D01*
X116521430Y-66288571D01*
X108473810Y-69112381D02*
X108473810Y-69826667D01*
X108426190Y-69969524D01*
X108330952Y-70064762D01*
X108188095Y-70112381D01*
X108092857Y-70112381D01*
X109473810Y-70112381D02*
X108902381Y-70112381D01*
X109188095Y-70112381D02*
X109188095Y-69112381D01*
X109092857Y-69255238D01*
X108997619Y-69350476D01*
X108902381Y-69398095D01*
X109902381Y-70017143D02*
X109950000Y-70064762D01*
X109902381Y-70112381D01*
X109854762Y-70064762D01*
X109902381Y-70017143D01*
X109902381Y-70112381D01*
X109902381Y-69493333D02*
X109950000Y-69540952D01*
X109902381Y-69588571D01*
X109854762Y-69540952D01*
X109902381Y-69493333D01*
X109902381Y-69588571D01*
X111140476Y-69731429D02*
X111902381Y-69731429D01*
X111521429Y-70112381D02*
X111521429Y-69350476D01*
X112854762Y-69112381D02*
X112378571Y-69112381D01*
X112330952Y-69588571D01*
X112378571Y-69540952D01*
X112473809Y-69493333D01*
X112711905Y-69493333D01*
X112807143Y-69540952D01*
X112854762Y-69588571D01*
X112902381Y-69683810D01*
X112902381Y-69921905D01*
X112854762Y-70017143D01*
X112807143Y-70064762D01*
X112711905Y-70112381D01*
X112473809Y-70112381D01*
X112378571Y-70064762D01*
X112330952Y-70017143D01*
X113188095Y-69112381D02*
X113521428Y-70112381D01*
X113854762Y-69112381D01*
X114950000Y-70112381D02*
X114950000Y-69112381D01*
X115188095Y-69112381D01*
X115330953Y-69160000D01*
X115426191Y-69255238D01*
X115473810Y-69350476D01*
X115521429Y-69540952D01*
X115521429Y-69683810D01*
X115473810Y-69874286D01*
X115426191Y-69969524D01*
X115330953Y-70064762D01*
X115188095Y-70112381D01*
X114950000Y-70112381D01*
X116521429Y-70017143D02*
X116473810Y-70064762D01*
X116330953Y-70112381D01*
X116235715Y-70112381D01*
X116092857Y-70064762D01*
X115997619Y-69969524D01*
X115950000Y-69874286D01*
X115902381Y-69683810D01*
X115902381Y-69540952D01*
X115950000Y-69350476D01*
X115997619Y-69255238D01*
X116092857Y-69160000D01*
X116235715Y-69112381D01*
X116330953Y-69112381D01*
X116473810Y-69160000D01*
X116521429Y-69207619D01*
X117711905Y-70112381D02*
X117711905Y-69445714D01*
X117711905Y-69112381D02*
X117664286Y-69160000D01*
X117711905Y-69207619D01*
X117759524Y-69160000D01*
X117711905Y-69112381D01*
X117711905Y-69207619D01*
X118188095Y-69445714D02*
X118188095Y-70112381D01*
X118188095Y-69540952D02*
X118235714Y-69493333D01*
X118330952Y-69445714D01*
X118473810Y-69445714D01*
X118569048Y-69493333D01*
X118616667Y-69588571D01*
X118616667Y-70112381D01*
X108473810Y-70762381D02*
X108473810Y-71476667D01*
X108426190Y-71619524D01*
X108330952Y-71714762D01*
X108188095Y-71762381D01*
X108092857Y-71762381D01*
X108902381Y-70857619D02*
X108950000Y-70810000D01*
X109045238Y-70762381D01*
X109283334Y-70762381D01*
X109378572Y-70810000D01*
X109426191Y-70857619D01*
X109473810Y-70952857D01*
X109473810Y-71048095D01*
X109426191Y-71190952D01*
X108854762Y-71762381D01*
X109473810Y-71762381D01*
X109902381Y-71667143D02*
X109950000Y-71714762D01*
X109902381Y-71762381D01*
X109854762Y-71714762D01*
X109902381Y-71667143D01*
X109902381Y-71762381D01*
X109902381Y-71143333D02*
X109950000Y-71190952D01*
X109902381Y-71238571D01*
X109854762Y-71190952D01*
X109902381Y-71143333D01*
X109902381Y-71238571D01*
X110997619Y-70762381D02*
X111569048Y-70762381D01*
X111283333Y-71762381D02*
X111283333Y-70762381D01*
X111759524Y-70762381D02*
X112330953Y-70762381D01*
X112045238Y-71762381D02*
X112045238Y-70762381D01*
X113140477Y-71762381D02*
X112664286Y-71762381D01*
X112664286Y-70762381D01*
X114188096Y-71714762D02*
X114283334Y-71762381D01*
X114473810Y-71762381D01*
X114569049Y-71714762D01*
X114616668Y-71619524D01*
X114616668Y-71571905D01*
X114569049Y-71476667D01*
X114473810Y-71429048D01*
X114330953Y-71429048D01*
X114235715Y-71381429D01*
X114188096Y-71286190D01*
X114188096Y-71238571D01*
X114235715Y-71143333D01*
X114330953Y-71095714D01*
X114473810Y-71095714D01*
X114569049Y-71143333D01*
X115426192Y-71714762D02*
X115330954Y-71762381D01*
X115140477Y-71762381D01*
X115045239Y-71714762D01*
X114997620Y-71619524D01*
X114997620Y-71238571D01*
X115045239Y-71143333D01*
X115140477Y-71095714D01*
X115330954Y-71095714D01*
X115426192Y-71143333D01*
X115473811Y-71238571D01*
X115473811Y-71333810D01*
X114997620Y-71429048D01*
X115902382Y-71762381D02*
X115902382Y-71095714D01*
X115902382Y-71286190D02*
X115950001Y-71190952D01*
X115997620Y-71143333D01*
X116092858Y-71095714D01*
X116188097Y-71095714D01*
X116521430Y-71762381D02*
X116521430Y-71095714D01*
X116521430Y-70762381D02*
X116473811Y-70810000D01*
X116521430Y-70857619D01*
X116569049Y-70810000D01*
X116521430Y-70762381D01*
X116521430Y-70857619D01*
X117426192Y-71762381D02*
X117426192Y-71238571D01*
X117378573Y-71143333D01*
X117283335Y-71095714D01*
X117092858Y-71095714D01*
X116997620Y-71143333D01*
X117426192Y-71714762D02*
X117330954Y-71762381D01*
X117092858Y-71762381D01*
X116997620Y-71714762D01*
X116950001Y-71619524D01*
X116950001Y-71524286D01*
X116997620Y-71429048D01*
X117092858Y-71381429D01*
X117330954Y-71381429D01*
X117426192Y-71333810D01*
X118045239Y-71762381D02*
X117950001Y-71714762D01*
X117902382Y-71619524D01*
X117902382Y-70762381D01*
X119188097Y-71095714D02*
X119188097Y-72095714D01*
X119188097Y-71143333D02*
X119283335Y-71095714D01*
X119473812Y-71095714D01*
X119569050Y-71143333D01*
X119616669Y-71190952D01*
X119664288Y-71286190D01*
X119664288Y-71571905D01*
X119616669Y-71667143D01*
X119569050Y-71714762D01*
X119473812Y-71762381D01*
X119283335Y-71762381D01*
X119188097Y-71714762D01*
X120235716Y-71762381D02*
X120140478Y-71714762D01*
X120092859Y-71667143D01*
X120045240Y-71571905D01*
X120045240Y-71286190D01*
X120092859Y-71190952D01*
X120140478Y-71143333D01*
X120235716Y-71095714D01*
X120378574Y-71095714D01*
X120473812Y-71143333D01*
X120521431Y-71190952D01*
X120569050Y-71286190D01*
X120569050Y-71571905D01*
X120521431Y-71667143D01*
X120473812Y-71714762D01*
X120378574Y-71762381D01*
X120235716Y-71762381D01*
X120997621Y-71762381D02*
X120997621Y-71095714D01*
X120997621Y-71286190D02*
X121045240Y-71190952D01*
X121092859Y-71143333D01*
X121188097Y-71095714D01*
X121283336Y-71095714D01*
X121473812Y-71095714D02*
X121854764Y-71095714D01*
X121616669Y-70762381D02*
X121616669Y-71619524D01*
X121664288Y-71714762D01*
X121759526Y-71762381D01*
X121854764Y-71762381D01*
X108473810Y-72412381D02*
X108473810Y-73126667D01*
X108426190Y-73269524D01*
X108330952Y-73364762D01*
X108188095Y-73412381D01*
X108092857Y-73412381D01*
X108854762Y-72412381D02*
X109473810Y-72412381D01*
X109140476Y-72793333D01*
X109283334Y-72793333D01*
X109378572Y-72840952D01*
X109426191Y-72888571D01*
X109473810Y-72983810D01*
X109473810Y-73221905D01*
X109426191Y-73317143D01*
X109378572Y-73364762D01*
X109283334Y-73412381D01*
X108997619Y-73412381D01*
X108902381Y-73364762D01*
X108854762Y-73317143D01*
X109902381Y-73317143D02*
X109950000Y-73364762D01*
X109902381Y-73412381D01*
X109854762Y-73364762D01*
X109902381Y-73317143D01*
X109902381Y-73412381D01*
X109902381Y-72793333D02*
X109950000Y-72840952D01*
X109902381Y-72888571D01*
X109854762Y-72840952D01*
X109902381Y-72793333D01*
X109902381Y-72888571D01*
X111711905Y-73412381D02*
X111378571Y-72936190D01*
X111140476Y-73412381D02*
X111140476Y-72412381D01*
X111521429Y-72412381D01*
X111616667Y-72460000D01*
X111664286Y-72507619D01*
X111711905Y-72602857D01*
X111711905Y-72745714D01*
X111664286Y-72840952D01*
X111616667Y-72888571D01*
X111521429Y-72936190D01*
X111140476Y-72936190D01*
X112092857Y-73364762D02*
X112235714Y-73412381D01*
X112473810Y-73412381D01*
X112569048Y-73364762D01*
X112616667Y-73317143D01*
X112664286Y-73221905D01*
X112664286Y-73126667D01*
X112616667Y-73031429D01*
X112569048Y-72983810D01*
X112473810Y-72936190D01*
X112283333Y-72888571D01*
X112188095Y-72840952D01*
X112140476Y-72793333D01*
X112092857Y-72698095D01*
X112092857Y-72602857D01*
X112140476Y-72507619D01*
X112188095Y-72460000D01*
X112283333Y-72412381D01*
X112521429Y-72412381D01*
X112664286Y-72460000D01*
X113045238Y-72507619D02*
X113092857Y-72460000D01*
X113188095Y-72412381D01*
X113426191Y-72412381D01*
X113521429Y-72460000D01*
X113569048Y-72507619D01*
X113616667Y-72602857D01*
X113616667Y-72698095D01*
X113569048Y-72840952D01*
X112997619Y-73412381D01*
X113616667Y-73412381D01*
X113950000Y-72412381D02*
X114569048Y-72412381D01*
X114235714Y-72793333D01*
X114378572Y-72793333D01*
X114473810Y-72840952D01*
X114521429Y-72888571D01*
X114569048Y-72983810D01*
X114569048Y-73221905D01*
X114521429Y-73317143D01*
X114473810Y-73364762D01*
X114378572Y-73412381D01*
X114092857Y-73412381D01*
X113997619Y-73364762D01*
X113950000Y-73317143D01*
X114950000Y-72507619D02*
X114997619Y-72460000D01*
X115092857Y-72412381D01*
X115330953Y-72412381D01*
X115426191Y-72460000D01*
X115473810Y-72507619D01*
X115521429Y-72602857D01*
X115521429Y-72698095D01*
X115473810Y-72840952D01*
X114902381Y-73412381D01*
X115521429Y-73412381D01*
X116521429Y-73317143D02*
X116473810Y-73364762D01*
X116330953Y-73412381D01*
X116235715Y-73412381D01*
X116092857Y-73364762D01*
X115997619Y-73269524D01*
X115950000Y-73174286D01*
X115902381Y-72983810D01*
X115902381Y-72840952D01*
X115950000Y-72650476D01*
X115997619Y-72555238D01*
X116092857Y-72460000D01*
X116235715Y-72412381D01*
X116330953Y-72412381D01*
X116473810Y-72460000D01*
X116521429Y-72507619D01*
X117664286Y-73364762D02*
X117759524Y-73412381D01*
X117950000Y-73412381D01*
X118045239Y-73364762D01*
X118092858Y-73269524D01*
X118092858Y-73221905D01*
X118045239Y-73126667D01*
X117950000Y-73079048D01*
X117807143Y-73079048D01*
X117711905Y-73031429D01*
X117664286Y-72936190D01*
X117664286Y-72888571D01*
X117711905Y-72793333D01*
X117807143Y-72745714D01*
X117950000Y-72745714D01*
X118045239Y-72793333D01*
X118902382Y-73364762D02*
X118807144Y-73412381D01*
X118616667Y-73412381D01*
X118521429Y-73364762D01*
X118473810Y-73269524D01*
X118473810Y-72888571D01*
X118521429Y-72793333D01*
X118616667Y-72745714D01*
X118807144Y-72745714D01*
X118902382Y-72793333D01*
X118950001Y-72888571D01*
X118950001Y-72983810D01*
X118473810Y-73079048D01*
X119378572Y-73412381D02*
X119378572Y-72745714D01*
X119378572Y-72936190D02*
X119426191Y-72840952D01*
X119473810Y-72793333D01*
X119569048Y-72745714D01*
X119664287Y-72745714D01*
X119997620Y-73412381D02*
X119997620Y-72745714D01*
X119997620Y-72412381D02*
X119950001Y-72460000D01*
X119997620Y-72507619D01*
X120045239Y-72460000D01*
X119997620Y-72412381D01*
X119997620Y-72507619D01*
X120902382Y-73412381D02*
X120902382Y-72888571D01*
X120854763Y-72793333D01*
X120759525Y-72745714D01*
X120569048Y-72745714D01*
X120473810Y-72793333D01*
X120902382Y-73364762D02*
X120807144Y-73412381D01*
X120569048Y-73412381D01*
X120473810Y-73364762D01*
X120426191Y-73269524D01*
X120426191Y-73174286D01*
X120473810Y-73079048D01*
X120569048Y-73031429D01*
X120807144Y-73031429D01*
X120902382Y-72983810D01*
X121521429Y-73412381D02*
X121426191Y-73364762D01*
X121378572Y-73269524D01*
X121378572Y-72412381D01*
X122664287Y-72745714D02*
X122664287Y-73745714D01*
X122664287Y-72793333D02*
X122759525Y-72745714D01*
X122950002Y-72745714D01*
X123045240Y-72793333D01*
X123092859Y-72840952D01*
X123140478Y-72936190D01*
X123140478Y-73221905D01*
X123092859Y-73317143D01*
X123045240Y-73364762D01*
X122950002Y-73412381D01*
X122759525Y-73412381D01*
X122664287Y-73364762D01*
X123711906Y-73412381D02*
X123616668Y-73364762D01*
X123569049Y-73317143D01*
X123521430Y-73221905D01*
X123521430Y-72936190D01*
X123569049Y-72840952D01*
X123616668Y-72793333D01*
X123711906Y-72745714D01*
X123854764Y-72745714D01*
X123950002Y-72793333D01*
X123997621Y-72840952D01*
X124045240Y-72936190D01*
X124045240Y-73221905D01*
X123997621Y-73317143D01*
X123950002Y-73364762D01*
X123854764Y-73412381D01*
X123711906Y-73412381D01*
X124473811Y-73412381D02*
X124473811Y-72745714D01*
X124473811Y-72936190D02*
X124521430Y-72840952D01*
X124569049Y-72793333D01*
X124664287Y-72745714D01*
X124759526Y-72745714D01*
X124950002Y-72745714D02*
X125330954Y-72745714D01*
X125092859Y-72412381D02*
X125092859Y-73269524D01*
X125140478Y-73364762D01*
X125235716Y-73412381D01*
X125330954Y-73412381D01*
X108473810Y-74062381D02*
X108473810Y-74776667D01*
X108426190Y-74919524D01*
X108330952Y-75014762D01*
X108188095Y-75062381D01*
X108092857Y-75062381D01*
X109378572Y-74395714D02*
X109378572Y-75062381D01*
X109140476Y-74014762D02*
X108902381Y-74729048D01*
X109521429Y-74729048D01*
X109902381Y-74967143D02*
X109950000Y-75014762D01*
X109902381Y-75062381D01*
X109854762Y-75014762D01*
X109902381Y-74967143D01*
X109902381Y-75062381D01*
X109902381Y-74443333D02*
X109950000Y-74490952D01*
X109902381Y-74538571D01*
X109854762Y-74490952D01*
X109902381Y-74443333D01*
X109902381Y-74538571D01*
X111140476Y-74395714D02*
X111140476Y-75395714D01*
X111140476Y-74443333D02*
X111235714Y-74395714D01*
X111426191Y-74395714D01*
X111521429Y-74443333D01*
X111569048Y-74490952D01*
X111616667Y-74586190D01*
X111616667Y-74871905D01*
X111569048Y-74967143D01*
X111521429Y-75014762D01*
X111426191Y-75062381D01*
X111235714Y-75062381D01*
X111140476Y-75014762D01*
X112473810Y-74395714D02*
X112473810Y-75062381D01*
X112045238Y-74395714D02*
X112045238Y-74919524D01*
X112092857Y-75014762D01*
X112188095Y-75062381D01*
X112330953Y-75062381D01*
X112426191Y-75014762D01*
X112473810Y-74967143D01*
X112902381Y-75014762D02*
X112997619Y-75062381D01*
X113188095Y-75062381D01*
X113283334Y-75014762D01*
X113330953Y-74919524D01*
X113330953Y-74871905D01*
X113283334Y-74776667D01*
X113188095Y-74729048D01*
X113045238Y-74729048D01*
X112950000Y-74681429D01*
X112902381Y-74586190D01*
X112902381Y-74538571D01*
X112950000Y-74443333D01*
X113045238Y-74395714D01*
X113188095Y-74395714D01*
X113283334Y-74443333D01*
X113759524Y-75062381D02*
X113759524Y-74062381D01*
X114188096Y-75062381D02*
X114188096Y-74538571D01*
X114140477Y-74443333D01*
X114045239Y-74395714D01*
X113902381Y-74395714D01*
X113807143Y-74443333D01*
X113759524Y-74490952D01*
X115426191Y-75062381D02*
X115426191Y-74062381D01*
X115426191Y-74443333D02*
X115521429Y-74395714D01*
X115711906Y-74395714D01*
X115807144Y-74443333D01*
X115854763Y-74490952D01*
X115902382Y-74586190D01*
X115902382Y-74871905D01*
X115854763Y-74967143D01*
X115807144Y-75014762D01*
X115711906Y-75062381D01*
X115521429Y-75062381D01*
X115426191Y-75014762D01*
X116759525Y-74395714D02*
X116759525Y-75062381D01*
X116330953Y-74395714D02*
X116330953Y-74919524D01*
X116378572Y-75014762D01*
X116473810Y-75062381D01*
X116616668Y-75062381D01*
X116711906Y-75014762D01*
X116759525Y-74967143D01*
X117092858Y-74395714D02*
X117473810Y-74395714D01*
X117235715Y-74062381D02*
X117235715Y-74919524D01*
X117283334Y-75014762D01*
X117378572Y-75062381D01*
X117473810Y-75062381D01*
X117664287Y-74395714D02*
X118045239Y-74395714D01*
X117807144Y-74062381D02*
X117807144Y-74919524D01*
X117854763Y-75014762D01*
X117950001Y-75062381D01*
X118045239Y-75062381D01*
X118521430Y-75062381D02*
X118426192Y-75014762D01*
X118378573Y-74967143D01*
X118330954Y-74871905D01*
X118330954Y-74586190D01*
X118378573Y-74490952D01*
X118426192Y-74443333D01*
X118521430Y-74395714D01*
X118664288Y-74395714D01*
X118759526Y-74443333D01*
X118807145Y-74490952D01*
X118854764Y-74586190D01*
X118854764Y-74871905D01*
X118807145Y-74967143D01*
X118759526Y-75014762D01*
X118664288Y-75062381D01*
X118521430Y-75062381D01*
X119283335Y-74395714D02*
X119283335Y-75062381D01*
X119283335Y-74490952D02*
X119330954Y-74443333D01*
X119426192Y-74395714D01*
X119569050Y-74395714D01*
X119664288Y-74443333D01*
X119711907Y-74538571D01*
X119711907Y-75062381D01*
X120140478Y-75014762D02*
X120235716Y-75062381D01*
X120426192Y-75062381D01*
X120521431Y-75014762D01*
X120569050Y-74919524D01*
X120569050Y-74871905D01*
X120521431Y-74776667D01*
X120426192Y-74729048D01*
X120283335Y-74729048D01*
X120188097Y-74681429D01*
X120140478Y-74586190D01*
X120140478Y-74538571D01*
X120188097Y-74443333D01*
X120283335Y-74395714D01*
X120426192Y-74395714D01*
X120521431Y-74443333D01*
X121759526Y-75062381D02*
X121759526Y-74395714D01*
X121759526Y-74062381D02*
X121711907Y-74110000D01*
X121759526Y-74157619D01*
X121807145Y-74110000D01*
X121759526Y-74062381D01*
X121759526Y-74157619D01*
X122235716Y-74395714D02*
X122235716Y-75062381D01*
X122235716Y-74490952D02*
X122283335Y-74443333D01*
X122378573Y-74395714D01*
X122521431Y-74395714D01*
X122616669Y-74443333D01*
X122664288Y-74538571D01*
X122664288Y-75062381D01*
X164099810Y-74257381D02*
X164099810Y-74971667D01*
X164052190Y-75114524D01*
X163956952Y-75209762D01*
X163814095Y-75257381D01*
X163718857Y-75257381D01*
X165004572Y-74590714D02*
X165004572Y-75257381D01*
X164576000Y-74590714D02*
X164576000Y-75114524D01*
X164623619Y-75209762D01*
X164718857Y-75257381D01*
X164861715Y-75257381D01*
X164956953Y-75209762D01*
X165004572Y-75162143D01*
X165480762Y-75257381D02*
X165480762Y-74590714D01*
X165480762Y-74685952D02*
X165528381Y-74638333D01*
X165623619Y-74590714D01*
X165766477Y-74590714D01*
X165861715Y-74638333D01*
X165909334Y-74733571D01*
X165909334Y-75257381D01*
X165909334Y-74733571D02*
X165956953Y-74638333D01*
X166052191Y-74590714D01*
X166195048Y-74590714D01*
X166290286Y-74638333D01*
X166337905Y-74733571D01*
X166337905Y-75257381D01*
X166814095Y-74590714D02*
X166814095Y-75590714D01*
X166814095Y-74638333D02*
X166909333Y-74590714D01*
X167099810Y-74590714D01*
X167195048Y-74638333D01*
X167242667Y-74685952D01*
X167290286Y-74781190D01*
X167290286Y-75066905D01*
X167242667Y-75162143D01*
X167195048Y-75209762D01*
X167099810Y-75257381D01*
X166909333Y-75257381D01*
X166814095Y-75209762D01*
X168099810Y-75209762D02*
X168004572Y-75257381D01*
X167814095Y-75257381D01*
X167718857Y-75209762D01*
X167671238Y-75114524D01*
X167671238Y-74733571D01*
X167718857Y-74638333D01*
X167814095Y-74590714D01*
X168004572Y-74590714D01*
X168099810Y-74638333D01*
X168147429Y-74733571D01*
X168147429Y-74828810D01*
X167671238Y-74924048D01*
X168576000Y-75257381D02*
X168576000Y-74590714D01*
X168576000Y-74781190D02*
X168623619Y-74685952D01*
X168671238Y-74638333D01*
X168766476Y-74590714D01*
X168861715Y-74590714D01*
X169147429Y-75209762D02*
X169242667Y-75257381D01*
X169433143Y-75257381D01*
X169528382Y-75209762D01*
X169576001Y-75114524D01*
X169576001Y-75066905D01*
X169528382Y-74971667D01*
X169433143Y-74924048D01*
X169290286Y-74924048D01*
X169195048Y-74876429D01*
X169147429Y-74781190D01*
X169147429Y-74733571D01*
X169195048Y-74638333D01*
X169290286Y-74590714D01*
X169433143Y-74590714D01*
X169528382Y-74638333D01*
X170004572Y-75162143D02*
X170052191Y-75209762D01*
X170004572Y-75257381D01*
X169956953Y-75209762D01*
X170004572Y-75162143D01*
X170004572Y-75257381D01*
X170004572Y-74638333D02*
X170052191Y-74685952D01*
X170004572Y-74733571D01*
X169956953Y-74685952D01*
X170004572Y-74638333D01*
X170004572Y-74733571D01*
X164099810Y-77557381D02*
X164099810Y-78271667D01*
X164052190Y-78414524D01*
X163956952Y-78509762D01*
X163814095Y-78557381D01*
X163718857Y-78557381D01*
X164576000Y-78557381D02*
X164576000Y-77557381D01*
X164956953Y-77557381D01*
X165052191Y-77605000D01*
X165099810Y-77652619D01*
X165147429Y-77747857D01*
X165147429Y-77890714D01*
X165099810Y-77985952D01*
X165052191Y-78033571D01*
X164956953Y-78081190D01*
X164576000Y-78081190D01*
X166099810Y-78557381D02*
X165528381Y-78557381D01*
X165814095Y-78557381D02*
X165814095Y-77557381D01*
X165718857Y-77700238D01*
X165623619Y-77795476D01*
X165528381Y-77843095D01*
X166528381Y-78462143D02*
X166576000Y-78509762D01*
X166528381Y-78557381D01*
X166480762Y-78509762D01*
X166528381Y-78462143D01*
X166528381Y-78557381D01*
X166528381Y-77938333D02*
X166576000Y-77985952D01*
X166528381Y-78033571D01*
X166480762Y-77985952D01*
X166528381Y-77938333D01*
X166528381Y-78033571D01*
X168337905Y-78557381D02*
X168004571Y-78081190D01*
X167766476Y-78557381D02*
X167766476Y-77557381D01*
X168147429Y-77557381D01*
X168242667Y-77605000D01*
X168290286Y-77652619D01*
X168337905Y-77747857D01*
X168337905Y-77890714D01*
X168290286Y-77985952D01*
X168242667Y-78033571D01*
X168147429Y-78081190D01*
X167766476Y-78081190D01*
X169147429Y-78509762D02*
X169052191Y-78557381D01*
X168861714Y-78557381D01*
X168766476Y-78509762D01*
X168718857Y-78414524D01*
X168718857Y-78033571D01*
X168766476Y-77938333D01*
X168861714Y-77890714D01*
X169052191Y-77890714D01*
X169147429Y-77938333D01*
X169195048Y-78033571D01*
X169195048Y-78128810D01*
X168718857Y-78224048D01*
X169576000Y-78509762D02*
X169671238Y-78557381D01*
X169861714Y-78557381D01*
X169956953Y-78509762D01*
X170004572Y-78414524D01*
X170004572Y-78366905D01*
X169956953Y-78271667D01*
X169861714Y-78224048D01*
X169718857Y-78224048D01*
X169623619Y-78176429D01*
X169576000Y-78081190D01*
X169576000Y-78033571D01*
X169623619Y-77938333D01*
X169718857Y-77890714D01*
X169861714Y-77890714D01*
X169956953Y-77938333D01*
X170814096Y-78509762D02*
X170718858Y-78557381D01*
X170528381Y-78557381D01*
X170433143Y-78509762D01*
X170385524Y-78414524D01*
X170385524Y-78033571D01*
X170433143Y-77938333D01*
X170528381Y-77890714D01*
X170718858Y-77890714D01*
X170814096Y-77938333D01*
X170861715Y-78033571D01*
X170861715Y-78128810D01*
X170385524Y-78224048D01*
X171147429Y-77890714D02*
X171528381Y-77890714D01*
X171290286Y-77557381D02*
X171290286Y-78414524D01*
X171337905Y-78509762D01*
X171433143Y-78557381D01*
X171528381Y-78557381D01*
X164099810Y-79207381D02*
X164099810Y-79921667D01*
X164052190Y-80064524D01*
X163956952Y-80159762D01*
X163814095Y-80207381D01*
X163718857Y-80207381D01*
X164576000Y-80207381D02*
X164576000Y-79207381D01*
X164956953Y-79207381D01*
X165052191Y-79255000D01*
X165099810Y-79302619D01*
X165147429Y-79397857D01*
X165147429Y-79540714D01*
X165099810Y-79635952D01*
X165052191Y-79683571D01*
X164956953Y-79731190D01*
X164576000Y-79731190D01*
X165528381Y-79302619D02*
X165576000Y-79255000D01*
X165671238Y-79207381D01*
X165909334Y-79207381D01*
X166004572Y-79255000D01*
X166052191Y-79302619D01*
X166099810Y-79397857D01*
X166099810Y-79493095D01*
X166052191Y-79635952D01*
X165480762Y-80207381D01*
X166099810Y-80207381D01*
X166528381Y-80112143D02*
X166576000Y-80159762D01*
X166528381Y-80207381D01*
X166480762Y-80159762D01*
X166528381Y-80112143D01*
X166528381Y-80207381D01*
X166528381Y-79588333D02*
X166576000Y-79635952D01*
X166528381Y-79683571D01*
X166480762Y-79635952D01*
X166528381Y-79588333D01*
X166528381Y-79683571D01*
X167718857Y-79921667D02*
X168195048Y-79921667D01*
X167623619Y-80207381D02*
X167956952Y-79207381D01*
X168290286Y-80207381D01*
X169052191Y-79540714D02*
X169052191Y-80207381D01*
X168623619Y-79540714D02*
X168623619Y-80064524D01*
X168671238Y-80159762D01*
X168766476Y-80207381D01*
X168909334Y-80207381D01*
X169004572Y-80159762D01*
X169052191Y-80112143D01*
X169385524Y-79540714D02*
X169766476Y-79540714D01*
X169528381Y-79207381D02*
X169528381Y-80064524D01*
X169576000Y-80159762D01*
X169671238Y-80207381D01*
X169766476Y-80207381D01*
X170242667Y-80207381D02*
X170147429Y-80159762D01*
X170099810Y-80112143D01*
X170052191Y-80016905D01*
X170052191Y-79731190D01*
X170099810Y-79635952D01*
X170147429Y-79588333D01*
X170242667Y-79540714D01*
X170385525Y-79540714D01*
X170480763Y-79588333D01*
X170528382Y-79635952D01*
X170576001Y-79731190D01*
X170576001Y-80016905D01*
X170528382Y-80112143D01*
X170480763Y-80159762D01*
X170385525Y-80207381D01*
X170242667Y-80207381D01*
X170956953Y-80159762D02*
X171052191Y-80207381D01*
X171242667Y-80207381D01*
X171337906Y-80159762D01*
X171385525Y-80064524D01*
X171385525Y-80016905D01*
X171337906Y-79921667D01*
X171242667Y-79874048D01*
X171099810Y-79874048D01*
X171004572Y-79826429D01*
X170956953Y-79731190D01*
X170956953Y-79683571D01*
X171004572Y-79588333D01*
X171099810Y-79540714D01*
X171242667Y-79540714D01*
X171337906Y-79588333D01*
X172242668Y-80159762D02*
X172147430Y-80207381D01*
X171956953Y-80207381D01*
X171861715Y-80159762D01*
X171814096Y-80112143D01*
X171766477Y-80016905D01*
X171766477Y-79731190D01*
X171814096Y-79635952D01*
X171861715Y-79588333D01*
X171956953Y-79540714D01*
X172147430Y-79540714D01*
X172242668Y-79588333D01*
X172671239Y-80207381D02*
X172671239Y-79540714D01*
X172671239Y-79731190D02*
X172718858Y-79635952D01*
X172766477Y-79588333D01*
X172861715Y-79540714D01*
X172956954Y-79540714D01*
X173433144Y-80207381D02*
X173337906Y-80159762D01*
X173290287Y-80112143D01*
X173242668Y-80016905D01*
X173242668Y-79731190D01*
X173290287Y-79635952D01*
X173337906Y-79588333D01*
X173433144Y-79540714D01*
X173576002Y-79540714D01*
X173671240Y-79588333D01*
X173718859Y-79635952D01*
X173766478Y-79731190D01*
X173766478Y-80016905D01*
X173718859Y-80112143D01*
X173671240Y-80159762D01*
X173576002Y-80207381D01*
X173433144Y-80207381D01*
X174337906Y-80207381D02*
X174242668Y-80159762D01*
X174195049Y-80064524D01*
X174195049Y-79207381D01*
X174861716Y-80207381D02*
X174766478Y-80159762D01*
X174718859Y-80064524D01*
X174718859Y-79207381D01*
X164099810Y-80857381D02*
X164099810Y-81571667D01*
X164052190Y-81714524D01*
X163956952Y-81809762D01*
X163814095Y-81857381D01*
X163718857Y-81857381D01*
X164576000Y-81857381D02*
X164576000Y-80857381D01*
X164956953Y-80857381D01*
X165052191Y-80905000D01*
X165099810Y-80952619D01*
X165147429Y-81047857D01*
X165147429Y-81190714D01*
X165099810Y-81285952D01*
X165052191Y-81333571D01*
X164956953Y-81381190D01*
X164576000Y-81381190D01*
X165480762Y-80857381D02*
X166099810Y-80857381D01*
X165766476Y-81238333D01*
X165909334Y-81238333D01*
X166004572Y-81285952D01*
X166052191Y-81333571D01*
X166099810Y-81428810D01*
X166099810Y-81666905D01*
X166052191Y-81762143D01*
X166004572Y-81809762D01*
X165909334Y-81857381D01*
X165623619Y-81857381D01*
X165528381Y-81809762D01*
X165480762Y-81762143D01*
X166528381Y-81762143D02*
X166576000Y-81809762D01*
X166528381Y-81857381D01*
X166480762Y-81809762D01*
X166528381Y-81762143D01*
X166528381Y-81857381D01*
X166528381Y-81238333D02*
X166576000Y-81285952D01*
X166528381Y-81333571D01*
X166480762Y-81285952D01*
X166528381Y-81238333D01*
X166528381Y-81333571D01*
X168242667Y-81857381D02*
X167766476Y-81857381D01*
X167766476Y-80857381D01*
X168576000Y-81857381D02*
X168576000Y-81190714D01*
X168576000Y-80857381D02*
X168528381Y-80905000D01*
X168576000Y-80952619D01*
X168623619Y-80905000D01*
X168576000Y-80857381D01*
X168576000Y-80952619D01*
X169052190Y-81190714D02*
X169052190Y-81857381D01*
X169052190Y-81285952D02*
X169099809Y-81238333D01*
X169195047Y-81190714D01*
X169337905Y-81190714D01*
X169433143Y-81238333D01*
X169480762Y-81333571D01*
X169480762Y-81857381D01*
X170337905Y-81809762D02*
X170242667Y-81857381D01*
X170052190Y-81857381D01*
X169956952Y-81809762D01*
X169909333Y-81714524D01*
X169909333Y-81333571D01*
X169956952Y-81238333D01*
X170052190Y-81190714D01*
X170242667Y-81190714D01*
X170337905Y-81238333D01*
X170385524Y-81333571D01*
X170385524Y-81428810D01*
X169909333Y-81524048D01*
X171576000Y-81857381D02*
X171576000Y-80857381D01*
X171576000Y-81238333D02*
X171671238Y-81190714D01*
X171861715Y-81190714D01*
X171956953Y-81238333D01*
X172004572Y-81285952D01*
X172052191Y-81381190D01*
X172052191Y-81666905D01*
X172004572Y-81762143D01*
X171956953Y-81809762D01*
X171861715Y-81857381D01*
X171671238Y-81857381D01*
X171576000Y-81809762D01*
X172480762Y-81857381D02*
X172480762Y-81190714D01*
X172480762Y-81381190D02*
X172528381Y-81285952D01*
X172576000Y-81238333D01*
X172671238Y-81190714D01*
X172766477Y-81190714D01*
X173480763Y-81809762D02*
X173385525Y-81857381D01*
X173195048Y-81857381D01*
X173099810Y-81809762D01*
X173052191Y-81714524D01*
X173052191Y-81333571D01*
X173099810Y-81238333D01*
X173195048Y-81190714D01*
X173385525Y-81190714D01*
X173480763Y-81238333D01*
X173528382Y-81333571D01*
X173528382Y-81428810D01*
X173052191Y-81524048D01*
X174385525Y-81857381D02*
X174385525Y-81333571D01*
X174337906Y-81238333D01*
X174242668Y-81190714D01*
X174052191Y-81190714D01*
X173956953Y-81238333D01*
X174385525Y-81809762D02*
X174290287Y-81857381D01*
X174052191Y-81857381D01*
X173956953Y-81809762D01*
X173909334Y-81714524D01*
X173909334Y-81619286D01*
X173956953Y-81524048D01*
X174052191Y-81476429D01*
X174290287Y-81476429D01*
X174385525Y-81428810D01*
X174861715Y-81857381D02*
X174861715Y-80857381D01*
X174956953Y-81476429D02*
X175242668Y-81857381D01*
X175242668Y-81190714D02*
X174861715Y-81571667D01*
X101600000Y-119380000D02*
X101600000Y-59690000D01*
X199390000Y-119380000D02*
X101600000Y-119380000D01*
X199390000Y-59690000D02*
X199390000Y-119380000D01*
X101600000Y-59690000D02*
X199390000Y-59690000D01*
D14*
X153770000Y-92880000D02*
X153770000Y-92480000D01*
X153770000Y-95480000D02*
X153770000Y-95080000D01*
X153770000Y-83480000D02*
X153770000Y-90280000D01*
X143370000Y-83480000D02*
X143770000Y-83480000D01*
X135670000Y-83480000D02*
X136070000Y-83480000D01*
X110270000Y-83480000D02*
X110670000Y-83480000D01*
X102770000Y-83480000D02*
X103070000Y-83480000D01*
X125570000Y-83480000D02*
X125970000Y-83480000D01*
X140770000Y-83480000D02*
X141170000Y-83480000D01*
X120470000Y-83480000D02*
X120870000Y-83480000D01*
X115370000Y-83480000D02*
X115770000Y-83480000D01*
X128070000Y-83480000D02*
X128470000Y-83480000D01*
X133170000Y-83480000D02*
X133570000Y-83480000D01*
X148370000Y-83480000D02*
X148770000Y-83480000D01*
X150970000Y-83480000D02*
X151370000Y-83480000D01*
X145870000Y-83480000D02*
X146270000Y-83480000D01*
X112870000Y-83480000D02*
X113270000Y-83480000D01*
X105170000Y-83480000D02*
X105570000Y-83480000D01*
X107770000Y-83480000D02*
X108170000Y-83480000D01*
X138270000Y-83480000D02*
X138670000Y-83480000D01*
X130570000Y-83480000D02*
X130970000Y-83480000D01*
X122970000Y-83480000D02*
X123370000Y-83480000D01*
X117870000Y-83480000D02*
X118270000Y-83480000D01*
X150970000Y-104480000D02*
X151370000Y-104480000D01*
X148370000Y-104480000D02*
X148770000Y-104480000D01*
X145870000Y-104480000D02*
X146270000Y-104480000D01*
X143370000Y-104480000D02*
X143770000Y-104480000D01*
X140770000Y-104480000D02*
X141170000Y-104480000D01*
X138270000Y-104480000D02*
X138670000Y-104480000D01*
X135670000Y-104480000D02*
X136070000Y-104480000D01*
X133170000Y-104480000D02*
X133570000Y-104480000D01*
X130570000Y-104480000D02*
X130970000Y-104480000D01*
X128070000Y-104480000D02*
X128470000Y-104480000D01*
X125570000Y-104480000D02*
X125970000Y-104480000D01*
X122970000Y-104480000D02*
X123370000Y-104480000D01*
X120470000Y-104480000D02*
X120870000Y-104480000D01*
X117870000Y-104480000D02*
X118270000Y-104480000D01*
X115370000Y-104480000D02*
X115770000Y-104480000D01*
X112870000Y-104480000D02*
X113270000Y-104480000D01*
X110270000Y-104480000D02*
X110670000Y-104480000D01*
X107770000Y-104480000D02*
X108170000Y-104480000D01*
X105170000Y-104480000D02*
X105570000Y-104480000D01*
X102770000Y-104480000D02*
X103070000Y-104480000D01*
X105437000Y-101473000D02*
X102770000Y-101473000D01*
X105437000Y-104480000D02*
X105437000Y-101473000D01*
X153770000Y-97680000D02*
X153770000Y-104480000D01*
X102770000Y-104480000D02*
X102770000Y-83480000D01*
X150885000Y-112395000D02*
G75*
G03X150885000Y-112395000I-1660000J0D01*
G01*
X147565000Y-112395000D02*
X145245000Y-112395000D01*
X191770000Y-85090000D02*
X199390000Y-85090000D01*
X191770000Y-100330000D02*
X199390000Y-100330000D01*
X193040000Y-85090000D02*
X193040000Y-100330000D01*
X199390000Y-85090000D02*
X199390000Y-100330000D01*
X191770000Y-85090000D02*
X191770000Y-100330000D01*
D13*
X112395000Y-115570000D02*
X150495000Y-115570000D01*
X150495000Y-115570000D02*
X150495000Y-118110000D01*
X150495000Y-118110000D02*
X112395000Y-118110000D01*
X109575000Y-118390000D02*
X111125000Y-118390000D01*
X112395000Y-118110000D02*
X112395000Y-115570000D01*
X111125000Y-115290000D02*
X109575000Y-115290000D01*
X109575000Y-115290000D02*
X109575000Y-118390000D01*
D14*
X186803264Y-108998437D02*
G75*
G03X186800000Y-99200643I-1383264J4898437D01*
G01*
X184036736Y-108998437D02*
G75*
G02X184040000Y-99200643I1383264J4898437D01*
G01*
X184036736Y-108998437D02*
G75*
G03X186800000Y-108999357I1383264J4898437D01*
G01*
X190470000Y-104100000D02*
X180370000Y-104100000D01*
X190470000Y-104140000D02*
X180370000Y-104140000D01*
X190470000Y-104180000D02*
X180370000Y-104180000D01*
X190469000Y-104220000D02*
X180371000Y-104220000D01*
X190468000Y-104260000D02*
X180372000Y-104260000D01*
X190467000Y-104300000D02*
X180373000Y-104300000D01*
X190465000Y-104340000D02*
X180375000Y-104340000D01*
X190463000Y-104380000D02*
X180377000Y-104380000D01*
X190460000Y-104420000D02*
X180380000Y-104420000D01*
X190458000Y-104460000D02*
X180382000Y-104460000D01*
X190455000Y-104500000D02*
X180385000Y-104500000D01*
X190451000Y-104540000D02*
X180389000Y-104540000D01*
X190448000Y-104580000D02*
X180392000Y-104580000D01*
X190444000Y-104620000D02*
X180396000Y-104620000D01*
X190440000Y-104660000D02*
X180400000Y-104660000D01*
X190435000Y-104700000D02*
X180405000Y-104700000D01*
X190430000Y-104740000D02*
X180410000Y-104740000D01*
X190425000Y-104780000D02*
X180415000Y-104780000D01*
X190419000Y-104821000D02*
X180421000Y-104821000D01*
X190413000Y-104861000D02*
X180427000Y-104861000D01*
X190407000Y-104901000D02*
X180433000Y-104901000D01*
X190401000Y-104941000D02*
X180439000Y-104941000D01*
X190394000Y-104981000D02*
X180446000Y-104981000D01*
X190387000Y-105021000D02*
X180453000Y-105021000D01*
X190379000Y-105061000D02*
X180461000Y-105061000D01*
X190371000Y-105101000D02*
X180469000Y-105101000D01*
X190363000Y-105141000D02*
X180477000Y-105141000D01*
X190355000Y-105181000D02*
X180485000Y-105181000D01*
X190346000Y-105221000D02*
X180494000Y-105221000D01*
X190337000Y-105261000D02*
X180503000Y-105261000D01*
X190327000Y-105301000D02*
X180513000Y-105301000D01*
X190317000Y-105341000D02*
X180523000Y-105341000D01*
X190307000Y-105381000D02*
X180533000Y-105381000D01*
X190296000Y-105421000D02*
X186601000Y-105421000D01*
X184239000Y-105421000D02*
X180544000Y-105421000D01*
X190285000Y-105461000D02*
X186601000Y-105461000D01*
X184239000Y-105461000D02*
X180555000Y-105461000D01*
X190274000Y-105501000D02*
X186601000Y-105501000D01*
X184239000Y-105501000D02*
X180566000Y-105501000D01*
X190263000Y-105541000D02*
X186601000Y-105541000D01*
X184239000Y-105541000D02*
X180577000Y-105541000D01*
X190251000Y-105581000D02*
X186601000Y-105581000D01*
X184239000Y-105581000D02*
X180589000Y-105581000D01*
X190238000Y-105621000D02*
X186601000Y-105621000D01*
X184239000Y-105621000D02*
X180602000Y-105621000D01*
X190226000Y-105661000D02*
X186601000Y-105661000D01*
X184239000Y-105661000D02*
X180614000Y-105661000D01*
X190212000Y-105701000D02*
X186601000Y-105701000D01*
X184239000Y-105701000D02*
X180628000Y-105701000D01*
X190199000Y-105741000D02*
X186601000Y-105741000D01*
X184239000Y-105741000D02*
X180641000Y-105741000D01*
X190185000Y-105781000D02*
X186601000Y-105781000D01*
X184239000Y-105781000D02*
X180655000Y-105781000D01*
X190171000Y-105821000D02*
X186601000Y-105821000D01*
X184239000Y-105821000D02*
X180669000Y-105821000D01*
X190157000Y-105861000D02*
X186601000Y-105861000D01*
X184239000Y-105861000D02*
X180683000Y-105861000D01*
X190142000Y-105901000D02*
X186601000Y-105901000D01*
X184239000Y-105901000D02*
X180698000Y-105901000D01*
X190126000Y-105941000D02*
X186601000Y-105941000D01*
X184239000Y-105941000D02*
X180714000Y-105941000D01*
X190111000Y-105981000D02*
X186601000Y-105981000D01*
X184239000Y-105981000D02*
X180729000Y-105981000D01*
X190094000Y-106021000D02*
X186601000Y-106021000D01*
X184239000Y-106021000D02*
X180746000Y-106021000D01*
X190078000Y-106061000D02*
X186601000Y-106061000D01*
X184239000Y-106061000D02*
X180762000Y-106061000D01*
X190061000Y-106101000D02*
X186601000Y-106101000D01*
X184239000Y-106101000D02*
X180779000Y-106101000D01*
X190044000Y-106141000D02*
X186601000Y-106141000D01*
X184239000Y-106141000D02*
X180796000Y-106141000D01*
X190026000Y-106181000D02*
X186601000Y-106181000D01*
X184239000Y-106181000D02*
X180814000Y-106181000D01*
X190008000Y-106221000D02*
X186601000Y-106221000D01*
X184239000Y-106221000D02*
X180832000Y-106221000D01*
X189989000Y-106261000D02*
X186601000Y-106261000D01*
X184239000Y-106261000D02*
X180851000Y-106261000D01*
X189970000Y-106301000D02*
X186601000Y-106301000D01*
X184239000Y-106301000D02*
X180870000Y-106301000D01*
X189951000Y-106341000D02*
X186601000Y-106341000D01*
X184239000Y-106341000D02*
X180889000Y-106341000D01*
X189931000Y-106381000D02*
X186601000Y-106381000D01*
X184239000Y-106381000D02*
X180909000Y-106381000D01*
X189911000Y-106421000D02*
X186601000Y-106421000D01*
X184239000Y-106421000D02*
X180929000Y-106421000D01*
X189890000Y-106461000D02*
X186601000Y-106461000D01*
X184239000Y-106461000D02*
X180950000Y-106461000D01*
X189869000Y-106501000D02*
X186601000Y-106501000D01*
X184239000Y-106501000D02*
X180971000Y-106501000D01*
X189848000Y-106541000D02*
X186601000Y-106541000D01*
X184239000Y-106541000D02*
X180992000Y-106541000D01*
X189825000Y-106581000D02*
X186601000Y-106581000D01*
X184239000Y-106581000D02*
X181015000Y-106581000D01*
X189803000Y-106621000D02*
X186601000Y-106621000D01*
X184239000Y-106621000D02*
X181037000Y-106621000D01*
X189780000Y-106661000D02*
X186601000Y-106661000D01*
X184239000Y-106661000D02*
X181060000Y-106661000D01*
X189756000Y-106701000D02*
X186601000Y-106701000D01*
X184239000Y-106701000D02*
X181084000Y-106701000D01*
X189732000Y-106741000D02*
X186601000Y-106741000D01*
X184239000Y-106741000D02*
X181108000Y-106741000D01*
X189708000Y-106781000D02*
X186601000Y-106781000D01*
X184239000Y-106781000D02*
X181132000Y-106781000D01*
X189683000Y-106821000D02*
X186601000Y-106821000D01*
X184239000Y-106821000D02*
X181157000Y-106821000D01*
X189657000Y-106861000D02*
X186601000Y-106861000D01*
X184239000Y-106861000D02*
X181183000Y-106861000D01*
X189631000Y-106901000D02*
X186601000Y-106901000D01*
X184239000Y-106901000D02*
X181209000Y-106901000D01*
X189605000Y-106941000D02*
X186601000Y-106941000D01*
X184239000Y-106941000D02*
X181235000Y-106941000D01*
X189577000Y-106981000D02*
X186601000Y-106981000D01*
X184239000Y-106981000D02*
X181263000Y-106981000D01*
X189550000Y-107021000D02*
X186601000Y-107021000D01*
X184239000Y-107021000D02*
X181290000Y-107021000D01*
X189521000Y-107061000D02*
X186601000Y-107061000D01*
X184239000Y-107061000D02*
X181319000Y-107061000D01*
X189492000Y-107101000D02*
X186601000Y-107101000D01*
X184239000Y-107101000D02*
X181348000Y-107101000D01*
X189463000Y-107141000D02*
X186601000Y-107141000D01*
X184239000Y-107141000D02*
X181377000Y-107141000D01*
X189433000Y-107181000D02*
X186601000Y-107181000D01*
X184239000Y-107181000D02*
X181407000Y-107181000D01*
X189402000Y-107221000D02*
X186601000Y-107221000D01*
X184239000Y-107221000D02*
X181438000Y-107221000D01*
X189371000Y-107261000D02*
X186601000Y-107261000D01*
X184239000Y-107261000D02*
X181469000Y-107261000D01*
X189339000Y-107301000D02*
X186601000Y-107301000D01*
X184239000Y-107301000D02*
X181501000Y-107301000D01*
X189306000Y-107341000D02*
X186601000Y-107341000D01*
X184239000Y-107341000D02*
X181534000Y-107341000D01*
X189273000Y-107381000D02*
X186601000Y-107381000D01*
X184239000Y-107381000D02*
X181567000Y-107381000D01*
X189239000Y-107421000D02*
X186601000Y-107421000D01*
X184239000Y-107421000D02*
X181601000Y-107421000D01*
X189204000Y-107461000D02*
X186601000Y-107461000D01*
X184239000Y-107461000D02*
X181636000Y-107461000D01*
X189168000Y-107501000D02*
X186601000Y-107501000D01*
X184239000Y-107501000D02*
X181672000Y-107501000D01*
X189132000Y-107541000D02*
X186601000Y-107541000D01*
X184239000Y-107541000D02*
X181708000Y-107541000D01*
X189095000Y-107581000D02*
X186601000Y-107581000D01*
X184239000Y-107581000D02*
X181745000Y-107581000D01*
X189057000Y-107621000D02*
X186601000Y-107621000D01*
X184239000Y-107621000D02*
X181783000Y-107621000D01*
X189018000Y-107661000D02*
X186601000Y-107661000D01*
X184239000Y-107661000D02*
X181822000Y-107661000D01*
X188979000Y-107701000D02*
X186601000Y-107701000D01*
X184239000Y-107701000D02*
X181861000Y-107701000D01*
X188938000Y-107741000D02*
X186601000Y-107741000D01*
X184239000Y-107741000D02*
X181902000Y-107741000D01*
X188897000Y-107781000D02*
X181943000Y-107781000D01*
X188855000Y-107821000D02*
X181985000Y-107821000D01*
X188811000Y-107861000D02*
X182029000Y-107861000D01*
X188767000Y-107901000D02*
X182073000Y-107901000D01*
X188722000Y-107941000D02*
X182118000Y-107941000D01*
X188675000Y-107981000D02*
X182165000Y-107981000D01*
X188627000Y-108021000D02*
X182213000Y-108021000D01*
X188578000Y-108061000D02*
X182262000Y-108061000D01*
X188528000Y-108101000D02*
X182312000Y-108101000D01*
X188477000Y-108141000D02*
X182363000Y-108141000D01*
X188424000Y-108181000D02*
X182416000Y-108181000D01*
X188369000Y-108221000D02*
X182471000Y-108221000D01*
X188314000Y-108261000D02*
X182526000Y-108261000D01*
X188256000Y-108301000D02*
X182584000Y-108301000D01*
X188197000Y-108341000D02*
X182643000Y-108341000D01*
X188135000Y-108381000D02*
X182705000Y-108381000D01*
X188072000Y-108421000D02*
X182768000Y-108421000D01*
X188007000Y-108461000D02*
X182833000Y-108461000D01*
X187939000Y-108501000D02*
X182901000Y-108501000D01*
X187869000Y-108541000D02*
X182971000Y-108541000D01*
X187797000Y-108581000D02*
X183043000Y-108581000D01*
X187721000Y-108621000D02*
X183119000Y-108621000D01*
X187642000Y-108661000D02*
X183198000Y-108661000D01*
X187560000Y-108701000D02*
X183280000Y-108701000D01*
X187473000Y-108741000D02*
X183367000Y-108741000D01*
X187382000Y-108781000D02*
X183458000Y-108781000D01*
X187286000Y-108821000D02*
X183554000Y-108821000D01*
X187183000Y-108861000D02*
X183657000Y-108861000D01*
X187074000Y-108901000D02*
X183766000Y-108901000D01*
X186956000Y-108941000D02*
X183884000Y-108941000D01*
X186827000Y-108981000D02*
X184013000Y-108981000D01*
X186685000Y-109021000D02*
X184155000Y-109021000D01*
X186524000Y-109061000D02*
X184316000Y-109061000D01*
X186333000Y-109101000D02*
X184507000Y-109101000D01*
X186092000Y-109141000D02*
X184748000Y-109141000D01*
X185699000Y-109181000D02*
X185141000Y-109181000D01*
X185420000Y-98900000D02*
X185420000Y-100400000D01*
X186170000Y-99650000D02*
X184670000Y-99650000D01*
X109795000Y-110450000D02*
X114915000Y-110450000D01*
X109795000Y-113070000D02*
X114915000Y-113070000D01*
X109795000Y-110450000D02*
X109795000Y-110764000D01*
X109795000Y-112756000D02*
X109795000Y-113070000D01*
X114915000Y-110450000D02*
X114915000Y-110764000D01*
X114915000Y-112756000D02*
X114915000Y-113070000D01*
X174030000Y-88840000D02*
X174030000Y-93960000D01*
X171410000Y-88840000D02*
X171410000Y-93960000D01*
X174030000Y-88840000D02*
X173716000Y-88840000D01*
X171724000Y-88840000D02*
X171410000Y-88840000D01*
X174030000Y-93960000D02*
X173716000Y-93960000D01*
X171724000Y-93960000D02*
X171410000Y-93960000D01*
X104080000Y-77430000D02*
X109200000Y-77430000D01*
X104080000Y-80050000D02*
X109200000Y-80050000D01*
X104080000Y-77430000D02*
X104080000Y-77744000D01*
X104080000Y-79736000D02*
X104080000Y-80050000D01*
X109200000Y-77430000D02*
X109200000Y-77744000D01*
X109200000Y-79736000D02*
X109200000Y-80050000D01*
X179110000Y-99000000D02*
X179110000Y-104120000D01*
X176490000Y-99000000D02*
X176490000Y-104120000D01*
X179110000Y-99000000D02*
X178796000Y-99000000D01*
X176804000Y-99000000D02*
X176490000Y-99000000D01*
X179110000Y-104120000D02*
X178796000Y-104120000D01*
X176804000Y-104120000D02*
X176490000Y-104120000D01*
X170060000Y-106540000D02*
X170060000Y-109360000D01*
X170060000Y-109360000D02*
X175380000Y-109360000D01*
X175380000Y-109360000D02*
X175380000Y-106540000D01*
X175380000Y-106540000D02*
X170060000Y-106540000D01*
X168920000Y-107950000D02*
X170060000Y-107950000D01*
X176520000Y-107950000D02*
X175380000Y-107950000D01*
X170900000Y-106540000D02*
X170900000Y-109360000D01*
X185540000Y-86370000D02*
X185540000Y-86500000D01*
X185540000Y-86500000D02*
X180220000Y-86500000D01*
X180220000Y-86500000D02*
X180220000Y-86370000D01*
X185540000Y-83810000D02*
X185540000Y-83680000D01*
X185540000Y-83680000D02*
X180220000Y-83680000D01*
X180220000Y-83680000D02*
X180220000Y-83810000D01*
X184700000Y-86500000D02*
X184700000Y-83680000D01*
D13*
X190246000Y-110871000D02*
X190246000Y-117729000D01*
X190246000Y-117729000D02*
X182626000Y-117729000D01*
X190246000Y-110871000D02*
X182626000Y-110871000D01*
X173609000Y-114300000D02*
X182626000Y-114300000D01*
X165989000Y-117729000D02*
X173609000Y-117729000D01*
X165989000Y-110871000D02*
X173609000Y-110871000D01*
X189230000Y-116840000D02*
X167005000Y-116840000D01*
X167005000Y-111760000D02*
X189230000Y-111760000D01*
X165948360Y-110871000D02*
X165948360Y-117729000D01*
X173568360Y-114300000D02*
X173568360Y-111760000D01*
X166964360Y-111760000D02*
X166964360Y-116840000D01*
X173568360Y-116840000D02*
X173568360Y-114300000D01*
X182666640Y-114300000D02*
X182666640Y-111760000D01*
X189268100Y-111760000D02*
X189268100Y-116840000D01*
X182666640Y-116840000D02*
X182666640Y-114300000D01*
D14*
X193040000Y-111760000D02*
X193040000Y-101600000D01*
X191770000Y-111760000D02*
X199390000Y-111760000D01*
X199390000Y-111760000D02*
X199390000Y-101600000D01*
X199390000Y-101600000D02*
X191770000Y-101600000D01*
X191770000Y-101600000D02*
X191770000Y-111760000D01*
X191770000Y-68580000D02*
X199390000Y-68580000D01*
X191770000Y-83820000D02*
X199390000Y-83820000D01*
X193040000Y-68580000D02*
X193040000Y-83820000D01*
X199390000Y-68580000D02*
X199390000Y-83820000D01*
X191770000Y-68580000D02*
X191770000Y-83820000D01*
D13*
X152120000Y-111480000D02*
X152120000Y-113030000D01*
X152400000Y-116840000D02*
X152400000Y-114300000D01*
X152400000Y-114300000D02*
X154940000Y-114300000D01*
X155220000Y-113030000D02*
X155220000Y-111480000D01*
X155220000Y-111480000D02*
X152120000Y-111480000D01*
X154940000Y-114300000D02*
X154940000Y-116840000D01*
X154940000Y-116840000D02*
X152400000Y-116840000D01*
X159030000Y-117120000D02*
X159030000Y-115570000D01*
X158750000Y-111760000D02*
X158750000Y-114300000D01*
X158750000Y-114300000D02*
X156210000Y-114300000D01*
X155930000Y-115570000D02*
X155930000Y-117120000D01*
X155930000Y-117120000D02*
X159030000Y-117120000D01*
X156210000Y-114300000D02*
X156210000Y-111760000D01*
X156210000Y-111760000D02*
X158750000Y-111760000D01*
X162840000Y-117120000D02*
X162840000Y-115570000D01*
X162560000Y-111760000D02*
X162560000Y-114300000D01*
X162560000Y-114300000D02*
X160020000Y-114300000D01*
X159740000Y-115570000D02*
X159740000Y-117120000D01*
X159740000Y-117120000D02*
X162840000Y-117120000D01*
X160020000Y-114300000D02*
X160020000Y-111760000D01*
X160020000Y-111760000D02*
X162560000Y-111760000D01*
D14*
X154940000Y-59690000D02*
X154940000Y-67310000D01*
X190500000Y-67310000D02*
X190500000Y-59690000D01*
X154940000Y-66040000D02*
X190480000Y-66040000D01*
X154940000Y-59690000D02*
X190480000Y-59690000D01*
X154940000Y-67310000D02*
X190480000Y-67310000D01*
X180730000Y-76200000D02*
G75*
G03X180730000Y-76200000I-1660000J0D01*
G01*
X179070000Y-77860000D02*
X179070000Y-80180000D01*
X180730000Y-93980000D02*
G75*
G03X180730000Y-93980000I-1660000J0D01*
G01*
X179070000Y-92320000D02*
X179070000Y-90000000D01*
X187080000Y-76200000D02*
G75*
G03X187080000Y-76200000I-1660000J0D01*
G01*
X185420000Y-77860000D02*
X185420000Y-80180000D01*
X168792000Y-88900000D02*
G75*
G03X168792000Y-88900000I-1660000J0D01*
G01*
X167132000Y-90560000D02*
X167132000Y-92880000D01*
X131708000Y-108204000D02*
G75*
G03X131708000Y-108204000I-1660000J0D01*
G01*
X131708000Y-108204000D02*
X134028000Y-108204000D01*
X161680000Y-76200000D02*
G75*
G03X161680000Y-76200000I-1660000J0D01*
G01*
X160020000Y-77860000D02*
X160020000Y-80180000D01*
X116595000Y-107950000D02*
G75*
G03X116595000Y-107950000I-1660000J0D01*
G01*
X113275000Y-107950000D02*
X110955000Y-107950000D01*
X145805000Y-107950000D02*
G75*
G03X145805000Y-107950000I-1660000J0D01*
G01*
X145805000Y-107950000D02*
X148125000Y-107950000D01*
D13*
X188390000Y-94410000D02*
X188390000Y-91010000D01*
X188387056Y-94407056D02*
G75*
G02X184290000Y-92710000I-1697056J1697056D01*
G01*
X188387056Y-91012944D02*
G75*
G03X184290000Y-92710000I-1697056J-1697056D01*
G01*
X158320000Y-88470000D02*
X158320000Y-91870000D01*
X158322944Y-88472944D02*
G75*
G02X162420000Y-90170000I1697056J-1697056D01*
G01*
X158322944Y-91867056D02*
G75*
G03X162420000Y-90170000I1697056J1697056D01*
G01*
D14*
X119347719Y-112072331D02*
X118435552Y-112984499D01*
X118435552Y-112984499D02*
X119425501Y-113974448D01*
X119425501Y-113974448D02*
X120337669Y-113062281D01*
X120337456Y-113062150D02*
G75*
G03X119347719Y-112072331I1582544J2572150D01*
G01*
X131200000Y-74295000D02*
G75*
G03X131200000Y-74295000I-1660000J0D01*
G01*
X129540000Y-75955000D02*
X129540000Y-78275000D01*
X135010000Y-74295000D02*
G75*
G03X135010000Y-74295000I-1660000J0D01*
G01*
X133350000Y-75955000D02*
X133350000Y-78275000D01*
X138820000Y-74295000D02*
G75*
G03X138820000Y-74295000I-1660000J0D01*
G01*
X137160000Y-75955000D02*
X137160000Y-78275000D01*
X142630000Y-74295000D02*
G75*
G03X142630000Y-74295000I-1660000J0D01*
G01*
X140970000Y-75955000D02*
X140970000Y-78275000D01*
X146440000Y-74295000D02*
G75*
G03X146440000Y-74295000I-1660000J0D01*
G01*
X144780000Y-75955000D02*
X144780000Y-78275000D01*
X151520000Y-74295000D02*
G75*
G03X151520000Y-74295000I-1660000J0D01*
G01*
X149860000Y-75955000D02*
X149860000Y-78275000D01*
X165490000Y-99060000D02*
G75*
G03X165490000Y-99060000I-1660000J0D01*
G01*
X162170000Y-99060000D02*
X159850000Y-99060000D01*
X165490000Y-102870000D02*
G75*
G03X165490000Y-102870000I-1660000J0D01*
G01*
X162170000Y-102870000D02*
X159850000Y-102870000D01*
X131200000Y-64135000D02*
G75*
G03X131200000Y-64135000I-1660000J0D01*
G01*
X129540000Y-65795000D02*
X129540000Y-68115000D01*
X135010000Y-64135000D02*
G75*
G03X135010000Y-64135000I-1660000J0D01*
G01*
X133350000Y-65795000D02*
X133350000Y-68115000D01*
X138820000Y-64135000D02*
G75*
G03X138820000Y-64135000I-1660000J0D01*
G01*
X137160000Y-65795000D02*
X137160000Y-68115000D01*
X142630000Y-64135000D02*
G75*
G03X142630000Y-64135000I-1660000J0D01*
G01*
X140970000Y-65795000D02*
X140970000Y-68115000D01*
X146440000Y-64135000D02*
G75*
G03X146440000Y-64135000I-1660000J0D01*
G01*
X144780000Y-65795000D02*
X144780000Y-68115000D01*
X151520000Y-64135000D02*
G75*
G03X151520000Y-64135000I-1660000J0D01*
G01*
X149860000Y-65795000D02*
X149860000Y-68115000D01*
X174380000Y-99060000D02*
G75*
G03X174380000Y-99060000I-1660000J0D01*
G01*
X171060000Y-99060000D02*
X168740000Y-99060000D01*
X174380000Y-102870000D02*
G75*
G03X174380000Y-102870000I-1660000J0D01*
G01*
X171060000Y-102870000D02*
X168740000Y-102870000D01*
D13*
X155194095Y-83272381D02*
X155194095Y-84081905D01*
X155241714Y-84177143D01*
X155289333Y-84224762D01*
X155384571Y-84272381D01*
X155575048Y-84272381D01*
X155670286Y-84224762D01*
X155717905Y-84177143D01*
X155765524Y-84081905D01*
X155765524Y-83272381D01*
X156194095Y-83367619D02*
X156241714Y-83320000D01*
X156336952Y-83272381D01*
X156575048Y-83272381D01*
X156670286Y-83320000D01*
X156717905Y-83367619D01*
X156765524Y-83462857D01*
X156765524Y-83558095D01*
X156717905Y-83700952D01*
X156146476Y-84272381D01*
X156765524Y-84272381D01*
X141438334Y-112847381D02*
X141105000Y-112371190D01*
X140866905Y-112847381D02*
X140866905Y-111847381D01*
X141247858Y-111847381D01*
X141343096Y-111895000D01*
X141390715Y-111942619D01*
X141438334Y-112037857D01*
X141438334Y-112180714D01*
X141390715Y-112275952D01*
X141343096Y-112323571D01*
X141247858Y-112371190D01*
X140866905Y-112371190D01*
X142009762Y-112275952D02*
X141914524Y-112228333D01*
X141866905Y-112180714D01*
X141819286Y-112085476D01*
X141819286Y-112037857D01*
X141866905Y-111942619D01*
X141914524Y-111895000D01*
X142009762Y-111847381D01*
X142200239Y-111847381D01*
X142295477Y-111895000D01*
X142343096Y-111942619D01*
X142390715Y-112037857D01*
X142390715Y-112085476D01*
X142343096Y-112180714D01*
X142295477Y-112228333D01*
X142200239Y-112275952D01*
X142009762Y-112275952D01*
X141914524Y-112323571D01*
X141866905Y-112371190D01*
X141819286Y-112466429D01*
X141819286Y-112656905D01*
X141866905Y-112752143D01*
X141914524Y-112799762D01*
X142009762Y-112847381D01*
X142200239Y-112847381D01*
X142295477Y-112799762D01*
X142343096Y-112752143D01*
X142390715Y-112656905D01*
X142390715Y-112466429D01*
X142343096Y-112371190D01*
X142295477Y-112323571D01*
X142200239Y-112275952D01*
X189317381Y-86058333D02*
X190031667Y-86058333D01*
X190174524Y-86105953D01*
X190269762Y-86201191D01*
X190317381Y-86344048D01*
X190317381Y-86439286D01*
X189317381Y-85677381D02*
X189317381Y-85058333D01*
X189698333Y-85391667D01*
X189698333Y-85248809D01*
X189745952Y-85153571D01*
X189793571Y-85105952D01*
X189888810Y-85058333D01*
X190126905Y-85058333D01*
X190222143Y-85105952D01*
X190269762Y-85153571D01*
X190317381Y-85248809D01*
X190317381Y-85534524D01*
X190269762Y-85629762D01*
X190222143Y-85677381D01*
X109728095Y-113752381D02*
X109728095Y-114561905D01*
X109775714Y-114657143D01*
X109823333Y-114704762D01*
X109918571Y-114752381D01*
X110109048Y-114752381D01*
X110204286Y-114704762D01*
X110251905Y-114657143D01*
X110299524Y-114561905D01*
X110299524Y-113752381D01*
X111299524Y-114752381D02*
X110728095Y-114752381D01*
X111013809Y-114752381D02*
X111013809Y-113752381D01*
X110918571Y-113895238D01*
X110823333Y-113990476D01*
X110728095Y-114038095D01*
X189698334Y-98147143D02*
X189650715Y-98194762D01*
X189507858Y-98242381D01*
X189412620Y-98242381D01*
X189269762Y-98194762D01*
X189174524Y-98099524D01*
X189126905Y-98004286D01*
X189079286Y-97813810D01*
X189079286Y-97670952D01*
X189126905Y-97480476D01*
X189174524Y-97385238D01*
X189269762Y-97290000D01*
X189412620Y-97242381D01*
X189507858Y-97242381D01*
X189650715Y-97290000D01*
X189698334Y-97337619D01*
X190650715Y-98242381D02*
X190079286Y-98242381D01*
X190365000Y-98242381D02*
X190365000Y-97242381D01*
X190269762Y-97385238D01*
X190174524Y-97480476D01*
X190079286Y-97528095D01*
X114768334Y-114657143D02*
X114720715Y-114704762D01*
X114577858Y-114752381D01*
X114482620Y-114752381D01*
X114339762Y-114704762D01*
X114244524Y-114609524D01*
X114196905Y-114514286D01*
X114149286Y-114323810D01*
X114149286Y-114180952D01*
X114196905Y-113990476D01*
X114244524Y-113895238D01*
X114339762Y-113800000D01*
X114482620Y-113752381D01*
X114577858Y-113752381D01*
X114720715Y-113800000D01*
X114768334Y-113847619D01*
X115149286Y-113847619D02*
X115196905Y-113800000D01*
X115292143Y-113752381D01*
X115530239Y-113752381D01*
X115625477Y-113800000D01*
X115673096Y-113847619D01*
X115720715Y-113942857D01*
X115720715Y-114038095D01*
X115673096Y-114180952D01*
X115101667Y-114752381D01*
X115720715Y-114752381D01*
X172553334Y-87352143D02*
X172505715Y-87399762D01*
X172362858Y-87447381D01*
X172267620Y-87447381D01*
X172124762Y-87399762D01*
X172029524Y-87304524D01*
X171981905Y-87209286D01*
X171934286Y-87018810D01*
X171934286Y-86875952D01*
X171981905Y-86685476D01*
X172029524Y-86590238D01*
X172124762Y-86495000D01*
X172267620Y-86447381D01*
X172362858Y-86447381D01*
X172505715Y-86495000D01*
X172553334Y-86542619D01*
X172886667Y-86447381D02*
X173505715Y-86447381D01*
X173172381Y-86828333D01*
X173315239Y-86828333D01*
X173410477Y-86875952D01*
X173458096Y-86923571D01*
X173505715Y-87018810D01*
X173505715Y-87256905D01*
X173458096Y-87352143D01*
X173410477Y-87399762D01*
X173315239Y-87447381D01*
X173029524Y-87447381D01*
X172934286Y-87399762D01*
X172886667Y-87352143D01*
X111593334Y-79097143D02*
X111545715Y-79144762D01*
X111402858Y-79192381D01*
X111307620Y-79192381D01*
X111164762Y-79144762D01*
X111069524Y-79049524D01*
X111021905Y-78954286D01*
X110974286Y-78763810D01*
X110974286Y-78620952D01*
X111021905Y-78430476D01*
X111069524Y-78335238D01*
X111164762Y-78240000D01*
X111307620Y-78192381D01*
X111402858Y-78192381D01*
X111545715Y-78240000D01*
X111593334Y-78287619D01*
X112450477Y-78525714D02*
X112450477Y-79192381D01*
X112212381Y-78144762D02*
X111974286Y-78859048D01*
X112593334Y-78859048D01*
X177633334Y-97512143D02*
X177585715Y-97559762D01*
X177442858Y-97607381D01*
X177347620Y-97607381D01*
X177204762Y-97559762D01*
X177109524Y-97464524D01*
X177061905Y-97369286D01*
X177014286Y-97178810D01*
X177014286Y-97035952D01*
X177061905Y-96845476D01*
X177109524Y-96750238D01*
X177204762Y-96655000D01*
X177347620Y-96607381D01*
X177442858Y-96607381D01*
X177585715Y-96655000D01*
X177633334Y-96702619D01*
X178538096Y-96607381D02*
X178061905Y-96607381D01*
X178014286Y-97083571D01*
X178061905Y-97035952D01*
X178157143Y-96988333D01*
X178395239Y-96988333D01*
X178490477Y-97035952D01*
X178538096Y-97083571D01*
X178585715Y-97178810D01*
X178585715Y-97416905D01*
X178538096Y-97512143D01*
X178490477Y-97559762D01*
X178395239Y-97607381D01*
X178157143Y-97607381D01*
X178061905Y-97559762D01*
X178014286Y-97512143D01*
X163726905Y-108402381D02*
X163726905Y-107402381D01*
X163965000Y-107402381D01*
X164107858Y-107450000D01*
X164203096Y-107545238D01*
X164250715Y-107640476D01*
X164298334Y-107830952D01*
X164298334Y-107973810D01*
X164250715Y-108164286D01*
X164203096Y-108259524D01*
X164107858Y-108354762D01*
X163965000Y-108402381D01*
X163726905Y-108402381D01*
X165250715Y-108402381D02*
X164679286Y-108402381D01*
X164965000Y-108402381D02*
X164965000Y-107402381D01*
X164869762Y-107545238D01*
X164774524Y-107640476D01*
X164679286Y-107688095D01*
X175156905Y-85542381D02*
X175156905Y-84542381D01*
X175395000Y-84542381D01*
X175537858Y-84590000D01*
X175633096Y-84685238D01*
X175680715Y-84780476D01*
X175728334Y-84970952D01*
X175728334Y-85113810D01*
X175680715Y-85304286D01*
X175633096Y-85399524D01*
X175537858Y-85494762D01*
X175395000Y-85542381D01*
X175156905Y-85542381D01*
X176109286Y-84637619D02*
X176156905Y-84590000D01*
X176252143Y-84542381D01*
X176490239Y-84542381D01*
X176585477Y-84590000D01*
X176633096Y-84637619D01*
X176680715Y-84732857D01*
X176680715Y-84828095D01*
X176633096Y-84970952D01*
X176061667Y-85542381D01*
X176680715Y-85542381D01*
X191436667Y-117403571D02*
X191103333Y-117403571D01*
X191103333Y-117927381D02*
X191103333Y-116927381D01*
X191579524Y-116927381D01*
X192484286Y-117927381D02*
X191912857Y-117927381D01*
X192198571Y-117927381D02*
X192198571Y-116927381D01*
X192103333Y-117070238D01*
X192008095Y-117165476D01*
X191912857Y-117213095D01*
X192492381Y-113363333D02*
X193206667Y-113363333D01*
X193349524Y-113410953D01*
X193444762Y-113506191D01*
X193492381Y-113649048D01*
X193492381Y-113744286D01*
X193492381Y-112363333D02*
X193492381Y-112934762D01*
X193492381Y-112649048D02*
X192492381Y-112649048D01*
X192635238Y-112744286D01*
X192730476Y-112839524D01*
X192778095Y-112934762D01*
X189317381Y-83518333D02*
X190031667Y-83518333D01*
X190174524Y-83565953D01*
X190269762Y-83661191D01*
X190317381Y-83804048D01*
X190317381Y-83899286D01*
X189412619Y-83089762D02*
X189365000Y-83042143D01*
X189317381Y-82946905D01*
X189317381Y-82708809D01*
X189365000Y-82613571D01*
X189412619Y-82565952D01*
X189507857Y-82518333D01*
X189603095Y-82518333D01*
X189745952Y-82565952D01*
X190317381Y-83137381D01*
X190317381Y-82518333D01*
X153122381Y-110053333D02*
X153836667Y-110053333D01*
X153979524Y-110100953D01*
X154074762Y-110196191D01*
X154122381Y-110339048D01*
X154122381Y-110434286D01*
X154122381Y-109577143D02*
X153122381Y-109577143D01*
X153122381Y-109196190D01*
X153170000Y-109100952D01*
X153217619Y-109053333D01*
X153312857Y-109005714D01*
X153455714Y-109005714D01*
X153550952Y-109053333D01*
X153598571Y-109100952D01*
X153646190Y-109196190D01*
X153646190Y-109577143D01*
X154122381Y-108053333D02*
X154122381Y-108624762D01*
X154122381Y-108339048D02*
X153122381Y-108339048D01*
X153265238Y-108434286D01*
X153360476Y-108529524D01*
X153408095Y-108624762D01*
X156932381Y-110053333D02*
X157646667Y-110053333D01*
X157789524Y-110100953D01*
X157884762Y-110196191D01*
X157932381Y-110339048D01*
X157932381Y-110434286D01*
X157932381Y-109577143D02*
X156932381Y-109577143D01*
X156932381Y-109196190D01*
X156980000Y-109100952D01*
X157027619Y-109053333D01*
X157122857Y-109005714D01*
X157265714Y-109005714D01*
X157360952Y-109053333D01*
X157408571Y-109100952D01*
X157456190Y-109196190D01*
X157456190Y-109577143D01*
X157027619Y-108624762D02*
X156980000Y-108577143D01*
X156932381Y-108481905D01*
X156932381Y-108243809D01*
X156980000Y-108148571D01*
X157027619Y-108100952D01*
X157122857Y-108053333D01*
X157218095Y-108053333D01*
X157360952Y-108100952D01*
X157932381Y-108672381D01*
X157932381Y-108053333D01*
X160742381Y-110053333D02*
X161456667Y-110053333D01*
X161599524Y-110100953D01*
X161694762Y-110196191D01*
X161742381Y-110339048D01*
X161742381Y-110434286D01*
X161742381Y-109577143D02*
X160742381Y-109577143D01*
X160742381Y-109196190D01*
X160790000Y-109100952D01*
X160837619Y-109053333D01*
X160932857Y-109005714D01*
X161075714Y-109005714D01*
X161170952Y-109053333D01*
X161218571Y-109100952D01*
X161266190Y-109196190D01*
X161266190Y-109577143D01*
X160742381Y-108672381D02*
X160742381Y-108053333D01*
X161123333Y-108386667D01*
X161123333Y-108243809D01*
X161170952Y-108148571D01*
X161218571Y-108100952D01*
X161313810Y-108053333D01*
X161551905Y-108053333D01*
X161647143Y-108100952D01*
X161694762Y-108148571D01*
X161742381Y-108243809D01*
X161742381Y-108529524D01*
X161694762Y-108624762D01*
X161647143Y-108672381D01*
X155241667Y-68667381D02*
X155241667Y-69381667D01*
X155194047Y-69524524D01*
X155098809Y-69619762D01*
X154955952Y-69667381D01*
X154860714Y-69667381D01*
X156146429Y-69000714D02*
X156146429Y-69667381D01*
X155908333Y-68619762D02*
X155670238Y-69334048D01*
X156289286Y-69334048D01*
X178903334Y-73477381D02*
X178570000Y-73001190D01*
X178331905Y-73477381D02*
X178331905Y-72477381D01*
X178712858Y-72477381D01*
X178808096Y-72525000D01*
X178855715Y-72572619D01*
X178903334Y-72667857D01*
X178903334Y-72810714D01*
X178855715Y-72905952D01*
X178808096Y-72953571D01*
X178712858Y-73001190D01*
X178331905Y-73001190D01*
X179855715Y-73477381D02*
X179284286Y-73477381D01*
X179570000Y-73477381D02*
X179570000Y-72477381D01*
X179474762Y-72620238D01*
X179379524Y-72715476D01*
X179284286Y-72763095D01*
X176347381Y-91606666D02*
X175871190Y-91940000D01*
X176347381Y-92178095D02*
X175347381Y-92178095D01*
X175347381Y-91797142D01*
X175395000Y-91701904D01*
X175442619Y-91654285D01*
X175537857Y-91606666D01*
X175680714Y-91606666D01*
X175775952Y-91654285D01*
X175823571Y-91701904D01*
X175871190Y-91797142D01*
X175871190Y-92178095D01*
X175442619Y-91225714D02*
X175395000Y-91178095D01*
X175347381Y-91082857D01*
X175347381Y-90844761D01*
X175395000Y-90749523D01*
X175442619Y-90701904D01*
X175537857Y-90654285D01*
X175633095Y-90654285D01*
X175775952Y-90701904D01*
X176347381Y-91273333D01*
X176347381Y-90654285D01*
X185253334Y-73477381D02*
X184920000Y-73001190D01*
X184681905Y-73477381D02*
X184681905Y-72477381D01*
X185062858Y-72477381D01*
X185158096Y-72525000D01*
X185205715Y-72572619D01*
X185253334Y-72667857D01*
X185253334Y-72810714D01*
X185205715Y-72905952D01*
X185158096Y-72953571D01*
X185062858Y-73001190D01*
X184681905Y-73001190D01*
X185586667Y-72477381D02*
X186205715Y-72477381D01*
X185872381Y-72858333D01*
X186015239Y-72858333D01*
X186110477Y-72905952D01*
X186158096Y-72953571D01*
X186205715Y-73048810D01*
X186205715Y-73286905D01*
X186158096Y-73382143D01*
X186110477Y-73429762D01*
X186015239Y-73477381D01*
X185729524Y-73477381D01*
X185634286Y-73429762D01*
X185586667Y-73382143D01*
X166838334Y-86177381D02*
X166505000Y-85701190D01*
X166266905Y-86177381D02*
X166266905Y-85177381D01*
X166647858Y-85177381D01*
X166743096Y-85225000D01*
X166790715Y-85272619D01*
X166838334Y-85367857D01*
X166838334Y-85510714D01*
X166790715Y-85605952D01*
X166743096Y-85653571D01*
X166647858Y-85701190D01*
X166266905Y-85701190D01*
X167695477Y-85510714D02*
X167695477Y-86177381D01*
X167457381Y-85129762D02*
X167219286Y-85844048D01*
X167838334Y-85844048D01*
X132421334Y-111704381D02*
X132088000Y-111228190D01*
X131849905Y-111704381D02*
X131849905Y-110704381D01*
X132230858Y-110704381D01*
X132326096Y-110752000D01*
X132373715Y-110799619D01*
X132421334Y-110894857D01*
X132421334Y-111037714D01*
X132373715Y-111132952D01*
X132326096Y-111180571D01*
X132230858Y-111228190D01*
X131849905Y-111228190D01*
X133326096Y-110704381D02*
X132849905Y-110704381D01*
X132802286Y-111180571D01*
X132849905Y-111132952D01*
X132945143Y-111085333D01*
X133183239Y-111085333D01*
X133278477Y-111132952D01*
X133326096Y-111180571D01*
X133373715Y-111275810D01*
X133373715Y-111513905D01*
X133326096Y-111609143D01*
X133278477Y-111656762D01*
X133183239Y-111704381D01*
X132945143Y-111704381D01*
X132849905Y-111656762D01*
X132802286Y-111609143D01*
X159853334Y-73477381D02*
X159520000Y-73001190D01*
X159281905Y-73477381D02*
X159281905Y-72477381D01*
X159662858Y-72477381D01*
X159758096Y-72525000D01*
X159805715Y-72572619D01*
X159853334Y-72667857D01*
X159853334Y-72810714D01*
X159805715Y-72905952D01*
X159758096Y-72953571D01*
X159662858Y-73001190D01*
X159281905Y-73001190D01*
X160710477Y-72477381D02*
X160520000Y-72477381D01*
X160424762Y-72525000D01*
X160377143Y-72572619D01*
X160281905Y-72715476D01*
X160234286Y-72905952D01*
X160234286Y-73286905D01*
X160281905Y-73382143D01*
X160329524Y-73429762D01*
X160424762Y-73477381D01*
X160615239Y-73477381D01*
X160710477Y-73429762D01*
X160758096Y-73382143D01*
X160805715Y-73286905D01*
X160805715Y-73048810D01*
X160758096Y-72953571D01*
X160710477Y-72905952D01*
X160615239Y-72858333D01*
X160424762Y-72858333D01*
X160329524Y-72905952D01*
X160281905Y-72953571D01*
X160234286Y-73048810D01*
X107148334Y-109672381D02*
X106815000Y-109196190D01*
X106576905Y-109672381D02*
X106576905Y-108672381D01*
X106957858Y-108672381D01*
X107053096Y-108720000D01*
X107100715Y-108767619D01*
X107148334Y-108862857D01*
X107148334Y-109005714D01*
X107100715Y-109100952D01*
X107053096Y-109148571D01*
X106957858Y-109196190D01*
X106576905Y-109196190D01*
X107481667Y-108672381D02*
X108148334Y-108672381D01*
X107719762Y-109672381D01*
X139692143Y-108402381D02*
X139358809Y-107926190D01*
X139120714Y-108402381D02*
X139120714Y-107402381D01*
X139501667Y-107402381D01*
X139596905Y-107450000D01*
X139644524Y-107497619D01*
X139692143Y-107592857D01*
X139692143Y-107735714D01*
X139644524Y-107830952D01*
X139596905Y-107878571D01*
X139501667Y-107926190D01*
X139120714Y-107926190D01*
X140644524Y-108402381D02*
X140073095Y-108402381D01*
X140358809Y-108402381D02*
X140358809Y-107402381D01*
X140263571Y-107545238D01*
X140168333Y-107640476D01*
X140073095Y-107688095D01*
X140977857Y-107402381D02*
X141644524Y-107402381D01*
X141215952Y-108402381D01*
X182784762Y-91352619D02*
X182689524Y-91305000D01*
X182594286Y-91209762D01*
X182451429Y-91066905D01*
X182356190Y-91019286D01*
X182260952Y-91019286D01*
X182308571Y-91257381D02*
X182213333Y-91209762D01*
X182118095Y-91114524D01*
X182070476Y-90924048D01*
X182070476Y-90590714D01*
X182118095Y-90400238D01*
X182213333Y-90305000D01*
X182308571Y-90257381D01*
X182499048Y-90257381D01*
X182594286Y-90305000D01*
X182689524Y-90400238D01*
X182737143Y-90590714D01*
X182737143Y-90924048D01*
X182689524Y-91114524D01*
X182594286Y-91209762D01*
X182499048Y-91257381D01*
X182308571Y-91257381D01*
X183689524Y-91257381D02*
X183118095Y-91257381D01*
X183403809Y-91257381D02*
X183403809Y-90257381D01*
X183308571Y-90400238D01*
X183213333Y-90495476D01*
X183118095Y-90543095D01*
X156749762Y-88812619D02*
X156654524Y-88765000D01*
X156559286Y-88669762D01*
X156416429Y-88526905D01*
X156321190Y-88479286D01*
X156225952Y-88479286D01*
X156273571Y-88717381D02*
X156178333Y-88669762D01*
X156083095Y-88574524D01*
X156035476Y-88384048D01*
X156035476Y-88050714D01*
X156083095Y-87860238D01*
X156178333Y-87765000D01*
X156273571Y-87717381D01*
X156464048Y-87717381D01*
X156559286Y-87765000D01*
X156654524Y-87860238D01*
X156702143Y-88050714D01*
X156702143Y-88384048D01*
X156654524Y-88574524D01*
X156559286Y-88669762D01*
X156464048Y-88717381D01*
X156273571Y-88717381D01*
X157083095Y-87812619D02*
X157130714Y-87765000D01*
X157225952Y-87717381D01*
X157464048Y-87717381D01*
X157559286Y-87765000D01*
X157606905Y-87812619D01*
X157654524Y-87907857D01*
X157654524Y-88003095D01*
X157606905Y-88145952D01*
X157035476Y-88717381D01*
X157654524Y-88717381D01*
X117379762Y-111672619D02*
X117284524Y-111625000D01*
X117189286Y-111529762D01*
X117046429Y-111386905D01*
X116951190Y-111339286D01*
X116855952Y-111339286D01*
X116903571Y-111577381D02*
X116808333Y-111529762D01*
X116713095Y-111434524D01*
X116665476Y-111244048D01*
X116665476Y-110910714D01*
X116713095Y-110720238D01*
X116808333Y-110625000D01*
X116903571Y-110577381D01*
X117094048Y-110577381D01*
X117189286Y-110625000D01*
X117284524Y-110720238D01*
X117332143Y-110910714D01*
X117332143Y-111244048D01*
X117284524Y-111434524D01*
X117189286Y-111529762D01*
X117094048Y-111577381D01*
X116903571Y-111577381D01*
X117665476Y-110577381D02*
X118284524Y-110577381D01*
X117951190Y-110958333D01*
X118094048Y-110958333D01*
X118189286Y-111005952D01*
X118236905Y-111053571D01*
X118284524Y-111148810D01*
X118284524Y-111386905D01*
X118236905Y-111482143D01*
X118189286Y-111529762D01*
X118094048Y-111577381D01*
X117808333Y-111577381D01*
X117713095Y-111529762D01*
X117665476Y-111482143D01*
X129373334Y-81732381D02*
X129040000Y-81256190D01*
X128801905Y-81732381D02*
X128801905Y-80732381D01*
X129182858Y-80732381D01*
X129278096Y-80780000D01*
X129325715Y-80827619D01*
X129373334Y-80922857D01*
X129373334Y-81065714D01*
X129325715Y-81160952D01*
X129278096Y-81208571D01*
X129182858Y-81256190D01*
X128801905Y-81256190D01*
X129849524Y-81732381D02*
X130040000Y-81732381D01*
X130135239Y-81684762D01*
X130182858Y-81637143D01*
X130278096Y-81494286D01*
X130325715Y-81303810D01*
X130325715Y-80922857D01*
X130278096Y-80827619D01*
X130230477Y-80780000D01*
X130135239Y-80732381D01*
X129944762Y-80732381D01*
X129849524Y-80780000D01*
X129801905Y-80827619D01*
X129754286Y-80922857D01*
X129754286Y-81160952D01*
X129801905Y-81256190D01*
X129849524Y-81303810D01*
X129944762Y-81351429D01*
X130135239Y-81351429D01*
X130230477Y-81303810D01*
X130278096Y-81256190D01*
X130325715Y-81160952D01*
X132707143Y-81732381D02*
X132373809Y-81256190D01*
X132135714Y-81732381D02*
X132135714Y-80732381D01*
X132516667Y-80732381D01*
X132611905Y-80780000D01*
X132659524Y-80827619D01*
X132707143Y-80922857D01*
X132707143Y-81065714D01*
X132659524Y-81160952D01*
X132611905Y-81208571D01*
X132516667Y-81256190D01*
X132135714Y-81256190D01*
X133659524Y-81732381D02*
X133088095Y-81732381D01*
X133373809Y-81732381D02*
X133373809Y-80732381D01*
X133278571Y-80875238D01*
X133183333Y-80970476D01*
X133088095Y-81018095D01*
X134278571Y-80732381D02*
X134373810Y-80732381D01*
X134469048Y-80780000D01*
X134516667Y-80827619D01*
X134564286Y-80922857D01*
X134611905Y-81113333D01*
X134611905Y-81351429D01*
X134564286Y-81541905D01*
X134516667Y-81637143D01*
X134469048Y-81684762D01*
X134373810Y-81732381D01*
X134278571Y-81732381D01*
X134183333Y-81684762D01*
X134135714Y-81637143D01*
X134088095Y-81541905D01*
X134040476Y-81351429D01*
X134040476Y-81113333D01*
X134088095Y-80922857D01*
X134135714Y-80827619D01*
X134183333Y-80780000D01*
X134278571Y-80732381D01*
X136517143Y-81732381D02*
X136183809Y-81256190D01*
X135945714Y-81732381D02*
X135945714Y-80732381D01*
X136326667Y-80732381D01*
X136421905Y-80780000D01*
X136469524Y-80827619D01*
X136517143Y-80922857D01*
X136517143Y-81065714D01*
X136469524Y-81160952D01*
X136421905Y-81208571D01*
X136326667Y-81256190D01*
X135945714Y-81256190D01*
X137469524Y-81732381D02*
X136898095Y-81732381D01*
X137183809Y-81732381D02*
X137183809Y-80732381D01*
X137088571Y-80875238D01*
X136993333Y-80970476D01*
X136898095Y-81018095D01*
X138421905Y-81732381D02*
X137850476Y-81732381D01*
X138136190Y-81732381D02*
X138136190Y-80732381D01*
X138040952Y-80875238D01*
X137945714Y-80970476D01*
X137850476Y-81018095D01*
X140327143Y-81732381D02*
X139993809Y-81256190D01*
X139755714Y-81732381D02*
X139755714Y-80732381D01*
X140136667Y-80732381D01*
X140231905Y-80780000D01*
X140279524Y-80827619D01*
X140327143Y-80922857D01*
X140327143Y-81065714D01*
X140279524Y-81160952D01*
X140231905Y-81208571D01*
X140136667Y-81256190D01*
X139755714Y-81256190D01*
X141279524Y-81732381D02*
X140708095Y-81732381D01*
X140993809Y-81732381D02*
X140993809Y-80732381D01*
X140898571Y-80875238D01*
X140803333Y-80970476D01*
X140708095Y-81018095D01*
X141660476Y-80827619D02*
X141708095Y-80780000D01*
X141803333Y-80732381D01*
X142041429Y-80732381D01*
X142136667Y-80780000D01*
X142184286Y-80827619D01*
X142231905Y-80922857D01*
X142231905Y-81018095D01*
X142184286Y-81160952D01*
X141612857Y-81732381D01*
X142231905Y-81732381D01*
X144137143Y-81732381D02*
X143803809Y-81256190D01*
X143565714Y-81732381D02*
X143565714Y-80732381D01*
X143946667Y-80732381D01*
X144041905Y-80780000D01*
X144089524Y-80827619D01*
X144137143Y-80922857D01*
X144137143Y-81065714D01*
X144089524Y-81160952D01*
X144041905Y-81208571D01*
X143946667Y-81256190D01*
X143565714Y-81256190D01*
X145089524Y-81732381D02*
X144518095Y-81732381D01*
X144803809Y-81732381D02*
X144803809Y-80732381D01*
X144708571Y-80875238D01*
X144613333Y-80970476D01*
X144518095Y-81018095D01*
X145422857Y-80732381D02*
X146041905Y-80732381D01*
X145708571Y-81113333D01*
X145851429Y-81113333D01*
X145946667Y-81160952D01*
X145994286Y-81208571D01*
X146041905Y-81303810D01*
X146041905Y-81541905D01*
X145994286Y-81637143D01*
X145946667Y-81684762D01*
X145851429Y-81732381D01*
X145565714Y-81732381D01*
X145470476Y-81684762D01*
X145422857Y-81637143D01*
X149217143Y-81732381D02*
X148883809Y-81256190D01*
X148645714Y-81732381D02*
X148645714Y-80732381D01*
X149026667Y-80732381D01*
X149121905Y-80780000D01*
X149169524Y-80827619D01*
X149217143Y-80922857D01*
X149217143Y-81065714D01*
X149169524Y-81160952D01*
X149121905Y-81208571D01*
X149026667Y-81256190D01*
X148645714Y-81256190D01*
X150169524Y-81732381D02*
X149598095Y-81732381D01*
X149883809Y-81732381D02*
X149883809Y-80732381D01*
X149788571Y-80875238D01*
X149693333Y-80970476D01*
X149598095Y-81018095D01*
X151026667Y-81065714D02*
X151026667Y-81732381D01*
X150788571Y-80684762D02*
X150550476Y-81399048D01*
X151169524Y-81399048D01*
X160901143Y-96718381D02*
X160567809Y-96242190D01*
X160329714Y-96718381D02*
X160329714Y-95718381D01*
X160710667Y-95718381D01*
X160805905Y-95766000D01*
X160853524Y-95813619D01*
X160901143Y-95908857D01*
X160901143Y-96051714D01*
X160853524Y-96146952D01*
X160805905Y-96194571D01*
X160710667Y-96242190D01*
X160329714Y-96242190D01*
X161853524Y-96718381D02*
X161282095Y-96718381D01*
X161567809Y-96718381D02*
X161567809Y-95718381D01*
X161472571Y-95861238D01*
X161377333Y-95956476D01*
X161282095Y-96004095D01*
X162758286Y-95718381D02*
X162282095Y-95718381D01*
X162234476Y-96194571D01*
X162282095Y-96146952D01*
X162377333Y-96099333D01*
X162615429Y-96099333D01*
X162710667Y-96146952D01*
X162758286Y-96194571D01*
X162805905Y-96289810D01*
X162805905Y-96527905D01*
X162758286Y-96623143D01*
X162710667Y-96670762D01*
X162615429Y-96718381D01*
X162377333Y-96718381D01*
X162282095Y-96670762D01*
X162234476Y-96623143D01*
X160647143Y-106497381D02*
X160313809Y-106021190D01*
X160075714Y-106497381D02*
X160075714Y-105497381D01*
X160456667Y-105497381D01*
X160551905Y-105545000D01*
X160599524Y-105592619D01*
X160647143Y-105687857D01*
X160647143Y-105830714D01*
X160599524Y-105925952D01*
X160551905Y-105973571D01*
X160456667Y-106021190D01*
X160075714Y-106021190D01*
X161599524Y-106497381D02*
X161028095Y-106497381D01*
X161313809Y-106497381D02*
X161313809Y-105497381D01*
X161218571Y-105640238D01*
X161123333Y-105735476D01*
X161028095Y-105783095D01*
X162456667Y-105497381D02*
X162266190Y-105497381D01*
X162170952Y-105545000D01*
X162123333Y-105592619D01*
X162028095Y-105735476D01*
X161980476Y-105925952D01*
X161980476Y-106306905D01*
X162028095Y-106402143D01*
X162075714Y-106449762D01*
X162170952Y-106497381D01*
X162361429Y-106497381D01*
X162456667Y-106449762D01*
X162504286Y-106402143D01*
X162551905Y-106306905D01*
X162551905Y-106068810D01*
X162504286Y-105973571D01*
X162456667Y-105925952D01*
X162361429Y-105878333D01*
X162170952Y-105878333D01*
X162075714Y-105925952D01*
X162028095Y-105973571D01*
X161980476Y-106068810D01*
X128897143Y-71572381D02*
X128563809Y-71096190D01*
X128325714Y-71572381D02*
X128325714Y-70572381D01*
X128706667Y-70572381D01*
X128801905Y-70620000D01*
X128849524Y-70667619D01*
X128897143Y-70762857D01*
X128897143Y-70905714D01*
X128849524Y-71000952D01*
X128801905Y-71048571D01*
X128706667Y-71096190D01*
X128325714Y-71096190D01*
X129849524Y-71572381D02*
X129278095Y-71572381D01*
X129563809Y-71572381D02*
X129563809Y-70572381D01*
X129468571Y-70715238D01*
X129373333Y-70810476D01*
X129278095Y-70858095D01*
X130420952Y-71000952D02*
X130325714Y-70953333D01*
X130278095Y-70905714D01*
X130230476Y-70810476D01*
X130230476Y-70762857D01*
X130278095Y-70667619D01*
X130325714Y-70620000D01*
X130420952Y-70572381D01*
X130611429Y-70572381D01*
X130706667Y-70620000D01*
X130754286Y-70667619D01*
X130801905Y-70762857D01*
X130801905Y-70810476D01*
X130754286Y-70905714D01*
X130706667Y-70953333D01*
X130611429Y-71000952D01*
X130420952Y-71000952D01*
X130325714Y-71048571D01*
X130278095Y-71096190D01*
X130230476Y-71191429D01*
X130230476Y-71381905D01*
X130278095Y-71477143D01*
X130325714Y-71524762D01*
X130420952Y-71572381D01*
X130611429Y-71572381D01*
X130706667Y-71524762D01*
X130754286Y-71477143D01*
X130801905Y-71381905D01*
X130801905Y-71191429D01*
X130754286Y-71096190D01*
X130706667Y-71048571D01*
X130611429Y-71000952D01*
X132707143Y-71572381D02*
X132373809Y-71096190D01*
X132135714Y-71572381D02*
X132135714Y-70572381D01*
X132516667Y-70572381D01*
X132611905Y-70620000D01*
X132659524Y-70667619D01*
X132707143Y-70762857D01*
X132707143Y-70905714D01*
X132659524Y-71000952D01*
X132611905Y-71048571D01*
X132516667Y-71096190D01*
X132135714Y-71096190D01*
X133659524Y-71572381D02*
X133088095Y-71572381D01*
X133373809Y-71572381D02*
X133373809Y-70572381D01*
X133278571Y-70715238D01*
X133183333Y-70810476D01*
X133088095Y-70858095D01*
X134135714Y-71572381D02*
X134326190Y-71572381D01*
X134421429Y-71524762D01*
X134469048Y-71477143D01*
X134564286Y-71334286D01*
X134611905Y-71143810D01*
X134611905Y-70762857D01*
X134564286Y-70667619D01*
X134516667Y-70620000D01*
X134421429Y-70572381D01*
X134230952Y-70572381D01*
X134135714Y-70620000D01*
X134088095Y-70667619D01*
X134040476Y-70762857D01*
X134040476Y-71000952D01*
X134088095Y-71096190D01*
X134135714Y-71143810D01*
X134230952Y-71191429D01*
X134421429Y-71191429D01*
X134516667Y-71143810D01*
X134564286Y-71096190D01*
X134611905Y-71000952D01*
X136517143Y-71572381D02*
X136183809Y-71096190D01*
X135945714Y-71572381D02*
X135945714Y-70572381D01*
X136326667Y-70572381D01*
X136421905Y-70620000D01*
X136469524Y-70667619D01*
X136517143Y-70762857D01*
X136517143Y-70905714D01*
X136469524Y-71000952D01*
X136421905Y-71048571D01*
X136326667Y-71096190D01*
X135945714Y-71096190D01*
X136898095Y-70667619D02*
X136945714Y-70620000D01*
X137040952Y-70572381D01*
X137279048Y-70572381D01*
X137374286Y-70620000D01*
X137421905Y-70667619D01*
X137469524Y-70762857D01*
X137469524Y-70858095D01*
X137421905Y-71000952D01*
X136850476Y-71572381D01*
X137469524Y-71572381D01*
X138088571Y-70572381D02*
X138183810Y-70572381D01*
X138279048Y-70620000D01*
X138326667Y-70667619D01*
X138374286Y-70762857D01*
X138421905Y-70953333D01*
X138421905Y-71191429D01*
X138374286Y-71381905D01*
X138326667Y-71477143D01*
X138279048Y-71524762D01*
X138183810Y-71572381D01*
X138088571Y-71572381D01*
X137993333Y-71524762D01*
X137945714Y-71477143D01*
X137898095Y-71381905D01*
X137850476Y-71191429D01*
X137850476Y-70953333D01*
X137898095Y-70762857D01*
X137945714Y-70667619D01*
X137993333Y-70620000D01*
X138088571Y-70572381D01*
X140327143Y-71572381D02*
X139993809Y-71096190D01*
X139755714Y-71572381D02*
X139755714Y-70572381D01*
X140136667Y-70572381D01*
X140231905Y-70620000D01*
X140279524Y-70667619D01*
X140327143Y-70762857D01*
X140327143Y-70905714D01*
X140279524Y-71000952D01*
X140231905Y-71048571D01*
X140136667Y-71096190D01*
X139755714Y-71096190D01*
X140708095Y-70667619D02*
X140755714Y-70620000D01*
X140850952Y-70572381D01*
X141089048Y-70572381D01*
X141184286Y-70620000D01*
X141231905Y-70667619D01*
X141279524Y-70762857D01*
X141279524Y-70858095D01*
X141231905Y-71000952D01*
X140660476Y-71572381D01*
X141279524Y-71572381D01*
X142231905Y-71572381D02*
X141660476Y-71572381D01*
X141946190Y-71572381D02*
X141946190Y-70572381D01*
X141850952Y-70715238D01*
X141755714Y-70810476D01*
X141660476Y-70858095D01*
X144137143Y-71572381D02*
X143803809Y-71096190D01*
X143565714Y-71572381D02*
X143565714Y-70572381D01*
X143946667Y-70572381D01*
X144041905Y-70620000D01*
X144089524Y-70667619D01*
X144137143Y-70762857D01*
X144137143Y-70905714D01*
X144089524Y-71000952D01*
X144041905Y-71048571D01*
X143946667Y-71096190D01*
X143565714Y-71096190D01*
X144518095Y-70667619D02*
X144565714Y-70620000D01*
X144660952Y-70572381D01*
X144899048Y-70572381D01*
X144994286Y-70620000D01*
X145041905Y-70667619D01*
X145089524Y-70762857D01*
X145089524Y-70858095D01*
X145041905Y-71000952D01*
X144470476Y-71572381D01*
X145089524Y-71572381D01*
X145470476Y-70667619D02*
X145518095Y-70620000D01*
X145613333Y-70572381D01*
X145851429Y-70572381D01*
X145946667Y-70620000D01*
X145994286Y-70667619D01*
X146041905Y-70762857D01*
X146041905Y-70858095D01*
X145994286Y-71000952D01*
X145422857Y-71572381D01*
X146041905Y-71572381D01*
X149217143Y-71572381D02*
X148883809Y-71096190D01*
X148645714Y-71572381D02*
X148645714Y-70572381D01*
X149026667Y-70572381D01*
X149121905Y-70620000D01*
X149169524Y-70667619D01*
X149217143Y-70762857D01*
X149217143Y-70905714D01*
X149169524Y-71000952D01*
X149121905Y-71048571D01*
X149026667Y-71096190D01*
X148645714Y-71096190D01*
X149598095Y-70667619D02*
X149645714Y-70620000D01*
X149740952Y-70572381D01*
X149979048Y-70572381D01*
X150074286Y-70620000D01*
X150121905Y-70667619D01*
X150169524Y-70762857D01*
X150169524Y-70858095D01*
X150121905Y-71000952D01*
X149550476Y-71572381D01*
X150169524Y-71572381D01*
X150502857Y-70572381D02*
X151121905Y-70572381D01*
X150788571Y-70953333D01*
X150931429Y-70953333D01*
X151026667Y-71000952D01*
X151074286Y-71048571D01*
X151121905Y-71143810D01*
X151121905Y-71381905D01*
X151074286Y-71477143D01*
X151026667Y-71524762D01*
X150931429Y-71572381D01*
X150645714Y-71572381D01*
X150550476Y-71524762D01*
X150502857Y-71477143D01*
X169283143Y-96718381D02*
X168949809Y-96242190D01*
X168711714Y-96718381D02*
X168711714Y-95718381D01*
X169092667Y-95718381D01*
X169187905Y-95766000D01*
X169235524Y-95813619D01*
X169283143Y-95908857D01*
X169283143Y-96051714D01*
X169235524Y-96146952D01*
X169187905Y-96194571D01*
X169092667Y-96242190D01*
X168711714Y-96242190D01*
X169664095Y-95813619D02*
X169711714Y-95766000D01*
X169806952Y-95718381D01*
X170045048Y-95718381D01*
X170140286Y-95766000D01*
X170187905Y-95813619D01*
X170235524Y-95908857D01*
X170235524Y-96004095D01*
X170187905Y-96146952D01*
X169616476Y-96718381D01*
X170235524Y-96718381D01*
X171092667Y-96051714D02*
X171092667Y-96718381D01*
X170854571Y-95670762D02*
X170616476Y-96385048D01*
X171235524Y-96385048D01*
X169537143Y-105982381D02*
X169203809Y-105506190D01*
X168965714Y-105982381D02*
X168965714Y-104982381D01*
X169346667Y-104982381D01*
X169441905Y-105030000D01*
X169489524Y-105077619D01*
X169537143Y-105172857D01*
X169537143Y-105315714D01*
X169489524Y-105410952D01*
X169441905Y-105458571D01*
X169346667Y-105506190D01*
X168965714Y-105506190D01*
X169918095Y-105077619D02*
X169965714Y-105030000D01*
X170060952Y-104982381D01*
X170299048Y-104982381D01*
X170394286Y-105030000D01*
X170441905Y-105077619D01*
X170489524Y-105172857D01*
X170489524Y-105268095D01*
X170441905Y-105410952D01*
X169870476Y-105982381D01*
X170489524Y-105982381D01*
X171394286Y-104982381D02*
X170918095Y-104982381D01*
X170870476Y-105458571D01*
X170918095Y-105410952D01*
X171013333Y-105363333D01*
X171251429Y-105363333D01*
X171346667Y-105410952D01*
X171394286Y-105458571D01*
X171441905Y-105553810D01*
X171441905Y-105791905D01*
X171394286Y-105887143D01*
X171346667Y-105934762D01*
X171251429Y-105982381D01*
X171013333Y-105982381D01*
X170918095Y-105934762D01*
X170870476Y-105887143D01*
M02*
