%FSLAX45Y45*%
G04 Gerber Fmt 4.5, Leading zero omitted, Abs format (unit mm)*
G04 Created by KiCad (PCBNEW 4.0.5+dfsg1-4+deb9u1) date Sun Oct  9 21:53:42 2022*
%MOMM*%
%LPD*%
G01*
G04 APERTURE LIST*
%ADD10C,0.127000*%
%ADD11C,0.150000*%
%ADD12C,0.200000*%
%ADD13C,0.300000*%
G04 APERTURE END LIST*
D10*
D11*
X10160000Y-11938000D02*
X10160000Y-5969000D01*
X19939000Y-11938000D02*
X10160000Y-11938000D01*
X19939000Y-5969000D02*
X19939000Y-11938000D01*
X10160000Y-5969000D02*
X19939000Y-5969000D01*
D12*
X10239000Y-6048000D02*
X10589000Y-6398000D01*
X10589000Y-6048000D02*
X10239000Y-6398000D01*
X10239000Y-11509000D02*
X10589000Y-11859000D01*
X10589000Y-11509000D02*
X10239000Y-11859000D01*
X19510000Y-6048000D02*
X19860000Y-6398000D01*
X19860000Y-6048000D02*
X19510000Y-6398000D01*
X19510000Y-11509000D02*
X19860000Y-11859000D01*
X19860000Y-11509000D02*
X19510000Y-11859000D01*
D13*
X10423929Y-12411214D02*
X10423929Y-12111214D01*
X10495357Y-12111214D01*
X10538214Y-12125500D01*
X10566786Y-12154071D01*
X10581071Y-12182643D01*
X10595357Y-12239786D01*
X10595357Y-12282643D01*
X10581071Y-12339786D01*
X10566786Y-12368357D01*
X10538214Y-12396929D01*
X10495357Y-12411214D01*
X10423929Y-12411214D01*
X10723929Y-12411214D02*
X10723929Y-12211214D01*
X10723929Y-12268357D02*
X10738214Y-12239786D01*
X10752500Y-12225500D01*
X10781071Y-12211214D01*
X10809643Y-12211214D01*
X10909643Y-12411214D02*
X10909643Y-12211214D01*
X10909643Y-12111214D02*
X10895357Y-12125500D01*
X10909643Y-12139786D01*
X10923929Y-12125500D01*
X10909643Y-12111214D01*
X10909643Y-12139786D01*
X11095357Y-12411214D02*
X11066786Y-12396929D01*
X11052500Y-12368357D01*
X11052500Y-12111214D01*
X11252500Y-12411214D02*
X11223928Y-12396929D01*
X11209643Y-12368357D01*
X11209643Y-12111214D01*
X11595357Y-12411214D02*
X11595357Y-12111214D01*
X11695357Y-12325500D01*
X11795357Y-12111214D01*
X11795357Y-12411214D01*
X12066786Y-12411214D02*
X12066786Y-12254071D01*
X12052500Y-12225500D01*
X12023928Y-12211214D01*
X11966786Y-12211214D01*
X11938214Y-12225500D01*
X12066786Y-12396929D02*
X12038214Y-12411214D01*
X11966786Y-12411214D01*
X11938214Y-12396929D01*
X11923928Y-12368357D01*
X11923928Y-12339786D01*
X11938214Y-12311214D01*
X11966786Y-12296929D01*
X12038214Y-12296929D01*
X12066786Y-12282643D01*
X12209643Y-12211214D02*
X12209643Y-12511214D01*
X12209643Y-12225500D02*
X12238214Y-12211214D01*
X12295357Y-12211214D01*
X12323928Y-12225500D01*
X12338214Y-12239786D01*
X12352500Y-12268357D01*
X12352500Y-12354071D01*
X12338214Y-12382643D01*
X12323928Y-12396929D01*
X12295357Y-12411214D01*
X12238214Y-12411214D01*
X12209643Y-12396929D01*
X12481071Y-12382643D02*
X12495357Y-12396929D01*
X12481071Y-12411214D01*
X12466786Y-12396929D01*
X12481071Y-12382643D01*
X12481071Y-12411214D01*
X12481071Y-12225500D02*
X12495357Y-12239786D01*
X12481071Y-12254071D01*
X12466786Y-12239786D01*
X12481071Y-12225500D01*
X12481071Y-12254071D01*
X9802500Y-12730500D02*
X10152500Y-13080500D01*
X10152500Y-12730500D02*
X9802500Y-13080500D01*
X10395357Y-12741214D02*
X10581071Y-12741214D01*
X10481071Y-12855500D01*
X10523929Y-12855500D01*
X10552500Y-12869786D01*
X10566786Y-12884071D01*
X10581071Y-12912643D01*
X10581071Y-12984071D01*
X10566786Y-13012643D01*
X10552500Y-13026929D01*
X10523929Y-13041214D01*
X10438214Y-13041214D01*
X10409643Y-13026929D01*
X10395357Y-13012643D01*
X10709643Y-13012643D02*
X10723929Y-13026929D01*
X10709643Y-13041214D01*
X10695357Y-13026929D01*
X10709643Y-13012643D01*
X10709643Y-13041214D01*
X10995357Y-12741214D02*
X10852500Y-12741214D01*
X10838214Y-12884071D01*
X10852500Y-12869786D01*
X10881071Y-12855500D01*
X10952500Y-12855500D01*
X10981071Y-12869786D01*
X10995357Y-12884071D01*
X11009643Y-12912643D01*
X11009643Y-12984071D01*
X10995357Y-13012643D01*
X10981071Y-13026929D01*
X10952500Y-13041214D01*
X10881071Y-13041214D01*
X10852500Y-13026929D01*
X10838214Y-13012643D01*
X11195357Y-12741214D02*
X11223928Y-12741214D01*
X11252500Y-12755500D01*
X11266786Y-12769786D01*
X11281071Y-12798357D01*
X11295357Y-12855500D01*
X11295357Y-12926929D01*
X11281071Y-12984071D01*
X11266786Y-13012643D01*
X11252500Y-13026929D01*
X11223928Y-13041214D01*
X11195357Y-13041214D01*
X11166786Y-13026929D01*
X11152500Y-13012643D01*
X11138214Y-12984071D01*
X11123929Y-12926929D01*
X11123929Y-12855500D01*
X11138214Y-12798357D01*
X11152500Y-12769786D01*
X11166786Y-12755500D01*
X11195357Y-12741214D01*
X11423928Y-13041214D02*
X11423928Y-12841214D01*
X11423928Y-12869786D02*
X11438214Y-12855500D01*
X11466786Y-12841214D01*
X11509643Y-12841214D01*
X11538214Y-12855500D01*
X11552500Y-12884071D01*
X11552500Y-13041214D01*
X11552500Y-12884071D02*
X11566786Y-12855500D01*
X11595357Y-12841214D01*
X11638214Y-12841214D01*
X11666786Y-12855500D01*
X11681071Y-12884071D01*
X11681071Y-13041214D01*
X11823928Y-13041214D02*
X11823928Y-12841214D01*
X11823928Y-12869786D02*
X11838214Y-12855500D01*
X11866786Y-12841214D01*
X11909643Y-12841214D01*
X11938214Y-12855500D01*
X11952500Y-12884071D01*
X11952500Y-13041214D01*
X11952500Y-12884071D02*
X11966786Y-12855500D01*
X11995357Y-12841214D01*
X12038214Y-12841214D01*
X12066786Y-12855500D01*
X12081071Y-12884071D01*
X12081071Y-13041214D01*
X12666786Y-12726929D02*
X12409643Y-13112643D01*
X13052500Y-12741214D02*
X13081071Y-12741214D01*
X13109643Y-12755500D01*
X13123928Y-12769786D01*
X13138214Y-12798357D01*
X13152500Y-12855500D01*
X13152500Y-12926929D01*
X13138214Y-12984071D01*
X13123928Y-13012643D01*
X13109643Y-13026929D01*
X13081071Y-13041214D01*
X13052500Y-13041214D01*
X13023928Y-13026929D01*
X13009643Y-13012643D01*
X12995357Y-12984071D01*
X12981071Y-12926929D01*
X12981071Y-12855500D01*
X12995357Y-12798357D01*
X13009643Y-12769786D01*
X13023928Y-12755500D01*
X13052500Y-12741214D01*
X13281071Y-13012643D02*
X13295357Y-13026929D01*
X13281071Y-13041214D01*
X13266786Y-13026929D01*
X13281071Y-13012643D01*
X13281071Y-13041214D01*
X13581071Y-13041214D02*
X13409643Y-13041214D01*
X13495357Y-13041214D02*
X13495357Y-12741214D01*
X13466785Y-12784071D01*
X13438214Y-12812643D01*
X13409643Y-12826929D01*
X13681071Y-12741214D02*
X13866785Y-12741214D01*
X13766785Y-12855500D01*
X13809643Y-12855500D01*
X13838214Y-12869786D01*
X13852500Y-12884071D01*
X13866785Y-12912643D01*
X13866785Y-12984071D01*
X13852500Y-13012643D01*
X13838214Y-13026929D01*
X13809643Y-13041214D01*
X13723928Y-13041214D01*
X13695357Y-13026929D01*
X13681071Y-13012643D01*
X14038214Y-12869786D02*
X14009643Y-12855500D01*
X13995357Y-12841214D01*
X13981071Y-12812643D01*
X13981071Y-12798357D01*
X13995357Y-12769786D01*
X14009643Y-12755500D01*
X14038214Y-12741214D01*
X14095357Y-12741214D01*
X14123928Y-12755500D01*
X14138214Y-12769786D01*
X14152500Y-12798357D01*
X14152500Y-12812643D01*
X14138214Y-12841214D01*
X14123928Y-12855500D01*
X14095357Y-12869786D01*
X14038214Y-12869786D01*
X14009643Y-12884071D01*
X13995357Y-12898357D01*
X13981071Y-12926929D01*
X13981071Y-12984071D01*
X13995357Y-13012643D01*
X14009643Y-13026929D01*
X14038214Y-13041214D01*
X14095357Y-13041214D01*
X14123928Y-13026929D01*
X14138214Y-13012643D01*
X14152500Y-12984071D01*
X14152500Y-12926929D01*
X14138214Y-12898357D01*
X14123928Y-12884071D01*
X14095357Y-12869786D01*
X14266786Y-12741214D02*
X14266786Y-12798357D01*
X14381071Y-12741214D02*
X14381071Y-12798357D01*
X14823928Y-13155500D02*
X14809643Y-13141214D01*
X14781071Y-13098357D01*
X14766785Y-13069786D01*
X14752500Y-13026929D01*
X14738214Y-12955500D01*
X14738214Y-12898357D01*
X14752500Y-12826929D01*
X14766785Y-12784071D01*
X14781071Y-12755500D01*
X14809643Y-12712643D01*
X14823928Y-12698357D01*
X15066785Y-12841214D02*
X15066785Y-13041214D01*
X14995357Y-12726929D02*
X14923928Y-12941214D01*
X15109643Y-12941214D01*
X15452500Y-13041214D02*
X15452500Y-12741214D01*
X15581071Y-13041214D02*
X15581071Y-12884071D01*
X15566785Y-12855500D01*
X15538214Y-12841214D01*
X15495357Y-12841214D01*
X15466785Y-12855500D01*
X15452500Y-12869786D01*
X15766785Y-13041214D02*
X15738214Y-13026929D01*
X15723928Y-13012643D01*
X15709643Y-12984071D01*
X15709643Y-12898357D01*
X15723928Y-12869786D01*
X15738214Y-12855500D01*
X15766785Y-12841214D01*
X15809643Y-12841214D01*
X15838214Y-12855500D01*
X15852500Y-12869786D01*
X15866785Y-12898357D01*
X15866785Y-12984071D01*
X15852500Y-13012643D01*
X15838214Y-13026929D01*
X15809643Y-13041214D01*
X15766785Y-13041214D01*
X16038214Y-13041214D02*
X16009643Y-13026929D01*
X15995357Y-12998357D01*
X15995357Y-12741214D01*
X16266786Y-13026929D02*
X16238214Y-13041214D01*
X16181071Y-13041214D01*
X16152500Y-13026929D01*
X16138214Y-12998357D01*
X16138214Y-12884071D01*
X16152500Y-12855500D01*
X16181071Y-12841214D01*
X16238214Y-12841214D01*
X16266786Y-12855500D01*
X16281071Y-12884071D01*
X16281071Y-12912643D01*
X16138214Y-12941214D01*
X16395357Y-13026929D02*
X16423928Y-13041214D01*
X16481071Y-13041214D01*
X16509643Y-13026929D01*
X16523928Y-12998357D01*
X16523928Y-12984071D01*
X16509643Y-12955500D01*
X16481071Y-12941214D01*
X16438214Y-12941214D01*
X16409643Y-12926929D01*
X16395357Y-12898357D01*
X16395357Y-12884071D01*
X16409643Y-12855500D01*
X16438214Y-12841214D01*
X16481071Y-12841214D01*
X16509643Y-12855500D01*
X16623928Y-13155500D02*
X16638214Y-13141214D01*
X16666786Y-13098357D01*
X16681071Y-13069786D01*
X16695357Y-13026929D01*
X16709643Y-12955500D01*
X16709643Y-12898357D01*
X16695357Y-12826929D01*
X16681071Y-12784071D01*
X16666786Y-12755500D01*
X16638214Y-12712643D01*
X16623928Y-12698357D01*
X17166786Y-13155500D02*
X17152500Y-13141214D01*
X17123928Y-13098357D01*
X17109643Y-13069786D01*
X17095357Y-13026929D01*
X17081071Y-12955500D01*
X17081071Y-12898357D01*
X17095357Y-12826929D01*
X17109643Y-12784071D01*
X17123928Y-12755500D01*
X17152500Y-12712643D01*
X17166786Y-12698357D01*
X17281071Y-12841214D02*
X17281071Y-13041214D01*
X17281071Y-12869786D02*
X17295357Y-12855500D01*
X17323928Y-12841214D01*
X17366786Y-12841214D01*
X17395357Y-12855500D01*
X17409643Y-12884071D01*
X17409643Y-13041214D01*
X17595357Y-13041214D02*
X17566786Y-13026929D01*
X17552500Y-13012643D01*
X17538214Y-12984071D01*
X17538214Y-12898357D01*
X17552500Y-12869786D01*
X17566786Y-12855500D01*
X17595357Y-12841214D01*
X17638214Y-12841214D01*
X17666786Y-12855500D01*
X17681071Y-12869786D01*
X17695357Y-12898357D01*
X17695357Y-12984071D01*
X17681071Y-13012643D01*
X17666786Y-13026929D01*
X17638214Y-13041214D01*
X17595357Y-13041214D01*
X17781071Y-12841214D02*
X17895357Y-12841214D01*
X17823929Y-12741214D02*
X17823929Y-12998357D01*
X17838214Y-13026929D01*
X17866786Y-13041214D01*
X17895357Y-13041214D01*
X18223929Y-12841214D02*
X18223929Y-13141214D01*
X18223929Y-12855500D02*
X18252500Y-12841214D01*
X18309643Y-12841214D01*
X18338214Y-12855500D01*
X18352500Y-12869786D01*
X18366786Y-12898357D01*
X18366786Y-12984071D01*
X18352500Y-13012643D01*
X18338214Y-13026929D01*
X18309643Y-13041214D01*
X18252500Y-13041214D01*
X18223929Y-13026929D01*
X18538214Y-13041214D02*
X18509643Y-13026929D01*
X18495357Y-12998357D01*
X18495357Y-12741214D01*
X18781071Y-13041214D02*
X18781071Y-12884071D01*
X18766786Y-12855500D01*
X18738214Y-12841214D01*
X18681071Y-12841214D01*
X18652500Y-12855500D01*
X18781071Y-13026929D02*
X18752500Y-13041214D01*
X18681071Y-13041214D01*
X18652500Y-13026929D01*
X18638214Y-12998357D01*
X18638214Y-12969786D01*
X18652500Y-12941214D01*
X18681071Y-12926929D01*
X18752500Y-12926929D01*
X18781071Y-12912643D01*
X18881071Y-12841214D02*
X18995357Y-12841214D01*
X18923929Y-12741214D02*
X18923929Y-12998357D01*
X18938214Y-13026929D01*
X18966786Y-13041214D01*
X18995357Y-13041214D01*
X19209643Y-13026929D02*
X19181072Y-13041214D01*
X19123929Y-13041214D01*
X19095357Y-13026929D01*
X19081072Y-12998357D01*
X19081072Y-12884071D01*
X19095357Y-12855500D01*
X19123929Y-12841214D01*
X19181072Y-12841214D01*
X19209643Y-12855500D01*
X19223929Y-12884071D01*
X19223929Y-12912643D01*
X19081072Y-12941214D01*
X19481072Y-13041214D02*
X19481072Y-12741214D01*
X19481072Y-13026929D02*
X19452500Y-13041214D01*
X19395357Y-13041214D01*
X19366786Y-13026929D01*
X19352500Y-13012643D01*
X19338214Y-12984071D01*
X19338214Y-12898357D01*
X19352500Y-12869786D01*
X19366786Y-12855500D01*
X19395357Y-12841214D01*
X19452500Y-12841214D01*
X19481072Y-12855500D01*
X19595357Y-13155500D02*
X19609643Y-13141214D01*
X19638214Y-13098357D01*
X19652500Y-13069786D01*
X19666786Y-13026929D01*
X19681072Y-12955500D01*
X19681072Y-12898357D01*
X19666786Y-12826929D01*
X19652500Y-12784071D01*
X19638214Y-12755500D01*
X19609643Y-12712643D01*
X19595357Y-12698357D01*
M02*
