G04 #@! TF.FileFunction,Copper,L1,Top,Signal*
%FSLAX46Y46*%
G04 Gerber Fmt 4.6, Leading zero omitted, Abs format (unit mm)*
G04 Created by KiCad (PCBNEW 4.0.5+dfsg1-4+deb9u1) date Sun Oct  9 21:53:40 2022*
%MOMM*%
%LPD*%
G01*
G04 APERTURE LIST*
%ADD10C,0.100000*%
%ADD11C,0.150000*%
%ADD12O,1.700000X1.700000*%
%ADD13R,1.700000X1.700000*%
%ADD14R,1.700000X3.500000*%
%ADD15R,3.500000X1.700000*%
%ADD16C,1.600000*%
%ADD17O,1.600000X1.600000*%
%ADD18R,3.000000X3.000000*%
%ADD19C,3.000000*%
%ADD20R,1.727200X2.032000*%
%ADD21O,1.727200X2.032000*%
%ADD22R,2.000000X2.000000*%
%ADD23C,2.000000*%
%ADD24R,2.200000X2.200000*%
%ADD25O,2.200000X2.200000*%
%ADD26O,5.080000X3.840000*%
%ADD27R,2.032000X2.032000*%
%ADD28O,2.032000X2.032000*%
%ADD29O,1.501140X0.899160*%
%ADD30O,1.200000X1.600000*%
%ADD31O,1.200000X1.200000*%
%ADD32C,0.800000*%
%ADD33C,0.600000*%
%ADD34C,1.000000*%
%ADD35C,0.250000*%
G04 APERTURE END LIST*
D10*
D11*
X101600000Y-119380000D02*
X101600000Y-59690000D01*
X199390000Y-119380000D02*
X101600000Y-119380000D01*
X199390000Y-59690000D02*
X199390000Y-119380000D01*
X101600000Y-59690000D02*
X199390000Y-59690000D01*
D12*
X104140000Y-102870000D03*
X106680000Y-102870000D03*
D13*
X109220000Y-102870000D03*
D12*
X111760000Y-102870000D03*
X114300000Y-102870000D03*
X116840000Y-102870000D03*
X119380000Y-102870000D03*
D13*
X121920000Y-102870000D03*
D12*
X124460000Y-102870000D03*
X127000000Y-102870000D03*
X129540000Y-102870000D03*
X132080000Y-102870000D03*
D13*
X134620000Y-102870000D03*
D12*
X137160000Y-102870000D03*
X139700000Y-102870000D03*
X142240000Y-102870000D03*
X144780000Y-102870000D03*
D13*
X147320000Y-102870000D03*
D12*
X149860000Y-102870000D03*
X152400000Y-102870000D03*
X152400000Y-85090000D03*
X149860000Y-85090000D03*
D13*
X147320000Y-85090000D03*
D12*
X144780000Y-85090000D03*
X142240000Y-85090000D03*
X139700000Y-85090000D03*
X137160000Y-85090000D03*
D13*
X134620000Y-85090000D03*
D12*
X132080000Y-85090000D03*
X129540000Y-85090000D03*
X127000000Y-85090000D03*
X124460000Y-85090000D03*
D13*
X121920000Y-85090000D03*
D12*
X119380000Y-85090000D03*
X116840000Y-85090000D03*
X114300000Y-85090000D03*
X111760000Y-85090000D03*
D13*
X109220000Y-85090000D03*
D12*
X106680000Y-85090000D03*
X104140000Y-85090000D03*
D14*
X104140000Y-103770000D03*
X106680000Y-103770000D03*
X109220000Y-103770000D03*
X111760000Y-103770000D03*
X114300000Y-103770000D03*
X116840000Y-103770000D03*
X119380000Y-103770000D03*
X121920000Y-103770000D03*
X124460000Y-103770000D03*
X127000000Y-103770000D03*
X129540000Y-103770000D03*
X132080000Y-103770000D03*
X134620000Y-103770000D03*
X137160000Y-103770000D03*
X139700000Y-103770000D03*
X142240000Y-103770000D03*
X144780000Y-103770000D03*
X147320000Y-103770000D03*
X149860000Y-103770000D03*
X152400000Y-103770000D03*
X104140000Y-84190000D03*
X106680000Y-84190000D03*
X109220000Y-84190000D03*
X111760000Y-84190000D03*
X114300000Y-84190000D03*
X116840000Y-84190000D03*
X119380000Y-84190000D03*
X121920000Y-84190000D03*
X124460000Y-84190000D03*
X127000000Y-84190000D03*
X129540000Y-84190000D03*
X132080000Y-84190000D03*
X134620000Y-84190000D03*
X137160000Y-84190000D03*
X139700000Y-84190000D03*
X142240000Y-84190000D03*
X144780000Y-84190000D03*
X147320000Y-84190000D03*
X149860000Y-84190000D03*
X152400000Y-84190000D03*
D15*
X153070000Y-96520000D03*
D12*
X152170000Y-96520000D03*
D15*
X153070000Y-93980000D03*
D13*
X152170000Y-93980000D03*
D15*
X153070000Y-91440000D03*
D12*
X152170000Y-91440000D03*
D16*
X149225000Y-112395000D03*
D17*
X144145000Y-112395000D03*
D18*
X195580000Y-87630000D03*
D19*
X195580000Y-92710000D03*
X195580000Y-97790000D03*
D20*
X111125000Y-116840000D03*
D21*
X113665000Y-116840000D03*
X116205000Y-116840000D03*
X118745000Y-116840000D03*
X121285000Y-116840000D03*
X123825000Y-116840000D03*
X126365000Y-116840000D03*
X128905000Y-116840000D03*
X131445000Y-116840000D03*
X133985000Y-116840000D03*
X136525000Y-116840000D03*
X139065000Y-116840000D03*
X141605000Y-116840000D03*
X144145000Y-116840000D03*
X146685000Y-116840000D03*
X149225000Y-116840000D03*
D22*
X185420000Y-101600000D03*
D23*
X185420000Y-106600000D03*
D16*
X114808000Y-111760000D03*
X109808000Y-111760000D03*
X172720000Y-88900000D03*
X172720000Y-93900000D03*
X104140000Y-78740000D03*
X109140000Y-78740000D03*
X177800000Y-99060000D03*
X177800000Y-104060000D03*
D24*
X167640000Y-107950000D03*
D25*
X177800000Y-107950000D03*
D24*
X186690000Y-85090000D03*
D25*
X179070000Y-85090000D03*
D26*
X189230000Y-114300000D03*
X182880000Y-114300000D03*
X173355000Y-114300000D03*
X167005000Y-114300000D03*
D18*
X195580000Y-104140000D03*
D19*
X195580000Y-109220000D03*
D18*
X195580000Y-71120000D03*
D19*
X195580000Y-76200000D03*
X195580000Y-81280000D03*
D27*
X153670000Y-113030000D03*
D28*
X153670000Y-115570000D03*
D27*
X157480000Y-115570000D03*
D28*
X157480000Y-113030000D03*
D27*
X161290000Y-115570000D03*
D28*
X161290000Y-113030000D03*
D19*
X182880000Y-63500000D03*
X162560000Y-63500000D03*
X167640000Y-63500000D03*
D18*
X157480000Y-63500000D03*
D19*
X172720000Y-63500000D03*
X177800000Y-63500000D03*
X187960000Y-63500000D03*
D16*
X179070000Y-76200000D03*
D17*
X179070000Y-81280000D03*
D16*
X179070000Y-93980000D03*
D17*
X179070000Y-88900000D03*
D16*
X185420000Y-76200000D03*
D17*
X185420000Y-81280000D03*
D16*
X167132000Y-88900000D03*
D17*
X167132000Y-93980000D03*
D16*
X130048000Y-108204000D03*
D17*
X135128000Y-108204000D03*
D16*
X160020000Y-76200000D03*
D17*
X160020000Y-81280000D03*
D16*
X114935000Y-107950000D03*
D17*
X109855000Y-107950000D03*
D16*
X144145000Y-107950000D03*
D17*
X149225000Y-107950000D03*
D29*
X186690000Y-92710000D03*
X186690000Y-91440000D03*
X186690000Y-93980000D03*
X160020000Y-90170000D03*
X160020000Y-91440000D03*
X160020000Y-88900000D03*
D30*
X121920000Y-111760000D03*
D31*
X123190000Y-110490000D03*
X121920000Y-109220000D03*
D16*
X129540000Y-74295000D03*
D17*
X129540000Y-79375000D03*
D16*
X133350000Y-74295000D03*
D17*
X133350000Y-79375000D03*
D16*
X137160000Y-74295000D03*
D17*
X137160000Y-79375000D03*
D16*
X140970000Y-74295000D03*
D17*
X140970000Y-79375000D03*
D16*
X144780000Y-74295000D03*
D17*
X144780000Y-79375000D03*
D16*
X149860000Y-74295000D03*
D17*
X149860000Y-79375000D03*
D16*
X163830000Y-99060000D03*
D17*
X158750000Y-99060000D03*
D16*
X163830000Y-102870000D03*
D17*
X158750000Y-102870000D03*
D16*
X129540000Y-64135000D03*
D17*
X129540000Y-69215000D03*
D16*
X133350000Y-64135000D03*
D17*
X133350000Y-69215000D03*
D16*
X137160000Y-64135000D03*
D17*
X137160000Y-69215000D03*
D16*
X140970000Y-64135000D03*
D17*
X140970000Y-69215000D03*
D16*
X144780000Y-64135000D03*
D17*
X144780000Y-69215000D03*
D16*
X149860000Y-64135000D03*
D17*
X149860000Y-69215000D03*
D16*
X172720000Y-99060000D03*
D17*
X167640000Y-99060000D03*
D16*
X172720000Y-102870000D03*
D17*
X167640000Y-102870000D03*
D32*
X146304000Y-87376000D03*
X109220000Y-87376000D03*
X121920000Y-87376000D03*
X134620000Y-87376000D03*
D33*
X135890000Y-99060000D03*
X124460000Y-107315000D03*
X118745000Y-107315000D03*
X127635000Y-114300000D03*
X123825000Y-114300000D03*
X125730000Y-96520000D03*
X111760000Y-96520000D03*
X114300000Y-97790000D03*
X128270000Y-97790000D03*
X130810000Y-99060000D03*
X116840000Y-99060000D03*
X133350000Y-100330000D03*
X119380000Y-100330000D03*
X129540000Y-96520000D03*
X148590000Y-96520000D03*
X147320000Y-92710000D03*
X147320000Y-88900000D03*
X132080000Y-92710000D03*
X148590000Y-81280000D03*
X148590000Y-93980000D03*
X104140000Y-93980000D03*
X149860000Y-95250000D03*
X106680000Y-95250000D03*
X151765000Y-81280000D03*
X182880000Y-71755000D03*
X162560000Y-69215000D03*
X167640000Y-69850000D03*
X172720000Y-70485000D03*
X177800000Y-71120000D03*
X187960000Y-72390000D03*
D34*
X113665000Y-116840000D02*
X113665000Y-118745000D01*
X113665000Y-116840000D02*
X113665000Y-112903000D01*
X113665000Y-112903000D02*
X114808000Y-111760000D01*
X146685000Y-118745000D02*
X146050000Y-118745000D01*
X146050000Y-118745000D02*
X113665000Y-118745000D01*
X102235000Y-78740000D02*
X102235000Y-111760000D01*
X108585000Y-118110000D02*
X109220000Y-118745000D01*
X108585000Y-113030000D02*
X108585000Y-112712500D01*
X108585000Y-112712500D02*
X108585000Y-118110000D01*
X107950000Y-112395000D02*
X108585000Y-113030000D01*
X107315000Y-112395000D02*
X107950000Y-112395000D01*
X102870000Y-112395000D02*
X107315000Y-112395000D01*
X102235000Y-111760000D02*
X102870000Y-112395000D01*
X113665000Y-118745000D02*
X111125000Y-118745000D01*
X109220000Y-118745000D02*
X111125000Y-118745000D01*
X185420000Y-76200000D02*
X185420000Y-66040000D01*
X185420000Y-66040000D02*
X185420000Y-60325000D01*
X160020000Y-76200000D02*
X160020000Y-60325000D01*
X185420000Y-101600000D02*
X187325000Y-101600000D01*
X198120000Y-100330000D02*
X198755000Y-99695000D01*
X188595000Y-100330000D02*
X198120000Y-100330000D01*
X187325000Y-101600000D02*
X188595000Y-100330000D01*
X129540000Y-64135000D02*
X129540000Y-60325000D01*
X133350000Y-64135000D02*
X133350000Y-60325000D01*
X137160000Y-64135000D02*
X137160000Y-60325000D01*
X140970000Y-64135000D02*
X140970000Y-60325000D01*
X144780000Y-64135000D02*
X144780000Y-60325000D01*
X149860000Y-64135000D02*
X149860000Y-60325000D01*
X102235000Y-78740000D02*
X104140000Y-78740000D01*
X104140000Y-85090000D02*
X104140000Y-78740000D01*
X173355000Y-114300000D02*
X167005000Y-114300000D01*
X146685000Y-116840000D02*
X146685000Y-118745000D01*
X147320000Y-118745000D02*
X146685000Y-118745000D01*
X167005000Y-118110000D02*
X166370000Y-118745000D01*
X166370000Y-118745000D02*
X147320000Y-118745000D01*
X167005000Y-114300000D02*
X167005000Y-118110000D01*
X147955000Y-60325000D02*
X144780000Y-60325000D01*
X144780000Y-60325000D02*
X140970000Y-60325000D01*
X140970000Y-60325000D02*
X137160000Y-60325000D01*
X137160000Y-60325000D02*
X133350000Y-60325000D01*
X133350000Y-60325000D02*
X129540000Y-60325000D01*
X129540000Y-60325000D02*
X109220000Y-60325000D01*
X198755000Y-67310000D02*
X198120000Y-66675000D01*
X198755000Y-99695000D02*
X198755000Y-67310000D01*
X191770000Y-60325000D02*
X185420000Y-60325000D01*
X185420000Y-60325000D02*
X160020000Y-60325000D01*
X160020000Y-60325000D02*
X149860000Y-60325000D01*
X192405000Y-60960000D02*
X191770000Y-60325000D01*
X192405000Y-66040000D02*
X192405000Y-60960000D01*
X193040000Y-66675000D02*
X192405000Y-66040000D01*
X198120000Y-66675000D02*
X193040000Y-66675000D01*
X149860000Y-60325000D02*
X147955000Y-60325000D01*
X102235000Y-67310000D02*
X102235000Y-78740000D01*
X102870000Y-66675000D02*
X102235000Y-67310000D01*
X107950000Y-66675000D02*
X102870000Y-66675000D01*
X108585000Y-66040000D02*
X107950000Y-66675000D01*
X108585000Y-60960000D02*
X108585000Y-66040000D01*
X109220000Y-60325000D02*
X108585000Y-60960000D01*
X167640000Y-107950000D02*
X172085000Y-107950000D01*
X172720000Y-107315000D02*
X172720000Y-102870000D01*
X172085000Y-107950000D02*
X172720000Y-107315000D01*
X172720000Y-102870000D02*
X172720000Y-99060000D01*
X167640000Y-107950000D02*
X167640000Y-113665000D01*
X167640000Y-113665000D02*
X167005000Y-114300000D01*
X109808000Y-111760000D02*
X109808000Y-107997000D01*
X109808000Y-107997000D02*
X109855000Y-107950000D01*
X111125000Y-116840000D02*
X111125000Y-113077000D01*
X111125000Y-113077000D02*
X109808000Y-111760000D01*
X146304000Y-87376000D02*
X146050000Y-87376000D01*
X146050000Y-87630000D02*
X146050000Y-87376000D01*
X147320000Y-85090000D02*
X147320000Y-86360000D01*
X147320000Y-86360000D02*
X146050000Y-87630000D01*
X146050000Y-87376000D02*
X146050000Y-90170000D01*
X147320000Y-100965000D02*
X147320000Y-102870000D01*
X146050000Y-99695000D02*
X147320000Y-100965000D01*
X146050000Y-90170000D02*
X146050000Y-99695000D01*
X134620000Y-85090000D02*
X134620000Y-87376000D01*
X134620000Y-102870000D02*
X134620000Y-87376000D01*
X109220000Y-102870000D02*
X109220000Y-87376000D01*
X109220000Y-87376000D02*
X109220000Y-85090000D01*
X121920000Y-102870000D02*
X121920000Y-87376000D01*
X121920000Y-87376000D02*
X121920000Y-85090000D01*
X121920000Y-109220000D02*
X121920000Y-102870000D01*
X185420000Y-106600000D02*
X185500000Y-106600000D01*
X177800000Y-104060000D02*
X177800000Y-107950000D01*
X195580000Y-104140000D02*
X191770000Y-104140000D01*
X191770000Y-104140000D02*
X190500000Y-104140000D01*
X190500000Y-104140000D02*
X189230000Y-105410000D01*
X189230000Y-105410000D02*
X189230000Y-114300000D01*
D35*
X185420000Y-81280000D02*
X189865000Y-81280000D01*
X189865000Y-92710000D02*
X190500000Y-92075000D01*
X190500000Y-92075000D02*
X190500000Y-83185000D01*
X186690000Y-92710000D02*
X189865000Y-92710000D01*
X189865000Y-81280000D02*
X190500000Y-81915000D01*
X190500000Y-81915000D02*
X190500000Y-83185000D01*
X135890000Y-106680000D02*
X135890000Y-99060000D01*
X135255000Y-107315000D02*
X135890000Y-106680000D01*
X135255000Y-108077000D02*
X135255000Y-107315000D01*
X135128000Y-108204000D02*
X135255000Y-108077000D01*
X185547000Y-81407000D02*
X185420000Y-81280000D01*
X118745000Y-116840000D02*
X118745000Y-107315000D01*
X124460000Y-107315000D02*
X124460000Y-102870000D01*
X123825000Y-116840000D02*
X123825000Y-114300000D01*
X127000000Y-106680000D02*
X127000000Y-102870000D01*
X127635000Y-107315000D02*
X127000000Y-106680000D01*
X127635000Y-114300000D02*
X127635000Y-107315000D01*
X111760000Y-102870000D02*
X111760000Y-96520000D01*
X126365000Y-107315000D02*
X125730000Y-106680000D01*
X125730000Y-106680000D02*
X125730000Y-100965000D01*
X126365000Y-107315000D02*
X126365000Y-117475000D01*
X125730000Y-96520000D02*
X125730000Y-100965000D01*
X128270000Y-100330000D02*
X128270000Y-97790000D01*
X128905000Y-107315000D02*
X128270000Y-106680000D01*
X128270000Y-106680000D02*
X128270000Y-100330000D01*
X128905000Y-116840000D02*
X128905000Y-107315000D01*
X114300000Y-97790000D02*
X114300000Y-102870000D01*
X116840000Y-102870000D02*
X116840000Y-99060000D01*
X130810000Y-99060000D02*
X130810000Y-100965000D01*
X131445000Y-116840000D02*
X131445000Y-107315000D01*
X130810000Y-106680000D02*
X130810000Y-100965000D01*
X130810000Y-100965000D02*
X130810000Y-100330000D01*
X131445000Y-107315000D02*
X130810000Y-106680000D01*
X119380000Y-102870000D02*
X119380000Y-100330000D01*
X133985000Y-107315000D02*
X133350000Y-106680000D01*
X133350000Y-106680000D02*
X133350000Y-100330000D01*
X133985000Y-107315000D02*
X133985000Y-116840000D01*
X136525000Y-116840000D02*
X136525000Y-107315000D01*
X137160000Y-106680000D02*
X137160000Y-102870000D01*
X136525000Y-107315000D02*
X137160000Y-106680000D01*
X139065000Y-116840000D02*
X139065000Y-107315000D01*
X139700000Y-106680000D02*
X139700000Y-102870000D01*
X139065000Y-107315000D02*
X139700000Y-106680000D01*
X141605000Y-116840000D02*
X141605000Y-107315000D01*
X142240000Y-106680000D02*
X142240000Y-102870000D01*
X141605000Y-107315000D02*
X142240000Y-106680000D01*
X141605000Y-116205000D02*
X141605000Y-116205000D01*
X142240000Y-105410000D02*
X142240000Y-102235000D01*
X144145000Y-116840000D02*
X144145000Y-114935000D01*
X146050000Y-106680000D02*
X144780000Y-105410000D01*
X146685000Y-107315000D02*
X146050000Y-106680000D01*
X146685000Y-113665000D02*
X146685000Y-107315000D01*
X146050000Y-114300000D02*
X146685000Y-113665000D01*
X144780000Y-114300000D02*
X146050000Y-114300000D01*
X144145000Y-114935000D02*
X144780000Y-114300000D01*
X144780000Y-105410000D02*
X144780000Y-102870000D01*
X144780000Y-105410000D02*
X144780000Y-102870000D01*
X151130000Y-100330000D02*
X150495000Y-99695000D01*
X153670000Y-110490000D02*
X153035000Y-109855000D01*
X153035000Y-109855000D02*
X152400000Y-109855000D01*
X152400000Y-109855000D02*
X151765000Y-109855000D01*
X151765000Y-109855000D02*
X151130000Y-109220000D01*
X151130000Y-109220000D02*
X151130000Y-100330000D01*
X153670000Y-113030000D02*
X153670000Y-110490000D01*
X129540000Y-96520000D02*
X129540000Y-85090000D01*
X148590000Y-99060000D02*
X148590000Y-96520000D01*
X149225000Y-99695000D02*
X148590000Y-99060000D01*
X150495000Y-99695000D02*
X149225000Y-99695000D01*
X132080000Y-102870000D02*
X132080000Y-92710000D01*
X147320000Y-88900000D02*
X147320000Y-92710000D01*
X160020000Y-88900000D02*
X160020000Y-81280000D01*
X149225000Y-107950000D02*
X149225000Y-107315000D01*
X149225000Y-107315000D02*
X149860000Y-106680000D01*
X149860000Y-106680000D02*
X149860000Y-102870000D01*
X130048000Y-108204000D02*
X130048000Y-107188000D01*
X129540000Y-106680000D02*
X129540000Y-102870000D01*
X130048000Y-107188000D02*
X129540000Y-106680000D01*
X179070000Y-81280000D02*
X173355000Y-81280000D01*
X172720000Y-81915000D02*
X172720000Y-82550000D01*
X173355000Y-81280000D02*
X172720000Y-81915000D01*
X179070000Y-85090000D02*
X179070000Y-81280000D01*
X172720000Y-88900000D02*
X172720000Y-82804000D01*
X172720000Y-82804000D02*
X172720000Y-82550000D01*
X148590000Y-93980000D02*
X148590000Y-81280000D01*
X104140000Y-102870000D02*
X104140000Y-93980000D01*
X149860000Y-95250000D02*
X149860000Y-87630000D01*
X149860000Y-87630000D02*
X150495000Y-86995000D01*
X150495000Y-86995000D02*
X151130000Y-86360000D01*
X151130000Y-86360000D02*
X151130000Y-81915000D01*
X106680000Y-95250000D02*
X106680000Y-102870000D01*
X151765000Y-81280000D02*
X151130000Y-81915000D01*
X195580000Y-87630000D02*
X191770000Y-87630000D01*
X190500000Y-79375000D02*
X182880000Y-79375000D01*
X191135000Y-80010000D02*
X190500000Y-79375000D01*
X191135000Y-86995000D02*
X191135000Y-80010000D01*
X191770000Y-87630000D02*
X191135000Y-86995000D01*
X179070000Y-76200000D02*
X182245000Y-76200000D01*
X182880000Y-76835000D02*
X182880000Y-77470000D01*
X182245000Y-76200000D02*
X182880000Y-76835000D01*
X186690000Y-91440000D02*
X183515000Y-91440000D01*
X182880000Y-90805000D02*
X182880000Y-90170000D01*
X183515000Y-91440000D02*
X182880000Y-90805000D01*
X182880000Y-89916000D02*
X182880000Y-90170000D01*
X182880000Y-77724000D02*
X182880000Y-79375000D01*
X182880000Y-79375000D02*
X182880000Y-89916000D01*
X182880000Y-77470000D02*
X182880000Y-77724000D01*
X182880000Y-71755000D02*
X182880000Y-63500000D01*
X133350000Y-69215000D02*
X133350000Y-74295000D01*
X162560000Y-69215000D02*
X162560000Y-63500000D01*
X149860000Y-69215000D02*
X149860000Y-74295000D01*
X167640000Y-63500000D02*
X167640000Y-69850000D01*
X144780000Y-74295000D02*
X144780000Y-69215000D01*
X172720000Y-70485000D02*
X172720000Y-63500000D01*
X140970000Y-69215000D02*
X140970000Y-74295000D01*
X177800000Y-63500000D02*
X177800000Y-71120000D01*
X137160000Y-74295000D02*
X137160000Y-69215000D01*
X187960000Y-63500000D02*
X187960000Y-72390000D01*
X129540000Y-74295000D02*
X129540000Y-69215000D01*
X161290000Y-101600000D02*
X161290000Y-100330000D01*
X161925000Y-99060000D02*
X163830000Y-99060000D01*
X161290000Y-99695000D02*
X161925000Y-99060000D01*
X161290000Y-100330000D02*
X161290000Y-99695000D01*
X157480000Y-113030000D02*
X157480000Y-108585000D01*
X160655000Y-107950000D02*
X161290000Y-107315000D01*
X158115000Y-107950000D02*
X160655000Y-107950000D01*
X157480000Y-108585000D02*
X158115000Y-107950000D01*
X161290000Y-107315000D02*
X161290000Y-101600000D01*
X161290000Y-113030000D02*
X161290000Y-108585000D01*
X163195000Y-107950000D02*
X163830000Y-107315000D01*
X161925000Y-107950000D02*
X163195000Y-107950000D01*
X161290000Y-108585000D02*
X161925000Y-107950000D01*
X163830000Y-102870000D02*
X163830000Y-107315000D01*
X114935000Y-107950000D02*
X115570000Y-107950000D01*
X116205000Y-108585000D02*
X116205000Y-116840000D01*
X115570000Y-107950000D02*
X116205000Y-108585000D01*
X149225000Y-116840000D02*
X149225000Y-112395000D01*
X129540000Y-79375000D02*
X130175000Y-79375000D01*
X130175000Y-79375000D02*
X132080000Y-81280000D01*
X132080000Y-81280000D02*
X132080000Y-85090000D01*
X133350000Y-79375000D02*
X133985000Y-79375000D01*
X133985000Y-79375000D02*
X137160000Y-82550000D01*
X137160000Y-82550000D02*
X137160000Y-85090000D01*
X137160000Y-79375000D02*
X137795000Y-79375000D01*
X137795000Y-79375000D02*
X139700000Y-81280000D01*
X139700000Y-81280000D02*
X139700000Y-85090000D01*
X140970000Y-79375000D02*
X140970000Y-80010000D01*
X140970000Y-80010000D02*
X142240000Y-81280000D01*
X142240000Y-81280000D02*
X142240000Y-85090000D01*
X144780000Y-79375000D02*
X144780000Y-85090000D01*
X149860000Y-79375000D02*
X149860000Y-85090000D01*
X155956000Y-85344000D02*
X155702000Y-85090000D01*
X156972000Y-99060000D02*
X156464000Y-98552000D01*
X156464000Y-98552000D02*
X156464000Y-85852000D01*
X156464000Y-85852000D02*
X155956000Y-85344000D01*
X158750000Y-99060000D02*
X156972000Y-99060000D01*
X155702000Y-85090000D02*
X152400000Y-85090000D01*
M02*
