%FSLAX45Y45*%
G04 Gerber Fmt 4.5, Leading zero omitted, Abs format (unit mm)*
G04 Created by KiCad (PCBNEW 4.0.5+dfsg1-4+deb9u1) date Sun Oct  9 21:53:42 2022*
%MOMM*%
%LPD*%
G01*
G04 APERTURE LIST*
%ADD10C,0.127000*%
%ADD11C,0.150000*%
%ADD12C,0.200000*%
%ADD13C,0.300000*%
G04 APERTURE END LIST*
D10*
D11*
X10160000Y-11938000D02*
X10160000Y-5969000D01*
X19939000Y-11938000D02*
X10160000Y-11938000D01*
X19939000Y-5969000D02*
X19939000Y-11938000D01*
X10160000Y-5969000D02*
X19939000Y-5969000D01*
D12*
X10394000Y-9378000D02*
X10434000Y-9418000D01*
X10434000Y-9378000D02*
X10394000Y-9418000D01*
X10648000Y-9505000D02*
X10688000Y-9545000D01*
X10688000Y-9505000D02*
X10648000Y-9545000D01*
X11156000Y-9632000D02*
X11196000Y-9672000D01*
X11196000Y-9632000D02*
X11156000Y-9672000D01*
X11410000Y-9759000D02*
X11450000Y-9799000D01*
X11450000Y-9759000D02*
X11410000Y-9799000D01*
X11664000Y-9886000D02*
X11704000Y-9926000D01*
X11704000Y-9886000D02*
X11664000Y-9926000D01*
X11854500Y-10711500D02*
X11894500Y-10751500D01*
X11894500Y-10711500D02*
X11854500Y-10751500D01*
X11918000Y-10013000D02*
X11958000Y-10053000D01*
X11958000Y-10013000D02*
X11918000Y-10053000D01*
X12362500Y-11410000D02*
X12402500Y-11450000D01*
X12402500Y-11410000D02*
X12362500Y-11450000D01*
X12426000Y-10711500D02*
X12466000Y-10751500D01*
X12466000Y-10711500D02*
X12426000Y-10751500D01*
X12553000Y-9632000D02*
X12593000Y-9672000D01*
X12593000Y-9632000D02*
X12553000Y-9672000D01*
X12743500Y-11410000D02*
X12783500Y-11450000D01*
X12783500Y-11410000D02*
X12743500Y-11450000D01*
X12807000Y-9759000D02*
X12847000Y-9799000D01*
X12847000Y-9759000D02*
X12807000Y-9799000D01*
X12934000Y-9632000D02*
X12974000Y-9672000D01*
X12974000Y-9632000D02*
X12934000Y-9672000D01*
X13061000Y-9886000D02*
X13101000Y-9926000D01*
X13101000Y-9886000D02*
X13061000Y-9926000D01*
X13188000Y-9251000D02*
X13228000Y-9291000D01*
X13228000Y-9251000D02*
X13188000Y-9291000D01*
X13315000Y-10013000D02*
X13355000Y-10053000D01*
X13355000Y-10013000D02*
X13315000Y-10053000D01*
X13569000Y-9886000D02*
X13609000Y-9926000D01*
X13609000Y-9886000D02*
X13569000Y-9926000D01*
X14712000Y-8870000D02*
X14752000Y-8910000D01*
X14752000Y-8870000D02*
X14712000Y-8910000D01*
X14712000Y-9251000D02*
X14752000Y-9291000D01*
X14752000Y-9251000D02*
X14712000Y-9291000D01*
X14839000Y-8108000D02*
X14879000Y-8148000D01*
X14879000Y-8108000D02*
X14839000Y-8148000D01*
X14839000Y-9378000D02*
X14879000Y-9418000D01*
X14879000Y-9378000D02*
X14839000Y-9418000D01*
X14839000Y-9632000D02*
X14879000Y-9672000D01*
X14879000Y-9632000D02*
X14839000Y-9672000D01*
X14966000Y-9505000D02*
X15006000Y-9545000D01*
X15006000Y-9505000D02*
X14966000Y-9545000D01*
X15156500Y-8108000D02*
X15196500Y-8148000D01*
X15196500Y-8108000D02*
X15156500Y-8148000D01*
X16236000Y-6901500D02*
X16276000Y-6941500D01*
X16276000Y-6901500D02*
X16236000Y-6941500D01*
X16744000Y-6965000D02*
X16784000Y-7005000D01*
X16784000Y-6965000D02*
X16744000Y-7005000D01*
X17252000Y-7028500D02*
X17292000Y-7068500D01*
X17292000Y-7028500D02*
X17252000Y-7068500D01*
X17760000Y-7092000D02*
X17800000Y-7132000D01*
X17800000Y-7092000D02*
X17760000Y-7132000D01*
X18268000Y-7155500D02*
X18308000Y-7195500D01*
X18308000Y-7155500D02*
X18268000Y-7195500D01*
X18776000Y-7219000D02*
X18816000Y-7259000D01*
X18816000Y-7219000D02*
X18776000Y-7259000D01*
X10952000Y-8737600D02*
G75*
G03X10952000Y-8737600I-30000J0D01*
G01*
X12222000Y-8737600D02*
G75*
G03X12222000Y-8737600I-30000J0D01*
G01*
X13492000Y-8737600D02*
G75*
G03X13492000Y-8737600I-30000J0D01*
G01*
X14660400Y-8737600D02*
G75*
G03X14660400Y-8737600I-30000J0D01*
G01*
X16032000Y-8890000D02*
G75*
G03X16032000Y-8890000I-30000J0D01*
G01*
X16032000Y-9017000D02*
G75*
G03X16032000Y-9017000I-30000J0D01*
G01*
X16032000Y-9144000D02*
G75*
G03X16032000Y-9144000I-30000J0D01*
G01*
X18699000Y-9144000D02*
G75*
G03X18699000Y-9144000I-30000J0D01*
G01*
X18699000Y-9271000D02*
G75*
G03X18699000Y-9271000I-30000J0D01*
G01*
X18699000Y-9398000D02*
G75*
G03X18699000Y-9398000I-30000J0D01*
G01*
X12192000Y-10887000D02*
X12192000Y-10957000D01*
X12157000Y-10922000D02*
X12227000Y-10922000D01*
X12192000Y-11141000D02*
X12192000Y-11211000D01*
X12157000Y-11176000D02*
X12227000Y-11176000D01*
X12319000Y-11014000D02*
X12319000Y-11084000D01*
X12284000Y-11049000D02*
X12354000Y-11049000D01*
X10442285Y-7902284D02*
X10442285Y-7845715D01*
X10385716Y-7845715D01*
X10385716Y-7902284D01*
X10442285Y-7902284D01*
X10942285Y-7902284D02*
X10942285Y-7845715D01*
X10885716Y-7845715D01*
X10885716Y-7902284D01*
X10942285Y-7902284D01*
X11009085Y-11204284D02*
X11009085Y-11147716D01*
X10952516Y-11147716D01*
X10952516Y-11204284D01*
X11009085Y-11204284D01*
X11013785Y-10823285D02*
X11013785Y-10766716D01*
X10957216Y-10766716D01*
X10957216Y-10823285D01*
X11013785Y-10823285D01*
X11509084Y-11204284D02*
X11509084Y-11147716D01*
X11452515Y-11147716D01*
X11452515Y-11204284D01*
X11509084Y-11204284D01*
X11521784Y-10823285D02*
X11521784Y-10766716D01*
X11465215Y-10766716D01*
X11465215Y-10823285D01*
X11521784Y-10823285D01*
X12982284Y-6441784D02*
X12982284Y-6385215D01*
X12925715Y-6385215D01*
X12925715Y-6441784D01*
X12982284Y-6441784D01*
X12982284Y-6949784D02*
X12982284Y-6893215D01*
X12925715Y-6893215D01*
X12925715Y-6949784D01*
X12982284Y-6949784D01*
X12982284Y-7457784D02*
X12982284Y-7401215D01*
X12925715Y-7401215D01*
X12925715Y-7457784D01*
X12982284Y-7457784D01*
X12982284Y-7965784D02*
X12982284Y-7909215D01*
X12925715Y-7909215D01*
X12925715Y-7965784D01*
X12982284Y-7965784D01*
X13033084Y-10848685D02*
X13033084Y-10792116D01*
X12976515Y-10792116D01*
X12976515Y-10848685D01*
X13033084Y-10848685D01*
X13363284Y-6441784D02*
X13363284Y-6385215D01*
X13306715Y-6385215D01*
X13306715Y-6441784D01*
X13363284Y-6441784D01*
X13363284Y-6949784D02*
X13363284Y-6893215D01*
X13306715Y-6893215D01*
X13306715Y-6949784D01*
X13363284Y-6949784D01*
X13363284Y-7457784D02*
X13363284Y-7401215D01*
X13306715Y-7401215D01*
X13306715Y-7457784D01*
X13363284Y-7457784D01*
X13363284Y-7965784D02*
X13363284Y-7909215D01*
X13306715Y-7909215D01*
X13306715Y-7965784D01*
X13363284Y-7965784D01*
X13541084Y-10848685D02*
X13541084Y-10792116D01*
X13484515Y-10792116D01*
X13484515Y-10848685D01*
X13541084Y-10848685D01*
X13744284Y-6441784D02*
X13744284Y-6385215D01*
X13687715Y-6385215D01*
X13687715Y-6441784D01*
X13744284Y-6441784D01*
X13744284Y-6949784D02*
X13744284Y-6893215D01*
X13687715Y-6893215D01*
X13687715Y-6949784D01*
X13744284Y-6949784D01*
X13744284Y-7457784D02*
X13744284Y-7401215D01*
X13687715Y-7401215D01*
X13687715Y-7457784D01*
X13744284Y-7457784D01*
X13744284Y-7965784D02*
X13744284Y-7909215D01*
X13687715Y-7909215D01*
X13687715Y-7965784D01*
X13744284Y-7965784D01*
X14125284Y-6441784D02*
X14125284Y-6385215D01*
X14068715Y-6385215D01*
X14068715Y-6441784D01*
X14125284Y-6441784D01*
X14125284Y-6949784D02*
X14125284Y-6893215D01*
X14068715Y-6893215D01*
X14068715Y-6949784D01*
X14125284Y-6949784D01*
X14125284Y-7457784D02*
X14125284Y-7401215D01*
X14068715Y-7401215D01*
X14068715Y-7457784D01*
X14125284Y-7457784D01*
X14125284Y-7965784D02*
X14125284Y-7909215D01*
X14068715Y-7909215D01*
X14068715Y-7965784D01*
X14125284Y-7965784D01*
X14442784Y-10823285D02*
X14442784Y-10766716D01*
X14386215Y-10766716D01*
X14386215Y-10823285D01*
X14442784Y-10823285D01*
X14442784Y-11267784D02*
X14442784Y-11211215D01*
X14386215Y-11211215D01*
X14386215Y-11267784D01*
X14442784Y-11267784D01*
X14506284Y-6441784D02*
X14506284Y-6385215D01*
X14449715Y-6385215D01*
X14449715Y-6441784D01*
X14506284Y-6441784D01*
X14506284Y-6949784D02*
X14506284Y-6893215D01*
X14449715Y-6893215D01*
X14449715Y-6949784D01*
X14506284Y-6949784D01*
X14506284Y-7457784D02*
X14506284Y-7401215D01*
X14449715Y-7401215D01*
X14449715Y-7457784D01*
X14506284Y-7457784D01*
X14506284Y-7965784D02*
X14506284Y-7909215D01*
X14449715Y-7909215D01*
X14449715Y-7965784D01*
X14506284Y-7965784D01*
X14950784Y-10823285D02*
X14950784Y-10766716D01*
X14894215Y-10766716D01*
X14894215Y-10823285D01*
X14950784Y-10823285D01*
X14950784Y-11267784D02*
X14950784Y-11211215D01*
X14894215Y-11211215D01*
X14894215Y-11267784D01*
X14950784Y-11267784D01*
X15014284Y-6441784D02*
X15014284Y-6385215D01*
X14957715Y-6385215D01*
X14957715Y-6441784D01*
X15014284Y-6441784D01*
X15014284Y-6949784D02*
X15014284Y-6893215D01*
X14957715Y-6893215D01*
X14957715Y-6949784D01*
X15014284Y-6949784D01*
X15014284Y-7457784D02*
X15014284Y-7401215D01*
X14957715Y-7401215D01*
X14957715Y-7457784D01*
X15014284Y-7457784D01*
X15014284Y-7965784D02*
X15014284Y-7909215D01*
X14957715Y-7909215D01*
X14957715Y-7965784D01*
X15014284Y-7965784D01*
X15903284Y-9934285D02*
X15903284Y-9877716D01*
X15846715Y-9877716D01*
X15846715Y-9934285D01*
X15903284Y-9934285D01*
X15903284Y-10315285D02*
X15903284Y-10258716D01*
X15846715Y-10258716D01*
X15846715Y-10315285D01*
X15903284Y-10315285D01*
X16030284Y-7648284D02*
X16030284Y-7591715D01*
X15973715Y-7591715D01*
X15973715Y-7648284D01*
X16030284Y-7648284D01*
X16030284Y-8156284D02*
X16030284Y-8099715D01*
X15973715Y-8099715D01*
X15973715Y-8156284D01*
X16030284Y-8156284D01*
X16411284Y-9934285D02*
X16411284Y-9877716D01*
X16354715Y-9877716D01*
X16354715Y-9934285D01*
X16411284Y-9934285D01*
X16411284Y-10315285D02*
X16411284Y-10258716D01*
X16354715Y-10258716D01*
X16354715Y-10315285D01*
X16411284Y-10315285D01*
X16741484Y-8918285D02*
X16741484Y-8861716D01*
X16684915Y-8861716D01*
X16684915Y-8918285D01*
X16741484Y-8918285D01*
X16741484Y-9426285D02*
X16741484Y-9369716D01*
X16684915Y-9369716D01*
X16684915Y-9426285D01*
X16741484Y-9426285D01*
X16792285Y-9934285D02*
X16792285Y-9877716D01*
X16735715Y-9877716D01*
X16735715Y-9934285D01*
X16792285Y-9934285D01*
X16792285Y-10315285D02*
X16792285Y-10258716D01*
X16735715Y-10258716D01*
X16735715Y-10315285D01*
X16792285Y-10315285D01*
X17300285Y-8918285D02*
X17300285Y-8861716D01*
X17243716Y-8861716D01*
X17243716Y-8918285D01*
X17300285Y-8918285D01*
X17300285Y-9418285D02*
X17300285Y-9361716D01*
X17243716Y-9361716D01*
X17243716Y-9418285D01*
X17300285Y-9418285D01*
X17300285Y-9934285D02*
X17300285Y-9877716D01*
X17243716Y-9877716D01*
X17243716Y-9934285D01*
X17300285Y-9934285D01*
X17300285Y-10315285D02*
X17300285Y-10258716D01*
X17243716Y-10258716D01*
X17243716Y-10315285D01*
X17300285Y-10315285D01*
X17808285Y-9934285D02*
X17808285Y-9877716D01*
X17751716Y-9877716D01*
X17751716Y-9934285D01*
X17808285Y-9934285D01*
X17808285Y-10434285D02*
X17808285Y-10377716D01*
X17751716Y-10377716D01*
X17751716Y-10434285D01*
X17808285Y-10434285D01*
X17935285Y-7648284D02*
X17935285Y-7591715D01*
X17878716Y-7591715D01*
X17878716Y-7648284D01*
X17935285Y-7648284D01*
X17935285Y-8156284D02*
X17935285Y-8099715D01*
X17878716Y-8099715D01*
X17878716Y-8156284D01*
X17935285Y-8156284D01*
X17935285Y-8918285D02*
X17935285Y-8861716D01*
X17878716Y-8861716D01*
X17878716Y-8918285D01*
X17935285Y-8918285D01*
X17935285Y-9426285D02*
X17935285Y-9369716D01*
X17878716Y-9369716D01*
X17878716Y-9426285D01*
X17935285Y-9426285D01*
X18570285Y-7648284D02*
X18570285Y-7591715D01*
X18513716Y-7591715D01*
X18513716Y-7648284D01*
X18570285Y-7648284D01*
X18570285Y-8156284D02*
X18570285Y-8099715D01*
X18513716Y-8099715D01*
X18513716Y-8156284D01*
X18570285Y-8156284D01*
X18542000Y-10210000D02*
X18592000Y-10160000D01*
X18542000Y-10110000D01*
X18492000Y-10160000D01*
X18542000Y-10210000D01*
X18542000Y-10710000D02*
X18592000Y-10660000D01*
X18542000Y-10610000D01*
X18492000Y-10660000D01*
X18542000Y-10710000D01*
X11061700Y-11633200D02*
X11163300Y-11734800D01*
X11163300Y-11633200D02*
X11061700Y-11734800D01*
X11163300Y-11684000D02*
G75*
G03X11163300Y-11684000I-50800J0D01*
G01*
X11315700Y-11633200D02*
X11417300Y-11734800D01*
X11417300Y-11633200D02*
X11315700Y-11734800D01*
X11417300Y-11684000D02*
G75*
G03X11417300Y-11684000I-50800J0D01*
G01*
X11569700Y-11633200D02*
X11671300Y-11734800D01*
X11671300Y-11633200D02*
X11569700Y-11734800D01*
X11671300Y-11684000D02*
G75*
G03X11671300Y-11684000I-50800J0D01*
G01*
X11823700Y-11633200D02*
X11925300Y-11734800D01*
X11925300Y-11633200D02*
X11823700Y-11734800D01*
X11925300Y-11684000D02*
G75*
G03X11925300Y-11684000I-50800J0D01*
G01*
X12077700Y-11633200D02*
X12179300Y-11734800D01*
X12179300Y-11633200D02*
X12077700Y-11734800D01*
X12179300Y-11684000D02*
G75*
G03X12179300Y-11684000I-50800J0D01*
G01*
X12331700Y-11633200D02*
X12433300Y-11734800D01*
X12433300Y-11633200D02*
X12331700Y-11734800D01*
X12433300Y-11684000D02*
G75*
G03X12433300Y-11684000I-50800J0D01*
G01*
X12585700Y-11633200D02*
X12687300Y-11734800D01*
X12687300Y-11633200D02*
X12585700Y-11734800D01*
X12687300Y-11684000D02*
G75*
G03X12687300Y-11684000I-50800J0D01*
G01*
X12839700Y-11633200D02*
X12941300Y-11734800D01*
X12941300Y-11633200D02*
X12839700Y-11734800D01*
X12941300Y-11684000D02*
G75*
G03X12941300Y-11684000I-50800J0D01*
G01*
X13093700Y-11633200D02*
X13195300Y-11734800D01*
X13195300Y-11633200D02*
X13093700Y-11734800D01*
X13195300Y-11684000D02*
G75*
G03X13195300Y-11684000I-50800J0D01*
G01*
X13347700Y-11633200D02*
X13449300Y-11734800D01*
X13449300Y-11633200D02*
X13347700Y-11734800D01*
X13449300Y-11684000D02*
G75*
G03X13449300Y-11684000I-50800J0D01*
G01*
X13601700Y-11633200D02*
X13703300Y-11734800D01*
X13703300Y-11633200D02*
X13601700Y-11734800D01*
X13703300Y-11684000D02*
G75*
G03X13703300Y-11684000I-50800J0D01*
G01*
X13855700Y-11633200D02*
X13957300Y-11734800D01*
X13957300Y-11633200D02*
X13855700Y-11734800D01*
X13957300Y-11684000D02*
G75*
G03X13957300Y-11684000I-50800J0D01*
G01*
X14109700Y-11633200D02*
X14211300Y-11734800D01*
X14211300Y-11633200D02*
X14109700Y-11734800D01*
X14211300Y-11684000D02*
G75*
G03X14211300Y-11684000I-50800J0D01*
G01*
X14363700Y-11633200D02*
X14465300Y-11734800D01*
X14465300Y-11633200D02*
X14363700Y-11734800D01*
X14465300Y-11684000D02*
G75*
G03X14465300Y-11684000I-50800J0D01*
G01*
X14617700Y-11633200D02*
X14719300Y-11734800D01*
X14719300Y-11633200D02*
X14617700Y-11734800D01*
X14719300Y-11684000D02*
G75*
G03X14719300Y-11684000I-50800J0D01*
G01*
X14871700Y-11633200D02*
X14973300Y-11734800D01*
X14973300Y-11633200D02*
X14871700Y-11734800D01*
X14973300Y-11684000D02*
G75*
G03X14973300Y-11684000I-50800J0D01*
G01*
X15316200Y-11252200D02*
X15417800Y-11353800D01*
X15417800Y-11252200D02*
X15316200Y-11353800D01*
X15417800Y-11303000D02*
G75*
G03X15417800Y-11303000I-50800J0D01*
G01*
X15316200Y-11506200D02*
X15417800Y-11607800D01*
X15417800Y-11506200D02*
X15316200Y-11607800D01*
X15417800Y-11557000D02*
G75*
G03X15417800Y-11557000I-50800J0D01*
G01*
X15697200Y-11252200D02*
X15798800Y-11353800D01*
X15798800Y-11252200D02*
X15697200Y-11353800D01*
X15798800Y-11303000D02*
G75*
G03X15798800Y-11303000I-50800J0D01*
G01*
X15697200Y-11506200D02*
X15798800Y-11607800D01*
X15798800Y-11506200D02*
X15697200Y-11607800D01*
X15798800Y-11557000D02*
G75*
G03X15798800Y-11557000I-50800J0D01*
G01*
X16078200Y-11252200D02*
X16179800Y-11353800D01*
X16179800Y-11252200D02*
X16078200Y-11353800D01*
X16179800Y-11303000D02*
G75*
G03X16179800Y-11303000I-50800J0D01*
G01*
X16078200Y-11506200D02*
X16179800Y-11607800D01*
X16179800Y-11506200D02*
X16078200Y-11607800D01*
X16179800Y-11557000D02*
G75*
G03X16179800Y-11557000I-50800J0D01*
G01*
X10363000Y-8458000D02*
X10465000Y-8560000D01*
X10465000Y-8458000D02*
X10363000Y-8560000D01*
X10414000Y-8458000D02*
X10414000Y-8560000D01*
X10363000Y-8509000D02*
X10465000Y-8509000D01*
X10363000Y-10236000D02*
X10465000Y-10338000D01*
X10465000Y-10236000D02*
X10363000Y-10338000D01*
X10414000Y-10236000D02*
X10414000Y-10338000D01*
X10363000Y-10287000D02*
X10465000Y-10287000D01*
X10617000Y-8458000D02*
X10719000Y-8560000D01*
X10719000Y-8458000D02*
X10617000Y-8560000D01*
X10668000Y-8458000D02*
X10668000Y-8560000D01*
X10617000Y-8509000D02*
X10719000Y-8509000D01*
X10617000Y-10236000D02*
X10719000Y-10338000D01*
X10719000Y-10236000D02*
X10617000Y-10338000D01*
X10668000Y-10236000D02*
X10668000Y-10338000D01*
X10617000Y-10287000D02*
X10719000Y-10287000D01*
X10871000Y-8458000D02*
X10973000Y-8560000D01*
X10973000Y-8458000D02*
X10871000Y-8560000D01*
X10922000Y-8458000D02*
X10922000Y-8560000D01*
X10871000Y-8509000D02*
X10973000Y-8509000D01*
X10871000Y-10236000D02*
X10973000Y-10338000D01*
X10973000Y-10236000D02*
X10871000Y-10338000D01*
X10922000Y-10236000D02*
X10922000Y-10338000D01*
X10871000Y-10287000D02*
X10973000Y-10287000D01*
X11125000Y-8458000D02*
X11227000Y-8560000D01*
X11227000Y-8458000D02*
X11125000Y-8560000D01*
X11176000Y-8458000D02*
X11176000Y-8560000D01*
X11125000Y-8509000D02*
X11227000Y-8509000D01*
X11125000Y-10236000D02*
X11227000Y-10338000D01*
X11227000Y-10236000D02*
X11125000Y-10338000D01*
X11176000Y-10236000D02*
X11176000Y-10338000D01*
X11125000Y-10287000D02*
X11227000Y-10287000D01*
X11379000Y-8458000D02*
X11481000Y-8560000D01*
X11481000Y-8458000D02*
X11379000Y-8560000D01*
X11430000Y-8458000D02*
X11430000Y-8560000D01*
X11379000Y-8509000D02*
X11481000Y-8509000D01*
X11379000Y-10236000D02*
X11481000Y-10338000D01*
X11481000Y-10236000D02*
X11379000Y-10338000D01*
X11430000Y-10236000D02*
X11430000Y-10338000D01*
X11379000Y-10287000D02*
X11481000Y-10287000D01*
X11633000Y-8458000D02*
X11735000Y-8560000D01*
X11735000Y-8458000D02*
X11633000Y-8560000D01*
X11684000Y-8458000D02*
X11684000Y-8560000D01*
X11633000Y-8509000D02*
X11735000Y-8509000D01*
X11633000Y-10236000D02*
X11735000Y-10338000D01*
X11735000Y-10236000D02*
X11633000Y-10338000D01*
X11684000Y-10236000D02*
X11684000Y-10338000D01*
X11633000Y-10287000D02*
X11735000Y-10287000D01*
X11887000Y-8458000D02*
X11989000Y-8560000D01*
X11989000Y-8458000D02*
X11887000Y-8560000D01*
X11938000Y-8458000D02*
X11938000Y-8560000D01*
X11887000Y-8509000D02*
X11989000Y-8509000D01*
X11887000Y-10236000D02*
X11989000Y-10338000D01*
X11989000Y-10236000D02*
X11887000Y-10338000D01*
X11938000Y-10236000D02*
X11938000Y-10338000D01*
X11887000Y-10287000D02*
X11989000Y-10287000D01*
X12141000Y-8458000D02*
X12243000Y-8560000D01*
X12243000Y-8458000D02*
X12141000Y-8560000D01*
X12192000Y-8458000D02*
X12192000Y-8560000D01*
X12141000Y-8509000D02*
X12243000Y-8509000D01*
X12141000Y-10236000D02*
X12243000Y-10338000D01*
X12243000Y-10236000D02*
X12141000Y-10338000D01*
X12192000Y-10236000D02*
X12192000Y-10338000D01*
X12141000Y-10287000D02*
X12243000Y-10287000D01*
X12395000Y-8458000D02*
X12497000Y-8560000D01*
X12497000Y-8458000D02*
X12395000Y-8560000D01*
X12446000Y-8458000D02*
X12446000Y-8560000D01*
X12395000Y-8509000D02*
X12497000Y-8509000D01*
X12395000Y-10236000D02*
X12497000Y-10338000D01*
X12497000Y-10236000D02*
X12395000Y-10338000D01*
X12446000Y-10236000D02*
X12446000Y-10338000D01*
X12395000Y-10287000D02*
X12497000Y-10287000D01*
X12649000Y-8458000D02*
X12751000Y-8560000D01*
X12751000Y-8458000D02*
X12649000Y-8560000D01*
X12700000Y-8458000D02*
X12700000Y-8560000D01*
X12649000Y-8509000D02*
X12751000Y-8509000D01*
X12649000Y-10236000D02*
X12751000Y-10338000D01*
X12751000Y-10236000D02*
X12649000Y-10338000D01*
X12700000Y-10236000D02*
X12700000Y-10338000D01*
X12649000Y-10287000D02*
X12751000Y-10287000D01*
X12903000Y-8458000D02*
X13005000Y-8560000D01*
X13005000Y-8458000D02*
X12903000Y-8560000D01*
X12954000Y-8458000D02*
X12954000Y-8560000D01*
X12903000Y-8509000D02*
X13005000Y-8509000D01*
X12903000Y-10236000D02*
X13005000Y-10338000D01*
X13005000Y-10236000D02*
X12903000Y-10338000D01*
X12954000Y-10236000D02*
X12954000Y-10338000D01*
X12903000Y-10287000D02*
X13005000Y-10287000D01*
X13157000Y-8458000D02*
X13259000Y-8560000D01*
X13259000Y-8458000D02*
X13157000Y-8560000D01*
X13208000Y-8458000D02*
X13208000Y-8560000D01*
X13157000Y-8509000D02*
X13259000Y-8509000D01*
X13157000Y-10236000D02*
X13259000Y-10338000D01*
X13259000Y-10236000D02*
X13157000Y-10338000D01*
X13208000Y-10236000D02*
X13208000Y-10338000D01*
X13157000Y-10287000D02*
X13259000Y-10287000D01*
X13411000Y-8458000D02*
X13513000Y-8560000D01*
X13513000Y-8458000D02*
X13411000Y-8560000D01*
X13462000Y-8458000D02*
X13462000Y-8560000D01*
X13411000Y-8509000D02*
X13513000Y-8509000D01*
X13411000Y-10236000D02*
X13513000Y-10338000D01*
X13513000Y-10236000D02*
X13411000Y-10338000D01*
X13462000Y-10236000D02*
X13462000Y-10338000D01*
X13411000Y-10287000D02*
X13513000Y-10287000D01*
X13665000Y-8458000D02*
X13767000Y-8560000D01*
X13767000Y-8458000D02*
X13665000Y-8560000D01*
X13716000Y-8458000D02*
X13716000Y-8560000D01*
X13665000Y-8509000D02*
X13767000Y-8509000D01*
X13665000Y-10236000D02*
X13767000Y-10338000D01*
X13767000Y-10236000D02*
X13665000Y-10338000D01*
X13716000Y-10236000D02*
X13716000Y-10338000D01*
X13665000Y-10287000D02*
X13767000Y-10287000D01*
X13919000Y-8458000D02*
X14021000Y-8560000D01*
X14021000Y-8458000D02*
X13919000Y-8560000D01*
X13970000Y-8458000D02*
X13970000Y-8560000D01*
X13919000Y-8509000D02*
X14021000Y-8509000D01*
X13919000Y-10236000D02*
X14021000Y-10338000D01*
X14021000Y-10236000D02*
X13919000Y-10338000D01*
X13970000Y-10236000D02*
X13970000Y-10338000D01*
X13919000Y-10287000D02*
X14021000Y-10287000D01*
X14173000Y-8458000D02*
X14275000Y-8560000D01*
X14275000Y-8458000D02*
X14173000Y-8560000D01*
X14224000Y-8458000D02*
X14224000Y-8560000D01*
X14173000Y-8509000D02*
X14275000Y-8509000D01*
X14173000Y-10236000D02*
X14275000Y-10338000D01*
X14275000Y-10236000D02*
X14173000Y-10338000D01*
X14224000Y-10236000D02*
X14224000Y-10338000D01*
X14173000Y-10287000D02*
X14275000Y-10287000D01*
X14427000Y-8458000D02*
X14529000Y-8560000D01*
X14529000Y-8458000D02*
X14427000Y-8560000D01*
X14478000Y-8458000D02*
X14478000Y-8560000D01*
X14427000Y-8509000D02*
X14529000Y-8509000D01*
X14427000Y-10236000D02*
X14529000Y-10338000D01*
X14529000Y-10236000D02*
X14427000Y-10338000D01*
X14478000Y-10236000D02*
X14478000Y-10338000D01*
X14427000Y-10287000D02*
X14529000Y-10287000D01*
X14681000Y-8458000D02*
X14783000Y-8560000D01*
X14783000Y-8458000D02*
X14681000Y-8560000D01*
X14732000Y-8458000D02*
X14732000Y-8560000D01*
X14681000Y-8509000D02*
X14783000Y-8509000D01*
X14681000Y-10236000D02*
X14783000Y-10338000D01*
X14783000Y-10236000D02*
X14681000Y-10338000D01*
X14732000Y-10236000D02*
X14732000Y-10338000D01*
X14681000Y-10287000D02*
X14783000Y-10287000D01*
X14935000Y-8458000D02*
X15037000Y-8560000D01*
X15037000Y-8458000D02*
X14935000Y-8560000D01*
X14986000Y-8458000D02*
X14986000Y-8560000D01*
X14935000Y-8509000D02*
X15037000Y-8509000D01*
X14935000Y-10236000D02*
X15037000Y-10338000D01*
X15037000Y-10236000D02*
X14935000Y-10338000D01*
X14986000Y-10236000D02*
X14986000Y-10338000D01*
X14935000Y-10287000D02*
X15037000Y-10287000D01*
X15166000Y-9093000D02*
X15268000Y-9195000D01*
X15268000Y-9093000D02*
X15166000Y-9195000D01*
X15217000Y-9093000D02*
X15217000Y-9195000D01*
X15166000Y-9144000D02*
X15268000Y-9144000D01*
X15166000Y-9347000D02*
X15268000Y-9449000D01*
X15268000Y-9347000D02*
X15166000Y-9449000D01*
X15217000Y-9347000D02*
X15217000Y-9449000D01*
X15166000Y-9398000D02*
X15268000Y-9398000D01*
X15166000Y-9601000D02*
X15268000Y-9703000D01*
X15268000Y-9601000D02*
X15166000Y-9703000D01*
X15217000Y-9601000D02*
X15217000Y-9703000D01*
X15166000Y-9652000D02*
X15268000Y-9652000D01*
X15189000Y-8458000D02*
X15291000Y-8560000D01*
X15291000Y-8458000D02*
X15189000Y-8560000D01*
X15240000Y-8458000D02*
X15240000Y-8560000D01*
X15189000Y-8509000D02*
X15291000Y-8509000D01*
X15189000Y-10236000D02*
X15291000Y-10338000D01*
X15291000Y-10236000D02*
X15189000Y-10338000D01*
X15240000Y-10236000D02*
X15240000Y-10338000D01*
X15189000Y-10287000D02*
X15291000Y-10287000D01*
X16709000Y-10740000D02*
X16819000Y-10850000D01*
X16819000Y-10740000D02*
X16709000Y-10850000D01*
X16802891Y-10833891D02*
X16802891Y-10756109D01*
X16725109Y-10756109D01*
X16725109Y-10833891D01*
X16802891Y-10833891D01*
X17725000Y-10740000D02*
X17835000Y-10850000D01*
X17835000Y-10740000D02*
X17725000Y-10850000D01*
X17818891Y-10833891D02*
X17818891Y-10756109D01*
X17741109Y-10756109D01*
X17741109Y-10833891D01*
X17818891Y-10833891D01*
X17852000Y-8454000D02*
X17962000Y-8564000D01*
X17962000Y-8454000D02*
X17852000Y-8564000D01*
X17945891Y-8547891D02*
X17945891Y-8470109D01*
X17868109Y-8470109D01*
X17868109Y-8547891D01*
X17945891Y-8547891D01*
X18614000Y-8454000D02*
X18724000Y-8564000D01*
X18724000Y-8454000D02*
X18614000Y-8564000D01*
X18707891Y-8547891D02*
X18707891Y-8470109D01*
X18630109Y-8470109D01*
X18630109Y-8547891D01*
X18707891Y-8547891D01*
X16630500Y-11360000D02*
X16770500Y-11500000D01*
X16770500Y-11360000D02*
X16630500Y-11500000D01*
X16700500Y-11500000D02*
X16770500Y-11430000D01*
X16700500Y-11360000D01*
X16630500Y-11430000D01*
X16700500Y-11500000D01*
X17265500Y-11360000D02*
X17405500Y-11500000D01*
X17405500Y-11360000D02*
X17265500Y-11500000D01*
X17335500Y-11500000D02*
X17405500Y-11430000D01*
X17335500Y-11360000D01*
X17265500Y-11430000D01*
X17335500Y-11500000D01*
X18218000Y-11360000D02*
X18358000Y-11500000D01*
X18358000Y-11360000D02*
X18218000Y-11500000D01*
X18288000Y-11500000D02*
X18358000Y-11430000D01*
X18288000Y-11360000D01*
X18218000Y-11430000D01*
X18288000Y-11500000D01*
X18853000Y-11360000D02*
X18993000Y-11500000D01*
X18993000Y-11360000D02*
X18853000Y-11500000D01*
X18923000Y-11500000D02*
X18993000Y-11430000D01*
X18923000Y-11360000D01*
X18853000Y-11430000D01*
X18923000Y-11500000D01*
X15748000Y-6274000D02*
X15748000Y-6426000D01*
X15672000Y-6350000D02*
X15824000Y-6350000D01*
X15824000Y-6350000D02*
G75*
G03X15824000Y-6350000I-76000J0D01*
G01*
X16256000Y-6274000D02*
X16256000Y-6426000D01*
X16180000Y-6350000D02*
X16332000Y-6350000D01*
X16332000Y-6350000D02*
G75*
G03X16332000Y-6350000I-76000J0D01*
G01*
X16764000Y-6274000D02*
X16764000Y-6426000D01*
X16688000Y-6350000D02*
X16840000Y-6350000D01*
X16840000Y-6350000D02*
G75*
G03X16840000Y-6350000I-76000J0D01*
G01*
X17272000Y-6274000D02*
X17272000Y-6426000D01*
X17196000Y-6350000D02*
X17348000Y-6350000D01*
X17348000Y-6350000D02*
G75*
G03X17348000Y-6350000I-76000J0D01*
G01*
X17780000Y-6274000D02*
X17780000Y-6426000D01*
X17704000Y-6350000D02*
X17856000Y-6350000D01*
X17856000Y-6350000D02*
G75*
G03X17856000Y-6350000I-76000J0D01*
G01*
X18288000Y-6274000D02*
X18288000Y-6426000D01*
X18212000Y-6350000D02*
X18364000Y-6350000D01*
X18364000Y-6350000D02*
G75*
G03X18364000Y-6350000I-76000J0D01*
G01*
X18796000Y-6274000D02*
X18796000Y-6426000D01*
X18720000Y-6350000D02*
X18872000Y-6350000D01*
X18872000Y-6350000D02*
G75*
G03X18872000Y-6350000I-76000J0D01*
G01*
X19558000Y-7036000D02*
X19558000Y-7188000D01*
X19482000Y-7112000D02*
X19634000Y-7112000D01*
X19634000Y-7112000D02*
G75*
G03X19634000Y-7112000I-76000J0D01*
G01*
X19558000Y-7544000D02*
X19558000Y-7696000D01*
X19482000Y-7620000D02*
X19634000Y-7620000D01*
X19634000Y-7620000D02*
G75*
G03X19634000Y-7620000I-76000J0D01*
G01*
X19558000Y-8052000D02*
X19558000Y-8204000D01*
X19482000Y-8128000D02*
X19634000Y-8128000D01*
X19634000Y-8128000D02*
G75*
G03X19634000Y-8128000I-76000J0D01*
G01*
X19558000Y-8687000D02*
X19558000Y-8839000D01*
X19482000Y-8763000D02*
X19634000Y-8763000D01*
X19634000Y-8763000D02*
G75*
G03X19634000Y-8763000I-76000J0D01*
G01*
X19558000Y-9195000D02*
X19558000Y-9347000D01*
X19482000Y-9271000D02*
X19634000Y-9271000D01*
X19634000Y-9271000D02*
G75*
G03X19634000Y-9271000I-76000J0D01*
G01*
X19558000Y-9703000D02*
X19558000Y-9855000D01*
X19482000Y-9779000D02*
X19634000Y-9779000D01*
X19634000Y-9779000D02*
G75*
G03X19634000Y-9779000I-76000J0D01*
G01*
X19558000Y-10338000D02*
X19558000Y-10490000D01*
X19482000Y-10414000D02*
X19634000Y-10414000D01*
X19634000Y-10414000D02*
G75*
G03X19634000Y-10414000I-76000J0D01*
G01*
X19558000Y-10846000D02*
X19558000Y-10998000D01*
X19482000Y-10922000D02*
X19634000Y-10922000D01*
X19634000Y-10922000D02*
G75*
G03X19634000Y-10922000I-76000J0D01*
G01*
D13*
X10423929Y-12411214D02*
X10423929Y-12111214D01*
X10495357Y-12111214D01*
X10538214Y-12125500D01*
X10566786Y-12154071D01*
X10581071Y-12182643D01*
X10595357Y-12239786D01*
X10595357Y-12282643D01*
X10581071Y-12339786D01*
X10566786Y-12368357D01*
X10538214Y-12396929D01*
X10495357Y-12411214D01*
X10423929Y-12411214D01*
X10723929Y-12411214D02*
X10723929Y-12211214D01*
X10723929Y-12268357D02*
X10738214Y-12239786D01*
X10752500Y-12225500D01*
X10781071Y-12211214D01*
X10809643Y-12211214D01*
X10909643Y-12411214D02*
X10909643Y-12211214D01*
X10909643Y-12111214D02*
X10895357Y-12125500D01*
X10909643Y-12139786D01*
X10923929Y-12125500D01*
X10909643Y-12111214D01*
X10909643Y-12139786D01*
X11095357Y-12411214D02*
X11066786Y-12396929D01*
X11052500Y-12368357D01*
X11052500Y-12111214D01*
X11252500Y-12411214D02*
X11223928Y-12396929D01*
X11209643Y-12368357D01*
X11209643Y-12111214D01*
X11595357Y-12411214D02*
X11595357Y-12111214D01*
X11695357Y-12325500D01*
X11795357Y-12111214D01*
X11795357Y-12411214D01*
X12066786Y-12411214D02*
X12066786Y-12254071D01*
X12052500Y-12225500D01*
X12023928Y-12211214D01*
X11966786Y-12211214D01*
X11938214Y-12225500D01*
X12066786Y-12396929D02*
X12038214Y-12411214D01*
X11966786Y-12411214D01*
X11938214Y-12396929D01*
X11923928Y-12368357D01*
X11923928Y-12339786D01*
X11938214Y-12311214D01*
X11966786Y-12296929D01*
X12038214Y-12296929D01*
X12066786Y-12282643D01*
X12209643Y-12211214D02*
X12209643Y-12511214D01*
X12209643Y-12225500D02*
X12238214Y-12211214D01*
X12295357Y-12211214D01*
X12323928Y-12225500D01*
X12338214Y-12239786D01*
X12352500Y-12268357D01*
X12352500Y-12354071D01*
X12338214Y-12382643D01*
X12323928Y-12396929D01*
X12295357Y-12411214D01*
X12238214Y-12411214D01*
X12209643Y-12396929D01*
X12481071Y-12382643D02*
X12495357Y-12396929D01*
X12481071Y-12411214D01*
X12466786Y-12396929D01*
X12481071Y-12382643D01*
X12481071Y-12411214D01*
X12481071Y-12225500D02*
X12495357Y-12239786D01*
X12481071Y-12254071D01*
X12466786Y-12239786D01*
X12481071Y-12225500D01*
X12481071Y-12254071D01*
X10112500Y-12885500D02*
X10152500Y-12925500D01*
X10152500Y-12885500D02*
X10112500Y-12925500D01*
X10481071Y-12741214D02*
X10509643Y-12741214D01*
X10538214Y-12755500D01*
X10552500Y-12769786D01*
X10566786Y-12798357D01*
X10581071Y-12855500D01*
X10581071Y-12926929D01*
X10566786Y-12984071D01*
X10552500Y-13012643D01*
X10538214Y-13026929D01*
X10509643Y-13041214D01*
X10481071Y-13041214D01*
X10452500Y-13026929D01*
X10438214Y-13012643D01*
X10423929Y-12984071D01*
X10409643Y-12926929D01*
X10409643Y-12855500D01*
X10423929Y-12798357D01*
X10438214Y-12769786D01*
X10452500Y-12755500D01*
X10481071Y-12741214D01*
X10709643Y-13012643D02*
X10723929Y-13026929D01*
X10709643Y-13041214D01*
X10695357Y-13026929D01*
X10709643Y-13012643D01*
X10709643Y-13041214D01*
X10981071Y-12841214D02*
X10981071Y-13041214D01*
X10909643Y-12726929D02*
X10838214Y-12941214D01*
X11023928Y-12941214D01*
X11195357Y-12741214D02*
X11223928Y-12741214D01*
X11252500Y-12755500D01*
X11266786Y-12769786D01*
X11281071Y-12798357D01*
X11295357Y-12855500D01*
X11295357Y-12926929D01*
X11281071Y-12984071D01*
X11266786Y-13012643D01*
X11252500Y-13026929D01*
X11223928Y-13041214D01*
X11195357Y-13041214D01*
X11166786Y-13026929D01*
X11152500Y-13012643D01*
X11138214Y-12984071D01*
X11123929Y-12926929D01*
X11123929Y-12855500D01*
X11138214Y-12798357D01*
X11152500Y-12769786D01*
X11166786Y-12755500D01*
X11195357Y-12741214D01*
X11423928Y-13041214D02*
X11423928Y-12841214D01*
X11423928Y-12869786D02*
X11438214Y-12855500D01*
X11466786Y-12841214D01*
X11509643Y-12841214D01*
X11538214Y-12855500D01*
X11552500Y-12884071D01*
X11552500Y-13041214D01*
X11552500Y-12884071D02*
X11566786Y-12855500D01*
X11595357Y-12841214D01*
X11638214Y-12841214D01*
X11666786Y-12855500D01*
X11681071Y-12884071D01*
X11681071Y-13041214D01*
X11823928Y-13041214D02*
X11823928Y-12841214D01*
X11823928Y-12869786D02*
X11838214Y-12855500D01*
X11866786Y-12841214D01*
X11909643Y-12841214D01*
X11938214Y-12855500D01*
X11952500Y-12884071D01*
X11952500Y-13041214D01*
X11952500Y-12884071D02*
X11966786Y-12855500D01*
X11995357Y-12841214D01*
X12038214Y-12841214D01*
X12066786Y-12855500D01*
X12081071Y-12884071D01*
X12081071Y-13041214D01*
X12666786Y-12726929D02*
X12409643Y-13112643D01*
X13052500Y-12741214D02*
X13081071Y-12741214D01*
X13109643Y-12755500D01*
X13123928Y-12769786D01*
X13138214Y-12798357D01*
X13152500Y-12855500D01*
X13152500Y-12926929D01*
X13138214Y-12984071D01*
X13123928Y-13012643D01*
X13109643Y-13026929D01*
X13081071Y-13041214D01*
X13052500Y-13041214D01*
X13023928Y-13026929D01*
X13009643Y-13012643D01*
X12995357Y-12984071D01*
X12981071Y-12926929D01*
X12981071Y-12855500D01*
X12995357Y-12798357D01*
X13009643Y-12769786D01*
X13023928Y-12755500D01*
X13052500Y-12741214D01*
X13281071Y-13012643D02*
X13295357Y-13026929D01*
X13281071Y-13041214D01*
X13266786Y-13026929D01*
X13281071Y-13012643D01*
X13281071Y-13041214D01*
X13481071Y-12741214D02*
X13509643Y-12741214D01*
X13538214Y-12755500D01*
X13552500Y-12769786D01*
X13566785Y-12798357D01*
X13581071Y-12855500D01*
X13581071Y-12926929D01*
X13566785Y-12984071D01*
X13552500Y-13012643D01*
X13538214Y-13026929D01*
X13509643Y-13041214D01*
X13481071Y-13041214D01*
X13452500Y-13026929D01*
X13438214Y-13012643D01*
X13423928Y-12984071D01*
X13409643Y-12926929D01*
X13409643Y-12855500D01*
X13423928Y-12798357D01*
X13438214Y-12769786D01*
X13452500Y-12755500D01*
X13481071Y-12741214D01*
X13866785Y-13041214D02*
X13695357Y-13041214D01*
X13781071Y-13041214D02*
X13781071Y-12741214D01*
X13752500Y-12784071D01*
X13723928Y-12812643D01*
X13695357Y-12826929D01*
X14123928Y-12741214D02*
X14066785Y-12741214D01*
X14038214Y-12755500D01*
X14023928Y-12769786D01*
X13995357Y-12812643D01*
X13981071Y-12869786D01*
X13981071Y-12984071D01*
X13995357Y-13012643D01*
X14009643Y-13026929D01*
X14038214Y-13041214D01*
X14095357Y-13041214D01*
X14123928Y-13026929D01*
X14138214Y-13012643D01*
X14152500Y-12984071D01*
X14152500Y-12912643D01*
X14138214Y-12884071D01*
X14123928Y-12869786D01*
X14095357Y-12855500D01*
X14038214Y-12855500D01*
X14009643Y-12869786D01*
X13995357Y-12884071D01*
X13981071Y-12912643D01*
X14266786Y-12741214D02*
X14266786Y-12798357D01*
X14381071Y-12741214D02*
X14381071Y-12798357D01*
X14823928Y-13155500D02*
X14809643Y-13141214D01*
X14781071Y-13098357D01*
X14766785Y-13069786D01*
X14752500Y-13026929D01*
X14738214Y-12955500D01*
X14738214Y-12898357D01*
X14752500Y-12826929D01*
X14766785Y-12784071D01*
X14781071Y-12755500D01*
X14809643Y-12712643D01*
X14823928Y-12698357D01*
X14909643Y-12741214D02*
X15095357Y-12741214D01*
X14995357Y-12855500D01*
X15038214Y-12855500D01*
X15066785Y-12869786D01*
X15081071Y-12884071D01*
X15095357Y-12912643D01*
X15095357Y-12984071D01*
X15081071Y-13012643D01*
X15066785Y-13026929D01*
X15038214Y-13041214D01*
X14952500Y-13041214D01*
X14923928Y-13026929D01*
X14909643Y-13012643D01*
X15281071Y-12741214D02*
X15309643Y-12741214D01*
X15338214Y-12755500D01*
X15352500Y-12769786D01*
X15366785Y-12798357D01*
X15381071Y-12855500D01*
X15381071Y-12926929D01*
X15366785Y-12984071D01*
X15352500Y-13012643D01*
X15338214Y-13026929D01*
X15309643Y-13041214D01*
X15281071Y-13041214D01*
X15252500Y-13026929D01*
X15238214Y-13012643D01*
X15223928Y-12984071D01*
X15209643Y-12926929D01*
X15209643Y-12855500D01*
X15223928Y-12798357D01*
X15238214Y-12769786D01*
X15252500Y-12755500D01*
X15281071Y-12741214D01*
X15738214Y-13041214D02*
X15738214Y-12741214D01*
X15866785Y-13041214D02*
X15866785Y-12884071D01*
X15852500Y-12855500D01*
X15823928Y-12841214D01*
X15781071Y-12841214D01*
X15752500Y-12855500D01*
X15738214Y-12869786D01*
X16052500Y-13041214D02*
X16023928Y-13026929D01*
X16009643Y-13012643D01*
X15995357Y-12984071D01*
X15995357Y-12898357D01*
X16009643Y-12869786D01*
X16023928Y-12855500D01*
X16052500Y-12841214D01*
X16095357Y-12841214D01*
X16123928Y-12855500D01*
X16138214Y-12869786D01*
X16152500Y-12898357D01*
X16152500Y-12984071D01*
X16138214Y-13012643D01*
X16123928Y-13026929D01*
X16095357Y-13041214D01*
X16052500Y-13041214D01*
X16323928Y-13041214D02*
X16295357Y-13026929D01*
X16281071Y-12998357D01*
X16281071Y-12741214D01*
X16552500Y-13026929D02*
X16523928Y-13041214D01*
X16466786Y-13041214D01*
X16438214Y-13026929D01*
X16423928Y-12998357D01*
X16423928Y-12884071D01*
X16438214Y-12855500D01*
X16466786Y-12841214D01*
X16523928Y-12841214D01*
X16552500Y-12855500D01*
X16566786Y-12884071D01*
X16566786Y-12912643D01*
X16423928Y-12941214D01*
X16681071Y-13026929D02*
X16709643Y-13041214D01*
X16766786Y-13041214D01*
X16795357Y-13026929D01*
X16809643Y-12998357D01*
X16809643Y-12984071D01*
X16795357Y-12955500D01*
X16766786Y-12941214D01*
X16723928Y-12941214D01*
X16695357Y-12926929D01*
X16681071Y-12898357D01*
X16681071Y-12884071D01*
X16695357Y-12855500D01*
X16723928Y-12841214D01*
X16766786Y-12841214D01*
X16795357Y-12855500D01*
X16909643Y-13155500D02*
X16923929Y-13141214D01*
X16952500Y-13098357D01*
X16966786Y-13069786D01*
X16981071Y-13026929D01*
X16995357Y-12955500D01*
X16995357Y-12898357D01*
X16981071Y-12826929D01*
X16966786Y-12784071D01*
X16952500Y-12755500D01*
X16923929Y-12712643D01*
X16909643Y-12698357D01*
X10152500Y-13301500D02*
G75*
G03X10152500Y-13301500I-30000J0D01*
G01*
X10481071Y-13137214D02*
X10509643Y-13137214D01*
X10538214Y-13151500D01*
X10552500Y-13165786D01*
X10566786Y-13194357D01*
X10581071Y-13251500D01*
X10581071Y-13322929D01*
X10566786Y-13380071D01*
X10552500Y-13408643D01*
X10538214Y-13422929D01*
X10509643Y-13437214D01*
X10481071Y-13437214D01*
X10452500Y-13422929D01*
X10438214Y-13408643D01*
X10423929Y-13380071D01*
X10409643Y-13322929D01*
X10409643Y-13251500D01*
X10423929Y-13194357D01*
X10438214Y-13165786D01*
X10452500Y-13151500D01*
X10481071Y-13137214D01*
X10709643Y-13408643D02*
X10723929Y-13422929D01*
X10709643Y-13437214D01*
X10695357Y-13422929D01*
X10709643Y-13408643D01*
X10709643Y-13437214D01*
X10981071Y-13137214D02*
X10923928Y-13137214D01*
X10895357Y-13151500D01*
X10881071Y-13165786D01*
X10852500Y-13208643D01*
X10838214Y-13265786D01*
X10838214Y-13380071D01*
X10852500Y-13408643D01*
X10866786Y-13422929D01*
X10895357Y-13437214D01*
X10952500Y-13437214D01*
X10981071Y-13422929D01*
X10995357Y-13408643D01*
X11009643Y-13380071D01*
X11009643Y-13308643D01*
X10995357Y-13280071D01*
X10981071Y-13265786D01*
X10952500Y-13251500D01*
X10895357Y-13251500D01*
X10866786Y-13265786D01*
X10852500Y-13280071D01*
X10838214Y-13308643D01*
X11195357Y-13137214D02*
X11223928Y-13137214D01*
X11252500Y-13151500D01*
X11266786Y-13165786D01*
X11281071Y-13194357D01*
X11295357Y-13251500D01*
X11295357Y-13322929D01*
X11281071Y-13380071D01*
X11266786Y-13408643D01*
X11252500Y-13422929D01*
X11223928Y-13437214D01*
X11195357Y-13437214D01*
X11166786Y-13422929D01*
X11152500Y-13408643D01*
X11138214Y-13380071D01*
X11123929Y-13322929D01*
X11123929Y-13251500D01*
X11138214Y-13194357D01*
X11152500Y-13165786D01*
X11166786Y-13151500D01*
X11195357Y-13137214D01*
X11423928Y-13437214D02*
X11423928Y-13237214D01*
X11423928Y-13265786D02*
X11438214Y-13251500D01*
X11466786Y-13237214D01*
X11509643Y-13237214D01*
X11538214Y-13251500D01*
X11552500Y-13280071D01*
X11552500Y-13437214D01*
X11552500Y-13280071D02*
X11566786Y-13251500D01*
X11595357Y-13237214D01*
X11638214Y-13237214D01*
X11666786Y-13251500D01*
X11681071Y-13280071D01*
X11681071Y-13437214D01*
X11823928Y-13437214D02*
X11823928Y-13237214D01*
X11823928Y-13265786D02*
X11838214Y-13251500D01*
X11866786Y-13237214D01*
X11909643Y-13237214D01*
X11938214Y-13251500D01*
X11952500Y-13280071D01*
X11952500Y-13437214D01*
X11952500Y-13280071D02*
X11966786Y-13251500D01*
X11995357Y-13237214D01*
X12038214Y-13237214D01*
X12066786Y-13251500D01*
X12081071Y-13280071D01*
X12081071Y-13437214D01*
X12666786Y-13122929D02*
X12409643Y-13508643D01*
X13052500Y-13137214D02*
X13081071Y-13137214D01*
X13109643Y-13151500D01*
X13123928Y-13165786D01*
X13138214Y-13194357D01*
X13152500Y-13251500D01*
X13152500Y-13322929D01*
X13138214Y-13380071D01*
X13123928Y-13408643D01*
X13109643Y-13422929D01*
X13081071Y-13437214D01*
X13052500Y-13437214D01*
X13023928Y-13422929D01*
X13009643Y-13408643D01*
X12995357Y-13380071D01*
X12981071Y-13322929D01*
X12981071Y-13251500D01*
X12995357Y-13194357D01*
X13009643Y-13165786D01*
X13023928Y-13151500D01*
X13052500Y-13137214D01*
X13281071Y-13408643D02*
X13295357Y-13422929D01*
X13281071Y-13437214D01*
X13266786Y-13422929D01*
X13281071Y-13408643D01*
X13281071Y-13437214D01*
X13481071Y-13137214D02*
X13509643Y-13137214D01*
X13538214Y-13151500D01*
X13552500Y-13165786D01*
X13566785Y-13194357D01*
X13581071Y-13251500D01*
X13581071Y-13322929D01*
X13566785Y-13380071D01*
X13552500Y-13408643D01*
X13538214Y-13422929D01*
X13509643Y-13437214D01*
X13481071Y-13437214D01*
X13452500Y-13422929D01*
X13438214Y-13408643D01*
X13423928Y-13380071D01*
X13409643Y-13322929D01*
X13409643Y-13251500D01*
X13423928Y-13194357D01*
X13438214Y-13165786D01*
X13452500Y-13151500D01*
X13481071Y-13137214D01*
X13695357Y-13165786D02*
X13709643Y-13151500D01*
X13738214Y-13137214D01*
X13809643Y-13137214D01*
X13838214Y-13151500D01*
X13852500Y-13165786D01*
X13866785Y-13194357D01*
X13866785Y-13222929D01*
X13852500Y-13265786D01*
X13681071Y-13437214D01*
X13866785Y-13437214D01*
X14123928Y-13237214D02*
X14123928Y-13437214D01*
X14052500Y-13122929D02*
X13981071Y-13337214D01*
X14166785Y-13337214D01*
X14266786Y-13137214D02*
X14266786Y-13194357D01*
X14381071Y-13137214D02*
X14381071Y-13194357D01*
X14823928Y-13551500D02*
X14809643Y-13537214D01*
X14781071Y-13494357D01*
X14766785Y-13465786D01*
X14752500Y-13422929D01*
X14738214Y-13351500D01*
X14738214Y-13294357D01*
X14752500Y-13222929D01*
X14766785Y-13180071D01*
X14781071Y-13151500D01*
X14809643Y-13108643D01*
X14823928Y-13094357D01*
X15095357Y-13437214D02*
X14923928Y-13437214D01*
X15009643Y-13437214D02*
X15009643Y-13137214D01*
X14981071Y-13180071D01*
X14952500Y-13208643D01*
X14923928Y-13222929D01*
X15281071Y-13137214D02*
X15309643Y-13137214D01*
X15338214Y-13151500D01*
X15352500Y-13165786D01*
X15366785Y-13194357D01*
X15381071Y-13251500D01*
X15381071Y-13322929D01*
X15366785Y-13380071D01*
X15352500Y-13408643D01*
X15338214Y-13422929D01*
X15309643Y-13437214D01*
X15281071Y-13437214D01*
X15252500Y-13422929D01*
X15238214Y-13408643D01*
X15223928Y-13380071D01*
X15209643Y-13322929D01*
X15209643Y-13251500D01*
X15223928Y-13194357D01*
X15238214Y-13165786D01*
X15252500Y-13151500D01*
X15281071Y-13137214D01*
X15738214Y-13437214D02*
X15738214Y-13137214D01*
X15866785Y-13437214D02*
X15866785Y-13280071D01*
X15852500Y-13251500D01*
X15823928Y-13237214D01*
X15781071Y-13237214D01*
X15752500Y-13251500D01*
X15738214Y-13265786D01*
X16052500Y-13437214D02*
X16023928Y-13422929D01*
X16009643Y-13408643D01*
X15995357Y-13380071D01*
X15995357Y-13294357D01*
X16009643Y-13265786D01*
X16023928Y-13251500D01*
X16052500Y-13237214D01*
X16095357Y-13237214D01*
X16123928Y-13251500D01*
X16138214Y-13265786D01*
X16152500Y-13294357D01*
X16152500Y-13380071D01*
X16138214Y-13408643D01*
X16123928Y-13422929D01*
X16095357Y-13437214D01*
X16052500Y-13437214D01*
X16323928Y-13437214D02*
X16295357Y-13422929D01*
X16281071Y-13394357D01*
X16281071Y-13137214D01*
X16552500Y-13422929D02*
X16523928Y-13437214D01*
X16466786Y-13437214D01*
X16438214Y-13422929D01*
X16423928Y-13394357D01*
X16423928Y-13280071D01*
X16438214Y-13251500D01*
X16466786Y-13237214D01*
X16523928Y-13237214D01*
X16552500Y-13251500D01*
X16566786Y-13280071D01*
X16566786Y-13308643D01*
X16423928Y-13337214D01*
X16681071Y-13422929D02*
X16709643Y-13437214D01*
X16766786Y-13437214D01*
X16795357Y-13422929D01*
X16809643Y-13394357D01*
X16809643Y-13380071D01*
X16795357Y-13351500D01*
X16766786Y-13337214D01*
X16723928Y-13337214D01*
X16695357Y-13322929D01*
X16681071Y-13294357D01*
X16681071Y-13280071D01*
X16695357Y-13251500D01*
X16723928Y-13237214D01*
X16766786Y-13237214D01*
X16795357Y-13251500D01*
X16909643Y-13551500D02*
X16923929Y-13537214D01*
X16952500Y-13494357D01*
X16966786Y-13465786D01*
X16981071Y-13422929D01*
X16995357Y-13351500D01*
X16995357Y-13294357D01*
X16981071Y-13222929D01*
X16966786Y-13180071D01*
X16952500Y-13151500D01*
X16923929Y-13108643D01*
X16909643Y-13094357D01*
X10117500Y-13662500D02*
X10117500Y-13732500D01*
X10082500Y-13697500D02*
X10152500Y-13697500D01*
X10481071Y-13533214D02*
X10509643Y-13533214D01*
X10538214Y-13547500D01*
X10552500Y-13561786D01*
X10566786Y-13590357D01*
X10581071Y-13647500D01*
X10581071Y-13718929D01*
X10566786Y-13776071D01*
X10552500Y-13804643D01*
X10538214Y-13818929D01*
X10509643Y-13833214D01*
X10481071Y-13833214D01*
X10452500Y-13818929D01*
X10438214Y-13804643D01*
X10423929Y-13776071D01*
X10409643Y-13718929D01*
X10409643Y-13647500D01*
X10423929Y-13590357D01*
X10438214Y-13561786D01*
X10452500Y-13547500D01*
X10481071Y-13533214D01*
X10709643Y-13804643D02*
X10723929Y-13818929D01*
X10709643Y-13833214D01*
X10695357Y-13818929D01*
X10709643Y-13804643D01*
X10709643Y-13833214D01*
X10823928Y-13533214D02*
X11023928Y-13533214D01*
X10895357Y-13833214D01*
X11195357Y-13533214D02*
X11223928Y-13533214D01*
X11252500Y-13547500D01*
X11266786Y-13561786D01*
X11281071Y-13590357D01*
X11295357Y-13647500D01*
X11295357Y-13718929D01*
X11281071Y-13776071D01*
X11266786Y-13804643D01*
X11252500Y-13818929D01*
X11223928Y-13833214D01*
X11195357Y-13833214D01*
X11166786Y-13818929D01*
X11152500Y-13804643D01*
X11138214Y-13776071D01*
X11123929Y-13718929D01*
X11123929Y-13647500D01*
X11138214Y-13590357D01*
X11152500Y-13561786D01*
X11166786Y-13547500D01*
X11195357Y-13533214D01*
X11423928Y-13833214D02*
X11423928Y-13633214D01*
X11423928Y-13661786D02*
X11438214Y-13647500D01*
X11466786Y-13633214D01*
X11509643Y-13633214D01*
X11538214Y-13647500D01*
X11552500Y-13676071D01*
X11552500Y-13833214D01*
X11552500Y-13676071D02*
X11566786Y-13647500D01*
X11595357Y-13633214D01*
X11638214Y-13633214D01*
X11666786Y-13647500D01*
X11681071Y-13676071D01*
X11681071Y-13833214D01*
X11823928Y-13833214D02*
X11823928Y-13633214D01*
X11823928Y-13661786D02*
X11838214Y-13647500D01*
X11866786Y-13633214D01*
X11909643Y-13633214D01*
X11938214Y-13647500D01*
X11952500Y-13676071D01*
X11952500Y-13833214D01*
X11952500Y-13676071D02*
X11966786Y-13647500D01*
X11995357Y-13633214D01*
X12038214Y-13633214D01*
X12066786Y-13647500D01*
X12081071Y-13676071D01*
X12081071Y-13833214D01*
X12666786Y-13518929D02*
X12409643Y-13904643D01*
X13052500Y-13533214D02*
X13081071Y-13533214D01*
X13109643Y-13547500D01*
X13123928Y-13561786D01*
X13138214Y-13590357D01*
X13152500Y-13647500D01*
X13152500Y-13718929D01*
X13138214Y-13776071D01*
X13123928Y-13804643D01*
X13109643Y-13818929D01*
X13081071Y-13833214D01*
X13052500Y-13833214D01*
X13023928Y-13818929D01*
X13009643Y-13804643D01*
X12995357Y-13776071D01*
X12981071Y-13718929D01*
X12981071Y-13647500D01*
X12995357Y-13590357D01*
X13009643Y-13561786D01*
X13023928Y-13547500D01*
X13052500Y-13533214D01*
X13281071Y-13804643D02*
X13295357Y-13818929D01*
X13281071Y-13833214D01*
X13266786Y-13818929D01*
X13281071Y-13804643D01*
X13281071Y-13833214D01*
X13481071Y-13533214D02*
X13509643Y-13533214D01*
X13538214Y-13547500D01*
X13552500Y-13561786D01*
X13566785Y-13590357D01*
X13581071Y-13647500D01*
X13581071Y-13718929D01*
X13566785Y-13776071D01*
X13552500Y-13804643D01*
X13538214Y-13818929D01*
X13509643Y-13833214D01*
X13481071Y-13833214D01*
X13452500Y-13818929D01*
X13438214Y-13804643D01*
X13423928Y-13776071D01*
X13409643Y-13718929D01*
X13409643Y-13647500D01*
X13423928Y-13590357D01*
X13438214Y-13561786D01*
X13452500Y-13547500D01*
X13481071Y-13533214D01*
X13695357Y-13561786D02*
X13709643Y-13547500D01*
X13738214Y-13533214D01*
X13809643Y-13533214D01*
X13838214Y-13547500D01*
X13852500Y-13561786D01*
X13866785Y-13590357D01*
X13866785Y-13618929D01*
X13852500Y-13661786D01*
X13681071Y-13833214D01*
X13866785Y-13833214D01*
X14038214Y-13661786D02*
X14009643Y-13647500D01*
X13995357Y-13633214D01*
X13981071Y-13604643D01*
X13981071Y-13590357D01*
X13995357Y-13561786D01*
X14009643Y-13547500D01*
X14038214Y-13533214D01*
X14095357Y-13533214D01*
X14123928Y-13547500D01*
X14138214Y-13561786D01*
X14152500Y-13590357D01*
X14152500Y-13604643D01*
X14138214Y-13633214D01*
X14123928Y-13647500D01*
X14095357Y-13661786D01*
X14038214Y-13661786D01*
X14009643Y-13676071D01*
X13995357Y-13690357D01*
X13981071Y-13718929D01*
X13981071Y-13776071D01*
X13995357Y-13804643D01*
X14009643Y-13818929D01*
X14038214Y-13833214D01*
X14095357Y-13833214D01*
X14123928Y-13818929D01*
X14138214Y-13804643D01*
X14152500Y-13776071D01*
X14152500Y-13718929D01*
X14138214Y-13690357D01*
X14123928Y-13676071D01*
X14095357Y-13661786D01*
X14266786Y-13533214D02*
X14266786Y-13590357D01*
X14381071Y-13533214D02*
X14381071Y-13590357D01*
X14823928Y-13947500D02*
X14809643Y-13933214D01*
X14781071Y-13890357D01*
X14766785Y-13861786D01*
X14752500Y-13818929D01*
X14738214Y-13747500D01*
X14738214Y-13690357D01*
X14752500Y-13618929D01*
X14766785Y-13576071D01*
X14781071Y-13547500D01*
X14809643Y-13504643D01*
X14823928Y-13490357D01*
X14909643Y-13533214D02*
X15095357Y-13533214D01*
X14995357Y-13647500D01*
X15038214Y-13647500D01*
X15066785Y-13661786D01*
X15081071Y-13676071D01*
X15095357Y-13704643D01*
X15095357Y-13776071D01*
X15081071Y-13804643D01*
X15066785Y-13818929D01*
X15038214Y-13833214D01*
X14952500Y-13833214D01*
X14923928Y-13818929D01*
X14909643Y-13804643D01*
X15452500Y-13833214D02*
X15452500Y-13533214D01*
X15581071Y-13833214D02*
X15581071Y-13676071D01*
X15566785Y-13647500D01*
X15538214Y-13633214D01*
X15495357Y-13633214D01*
X15466785Y-13647500D01*
X15452500Y-13661786D01*
X15766785Y-13833214D02*
X15738214Y-13818929D01*
X15723928Y-13804643D01*
X15709643Y-13776071D01*
X15709643Y-13690357D01*
X15723928Y-13661786D01*
X15738214Y-13647500D01*
X15766785Y-13633214D01*
X15809643Y-13633214D01*
X15838214Y-13647500D01*
X15852500Y-13661786D01*
X15866785Y-13690357D01*
X15866785Y-13776071D01*
X15852500Y-13804643D01*
X15838214Y-13818929D01*
X15809643Y-13833214D01*
X15766785Y-13833214D01*
X16038214Y-13833214D02*
X16009643Y-13818929D01*
X15995357Y-13790357D01*
X15995357Y-13533214D01*
X16266786Y-13818929D02*
X16238214Y-13833214D01*
X16181071Y-13833214D01*
X16152500Y-13818929D01*
X16138214Y-13790357D01*
X16138214Y-13676071D01*
X16152500Y-13647500D01*
X16181071Y-13633214D01*
X16238214Y-13633214D01*
X16266786Y-13647500D01*
X16281071Y-13676071D01*
X16281071Y-13704643D01*
X16138214Y-13733214D01*
X16395357Y-13818929D02*
X16423928Y-13833214D01*
X16481071Y-13833214D01*
X16509643Y-13818929D01*
X16523928Y-13790357D01*
X16523928Y-13776071D01*
X16509643Y-13747500D01*
X16481071Y-13733214D01*
X16438214Y-13733214D01*
X16409643Y-13718929D01*
X16395357Y-13690357D01*
X16395357Y-13676071D01*
X16409643Y-13647500D01*
X16438214Y-13633214D01*
X16481071Y-13633214D01*
X16509643Y-13647500D01*
X16623928Y-13947500D02*
X16638214Y-13933214D01*
X16666786Y-13890357D01*
X16681071Y-13861786D01*
X16695357Y-13818929D01*
X16709643Y-13747500D01*
X16709643Y-13690357D01*
X16695357Y-13618929D01*
X16681071Y-13576071D01*
X16666786Y-13547500D01*
X16638214Y-13504643D01*
X16623928Y-13490357D01*
X10140784Y-14121785D02*
X10140784Y-14065216D01*
X10084215Y-14065216D01*
X10084215Y-14121785D01*
X10140784Y-14121785D01*
X10481071Y-13929214D02*
X10509643Y-13929214D01*
X10538214Y-13943500D01*
X10552500Y-13957786D01*
X10566786Y-13986357D01*
X10581071Y-14043500D01*
X10581071Y-14114929D01*
X10566786Y-14172071D01*
X10552500Y-14200643D01*
X10538214Y-14214929D01*
X10509643Y-14229214D01*
X10481071Y-14229214D01*
X10452500Y-14214929D01*
X10438214Y-14200643D01*
X10423929Y-14172071D01*
X10409643Y-14114929D01*
X10409643Y-14043500D01*
X10423929Y-13986357D01*
X10438214Y-13957786D01*
X10452500Y-13943500D01*
X10481071Y-13929214D01*
X10709643Y-14200643D02*
X10723929Y-14214929D01*
X10709643Y-14229214D01*
X10695357Y-14214929D01*
X10709643Y-14200643D01*
X10709643Y-14229214D01*
X10895357Y-14057786D02*
X10866786Y-14043500D01*
X10852500Y-14029214D01*
X10838214Y-14000643D01*
X10838214Y-13986357D01*
X10852500Y-13957786D01*
X10866786Y-13943500D01*
X10895357Y-13929214D01*
X10952500Y-13929214D01*
X10981071Y-13943500D01*
X10995357Y-13957786D01*
X11009643Y-13986357D01*
X11009643Y-14000643D01*
X10995357Y-14029214D01*
X10981071Y-14043500D01*
X10952500Y-14057786D01*
X10895357Y-14057786D01*
X10866786Y-14072071D01*
X10852500Y-14086357D01*
X10838214Y-14114929D01*
X10838214Y-14172071D01*
X10852500Y-14200643D01*
X10866786Y-14214929D01*
X10895357Y-14229214D01*
X10952500Y-14229214D01*
X10981071Y-14214929D01*
X10995357Y-14200643D01*
X11009643Y-14172071D01*
X11009643Y-14114929D01*
X10995357Y-14086357D01*
X10981071Y-14072071D01*
X10952500Y-14057786D01*
X11195357Y-13929214D02*
X11223928Y-13929214D01*
X11252500Y-13943500D01*
X11266786Y-13957786D01*
X11281071Y-13986357D01*
X11295357Y-14043500D01*
X11295357Y-14114929D01*
X11281071Y-14172071D01*
X11266786Y-14200643D01*
X11252500Y-14214929D01*
X11223928Y-14229214D01*
X11195357Y-14229214D01*
X11166786Y-14214929D01*
X11152500Y-14200643D01*
X11138214Y-14172071D01*
X11123929Y-14114929D01*
X11123929Y-14043500D01*
X11138214Y-13986357D01*
X11152500Y-13957786D01*
X11166786Y-13943500D01*
X11195357Y-13929214D01*
X11423928Y-14229214D02*
X11423928Y-14029214D01*
X11423928Y-14057786D02*
X11438214Y-14043500D01*
X11466786Y-14029214D01*
X11509643Y-14029214D01*
X11538214Y-14043500D01*
X11552500Y-14072071D01*
X11552500Y-14229214D01*
X11552500Y-14072071D02*
X11566786Y-14043500D01*
X11595357Y-14029214D01*
X11638214Y-14029214D01*
X11666786Y-14043500D01*
X11681071Y-14072071D01*
X11681071Y-14229214D01*
X11823928Y-14229214D02*
X11823928Y-14029214D01*
X11823928Y-14057786D02*
X11838214Y-14043500D01*
X11866786Y-14029214D01*
X11909643Y-14029214D01*
X11938214Y-14043500D01*
X11952500Y-14072071D01*
X11952500Y-14229214D01*
X11952500Y-14072071D02*
X11966786Y-14043500D01*
X11995357Y-14029214D01*
X12038214Y-14029214D01*
X12066786Y-14043500D01*
X12081071Y-14072071D01*
X12081071Y-14229214D01*
X12666786Y-13914929D02*
X12409643Y-14300643D01*
X13052500Y-13929214D02*
X13081071Y-13929214D01*
X13109643Y-13943500D01*
X13123928Y-13957786D01*
X13138214Y-13986357D01*
X13152500Y-14043500D01*
X13152500Y-14114929D01*
X13138214Y-14172071D01*
X13123928Y-14200643D01*
X13109643Y-14214929D01*
X13081071Y-14229214D01*
X13052500Y-14229214D01*
X13023928Y-14214929D01*
X13009643Y-14200643D01*
X12995357Y-14172071D01*
X12981071Y-14114929D01*
X12981071Y-14043500D01*
X12995357Y-13986357D01*
X13009643Y-13957786D01*
X13023928Y-13943500D01*
X13052500Y-13929214D01*
X13281071Y-14200643D02*
X13295357Y-14214929D01*
X13281071Y-14229214D01*
X13266786Y-14214929D01*
X13281071Y-14200643D01*
X13281071Y-14229214D01*
X13481071Y-13929214D02*
X13509643Y-13929214D01*
X13538214Y-13943500D01*
X13552500Y-13957786D01*
X13566785Y-13986357D01*
X13581071Y-14043500D01*
X13581071Y-14114929D01*
X13566785Y-14172071D01*
X13552500Y-14200643D01*
X13538214Y-14214929D01*
X13509643Y-14229214D01*
X13481071Y-14229214D01*
X13452500Y-14214929D01*
X13438214Y-14200643D01*
X13423928Y-14172071D01*
X13409643Y-14114929D01*
X13409643Y-14043500D01*
X13423928Y-13986357D01*
X13438214Y-13957786D01*
X13452500Y-13943500D01*
X13481071Y-13929214D01*
X13681071Y-13929214D02*
X13866785Y-13929214D01*
X13766785Y-14043500D01*
X13809643Y-14043500D01*
X13838214Y-14057786D01*
X13852500Y-14072071D01*
X13866785Y-14100643D01*
X13866785Y-14172071D01*
X13852500Y-14200643D01*
X13838214Y-14214929D01*
X13809643Y-14229214D01*
X13723928Y-14229214D01*
X13695357Y-14214929D01*
X13681071Y-14200643D01*
X14152500Y-14229214D02*
X13981071Y-14229214D01*
X14066785Y-14229214D02*
X14066785Y-13929214D01*
X14038214Y-13972071D01*
X14009643Y-14000643D01*
X13981071Y-14014929D01*
X14266786Y-13929214D02*
X14266786Y-13986357D01*
X14381071Y-13929214D02*
X14381071Y-13986357D01*
X14823928Y-14343500D02*
X14809643Y-14329214D01*
X14781071Y-14286357D01*
X14766785Y-14257786D01*
X14752500Y-14214929D01*
X14738214Y-14143500D01*
X14738214Y-14086357D01*
X14752500Y-14014929D01*
X14766785Y-13972071D01*
X14781071Y-13943500D01*
X14809643Y-13900643D01*
X14823928Y-13886357D01*
X15081071Y-13929214D02*
X14938214Y-13929214D01*
X14923928Y-14072071D01*
X14938214Y-14057786D01*
X14966785Y-14043500D01*
X15038214Y-14043500D01*
X15066785Y-14057786D01*
X15081071Y-14072071D01*
X15095357Y-14100643D01*
X15095357Y-14172071D01*
X15081071Y-14200643D01*
X15066785Y-14214929D01*
X15038214Y-14229214D01*
X14966785Y-14229214D01*
X14938214Y-14214929D01*
X14923928Y-14200643D01*
X15266785Y-14057786D02*
X15238214Y-14043500D01*
X15223928Y-14029214D01*
X15209643Y-14000643D01*
X15209643Y-13986357D01*
X15223928Y-13957786D01*
X15238214Y-13943500D01*
X15266785Y-13929214D01*
X15323928Y-13929214D01*
X15352500Y-13943500D01*
X15366785Y-13957786D01*
X15381071Y-13986357D01*
X15381071Y-14000643D01*
X15366785Y-14029214D01*
X15352500Y-14043500D01*
X15323928Y-14057786D01*
X15266785Y-14057786D01*
X15238214Y-14072071D01*
X15223928Y-14086357D01*
X15209643Y-14114929D01*
X15209643Y-14172071D01*
X15223928Y-14200643D01*
X15238214Y-14214929D01*
X15266785Y-14229214D01*
X15323928Y-14229214D01*
X15352500Y-14214929D01*
X15366785Y-14200643D01*
X15381071Y-14172071D01*
X15381071Y-14114929D01*
X15366785Y-14086357D01*
X15352500Y-14072071D01*
X15323928Y-14057786D01*
X15738214Y-14229214D02*
X15738214Y-13929214D01*
X15866785Y-14229214D02*
X15866785Y-14072071D01*
X15852500Y-14043500D01*
X15823928Y-14029214D01*
X15781071Y-14029214D01*
X15752500Y-14043500D01*
X15738214Y-14057786D01*
X16052500Y-14229214D02*
X16023928Y-14214929D01*
X16009643Y-14200643D01*
X15995357Y-14172071D01*
X15995357Y-14086357D01*
X16009643Y-14057786D01*
X16023928Y-14043500D01*
X16052500Y-14029214D01*
X16095357Y-14029214D01*
X16123928Y-14043500D01*
X16138214Y-14057786D01*
X16152500Y-14086357D01*
X16152500Y-14172071D01*
X16138214Y-14200643D01*
X16123928Y-14214929D01*
X16095357Y-14229214D01*
X16052500Y-14229214D01*
X16323928Y-14229214D02*
X16295357Y-14214929D01*
X16281071Y-14186357D01*
X16281071Y-13929214D01*
X16552500Y-14214929D02*
X16523928Y-14229214D01*
X16466786Y-14229214D01*
X16438214Y-14214929D01*
X16423928Y-14186357D01*
X16423928Y-14072071D01*
X16438214Y-14043500D01*
X16466786Y-14029214D01*
X16523928Y-14029214D01*
X16552500Y-14043500D01*
X16566786Y-14072071D01*
X16566786Y-14100643D01*
X16423928Y-14129214D01*
X16681071Y-14214929D02*
X16709643Y-14229214D01*
X16766786Y-14229214D01*
X16795357Y-14214929D01*
X16809643Y-14186357D01*
X16809643Y-14172071D01*
X16795357Y-14143500D01*
X16766786Y-14129214D01*
X16723928Y-14129214D01*
X16695357Y-14114929D01*
X16681071Y-14086357D01*
X16681071Y-14072071D01*
X16695357Y-14043500D01*
X16723928Y-14029214D01*
X16766786Y-14029214D01*
X16795357Y-14043500D01*
X16909643Y-14343500D02*
X16923929Y-14329214D01*
X16952500Y-14286357D01*
X16966786Y-14257786D01*
X16981071Y-14214929D01*
X16995357Y-14143500D01*
X16995357Y-14086357D01*
X16981071Y-14014929D01*
X16966786Y-13972071D01*
X16952500Y-13943500D01*
X16923929Y-13900643D01*
X16909643Y-13886357D01*
X10102500Y-14539500D02*
X10152500Y-14489500D01*
X10102500Y-14439500D01*
X10052500Y-14489500D01*
X10102500Y-14539500D01*
X10581071Y-14625214D02*
X10409643Y-14625214D01*
X10495357Y-14625214D02*
X10495357Y-14325214D01*
X10466786Y-14368071D01*
X10438214Y-14396643D01*
X10409643Y-14410929D01*
X10709643Y-14596643D02*
X10723929Y-14610929D01*
X10709643Y-14625214D01*
X10695357Y-14610929D01*
X10709643Y-14596643D01*
X10709643Y-14625214D01*
X10909643Y-14325214D02*
X10938214Y-14325214D01*
X10966786Y-14339500D01*
X10981071Y-14353786D01*
X10995357Y-14382357D01*
X11009643Y-14439500D01*
X11009643Y-14510929D01*
X10995357Y-14568071D01*
X10981071Y-14596643D01*
X10966786Y-14610929D01*
X10938214Y-14625214D01*
X10909643Y-14625214D01*
X10881071Y-14610929D01*
X10866786Y-14596643D01*
X10852500Y-14568071D01*
X10838214Y-14510929D01*
X10838214Y-14439500D01*
X10852500Y-14382357D01*
X10866786Y-14353786D01*
X10881071Y-14339500D01*
X10909643Y-14325214D01*
X11195357Y-14325214D02*
X11223928Y-14325214D01*
X11252500Y-14339500D01*
X11266786Y-14353786D01*
X11281071Y-14382357D01*
X11295357Y-14439500D01*
X11295357Y-14510929D01*
X11281071Y-14568071D01*
X11266786Y-14596643D01*
X11252500Y-14610929D01*
X11223928Y-14625214D01*
X11195357Y-14625214D01*
X11166786Y-14610929D01*
X11152500Y-14596643D01*
X11138214Y-14568071D01*
X11123929Y-14510929D01*
X11123929Y-14439500D01*
X11138214Y-14382357D01*
X11152500Y-14353786D01*
X11166786Y-14339500D01*
X11195357Y-14325214D01*
X11423928Y-14625214D02*
X11423928Y-14425214D01*
X11423928Y-14453786D02*
X11438214Y-14439500D01*
X11466786Y-14425214D01*
X11509643Y-14425214D01*
X11538214Y-14439500D01*
X11552500Y-14468071D01*
X11552500Y-14625214D01*
X11552500Y-14468071D02*
X11566786Y-14439500D01*
X11595357Y-14425214D01*
X11638214Y-14425214D01*
X11666786Y-14439500D01*
X11681071Y-14468071D01*
X11681071Y-14625214D01*
X11823928Y-14625214D02*
X11823928Y-14425214D01*
X11823928Y-14453786D02*
X11838214Y-14439500D01*
X11866786Y-14425214D01*
X11909643Y-14425214D01*
X11938214Y-14439500D01*
X11952500Y-14468071D01*
X11952500Y-14625214D01*
X11952500Y-14468071D02*
X11966786Y-14439500D01*
X11995357Y-14425214D01*
X12038214Y-14425214D01*
X12066786Y-14439500D01*
X12081071Y-14468071D01*
X12081071Y-14625214D01*
X12666786Y-14310929D02*
X12409643Y-14696643D01*
X13052500Y-14325214D02*
X13081071Y-14325214D01*
X13109643Y-14339500D01*
X13123928Y-14353786D01*
X13138214Y-14382357D01*
X13152500Y-14439500D01*
X13152500Y-14510929D01*
X13138214Y-14568071D01*
X13123928Y-14596643D01*
X13109643Y-14610929D01*
X13081071Y-14625214D01*
X13052500Y-14625214D01*
X13023928Y-14610929D01*
X13009643Y-14596643D01*
X12995357Y-14568071D01*
X12981071Y-14510929D01*
X12981071Y-14439500D01*
X12995357Y-14382357D01*
X13009643Y-14353786D01*
X13023928Y-14339500D01*
X13052500Y-14325214D01*
X13281071Y-14596643D02*
X13295357Y-14610929D01*
X13281071Y-14625214D01*
X13266786Y-14610929D01*
X13281071Y-14596643D01*
X13281071Y-14625214D01*
X13481071Y-14325214D02*
X13509643Y-14325214D01*
X13538214Y-14339500D01*
X13552500Y-14353786D01*
X13566785Y-14382357D01*
X13581071Y-14439500D01*
X13581071Y-14510929D01*
X13566785Y-14568071D01*
X13552500Y-14596643D01*
X13538214Y-14610929D01*
X13509643Y-14625214D01*
X13481071Y-14625214D01*
X13452500Y-14610929D01*
X13438214Y-14596643D01*
X13423928Y-14568071D01*
X13409643Y-14510929D01*
X13409643Y-14439500D01*
X13423928Y-14382357D01*
X13438214Y-14353786D01*
X13452500Y-14339500D01*
X13481071Y-14325214D01*
X13681071Y-14325214D02*
X13866785Y-14325214D01*
X13766785Y-14439500D01*
X13809643Y-14439500D01*
X13838214Y-14453786D01*
X13852500Y-14468071D01*
X13866785Y-14496643D01*
X13866785Y-14568071D01*
X13852500Y-14596643D01*
X13838214Y-14610929D01*
X13809643Y-14625214D01*
X13723928Y-14625214D01*
X13695357Y-14610929D01*
X13681071Y-14596643D01*
X14009643Y-14625214D02*
X14066785Y-14625214D01*
X14095357Y-14610929D01*
X14109643Y-14596643D01*
X14138214Y-14553786D01*
X14152500Y-14496643D01*
X14152500Y-14382357D01*
X14138214Y-14353786D01*
X14123928Y-14339500D01*
X14095357Y-14325214D01*
X14038214Y-14325214D01*
X14009643Y-14339500D01*
X13995357Y-14353786D01*
X13981071Y-14382357D01*
X13981071Y-14453786D01*
X13995357Y-14482357D01*
X14009643Y-14496643D01*
X14038214Y-14510929D01*
X14095357Y-14510929D01*
X14123928Y-14496643D01*
X14138214Y-14482357D01*
X14152500Y-14453786D01*
X14266786Y-14325214D02*
X14266786Y-14382357D01*
X14381071Y-14325214D02*
X14381071Y-14382357D01*
X14823928Y-14739500D02*
X14809643Y-14725214D01*
X14781071Y-14682357D01*
X14766785Y-14653786D01*
X14752500Y-14610929D01*
X14738214Y-14539500D01*
X14738214Y-14482357D01*
X14752500Y-14410929D01*
X14766785Y-14368071D01*
X14781071Y-14339500D01*
X14809643Y-14296643D01*
X14823928Y-14282357D01*
X14923928Y-14353786D02*
X14938214Y-14339500D01*
X14966785Y-14325214D01*
X15038214Y-14325214D01*
X15066785Y-14339500D01*
X15081071Y-14353786D01*
X15095357Y-14382357D01*
X15095357Y-14410929D01*
X15081071Y-14453786D01*
X14909643Y-14625214D01*
X15095357Y-14625214D01*
X15452500Y-14625214D02*
X15452500Y-14325214D01*
X15581071Y-14625214D02*
X15581071Y-14468071D01*
X15566785Y-14439500D01*
X15538214Y-14425214D01*
X15495357Y-14425214D01*
X15466785Y-14439500D01*
X15452500Y-14453786D01*
X15766785Y-14625214D02*
X15738214Y-14610929D01*
X15723928Y-14596643D01*
X15709643Y-14568071D01*
X15709643Y-14482357D01*
X15723928Y-14453786D01*
X15738214Y-14439500D01*
X15766785Y-14425214D01*
X15809643Y-14425214D01*
X15838214Y-14439500D01*
X15852500Y-14453786D01*
X15866785Y-14482357D01*
X15866785Y-14568071D01*
X15852500Y-14596643D01*
X15838214Y-14610929D01*
X15809643Y-14625214D01*
X15766785Y-14625214D01*
X16038214Y-14625214D02*
X16009643Y-14610929D01*
X15995357Y-14582357D01*
X15995357Y-14325214D01*
X16266786Y-14610929D02*
X16238214Y-14625214D01*
X16181071Y-14625214D01*
X16152500Y-14610929D01*
X16138214Y-14582357D01*
X16138214Y-14468071D01*
X16152500Y-14439500D01*
X16181071Y-14425214D01*
X16238214Y-14425214D01*
X16266786Y-14439500D01*
X16281071Y-14468071D01*
X16281071Y-14496643D01*
X16138214Y-14525214D01*
X16395357Y-14610929D02*
X16423928Y-14625214D01*
X16481071Y-14625214D01*
X16509643Y-14610929D01*
X16523928Y-14582357D01*
X16523928Y-14568071D01*
X16509643Y-14539500D01*
X16481071Y-14525214D01*
X16438214Y-14525214D01*
X16409643Y-14510929D01*
X16395357Y-14482357D01*
X16395357Y-14468071D01*
X16409643Y-14439500D01*
X16438214Y-14425214D01*
X16481071Y-14425214D01*
X16509643Y-14439500D01*
X16623928Y-14739500D02*
X16638214Y-14725214D01*
X16666786Y-14682357D01*
X16681071Y-14653786D01*
X16695357Y-14610929D01*
X16709643Y-14539500D01*
X16709643Y-14482357D01*
X16695357Y-14410929D01*
X16681071Y-14368071D01*
X16666786Y-14339500D01*
X16638214Y-14296643D01*
X16623928Y-14282357D01*
X10050900Y-14834700D02*
X10152500Y-14936300D01*
X10152500Y-14834700D02*
X10050900Y-14936300D01*
X10152500Y-14885500D02*
G75*
G03X10152500Y-14885500I-50800J0D01*
G01*
X10581071Y-15021214D02*
X10409643Y-15021214D01*
X10495357Y-15021214D02*
X10495357Y-14721214D01*
X10466786Y-14764071D01*
X10438214Y-14792643D01*
X10409643Y-14806929D01*
X10709643Y-14992643D02*
X10723929Y-15006929D01*
X10709643Y-15021214D01*
X10695357Y-15006929D01*
X10709643Y-14992643D01*
X10709643Y-15021214D01*
X10909643Y-14721214D02*
X10938214Y-14721214D01*
X10966786Y-14735500D01*
X10981071Y-14749786D01*
X10995357Y-14778357D01*
X11009643Y-14835500D01*
X11009643Y-14906929D01*
X10995357Y-14964071D01*
X10981071Y-14992643D01*
X10966786Y-15006929D01*
X10938214Y-15021214D01*
X10909643Y-15021214D01*
X10881071Y-15006929D01*
X10866786Y-14992643D01*
X10852500Y-14964071D01*
X10838214Y-14906929D01*
X10838214Y-14835500D01*
X10852500Y-14778357D01*
X10866786Y-14749786D01*
X10881071Y-14735500D01*
X10909643Y-14721214D01*
X11123929Y-14749786D02*
X11138214Y-14735500D01*
X11166786Y-14721214D01*
X11238214Y-14721214D01*
X11266786Y-14735500D01*
X11281071Y-14749786D01*
X11295357Y-14778357D01*
X11295357Y-14806929D01*
X11281071Y-14849786D01*
X11109643Y-15021214D01*
X11295357Y-15021214D01*
X11423928Y-15021214D02*
X11423928Y-14821214D01*
X11423928Y-14849786D02*
X11438214Y-14835500D01*
X11466786Y-14821214D01*
X11509643Y-14821214D01*
X11538214Y-14835500D01*
X11552500Y-14864071D01*
X11552500Y-15021214D01*
X11552500Y-14864071D02*
X11566786Y-14835500D01*
X11595357Y-14821214D01*
X11638214Y-14821214D01*
X11666786Y-14835500D01*
X11681071Y-14864071D01*
X11681071Y-15021214D01*
X11823928Y-15021214D02*
X11823928Y-14821214D01*
X11823928Y-14849786D02*
X11838214Y-14835500D01*
X11866786Y-14821214D01*
X11909643Y-14821214D01*
X11938214Y-14835500D01*
X11952500Y-14864071D01*
X11952500Y-15021214D01*
X11952500Y-14864071D02*
X11966786Y-14835500D01*
X11995357Y-14821214D01*
X12038214Y-14821214D01*
X12066786Y-14835500D01*
X12081071Y-14864071D01*
X12081071Y-15021214D01*
X12666786Y-14706929D02*
X12409643Y-15092643D01*
X13052500Y-14721214D02*
X13081071Y-14721214D01*
X13109643Y-14735500D01*
X13123928Y-14749786D01*
X13138214Y-14778357D01*
X13152500Y-14835500D01*
X13152500Y-14906929D01*
X13138214Y-14964071D01*
X13123928Y-14992643D01*
X13109643Y-15006929D01*
X13081071Y-15021214D01*
X13052500Y-15021214D01*
X13023928Y-15006929D01*
X13009643Y-14992643D01*
X12995357Y-14964071D01*
X12981071Y-14906929D01*
X12981071Y-14835500D01*
X12995357Y-14778357D01*
X13009643Y-14749786D01*
X13023928Y-14735500D01*
X13052500Y-14721214D01*
X13281071Y-14992643D02*
X13295357Y-15006929D01*
X13281071Y-15021214D01*
X13266786Y-15006929D01*
X13281071Y-14992643D01*
X13281071Y-15021214D01*
X13481071Y-14721214D02*
X13509643Y-14721214D01*
X13538214Y-14735500D01*
X13552500Y-14749786D01*
X13566785Y-14778357D01*
X13581071Y-14835500D01*
X13581071Y-14906929D01*
X13566785Y-14964071D01*
X13552500Y-14992643D01*
X13538214Y-15006929D01*
X13509643Y-15021214D01*
X13481071Y-15021214D01*
X13452500Y-15006929D01*
X13438214Y-14992643D01*
X13423928Y-14964071D01*
X13409643Y-14906929D01*
X13409643Y-14835500D01*
X13423928Y-14778357D01*
X13438214Y-14749786D01*
X13452500Y-14735500D01*
X13481071Y-14721214D01*
X13838214Y-14821214D02*
X13838214Y-15021214D01*
X13766785Y-14706929D02*
X13695357Y-14921214D01*
X13881071Y-14921214D01*
X14052500Y-14721214D02*
X14081071Y-14721214D01*
X14109643Y-14735500D01*
X14123928Y-14749786D01*
X14138214Y-14778357D01*
X14152500Y-14835500D01*
X14152500Y-14906929D01*
X14138214Y-14964071D01*
X14123928Y-14992643D01*
X14109643Y-15006929D01*
X14081071Y-15021214D01*
X14052500Y-15021214D01*
X14023928Y-15006929D01*
X14009643Y-14992643D01*
X13995357Y-14964071D01*
X13981071Y-14906929D01*
X13981071Y-14835500D01*
X13995357Y-14778357D01*
X14009643Y-14749786D01*
X14023928Y-14735500D01*
X14052500Y-14721214D01*
X14266786Y-14721214D02*
X14266786Y-14778357D01*
X14381071Y-14721214D02*
X14381071Y-14778357D01*
X14823928Y-15135500D02*
X14809643Y-15121214D01*
X14781071Y-15078357D01*
X14766785Y-15049786D01*
X14752500Y-15006929D01*
X14738214Y-14935500D01*
X14738214Y-14878357D01*
X14752500Y-14806929D01*
X14766785Y-14764071D01*
X14781071Y-14735500D01*
X14809643Y-14692643D01*
X14823928Y-14678357D01*
X14923928Y-14749786D02*
X14938214Y-14735500D01*
X14966785Y-14721214D01*
X15038214Y-14721214D01*
X15066785Y-14735500D01*
X15081071Y-14749786D01*
X15095357Y-14778357D01*
X15095357Y-14806929D01*
X15081071Y-14849786D01*
X14909643Y-15021214D01*
X15095357Y-15021214D01*
X15209643Y-14749786D02*
X15223928Y-14735500D01*
X15252500Y-14721214D01*
X15323928Y-14721214D01*
X15352500Y-14735500D01*
X15366785Y-14749786D01*
X15381071Y-14778357D01*
X15381071Y-14806929D01*
X15366785Y-14849786D01*
X15195357Y-15021214D01*
X15381071Y-15021214D01*
X15738214Y-15021214D02*
X15738214Y-14721214D01*
X15866785Y-15021214D02*
X15866785Y-14864071D01*
X15852500Y-14835500D01*
X15823928Y-14821214D01*
X15781071Y-14821214D01*
X15752500Y-14835500D01*
X15738214Y-14849786D01*
X16052500Y-15021214D02*
X16023928Y-15006929D01*
X16009643Y-14992643D01*
X15995357Y-14964071D01*
X15995357Y-14878357D01*
X16009643Y-14849786D01*
X16023928Y-14835500D01*
X16052500Y-14821214D01*
X16095357Y-14821214D01*
X16123928Y-14835500D01*
X16138214Y-14849786D01*
X16152500Y-14878357D01*
X16152500Y-14964071D01*
X16138214Y-14992643D01*
X16123928Y-15006929D01*
X16095357Y-15021214D01*
X16052500Y-15021214D01*
X16323928Y-15021214D02*
X16295357Y-15006929D01*
X16281071Y-14978357D01*
X16281071Y-14721214D01*
X16552500Y-15006929D02*
X16523928Y-15021214D01*
X16466786Y-15021214D01*
X16438214Y-15006929D01*
X16423928Y-14978357D01*
X16423928Y-14864071D01*
X16438214Y-14835500D01*
X16466786Y-14821214D01*
X16523928Y-14821214D01*
X16552500Y-14835500D01*
X16566786Y-14864071D01*
X16566786Y-14892643D01*
X16423928Y-14921214D01*
X16681071Y-15006929D02*
X16709643Y-15021214D01*
X16766786Y-15021214D01*
X16795357Y-15006929D01*
X16809643Y-14978357D01*
X16809643Y-14964071D01*
X16795357Y-14935500D01*
X16766786Y-14921214D01*
X16723928Y-14921214D01*
X16695357Y-14906929D01*
X16681071Y-14878357D01*
X16681071Y-14864071D01*
X16695357Y-14835500D01*
X16723928Y-14821214D01*
X16766786Y-14821214D01*
X16795357Y-14835500D01*
X16909643Y-15135500D02*
X16923929Y-15121214D01*
X16952500Y-15078357D01*
X16966786Y-15049786D01*
X16981071Y-15006929D01*
X16995357Y-14935500D01*
X16995357Y-14878357D01*
X16981071Y-14806929D01*
X16966786Y-14764071D01*
X16952500Y-14735500D01*
X16923929Y-14692643D01*
X16909643Y-14678357D01*
X10050500Y-15230500D02*
X10152500Y-15332500D01*
X10152500Y-15230500D02*
X10050500Y-15332500D01*
X10101500Y-15230500D02*
X10101500Y-15332500D01*
X10050500Y-15281500D02*
X10152500Y-15281500D01*
X10581071Y-15417214D02*
X10409643Y-15417214D01*
X10495357Y-15417214D02*
X10495357Y-15117214D01*
X10466786Y-15160071D01*
X10438214Y-15188643D01*
X10409643Y-15202929D01*
X10709643Y-15388643D02*
X10723929Y-15402929D01*
X10709643Y-15417214D01*
X10695357Y-15402929D01*
X10709643Y-15388643D01*
X10709643Y-15417214D01*
X10909643Y-15117214D02*
X10938214Y-15117214D01*
X10966786Y-15131500D01*
X10981071Y-15145786D01*
X10995357Y-15174357D01*
X11009643Y-15231500D01*
X11009643Y-15302929D01*
X10995357Y-15360071D01*
X10981071Y-15388643D01*
X10966786Y-15402929D01*
X10938214Y-15417214D01*
X10909643Y-15417214D01*
X10881071Y-15402929D01*
X10866786Y-15388643D01*
X10852500Y-15360071D01*
X10838214Y-15302929D01*
X10838214Y-15231500D01*
X10852500Y-15174357D01*
X10866786Y-15145786D01*
X10881071Y-15131500D01*
X10909643Y-15117214D01*
X11123929Y-15145786D02*
X11138214Y-15131500D01*
X11166786Y-15117214D01*
X11238214Y-15117214D01*
X11266786Y-15131500D01*
X11281071Y-15145786D01*
X11295357Y-15174357D01*
X11295357Y-15202929D01*
X11281071Y-15245786D01*
X11109643Y-15417214D01*
X11295357Y-15417214D01*
X11423928Y-15417214D02*
X11423928Y-15217214D01*
X11423928Y-15245786D02*
X11438214Y-15231500D01*
X11466786Y-15217214D01*
X11509643Y-15217214D01*
X11538214Y-15231500D01*
X11552500Y-15260071D01*
X11552500Y-15417214D01*
X11552500Y-15260071D02*
X11566786Y-15231500D01*
X11595357Y-15217214D01*
X11638214Y-15217214D01*
X11666786Y-15231500D01*
X11681071Y-15260071D01*
X11681071Y-15417214D01*
X11823928Y-15417214D02*
X11823928Y-15217214D01*
X11823928Y-15245786D02*
X11838214Y-15231500D01*
X11866786Y-15217214D01*
X11909643Y-15217214D01*
X11938214Y-15231500D01*
X11952500Y-15260071D01*
X11952500Y-15417214D01*
X11952500Y-15260071D02*
X11966786Y-15231500D01*
X11995357Y-15217214D01*
X12038214Y-15217214D01*
X12066786Y-15231500D01*
X12081071Y-15260071D01*
X12081071Y-15417214D01*
X12666786Y-15102929D02*
X12409643Y-15488643D01*
X13052500Y-15117214D02*
X13081071Y-15117214D01*
X13109643Y-15131500D01*
X13123928Y-15145786D01*
X13138214Y-15174357D01*
X13152500Y-15231500D01*
X13152500Y-15302929D01*
X13138214Y-15360071D01*
X13123928Y-15388643D01*
X13109643Y-15402929D01*
X13081071Y-15417214D01*
X13052500Y-15417214D01*
X13023928Y-15402929D01*
X13009643Y-15388643D01*
X12995357Y-15360071D01*
X12981071Y-15302929D01*
X12981071Y-15231500D01*
X12995357Y-15174357D01*
X13009643Y-15145786D01*
X13023928Y-15131500D01*
X13052500Y-15117214D01*
X13281071Y-15388643D02*
X13295357Y-15402929D01*
X13281071Y-15417214D01*
X13266786Y-15402929D01*
X13281071Y-15388643D01*
X13281071Y-15417214D01*
X13481071Y-15117214D02*
X13509643Y-15117214D01*
X13538214Y-15131500D01*
X13552500Y-15145786D01*
X13566785Y-15174357D01*
X13581071Y-15231500D01*
X13581071Y-15302929D01*
X13566785Y-15360071D01*
X13552500Y-15388643D01*
X13538214Y-15402929D01*
X13509643Y-15417214D01*
X13481071Y-15417214D01*
X13452500Y-15402929D01*
X13438214Y-15388643D01*
X13423928Y-15360071D01*
X13409643Y-15302929D01*
X13409643Y-15231500D01*
X13423928Y-15174357D01*
X13438214Y-15145786D01*
X13452500Y-15131500D01*
X13481071Y-15117214D01*
X13838214Y-15217214D02*
X13838214Y-15417214D01*
X13766785Y-15102929D02*
X13695357Y-15317214D01*
X13881071Y-15317214D01*
X14052500Y-15117214D02*
X14081071Y-15117214D01*
X14109643Y-15131500D01*
X14123928Y-15145786D01*
X14138214Y-15174357D01*
X14152500Y-15231500D01*
X14152500Y-15302929D01*
X14138214Y-15360071D01*
X14123928Y-15388643D01*
X14109643Y-15402929D01*
X14081071Y-15417214D01*
X14052500Y-15417214D01*
X14023928Y-15402929D01*
X14009643Y-15388643D01*
X13995357Y-15360071D01*
X13981071Y-15302929D01*
X13981071Y-15231500D01*
X13995357Y-15174357D01*
X14009643Y-15145786D01*
X14023928Y-15131500D01*
X14052500Y-15117214D01*
X14266786Y-15117214D02*
X14266786Y-15174357D01*
X14381071Y-15117214D02*
X14381071Y-15174357D01*
X14823928Y-15531500D02*
X14809643Y-15517214D01*
X14781071Y-15474357D01*
X14766785Y-15445786D01*
X14752500Y-15402929D01*
X14738214Y-15331500D01*
X14738214Y-15274357D01*
X14752500Y-15202929D01*
X14766785Y-15160071D01*
X14781071Y-15131500D01*
X14809643Y-15088643D01*
X14823928Y-15074357D01*
X15066785Y-15217214D02*
X15066785Y-15417214D01*
X14995357Y-15102929D02*
X14923928Y-15317214D01*
X15109643Y-15317214D01*
X15195357Y-15117214D02*
X15381071Y-15117214D01*
X15281071Y-15231500D01*
X15323928Y-15231500D01*
X15352500Y-15245786D01*
X15366785Y-15260071D01*
X15381071Y-15288643D01*
X15381071Y-15360071D01*
X15366785Y-15388643D01*
X15352500Y-15402929D01*
X15323928Y-15417214D01*
X15238214Y-15417214D01*
X15209643Y-15402929D01*
X15195357Y-15388643D01*
X15738214Y-15417214D02*
X15738214Y-15117214D01*
X15866785Y-15417214D02*
X15866785Y-15260071D01*
X15852500Y-15231500D01*
X15823928Y-15217214D01*
X15781071Y-15217214D01*
X15752500Y-15231500D01*
X15738214Y-15245786D01*
X16052500Y-15417214D02*
X16023928Y-15402929D01*
X16009643Y-15388643D01*
X15995357Y-15360071D01*
X15995357Y-15274357D01*
X16009643Y-15245786D01*
X16023928Y-15231500D01*
X16052500Y-15217214D01*
X16095357Y-15217214D01*
X16123928Y-15231500D01*
X16138214Y-15245786D01*
X16152500Y-15274357D01*
X16152500Y-15360071D01*
X16138214Y-15388643D01*
X16123928Y-15402929D01*
X16095357Y-15417214D01*
X16052500Y-15417214D01*
X16323928Y-15417214D02*
X16295357Y-15402929D01*
X16281071Y-15374357D01*
X16281071Y-15117214D01*
X16552500Y-15402929D02*
X16523928Y-15417214D01*
X16466786Y-15417214D01*
X16438214Y-15402929D01*
X16423928Y-15374357D01*
X16423928Y-15260071D01*
X16438214Y-15231500D01*
X16466786Y-15217214D01*
X16523928Y-15217214D01*
X16552500Y-15231500D01*
X16566786Y-15260071D01*
X16566786Y-15288643D01*
X16423928Y-15317214D01*
X16681071Y-15402929D02*
X16709643Y-15417214D01*
X16766786Y-15417214D01*
X16795357Y-15402929D01*
X16809643Y-15374357D01*
X16809643Y-15360071D01*
X16795357Y-15331500D01*
X16766786Y-15317214D01*
X16723928Y-15317214D01*
X16695357Y-15302929D01*
X16681071Y-15274357D01*
X16681071Y-15260071D01*
X16695357Y-15231500D01*
X16723928Y-15217214D01*
X16766786Y-15217214D01*
X16795357Y-15231500D01*
X16909643Y-15531500D02*
X16923929Y-15517214D01*
X16952500Y-15474357D01*
X16966786Y-15445786D01*
X16981071Y-15402929D01*
X16995357Y-15331500D01*
X16995357Y-15274357D01*
X16981071Y-15202929D01*
X16966786Y-15160071D01*
X16952500Y-15131500D01*
X16923929Y-15088643D01*
X16909643Y-15074357D01*
X10042500Y-15622500D02*
X10152500Y-15732500D01*
X10152500Y-15622500D02*
X10042500Y-15732500D01*
X10136391Y-15716391D02*
X10136391Y-15638609D01*
X10058609Y-15638609D01*
X10058609Y-15716391D01*
X10136391Y-15716391D01*
X10581071Y-15813214D02*
X10409643Y-15813214D01*
X10495357Y-15813214D02*
X10495357Y-15513214D01*
X10466786Y-15556071D01*
X10438214Y-15584643D01*
X10409643Y-15598929D01*
X10709643Y-15784643D02*
X10723929Y-15798929D01*
X10709643Y-15813214D01*
X10695357Y-15798929D01*
X10709643Y-15784643D01*
X10709643Y-15813214D01*
X11009643Y-15813214D02*
X10838214Y-15813214D01*
X10923928Y-15813214D02*
X10923928Y-15513214D01*
X10895357Y-15556071D01*
X10866786Y-15584643D01*
X10838214Y-15598929D01*
X11195357Y-15513214D02*
X11223928Y-15513214D01*
X11252500Y-15527500D01*
X11266786Y-15541786D01*
X11281071Y-15570357D01*
X11295357Y-15627500D01*
X11295357Y-15698929D01*
X11281071Y-15756071D01*
X11266786Y-15784643D01*
X11252500Y-15798929D01*
X11223928Y-15813214D01*
X11195357Y-15813214D01*
X11166786Y-15798929D01*
X11152500Y-15784643D01*
X11138214Y-15756071D01*
X11123929Y-15698929D01*
X11123929Y-15627500D01*
X11138214Y-15570357D01*
X11152500Y-15541786D01*
X11166786Y-15527500D01*
X11195357Y-15513214D01*
X11423928Y-15813214D02*
X11423928Y-15613214D01*
X11423928Y-15641786D02*
X11438214Y-15627500D01*
X11466786Y-15613214D01*
X11509643Y-15613214D01*
X11538214Y-15627500D01*
X11552500Y-15656071D01*
X11552500Y-15813214D01*
X11552500Y-15656071D02*
X11566786Y-15627500D01*
X11595357Y-15613214D01*
X11638214Y-15613214D01*
X11666786Y-15627500D01*
X11681071Y-15656071D01*
X11681071Y-15813214D01*
X11823928Y-15813214D02*
X11823928Y-15613214D01*
X11823928Y-15641786D02*
X11838214Y-15627500D01*
X11866786Y-15613214D01*
X11909643Y-15613214D01*
X11938214Y-15627500D01*
X11952500Y-15656071D01*
X11952500Y-15813214D01*
X11952500Y-15656071D02*
X11966786Y-15627500D01*
X11995357Y-15613214D01*
X12038214Y-15613214D01*
X12066786Y-15627500D01*
X12081071Y-15656071D01*
X12081071Y-15813214D01*
X12666786Y-15498929D02*
X12409643Y-15884643D01*
X13052500Y-15513214D02*
X13081071Y-15513214D01*
X13109643Y-15527500D01*
X13123928Y-15541786D01*
X13138214Y-15570357D01*
X13152500Y-15627500D01*
X13152500Y-15698929D01*
X13138214Y-15756071D01*
X13123928Y-15784643D01*
X13109643Y-15798929D01*
X13081071Y-15813214D01*
X13052500Y-15813214D01*
X13023928Y-15798929D01*
X13009643Y-15784643D01*
X12995357Y-15756071D01*
X12981071Y-15698929D01*
X12981071Y-15627500D01*
X12995357Y-15570357D01*
X13009643Y-15541786D01*
X13023928Y-15527500D01*
X13052500Y-15513214D01*
X13281071Y-15784643D02*
X13295357Y-15798929D01*
X13281071Y-15813214D01*
X13266786Y-15798929D01*
X13281071Y-15784643D01*
X13281071Y-15813214D01*
X13481071Y-15513214D02*
X13509643Y-15513214D01*
X13538214Y-15527500D01*
X13552500Y-15541786D01*
X13566785Y-15570357D01*
X13581071Y-15627500D01*
X13581071Y-15698929D01*
X13566785Y-15756071D01*
X13552500Y-15784643D01*
X13538214Y-15798929D01*
X13509643Y-15813214D01*
X13481071Y-15813214D01*
X13452500Y-15798929D01*
X13438214Y-15784643D01*
X13423928Y-15756071D01*
X13409643Y-15698929D01*
X13409643Y-15627500D01*
X13423928Y-15570357D01*
X13438214Y-15541786D01*
X13452500Y-15527500D01*
X13481071Y-15513214D01*
X13838214Y-15613214D02*
X13838214Y-15813214D01*
X13766785Y-15498929D02*
X13695357Y-15713214D01*
X13881071Y-15713214D01*
X13966785Y-15513214D02*
X14152500Y-15513214D01*
X14052500Y-15627500D01*
X14095357Y-15627500D01*
X14123928Y-15641786D01*
X14138214Y-15656071D01*
X14152500Y-15684643D01*
X14152500Y-15756071D01*
X14138214Y-15784643D01*
X14123928Y-15798929D01*
X14095357Y-15813214D01*
X14009643Y-15813214D01*
X13981071Y-15798929D01*
X13966785Y-15784643D01*
X14266786Y-15513214D02*
X14266786Y-15570357D01*
X14381071Y-15513214D02*
X14381071Y-15570357D01*
X14823928Y-15927500D02*
X14809643Y-15913214D01*
X14781071Y-15870357D01*
X14766785Y-15841786D01*
X14752500Y-15798929D01*
X14738214Y-15727500D01*
X14738214Y-15670357D01*
X14752500Y-15598929D01*
X14766785Y-15556071D01*
X14781071Y-15527500D01*
X14809643Y-15484643D01*
X14823928Y-15470357D01*
X15066785Y-15613214D02*
X15066785Y-15813214D01*
X14995357Y-15498929D02*
X14923928Y-15713214D01*
X15109643Y-15713214D01*
X15452500Y-15813214D02*
X15452500Y-15513214D01*
X15581071Y-15813214D02*
X15581071Y-15656071D01*
X15566785Y-15627500D01*
X15538214Y-15613214D01*
X15495357Y-15613214D01*
X15466785Y-15627500D01*
X15452500Y-15641786D01*
X15766785Y-15813214D02*
X15738214Y-15798929D01*
X15723928Y-15784643D01*
X15709643Y-15756071D01*
X15709643Y-15670357D01*
X15723928Y-15641786D01*
X15738214Y-15627500D01*
X15766785Y-15613214D01*
X15809643Y-15613214D01*
X15838214Y-15627500D01*
X15852500Y-15641786D01*
X15866785Y-15670357D01*
X15866785Y-15756071D01*
X15852500Y-15784643D01*
X15838214Y-15798929D01*
X15809643Y-15813214D01*
X15766785Y-15813214D01*
X16038214Y-15813214D02*
X16009643Y-15798929D01*
X15995357Y-15770357D01*
X15995357Y-15513214D01*
X16266786Y-15798929D02*
X16238214Y-15813214D01*
X16181071Y-15813214D01*
X16152500Y-15798929D01*
X16138214Y-15770357D01*
X16138214Y-15656071D01*
X16152500Y-15627500D01*
X16181071Y-15613214D01*
X16238214Y-15613214D01*
X16266786Y-15627500D01*
X16281071Y-15656071D01*
X16281071Y-15684643D01*
X16138214Y-15713214D01*
X16395357Y-15798929D02*
X16423928Y-15813214D01*
X16481071Y-15813214D01*
X16509643Y-15798929D01*
X16523928Y-15770357D01*
X16523928Y-15756071D01*
X16509643Y-15727500D01*
X16481071Y-15713214D01*
X16438214Y-15713214D01*
X16409643Y-15698929D01*
X16395357Y-15670357D01*
X16395357Y-15656071D01*
X16409643Y-15627500D01*
X16438214Y-15613214D01*
X16481071Y-15613214D01*
X16509643Y-15627500D01*
X16623928Y-15927500D02*
X16638214Y-15913214D01*
X16666786Y-15870357D01*
X16681071Y-15841786D01*
X16695357Y-15798929D01*
X16709643Y-15727500D01*
X16709643Y-15670357D01*
X16695357Y-15598929D01*
X16681071Y-15556071D01*
X16666786Y-15527500D01*
X16638214Y-15484643D01*
X16623928Y-15470357D01*
X10012500Y-16003500D02*
X10152500Y-16143500D01*
X10152500Y-16003500D02*
X10012500Y-16143500D01*
X10082500Y-16143500D02*
X10152500Y-16073500D01*
X10082500Y-16003500D01*
X10012500Y-16073500D01*
X10082500Y-16143500D01*
X10581071Y-16209214D02*
X10409643Y-16209214D01*
X10495357Y-16209214D02*
X10495357Y-15909214D01*
X10466786Y-15952071D01*
X10438214Y-15980643D01*
X10409643Y-15994929D01*
X10709643Y-16180643D02*
X10723929Y-16194929D01*
X10709643Y-16209214D01*
X10695357Y-16194929D01*
X10709643Y-16180643D01*
X10709643Y-16209214D01*
X10981071Y-16009214D02*
X10981071Y-16209214D01*
X10909643Y-15894929D02*
X10838214Y-16109214D01*
X11023928Y-16109214D01*
X11195357Y-15909214D02*
X11223928Y-15909214D01*
X11252500Y-15923500D01*
X11266786Y-15937786D01*
X11281071Y-15966357D01*
X11295357Y-16023500D01*
X11295357Y-16094929D01*
X11281071Y-16152071D01*
X11266786Y-16180643D01*
X11252500Y-16194929D01*
X11223928Y-16209214D01*
X11195357Y-16209214D01*
X11166786Y-16194929D01*
X11152500Y-16180643D01*
X11138214Y-16152071D01*
X11123929Y-16094929D01*
X11123929Y-16023500D01*
X11138214Y-15966357D01*
X11152500Y-15937786D01*
X11166786Y-15923500D01*
X11195357Y-15909214D01*
X11423928Y-16209214D02*
X11423928Y-16009214D01*
X11423928Y-16037786D02*
X11438214Y-16023500D01*
X11466786Y-16009214D01*
X11509643Y-16009214D01*
X11538214Y-16023500D01*
X11552500Y-16052071D01*
X11552500Y-16209214D01*
X11552500Y-16052071D02*
X11566786Y-16023500D01*
X11595357Y-16009214D01*
X11638214Y-16009214D01*
X11666786Y-16023500D01*
X11681071Y-16052071D01*
X11681071Y-16209214D01*
X11823928Y-16209214D02*
X11823928Y-16009214D01*
X11823928Y-16037786D02*
X11838214Y-16023500D01*
X11866786Y-16009214D01*
X11909643Y-16009214D01*
X11938214Y-16023500D01*
X11952500Y-16052071D01*
X11952500Y-16209214D01*
X11952500Y-16052071D02*
X11966786Y-16023500D01*
X11995357Y-16009214D01*
X12038214Y-16009214D01*
X12066786Y-16023500D01*
X12081071Y-16052071D01*
X12081071Y-16209214D01*
X12666786Y-15894929D02*
X12409643Y-16280643D01*
X13052500Y-15909214D02*
X13081071Y-15909214D01*
X13109643Y-15923500D01*
X13123928Y-15937786D01*
X13138214Y-15966357D01*
X13152500Y-16023500D01*
X13152500Y-16094929D01*
X13138214Y-16152071D01*
X13123928Y-16180643D01*
X13109643Y-16194929D01*
X13081071Y-16209214D01*
X13052500Y-16209214D01*
X13023928Y-16194929D01*
X13009643Y-16180643D01*
X12995357Y-16152071D01*
X12981071Y-16094929D01*
X12981071Y-16023500D01*
X12995357Y-15966357D01*
X13009643Y-15937786D01*
X13023928Y-15923500D01*
X13052500Y-15909214D01*
X13281071Y-16180643D02*
X13295357Y-16194929D01*
X13281071Y-16209214D01*
X13266786Y-16194929D01*
X13281071Y-16180643D01*
X13281071Y-16209214D01*
X13481071Y-15909214D02*
X13509643Y-15909214D01*
X13538214Y-15923500D01*
X13552500Y-15937786D01*
X13566785Y-15966357D01*
X13581071Y-16023500D01*
X13581071Y-16094929D01*
X13566785Y-16152071D01*
X13552500Y-16180643D01*
X13538214Y-16194929D01*
X13509643Y-16209214D01*
X13481071Y-16209214D01*
X13452500Y-16194929D01*
X13438214Y-16180643D01*
X13423928Y-16152071D01*
X13409643Y-16094929D01*
X13409643Y-16023500D01*
X13423928Y-15966357D01*
X13438214Y-15937786D01*
X13452500Y-15923500D01*
X13481071Y-15909214D01*
X13852500Y-15909214D02*
X13709643Y-15909214D01*
X13695357Y-16052071D01*
X13709643Y-16037786D01*
X13738214Y-16023500D01*
X13809643Y-16023500D01*
X13838214Y-16037786D01*
X13852500Y-16052071D01*
X13866785Y-16080643D01*
X13866785Y-16152071D01*
X13852500Y-16180643D01*
X13838214Y-16194929D01*
X13809643Y-16209214D01*
X13738214Y-16209214D01*
X13709643Y-16194929D01*
X13695357Y-16180643D01*
X14138214Y-15909214D02*
X13995357Y-15909214D01*
X13981071Y-16052071D01*
X13995357Y-16037786D01*
X14023928Y-16023500D01*
X14095357Y-16023500D01*
X14123928Y-16037786D01*
X14138214Y-16052071D01*
X14152500Y-16080643D01*
X14152500Y-16152071D01*
X14138214Y-16180643D01*
X14123928Y-16194929D01*
X14095357Y-16209214D01*
X14023928Y-16209214D01*
X13995357Y-16194929D01*
X13981071Y-16180643D01*
X14266786Y-15909214D02*
X14266786Y-15966357D01*
X14381071Y-15909214D02*
X14381071Y-15966357D01*
X14823928Y-16323500D02*
X14809643Y-16309214D01*
X14781071Y-16266357D01*
X14766785Y-16237786D01*
X14752500Y-16194929D01*
X14738214Y-16123500D01*
X14738214Y-16066357D01*
X14752500Y-15994929D01*
X14766785Y-15952071D01*
X14781071Y-15923500D01*
X14809643Y-15880643D01*
X14823928Y-15866357D01*
X15066785Y-16009214D02*
X15066785Y-16209214D01*
X14995357Y-15894929D02*
X14923928Y-16109214D01*
X15109643Y-16109214D01*
X15452500Y-16209214D02*
X15452500Y-15909214D01*
X15581071Y-16209214D02*
X15581071Y-16052071D01*
X15566785Y-16023500D01*
X15538214Y-16009214D01*
X15495357Y-16009214D01*
X15466785Y-16023500D01*
X15452500Y-16037786D01*
X15766785Y-16209214D02*
X15738214Y-16194929D01*
X15723928Y-16180643D01*
X15709643Y-16152071D01*
X15709643Y-16066357D01*
X15723928Y-16037786D01*
X15738214Y-16023500D01*
X15766785Y-16009214D01*
X15809643Y-16009214D01*
X15838214Y-16023500D01*
X15852500Y-16037786D01*
X15866785Y-16066357D01*
X15866785Y-16152071D01*
X15852500Y-16180643D01*
X15838214Y-16194929D01*
X15809643Y-16209214D01*
X15766785Y-16209214D01*
X16038214Y-16209214D02*
X16009643Y-16194929D01*
X15995357Y-16166357D01*
X15995357Y-15909214D01*
X16266786Y-16194929D02*
X16238214Y-16209214D01*
X16181071Y-16209214D01*
X16152500Y-16194929D01*
X16138214Y-16166357D01*
X16138214Y-16052071D01*
X16152500Y-16023500D01*
X16181071Y-16009214D01*
X16238214Y-16009214D01*
X16266786Y-16023500D01*
X16281071Y-16052071D01*
X16281071Y-16080643D01*
X16138214Y-16109214D01*
X16395357Y-16194929D02*
X16423928Y-16209214D01*
X16481071Y-16209214D01*
X16509643Y-16194929D01*
X16523928Y-16166357D01*
X16523928Y-16152071D01*
X16509643Y-16123500D01*
X16481071Y-16109214D01*
X16438214Y-16109214D01*
X16409643Y-16094929D01*
X16395357Y-16066357D01*
X16395357Y-16052071D01*
X16409643Y-16023500D01*
X16438214Y-16009214D01*
X16481071Y-16009214D01*
X16509643Y-16023500D01*
X16623928Y-16323500D02*
X16638214Y-16309214D01*
X16666786Y-16266357D01*
X16681071Y-16237786D01*
X16695357Y-16194929D01*
X16709643Y-16123500D01*
X16709643Y-16066357D01*
X16695357Y-15994929D01*
X16681071Y-15952071D01*
X16666786Y-15923500D01*
X16638214Y-15880643D01*
X16623928Y-15866357D01*
X10076500Y-16393500D02*
X10076500Y-16545500D01*
X10000500Y-16469500D02*
X10152500Y-16469500D01*
X10152500Y-16469500D02*
G75*
G03X10152500Y-16469500I-76000J0D01*
G01*
X10581071Y-16605214D02*
X10409643Y-16605214D01*
X10495357Y-16605214D02*
X10495357Y-16305214D01*
X10466786Y-16348071D01*
X10438214Y-16376643D01*
X10409643Y-16390929D01*
X10709643Y-16576643D02*
X10723929Y-16590929D01*
X10709643Y-16605214D01*
X10695357Y-16590929D01*
X10709643Y-16576643D01*
X10709643Y-16605214D01*
X10995357Y-16305214D02*
X10852500Y-16305214D01*
X10838214Y-16448071D01*
X10852500Y-16433786D01*
X10881071Y-16419500D01*
X10952500Y-16419500D01*
X10981071Y-16433786D01*
X10995357Y-16448071D01*
X11009643Y-16476643D01*
X11009643Y-16548071D01*
X10995357Y-16576643D01*
X10981071Y-16590929D01*
X10952500Y-16605214D01*
X10881071Y-16605214D01*
X10852500Y-16590929D01*
X10838214Y-16576643D01*
X11123929Y-16333786D02*
X11138214Y-16319500D01*
X11166786Y-16305214D01*
X11238214Y-16305214D01*
X11266786Y-16319500D01*
X11281071Y-16333786D01*
X11295357Y-16362357D01*
X11295357Y-16390929D01*
X11281071Y-16433786D01*
X11109643Y-16605214D01*
X11295357Y-16605214D01*
X11423928Y-16605214D02*
X11423928Y-16405214D01*
X11423928Y-16433786D02*
X11438214Y-16419500D01*
X11466786Y-16405214D01*
X11509643Y-16405214D01*
X11538214Y-16419500D01*
X11552500Y-16448071D01*
X11552500Y-16605214D01*
X11552500Y-16448071D02*
X11566786Y-16419500D01*
X11595357Y-16405214D01*
X11638214Y-16405214D01*
X11666786Y-16419500D01*
X11681071Y-16448071D01*
X11681071Y-16605214D01*
X11823928Y-16605214D02*
X11823928Y-16405214D01*
X11823928Y-16433786D02*
X11838214Y-16419500D01*
X11866786Y-16405214D01*
X11909643Y-16405214D01*
X11938214Y-16419500D01*
X11952500Y-16448071D01*
X11952500Y-16605214D01*
X11952500Y-16448071D02*
X11966786Y-16419500D01*
X11995357Y-16405214D01*
X12038214Y-16405214D01*
X12066786Y-16419500D01*
X12081071Y-16448071D01*
X12081071Y-16605214D01*
X12666786Y-16290929D02*
X12409643Y-16676643D01*
X13052500Y-16305214D02*
X13081071Y-16305214D01*
X13109643Y-16319500D01*
X13123928Y-16333786D01*
X13138214Y-16362357D01*
X13152500Y-16419500D01*
X13152500Y-16490929D01*
X13138214Y-16548071D01*
X13123928Y-16576643D01*
X13109643Y-16590929D01*
X13081071Y-16605214D01*
X13052500Y-16605214D01*
X13023928Y-16590929D01*
X13009643Y-16576643D01*
X12995357Y-16548071D01*
X12981071Y-16490929D01*
X12981071Y-16419500D01*
X12995357Y-16362357D01*
X13009643Y-16333786D01*
X13023928Y-16319500D01*
X13052500Y-16305214D01*
X13281071Y-16576643D02*
X13295357Y-16590929D01*
X13281071Y-16605214D01*
X13266786Y-16590929D01*
X13281071Y-16576643D01*
X13281071Y-16605214D01*
X13481071Y-16305214D02*
X13509643Y-16305214D01*
X13538214Y-16319500D01*
X13552500Y-16333786D01*
X13566785Y-16362357D01*
X13581071Y-16419500D01*
X13581071Y-16490929D01*
X13566785Y-16548071D01*
X13552500Y-16576643D01*
X13538214Y-16590929D01*
X13509643Y-16605214D01*
X13481071Y-16605214D01*
X13452500Y-16590929D01*
X13438214Y-16576643D01*
X13423928Y-16548071D01*
X13409643Y-16490929D01*
X13409643Y-16419500D01*
X13423928Y-16362357D01*
X13438214Y-16333786D01*
X13452500Y-16319500D01*
X13481071Y-16305214D01*
X13838214Y-16305214D02*
X13781071Y-16305214D01*
X13752500Y-16319500D01*
X13738214Y-16333786D01*
X13709643Y-16376643D01*
X13695357Y-16433786D01*
X13695357Y-16548071D01*
X13709643Y-16576643D01*
X13723928Y-16590929D01*
X13752500Y-16605214D01*
X13809643Y-16605214D01*
X13838214Y-16590929D01*
X13852500Y-16576643D01*
X13866785Y-16548071D01*
X13866785Y-16476643D01*
X13852500Y-16448071D01*
X13838214Y-16433786D01*
X13809643Y-16419500D01*
X13752500Y-16419500D01*
X13723928Y-16433786D01*
X13709643Y-16448071D01*
X13695357Y-16476643D01*
X14052500Y-16305214D02*
X14081071Y-16305214D01*
X14109643Y-16319500D01*
X14123928Y-16333786D01*
X14138214Y-16362357D01*
X14152500Y-16419500D01*
X14152500Y-16490929D01*
X14138214Y-16548071D01*
X14123928Y-16576643D01*
X14109643Y-16590929D01*
X14081071Y-16605214D01*
X14052500Y-16605214D01*
X14023928Y-16590929D01*
X14009643Y-16576643D01*
X13995357Y-16548071D01*
X13981071Y-16490929D01*
X13981071Y-16419500D01*
X13995357Y-16362357D01*
X14009643Y-16333786D01*
X14023928Y-16319500D01*
X14052500Y-16305214D01*
X14266786Y-16305214D02*
X14266786Y-16362357D01*
X14381071Y-16305214D02*
X14381071Y-16362357D01*
X14823928Y-16719500D02*
X14809643Y-16705214D01*
X14781071Y-16662357D01*
X14766785Y-16633786D01*
X14752500Y-16590929D01*
X14738214Y-16519500D01*
X14738214Y-16462357D01*
X14752500Y-16390929D01*
X14766785Y-16348071D01*
X14781071Y-16319500D01*
X14809643Y-16276643D01*
X14823928Y-16262357D01*
X15095357Y-16605214D02*
X14923928Y-16605214D01*
X15009643Y-16605214D02*
X15009643Y-16305214D01*
X14981071Y-16348071D01*
X14952500Y-16376643D01*
X14923928Y-16390929D01*
X15366785Y-16305214D02*
X15223928Y-16305214D01*
X15209643Y-16448071D01*
X15223928Y-16433786D01*
X15252500Y-16419500D01*
X15323928Y-16419500D01*
X15352500Y-16433786D01*
X15366785Y-16448071D01*
X15381071Y-16476643D01*
X15381071Y-16548071D01*
X15366785Y-16576643D01*
X15352500Y-16590929D01*
X15323928Y-16605214D01*
X15252500Y-16605214D01*
X15223928Y-16590929D01*
X15209643Y-16576643D01*
X15738214Y-16605214D02*
X15738214Y-16305214D01*
X15866785Y-16605214D02*
X15866785Y-16448071D01*
X15852500Y-16419500D01*
X15823928Y-16405214D01*
X15781071Y-16405214D01*
X15752500Y-16419500D01*
X15738214Y-16433786D01*
X16052500Y-16605214D02*
X16023928Y-16590929D01*
X16009643Y-16576643D01*
X15995357Y-16548071D01*
X15995357Y-16462357D01*
X16009643Y-16433786D01*
X16023928Y-16419500D01*
X16052500Y-16405214D01*
X16095357Y-16405214D01*
X16123928Y-16419500D01*
X16138214Y-16433786D01*
X16152500Y-16462357D01*
X16152500Y-16548071D01*
X16138214Y-16576643D01*
X16123928Y-16590929D01*
X16095357Y-16605214D01*
X16052500Y-16605214D01*
X16323928Y-16605214D02*
X16295357Y-16590929D01*
X16281071Y-16562357D01*
X16281071Y-16305214D01*
X16552500Y-16590929D02*
X16523928Y-16605214D01*
X16466786Y-16605214D01*
X16438214Y-16590929D01*
X16423928Y-16562357D01*
X16423928Y-16448071D01*
X16438214Y-16419500D01*
X16466786Y-16405214D01*
X16523928Y-16405214D01*
X16552500Y-16419500D01*
X16566786Y-16448071D01*
X16566786Y-16476643D01*
X16423928Y-16505214D01*
X16681071Y-16590929D02*
X16709643Y-16605214D01*
X16766786Y-16605214D01*
X16795357Y-16590929D01*
X16809643Y-16562357D01*
X16809643Y-16548071D01*
X16795357Y-16519500D01*
X16766786Y-16505214D01*
X16723928Y-16505214D01*
X16695357Y-16490929D01*
X16681071Y-16462357D01*
X16681071Y-16448071D01*
X16695357Y-16419500D01*
X16723928Y-16405214D01*
X16766786Y-16405214D01*
X16795357Y-16419500D01*
X16909643Y-16719500D02*
X16923929Y-16705214D01*
X16952500Y-16662357D01*
X16966786Y-16633786D01*
X16981071Y-16590929D01*
X16995357Y-16519500D01*
X16995357Y-16462357D01*
X16981071Y-16390929D01*
X16966786Y-16348071D01*
X16952500Y-16319500D01*
X16923929Y-16276643D01*
X16909643Y-16262357D01*
M02*
