G04 #@! TF.FileFunction,Soldermask,Top*
%FSLAX46Y46*%
G04 Gerber Fmt 4.6, Leading zero omitted, Abs format (unit mm)*
G04 Created by KiCad (PCBNEW 4.0.5+dfsg1-4+deb9u1) date Sat Oct  1 11:34:18 2022*
%MOMM*%
%LPD*%
G01*
G04 APERTURE LIST*
%ADD10C,0.100000*%
%ADD11C,0.150000*%
%ADD12O,2.100000X2.100000*%
%ADD13R,2.100000X2.100000*%
%ADD14R,2.100000X3.900000*%
%ADD15R,3.900000X2.100000*%
%ADD16C,2.000000*%
%ADD17O,2.000000X2.000000*%
%ADD18R,3.400000X3.400000*%
%ADD19C,3.400000*%
%ADD20C,3.900000*%
%ADD21R,2.127200X2.432000*%
%ADD22O,2.127200X2.432000*%
%ADD23R,2.400000X2.400000*%
%ADD24C,2.400000*%
%ADD25R,2.600000X2.600000*%
%ADD26O,2.600000X2.600000*%
%ADD27O,5.480000X4.240000*%
%ADD28R,2.432000X2.432000*%
%ADD29O,2.432000X2.432000*%
%ADD30O,1.901140X1.299160*%
%ADD31O,1.600000X2.000000*%
%ADD32O,1.600000X1.600000*%
G04 APERTURE END LIST*
D10*
D11*
X101600000Y-119380000D02*
X101600000Y-59690000D01*
X199390000Y-119380000D02*
X101600000Y-119380000D01*
X199390000Y-59690000D02*
X199390000Y-119380000D01*
X101600000Y-59690000D02*
X199390000Y-59690000D01*
D12*
X104140000Y-102870000D03*
X106680000Y-102870000D03*
D13*
X109220000Y-102870000D03*
D12*
X111760000Y-102870000D03*
X114300000Y-102870000D03*
X116840000Y-102870000D03*
X119380000Y-102870000D03*
D13*
X121920000Y-102870000D03*
D12*
X124460000Y-102870000D03*
X127000000Y-102870000D03*
X129540000Y-102870000D03*
X132080000Y-102870000D03*
D13*
X134620000Y-102870000D03*
D12*
X137160000Y-102870000D03*
X139700000Y-102870000D03*
X142240000Y-102870000D03*
X144780000Y-102870000D03*
D13*
X147320000Y-102870000D03*
D12*
X149860000Y-102870000D03*
X152400000Y-102870000D03*
X152400000Y-85090000D03*
X149860000Y-85090000D03*
D13*
X147320000Y-85090000D03*
D12*
X144780000Y-85090000D03*
X142240000Y-85090000D03*
X139700000Y-85090000D03*
X137160000Y-85090000D03*
D13*
X134620000Y-85090000D03*
D12*
X132080000Y-85090000D03*
X129540000Y-85090000D03*
X127000000Y-85090000D03*
X124460000Y-85090000D03*
D13*
X121920000Y-85090000D03*
D12*
X119380000Y-85090000D03*
X116840000Y-85090000D03*
X114300000Y-85090000D03*
X111760000Y-85090000D03*
D13*
X109220000Y-85090000D03*
D12*
X106680000Y-85090000D03*
X104140000Y-85090000D03*
D14*
X104140000Y-103770000D03*
X106680000Y-103770000D03*
X109220000Y-103770000D03*
X111760000Y-103770000D03*
X114300000Y-103770000D03*
X116840000Y-103770000D03*
X119380000Y-103770000D03*
X121920000Y-103770000D03*
X124460000Y-103770000D03*
X127000000Y-103770000D03*
X129540000Y-103770000D03*
X132080000Y-103770000D03*
X134620000Y-103770000D03*
X137160000Y-103770000D03*
X139700000Y-103770000D03*
X142240000Y-103770000D03*
X144780000Y-103770000D03*
X147320000Y-103770000D03*
X149860000Y-103770000D03*
X152400000Y-103770000D03*
X104140000Y-84190000D03*
X106680000Y-84190000D03*
X109220000Y-84190000D03*
X111760000Y-84190000D03*
X114300000Y-84190000D03*
X116840000Y-84190000D03*
X119380000Y-84190000D03*
X121920000Y-84190000D03*
X124460000Y-84190000D03*
X127000000Y-84190000D03*
X129540000Y-84190000D03*
X132080000Y-84190000D03*
X134620000Y-84190000D03*
X137160000Y-84190000D03*
X139700000Y-84190000D03*
X142240000Y-84190000D03*
X144780000Y-84190000D03*
X147320000Y-84190000D03*
X149860000Y-84190000D03*
X152400000Y-84190000D03*
D15*
X153070000Y-96520000D03*
D12*
X152170000Y-96520000D03*
D15*
X153070000Y-93980000D03*
D13*
X152170000Y-93980000D03*
D15*
X153070000Y-91440000D03*
D12*
X152170000Y-91440000D03*
D16*
X149225000Y-112395000D03*
D17*
X144145000Y-112395000D03*
D18*
X195580000Y-87630000D03*
D19*
X195580000Y-92710000D03*
X195580000Y-97790000D03*
D20*
X104140000Y-62230000D03*
X104140000Y-116840000D03*
X196850000Y-116840000D03*
X196850000Y-62230000D03*
D21*
X111125000Y-116840000D03*
D22*
X113665000Y-116840000D03*
X116205000Y-116840000D03*
X118745000Y-116840000D03*
X121285000Y-116840000D03*
X123825000Y-116840000D03*
X126365000Y-116840000D03*
X128905000Y-116840000D03*
X131445000Y-116840000D03*
X133985000Y-116840000D03*
X136525000Y-116840000D03*
X139065000Y-116840000D03*
X141605000Y-116840000D03*
X144145000Y-116840000D03*
X146685000Y-116840000D03*
X149225000Y-116840000D03*
D23*
X185420000Y-101600000D03*
D24*
X185420000Y-106600000D03*
D16*
X109855000Y-111760000D03*
X114855000Y-111760000D03*
X172720000Y-88900000D03*
X172720000Y-93900000D03*
X104140000Y-78740000D03*
X109140000Y-78740000D03*
X177800000Y-99060000D03*
X177800000Y-104060000D03*
D25*
X167640000Y-107950000D03*
D26*
X177800000Y-107950000D03*
D25*
X186690000Y-85090000D03*
D26*
X179070000Y-85090000D03*
D27*
X189230000Y-114300000D03*
X182880000Y-114300000D03*
X173355000Y-114300000D03*
X167005000Y-114300000D03*
D18*
X195580000Y-104140000D03*
D19*
X195580000Y-109220000D03*
D18*
X195580000Y-71120000D03*
D19*
X195580000Y-76200000D03*
X195580000Y-81280000D03*
D28*
X153670000Y-113030000D03*
D29*
X153670000Y-115570000D03*
D28*
X157480000Y-115570000D03*
D29*
X157480000Y-113030000D03*
D28*
X161290000Y-115570000D03*
D29*
X161290000Y-113030000D03*
D19*
X182880000Y-63500000D03*
X162560000Y-63500000D03*
X167640000Y-63500000D03*
D18*
X157480000Y-63500000D03*
D19*
X172720000Y-63500000D03*
X177800000Y-63500000D03*
X187960000Y-63500000D03*
D16*
X179070000Y-76200000D03*
D17*
X179070000Y-81280000D03*
D16*
X179070000Y-93980000D03*
D17*
X179070000Y-88900000D03*
D16*
X185420000Y-76200000D03*
D17*
X185420000Y-81280000D03*
D16*
X167132000Y-88900000D03*
D17*
X167132000Y-93980000D03*
D16*
X130048000Y-108204000D03*
D17*
X135128000Y-108204000D03*
D16*
X160020000Y-76200000D03*
D17*
X160020000Y-81280000D03*
D16*
X114935000Y-107950000D03*
D17*
X109855000Y-107950000D03*
D16*
X144145000Y-107950000D03*
D17*
X149225000Y-107950000D03*
D30*
X186690000Y-92710000D03*
X186690000Y-91440000D03*
X186690000Y-93980000D03*
X160020000Y-90170000D03*
X160020000Y-91440000D03*
X160020000Y-88900000D03*
D31*
X121920000Y-111760000D03*
D32*
X123190000Y-110490000D03*
X121920000Y-109220000D03*
D16*
X129540000Y-74295000D03*
D17*
X129540000Y-79375000D03*
D16*
X133350000Y-74295000D03*
D17*
X133350000Y-79375000D03*
D16*
X137160000Y-74295000D03*
D17*
X137160000Y-79375000D03*
D16*
X140970000Y-74295000D03*
D17*
X140970000Y-79375000D03*
D16*
X144780000Y-74295000D03*
D17*
X144780000Y-79375000D03*
D16*
X149860000Y-74295000D03*
D17*
X149860000Y-79375000D03*
D16*
X163830000Y-99060000D03*
D17*
X158750000Y-99060000D03*
D16*
X163830000Y-102870000D03*
D17*
X158750000Y-102870000D03*
D16*
X129540000Y-64135000D03*
D17*
X129540000Y-69215000D03*
D16*
X133350000Y-64135000D03*
D17*
X133350000Y-69215000D03*
D16*
X137160000Y-64135000D03*
D17*
X137160000Y-69215000D03*
D16*
X140970000Y-64135000D03*
D17*
X140970000Y-69215000D03*
D16*
X144780000Y-64135000D03*
D17*
X144780000Y-69215000D03*
D16*
X149860000Y-64135000D03*
D17*
X149860000Y-69215000D03*
D16*
X172720000Y-99060000D03*
D17*
X167640000Y-99060000D03*
D16*
X172720000Y-102870000D03*
D17*
X167640000Y-102870000D03*
M02*
