G04 #@! TF.FileFunction,Copper,L2,Bot,Signal*
%FSLAX46Y46*%
G04 Gerber Fmt 4.6, Leading zero omitted, Abs format (unit mm)*
G04 Created by KiCad (PCBNEW 4.0.5+dfsg1-4+deb9u1) date Sat Oct  1 11:34:18 2022*
%MOMM*%
%LPD*%
G01*
G04 APERTURE LIST*
%ADD10C,0.100000*%
%ADD11C,0.150000*%
%ADD12C,0.300000*%
%ADD13O,1.700000X1.700000*%
%ADD14R,1.700000X1.700000*%
%ADD15C,1.600000*%
%ADD16O,1.600000X1.600000*%
%ADD17R,3.000000X3.000000*%
%ADD18C,3.000000*%
%ADD19R,1.727200X2.032000*%
%ADD20O,1.727200X2.032000*%
%ADD21R,2.000000X2.000000*%
%ADD22C,2.000000*%
%ADD23R,2.200000X2.200000*%
%ADD24O,2.200000X2.200000*%
%ADD25O,5.080000X3.840000*%
%ADD26R,2.032000X2.032000*%
%ADD27O,2.032000X2.032000*%
%ADD28O,1.501140X0.899160*%
%ADD29O,1.200000X1.600000*%
%ADD30O,1.200000X1.200000*%
%ADD31C,0.800000*%
%ADD32C,0.600000*%
%ADD33C,1.000000*%
%ADD34C,0.250000*%
G04 APERTURE END LIST*
D10*
D11*
X141199524Y-114117381D02*
X141199524Y-113117381D01*
X140961429Y-113117381D01*
X140818571Y-113165000D01*
X140723333Y-113260238D01*
X140675714Y-113355476D01*
X140628095Y-113545952D01*
X140628095Y-113688810D01*
X140675714Y-113879286D01*
X140723333Y-113974524D01*
X140818571Y-114069762D01*
X140961429Y-114117381D01*
X141199524Y-114117381D01*
X140199524Y-114117381D02*
X140199524Y-113117381D01*
X139628095Y-114117381D01*
X139628095Y-113117381D01*
X139151905Y-114022143D02*
X139104286Y-114069762D01*
X139151905Y-114117381D01*
X139199524Y-114069762D01*
X139151905Y-114022143D01*
X139151905Y-114117381D01*
X139151905Y-113498333D02*
X139104286Y-113545952D01*
X139151905Y-113593571D01*
X139199524Y-113545952D01*
X139151905Y-113498333D01*
X139151905Y-113593571D01*
X137437619Y-113117381D02*
X137913810Y-113117381D01*
X137961429Y-113593571D01*
X137913810Y-113545952D01*
X137818572Y-113498333D01*
X137580476Y-113498333D01*
X137485238Y-113545952D01*
X137437619Y-113593571D01*
X137390000Y-113688810D01*
X137390000Y-113926905D01*
X137437619Y-114022143D01*
X137485238Y-114069762D01*
X137580476Y-114117381D01*
X137818572Y-114117381D01*
X137913810Y-114069762D01*
X137961429Y-114022143D01*
X136913810Y-114117381D02*
X136723334Y-114117381D01*
X136628095Y-114069762D01*
X136580476Y-114022143D01*
X136485238Y-113879286D01*
X136437619Y-113688810D01*
X136437619Y-113307857D01*
X136485238Y-113212619D01*
X136532857Y-113165000D01*
X136628095Y-113117381D01*
X136818572Y-113117381D01*
X136913810Y-113165000D01*
X136961429Y-113212619D01*
X137009048Y-113307857D01*
X137009048Y-113545952D01*
X136961429Y-113641190D01*
X136913810Y-113688810D01*
X136818572Y-113736429D01*
X136628095Y-113736429D01*
X136532857Y-113688810D01*
X136485238Y-113641190D01*
X136437619Y-113545952D01*
X135294762Y-113069762D02*
X136151905Y-114355476D01*
X135009048Y-113212619D02*
X134961429Y-113165000D01*
X134866191Y-113117381D01*
X134628095Y-113117381D01*
X134532857Y-113165000D01*
X134485238Y-113212619D01*
X134437619Y-113307857D01*
X134437619Y-113403095D01*
X134485238Y-113545952D01*
X135056667Y-114117381D01*
X134437619Y-114117381D01*
X134056667Y-113212619D02*
X134009048Y-113165000D01*
X133913810Y-113117381D01*
X133675714Y-113117381D01*
X133580476Y-113165000D01*
X133532857Y-113212619D01*
X133485238Y-113307857D01*
X133485238Y-113403095D01*
X133532857Y-113545952D01*
X134104286Y-114117381D01*
X133485238Y-114117381D01*
X132342381Y-113069762D02*
X133199524Y-114355476D01*
X131818572Y-113117381D02*
X131723333Y-113117381D01*
X131628095Y-113165000D01*
X131580476Y-113212619D01*
X131532857Y-113307857D01*
X131485238Y-113498333D01*
X131485238Y-113736429D01*
X131532857Y-113926905D01*
X131580476Y-114022143D01*
X131628095Y-114069762D01*
X131723333Y-114117381D01*
X131818572Y-114117381D01*
X131913810Y-114069762D01*
X131961429Y-114022143D01*
X132009048Y-113926905D01*
X132056667Y-113736429D01*
X132056667Y-113498333D01*
X132009048Y-113307857D01*
X131961429Y-113212619D01*
X131913810Y-113165000D01*
X131818572Y-113117381D01*
X131151905Y-113117381D02*
X130532857Y-113117381D01*
X130866191Y-113498333D01*
X130723333Y-113498333D01*
X130628095Y-113545952D01*
X130580476Y-113593571D01*
X130532857Y-113688810D01*
X130532857Y-113926905D01*
X130580476Y-114022143D01*
X130628095Y-114069762D01*
X130723333Y-114117381D01*
X131009048Y-114117381D01*
X131104286Y-114069762D01*
X131151905Y-114022143D01*
D12*
X142906428Y-89491429D02*
X142834999Y-89420000D01*
X142692142Y-89348571D01*
X142334999Y-89348571D01*
X142192142Y-89420000D01*
X142120713Y-89491429D01*
X142049285Y-89634286D01*
X142049285Y-89777143D01*
X142120713Y-89991429D01*
X142977856Y-90848571D01*
X142049285Y-90848571D01*
X141120714Y-89348571D02*
X140977857Y-89348571D01*
X140835000Y-89420000D01*
X140763571Y-89491429D01*
X140692142Y-89634286D01*
X140620714Y-89920000D01*
X140620714Y-90277143D01*
X140692142Y-90562857D01*
X140763571Y-90705714D01*
X140835000Y-90777143D01*
X140977857Y-90848571D01*
X141120714Y-90848571D01*
X141263571Y-90777143D01*
X141335000Y-90705714D01*
X141406428Y-90562857D01*
X141477857Y-90277143D01*
X141477857Y-89920000D01*
X141406428Y-89634286D01*
X141335000Y-89491429D01*
X141263571Y-89420000D01*
X141120714Y-89348571D01*
X140049286Y-89491429D02*
X139977857Y-89420000D01*
X139835000Y-89348571D01*
X139477857Y-89348571D01*
X139335000Y-89420000D01*
X139263571Y-89491429D01*
X139192143Y-89634286D01*
X139192143Y-89777143D01*
X139263571Y-89991429D01*
X140120714Y-90848571D01*
X139192143Y-90848571D01*
X138620715Y-89491429D02*
X138549286Y-89420000D01*
X138406429Y-89348571D01*
X138049286Y-89348571D01*
X137906429Y-89420000D01*
X137835000Y-89491429D01*
X137763572Y-89634286D01*
X137763572Y-89777143D01*
X137835000Y-89991429D01*
X138692143Y-90848571D01*
X137763572Y-90848571D01*
X130617859Y-91483571D02*
X130617859Y-89983571D01*
X129975002Y-91483571D02*
X129975002Y-90697857D01*
X130046431Y-90555000D01*
X130189288Y-90483571D01*
X130403573Y-90483571D01*
X130546431Y-90555000D01*
X130617859Y-90626429D01*
X129475002Y-90483571D02*
X128903573Y-90483571D01*
X129260716Y-89983571D02*
X129260716Y-91269286D01*
X129189288Y-91412143D01*
X129046430Y-91483571D01*
X128903573Y-91483571D01*
X128617859Y-90483571D02*
X128046430Y-90483571D01*
X128403573Y-89983571D02*
X128403573Y-91269286D01*
X128332145Y-91412143D01*
X128189287Y-91483571D01*
X128046430Y-91483571D01*
X127546430Y-90483571D02*
X127546430Y-91983571D01*
X127546430Y-90555000D02*
X127403573Y-90483571D01*
X127117859Y-90483571D01*
X126975002Y-90555000D01*
X126903573Y-90626429D01*
X126832144Y-90769286D01*
X126832144Y-91197857D01*
X126903573Y-91340714D01*
X126975002Y-91412143D01*
X127117859Y-91483571D01*
X127403573Y-91483571D01*
X127546430Y-91412143D01*
X126189287Y-91340714D02*
X126117859Y-91412143D01*
X126189287Y-91483571D01*
X126260716Y-91412143D01*
X126189287Y-91340714D01*
X126189287Y-91483571D01*
X126189287Y-90555000D02*
X126117859Y-90626429D01*
X126189287Y-90697857D01*
X126260716Y-90626429D01*
X126189287Y-90555000D01*
X126189287Y-90697857D01*
X124403573Y-89912143D02*
X125689287Y-91840714D01*
X122832144Y-89912143D02*
X124117858Y-91840714D01*
X122475000Y-90483571D02*
X122189286Y-91483571D01*
X121903572Y-90769286D01*
X121617857Y-91483571D01*
X121332143Y-90483571D01*
X120903571Y-90483571D02*
X120617857Y-91483571D01*
X120332143Y-90769286D01*
X120046428Y-91483571D01*
X119760714Y-90483571D01*
X119332142Y-90483571D02*
X119046428Y-91483571D01*
X118760714Y-90769286D01*
X118474999Y-91483571D01*
X118189285Y-90483571D01*
X117617856Y-91340714D02*
X117546428Y-91412143D01*
X117617856Y-91483571D01*
X117689285Y-91412143D01*
X117617856Y-91340714D01*
X117617856Y-91483571D01*
X116903570Y-90483571D02*
X116903570Y-91983571D01*
X116903570Y-90555000D02*
X116760713Y-90483571D01*
X116474999Y-90483571D01*
X116332142Y-90555000D01*
X116260713Y-90626429D01*
X116189284Y-90769286D01*
X116189284Y-91197857D01*
X116260713Y-91340714D01*
X116332142Y-91412143D01*
X116474999Y-91483571D01*
X116760713Y-91483571D01*
X116903570Y-91412143D01*
X115332141Y-91483571D02*
X115474999Y-91412143D01*
X115546427Y-91340714D01*
X115617856Y-91197857D01*
X115617856Y-90769286D01*
X115546427Y-90626429D01*
X115474999Y-90555000D01*
X115332141Y-90483571D01*
X115117856Y-90483571D01*
X114974999Y-90555000D01*
X114903570Y-90626429D01*
X114832141Y-90769286D01*
X114832141Y-91197857D01*
X114903570Y-91340714D01*
X114974999Y-91412143D01*
X115117856Y-91483571D01*
X115332141Y-91483571D01*
X114332141Y-90483571D02*
X113546427Y-90483571D01*
X114332141Y-91483571D01*
X113546427Y-91483571D01*
X113046427Y-91412143D02*
X112903570Y-91483571D01*
X112617855Y-91483571D01*
X112474998Y-91412143D01*
X112403570Y-91269286D01*
X112403570Y-91197857D01*
X112474998Y-91055000D01*
X112617855Y-90983571D01*
X112832141Y-90983571D01*
X112974998Y-90912143D01*
X113046427Y-90769286D01*
X113046427Y-90697857D01*
X112974998Y-90555000D01*
X112832141Y-90483571D01*
X112617855Y-90483571D01*
X112474998Y-90555000D01*
X111117855Y-91483571D02*
X111117855Y-90697857D01*
X111189284Y-90555000D01*
X111332141Y-90483571D01*
X111617855Y-90483571D01*
X111760712Y-90555000D01*
X111117855Y-91412143D02*
X111260712Y-91483571D01*
X111617855Y-91483571D01*
X111760712Y-91412143D01*
X111832141Y-91269286D01*
X111832141Y-91126429D01*
X111760712Y-90983571D01*
X111617855Y-90912143D01*
X111260712Y-90912143D01*
X111117855Y-90840714D01*
X110403569Y-91483571D02*
X110403569Y-90483571D01*
X110403569Y-90769286D02*
X110332141Y-90626429D01*
X110260712Y-90555000D01*
X110117855Y-90483571D01*
X109974998Y-90483571D01*
X109617855Y-90483571D02*
X108832141Y-90483571D01*
X109617855Y-91483571D01*
X108832141Y-91483571D01*
X108332141Y-91412143D02*
X108189284Y-91483571D01*
X107903569Y-91483571D01*
X107760712Y-91412143D01*
X107689284Y-91269286D01*
X107689284Y-91197857D01*
X107760712Y-91055000D01*
X107903569Y-90983571D01*
X108117855Y-90983571D01*
X108260712Y-90912143D01*
X108332141Y-90769286D01*
X108332141Y-90697857D01*
X108260712Y-90555000D01*
X108117855Y-90483571D01*
X107903569Y-90483571D01*
X107760712Y-90555000D01*
X107046426Y-91340714D02*
X106974998Y-91412143D01*
X107046426Y-91483571D01*
X107117855Y-91412143D01*
X107046426Y-91340714D01*
X107046426Y-91483571D01*
X106332140Y-91483571D02*
X106332140Y-89983571D01*
X105689283Y-91483571D02*
X105689283Y-90697857D01*
X105760712Y-90555000D01*
X105903569Y-90483571D01*
X106117854Y-90483571D01*
X106260712Y-90555000D01*
X106332140Y-90626429D01*
X104332140Y-90483571D02*
X104332140Y-91483571D01*
X104974997Y-90483571D02*
X104974997Y-91269286D01*
X104903569Y-91412143D01*
X104760711Y-91483571D01*
X104546426Y-91483571D01*
X104403569Y-91412143D01*
X104332140Y-91340714D01*
D11*
X101600000Y-119380000D02*
X101600000Y-59690000D01*
X199390000Y-119380000D02*
X101600000Y-119380000D01*
X199390000Y-59690000D02*
X199390000Y-119380000D01*
X101600000Y-59690000D02*
X199390000Y-59690000D01*
D13*
X104140000Y-102870000D03*
X106680000Y-102870000D03*
D14*
X109220000Y-102870000D03*
D13*
X111760000Y-102870000D03*
X114300000Y-102870000D03*
X116840000Y-102870000D03*
X119380000Y-102870000D03*
D14*
X121920000Y-102870000D03*
D13*
X124460000Y-102870000D03*
X127000000Y-102870000D03*
X129540000Y-102870000D03*
X132080000Y-102870000D03*
D14*
X134620000Y-102870000D03*
D13*
X137160000Y-102870000D03*
X139700000Y-102870000D03*
X142240000Y-102870000D03*
X144780000Y-102870000D03*
D14*
X147320000Y-102870000D03*
D13*
X149860000Y-102870000D03*
X152400000Y-102870000D03*
X152400000Y-85090000D03*
X149860000Y-85090000D03*
D14*
X147320000Y-85090000D03*
D13*
X144780000Y-85090000D03*
X142240000Y-85090000D03*
X139700000Y-85090000D03*
X137160000Y-85090000D03*
D14*
X134620000Y-85090000D03*
D13*
X132080000Y-85090000D03*
X129540000Y-85090000D03*
X127000000Y-85090000D03*
X124460000Y-85090000D03*
D14*
X121920000Y-85090000D03*
D13*
X119380000Y-85090000D03*
X116840000Y-85090000D03*
X114300000Y-85090000D03*
X111760000Y-85090000D03*
D14*
X109220000Y-85090000D03*
D13*
X106680000Y-85090000D03*
X104140000Y-85090000D03*
X152170000Y-96520000D03*
D14*
X152170000Y-93980000D03*
D13*
X152170000Y-91440000D03*
D15*
X149225000Y-112395000D03*
D16*
X144145000Y-112395000D03*
D17*
X195580000Y-87630000D03*
D18*
X195580000Y-92710000D03*
X195580000Y-97790000D03*
D19*
X111125000Y-116840000D03*
D20*
X113665000Y-116840000D03*
X116205000Y-116840000D03*
X118745000Y-116840000D03*
X121285000Y-116840000D03*
X123825000Y-116840000D03*
X126365000Y-116840000D03*
X128905000Y-116840000D03*
X131445000Y-116840000D03*
X133985000Y-116840000D03*
X136525000Y-116840000D03*
X139065000Y-116840000D03*
X141605000Y-116840000D03*
X144145000Y-116840000D03*
X146685000Y-116840000D03*
X149225000Y-116840000D03*
D21*
X185420000Y-101600000D03*
D22*
X185420000Y-106600000D03*
D15*
X109855000Y-111760000D03*
X114855000Y-111760000D03*
X172720000Y-88900000D03*
X172720000Y-93900000D03*
X104140000Y-78740000D03*
X109140000Y-78740000D03*
X177800000Y-99060000D03*
X177800000Y-104060000D03*
D23*
X167640000Y-107950000D03*
D24*
X177800000Y-107950000D03*
D23*
X186690000Y-85090000D03*
D24*
X179070000Y-85090000D03*
D25*
X189230000Y-114300000D03*
X182880000Y-114300000D03*
X173355000Y-114300000D03*
X167005000Y-114300000D03*
D17*
X195580000Y-104140000D03*
D18*
X195580000Y-109220000D03*
D17*
X195580000Y-71120000D03*
D18*
X195580000Y-76200000D03*
X195580000Y-81280000D03*
D26*
X153670000Y-113030000D03*
D27*
X153670000Y-115570000D03*
D26*
X157480000Y-115570000D03*
D27*
X157480000Y-113030000D03*
D26*
X161290000Y-115570000D03*
D27*
X161290000Y-113030000D03*
D18*
X182880000Y-63500000D03*
X162560000Y-63500000D03*
X167640000Y-63500000D03*
D17*
X157480000Y-63500000D03*
D18*
X172720000Y-63500000D03*
X177800000Y-63500000D03*
X187960000Y-63500000D03*
D15*
X179070000Y-76200000D03*
D16*
X179070000Y-81280000D03*
D15*
X179070000Y-93980000D03*
D16*
X179070000Y-88900000D03*
D15*
X185420000Y-76200000D03*
D16*
X185420000Y-81280000D03*
D15*
X167132000Y-88900000D03*
D16*
X167132000Y-93980000D03*
D15*
X130048000Y-108204000D03*
D16*
X135128000Y-108204000D03*
D15*
X160020000Y-76200000D03*
D16*
X160020000Y-81280000D03*
D15*
X114935000Y-107950000D03*
D16*
X109855000Y-107950000D03*
D15*
X144145000Y-107950000D03*
D16*
X149225000Y-107950000D03*
D28*
X186690000Y-92710000D03*
X186690000Y-91440000D03*
X186690000Y-93980000D03*
X160020000Y-90170000D03*
X160020000Y-91440000D03*
X160020000Y-88900000D03*
D29*
X121920000Y-111760000D03*
D30*
X123190000Y-110490000D03*
X121920000Y-109220000D03*
D15*
X129540000Y-74295000D03*
D16*
X129540000Y-79375000D03*
D15*
X133350000Y-74295000D03*
D16*
X133350000Y-79375000D03*
D15*
X137160000Y-74295000D03*
D16*
X137160000Y-79375000D03*
D15*
X140970000Y-74295000D03*
D16*
X140970000Y-79375000D03*
D15*
X144780000Y-74295000D03*
D16*
X144780000Y-79375000D03*
D15*
X149860000Y-74295000D03*
D16*
X149860000Y-79375000D03*
D15*
X163830000Y-99060000D03*
D16*
X158750000Y-99060000D03*
D15*
X163830000Y-102870000D03*
D16*
X158750000Y-102870000D03*
D15*
X129540000Y-64135000D03*
D16*
X129540000Y-69215000D03*
D15*
X133350000Y-64135000D03*
D16*
X133350000Y-69215000D03*
D15*
X137160000Y-64135000D03*
D16*
X137160000Y-69215000D03*
D15*
X140970000Y-64135000D03*
D16*
X140970000Y-69215000D03*
D15*
X144780000Y-64135000D03*
D16*
X144780000Y-69215000D03*
D15*
X149860000Y-64135000D03*
D16*
X149860000Y-69215000D03*
D15*
X172720000Y-99060000D03*
D16*
X167640000Y-99060000D03*
D15*
X172720000Y-102870000D03*
D16*
X167640000Y-102870000D03*
D31*
X146304000Y-87376000D03*
X109220000Y-87376000D03*
X121920000Y-87376000D03*
X134620000Y-87376000D03*
D32*
X135890000Y-99060000D03*
X124460000Y-107315000D03*
X118745000Y-107315000D03*
X127635000Y-114300000D03*
X123825000Y-114300000D03*
X125730000Y-96520000D03*
X111760000Y-96520000D03*
X114300000Y-97790000D03*
X128270000Y-97790000D03*
X130810000Y-99060000D03*
X116840000Y-99060000D03*
X133350000Y-100330000D03*
X119380000Y-100330000D03*
X129540000Y-96520000D03*
X148590000Y-96520000D03*
X147320000Y-92710000D03*
X147320000Y-88900000D03*
X132080000Y-92710000D03*
X148590000Y-81280000D03*
X148590000Y-93980000D03*
X104140000Y-93980000D03*
X149860000Y-95250000D03*
X106680000Y-95250000D03*
X151765000Y-81280000D03*
X182880000Y-71755000D03*
X162560000Y-69215000D03*
X167640000Y-69850000D03*
X172720000Y-70485000D03*
X177800000Y-71120000D03*
X187960000Y-72390000D03*
D33*
X186690000Y-93980000D02*
X184150000Y-96520000D01*
X184150000Y-96520000D02*
X184150000Y-99060000D01*
X177800000Y-99060000D02*
X184150000Y-99060000D01*
X185420000Y-100330000D02*
X185420000Y-101600000D01*
X184150000Y-99060000D02*
X185420000Y-100330000D01*
X172720000Y-99060000D02*
X177800000Y-99060000D01*
X147320000Y-90805000D02*
X146939000Y-90805000D01*
X146939000Y-90805000D02*
X146304000Y-90170000D01*
X146304000Y-87376000D02*
X146304000Y-90170000D01*
X110998000Y-87376000D02*
X109220000Y-87376000D01*
X109220000Y-87376000D02*
X109220000Y-86360000D01*
X150495000Y-93980000D02*
X147320000Y-90805000D01*
X152170000Y-93980000D02*
X150495000Y-93980000D01*
X160020000Y-91440000D02*
X160020000Y-93980000D01*
X167132000Y-93980000D02*
X160528000Y-93980000D01*
X160528000Y-93980000D02*
X160020000Y-93980000D01*
X160020000Y-93980000D02*
X152170000Y-93980000D01*
X167132000Y-93980000D02*
X167212000Y-93900000D01*
X167212000Y-93900000D02*
X172720000Y-93900000D01*
X134620000Y-85090000D02*
X134620000Y-86868000D01*
X121920000Y-85090000D02*
X121920000Y-87376000D01*
X109220000Y-85090000D02*
X109220000Y-86360000D01*
X110998000Y-87376000D02*
X121920000Y-87376000D01*
X146304000Y-87376000D02*
X147320000Y-86360000D01*
X144780000Y-87376000D02*
X146304000Y-87376000D01*
X147320000Y-86360000D02*
X147320000Y-85090000D01*
X121920000Y-87376000D02*
X134620000Y-87376000D01*
X134620000Y-87376000D02*
X144780000Y-87376000D01*
X109855000Y-107950000D02*
X102235000Y-107950000D01*
X109140000Y-78740000D02*
X109140000Y-77390000D01*
X108585000Y-76835000D02*
X102235000Y-76835000D01*
X109140000Y-77390000D02*
X108585000Y-76835000D01*
X161290000Y-115570000D02*
X161290000Y-118745000D01*
X177800000Y-107950000D02*
X177800000Y-118110000D01*
X177165000Y-118745000D02*
X161290000Y-118745000D01*
X161290000Y-118745000D02*
X160655000Y-118745000D01*
X177800000Y-118110000D02*
X177165000Y-118745000D01*
X198120000Y-109220000D02*
X198755000Y-108585000D01*
X195580000Y-97790000D02*
X198755000Y-97790000D01*
X195580000Y-81280000D02*
X198755000Y-81280000D01*
X157480000Y-63500000D02*
X157480000Y-60325000D01*
X113665000Y-116840000D02*
X113665000Y-118745000D01*
X121285000Y-116840000D02*
X121285000Y-118745000D01*
X153670000Y-115570000D02*
X153670000Y-118745000D01*
X157480000Y-115570000D02*
X157480000Y-118745000D01*
X116205000Y-118745000D02*
X121285000Y-118745000D01*
X113665000Y-118745000D02*
X116205000Y-118745000D01*
X107315000Y-112395000D02*
X107950000Y-112395000D01*
X102235000Y-76835000D02*
X102235000Y-88265000D01*
X107950000Y-112395000D02*
X108585000Y-113030000D01*
X108585000Y-113030000D02*
X108585000Y-118110000D01*
X108585000Y-118110000D02*
X109220000Y-118745000D01*
X109220000Y-118745000D02*
X113665000Y-118745000D01*
X102235000Y-88265000D02*
X102235000Y-107950000D01*
X102235000Y-107950000D02*
X102235000Y-111760000D01*
X102870000Y-112395000D02*
X107315000Y-112395000D01*
X102235000Y-111760000D02*
X102870000Y-112395000D01*
X102235000Y-73660000D02*
X102235000Y-76835000D01*
X109220000Y-60325000D02*
X108585000Y-60960000D01*
X108585000Y-60960000D02*
X108585000Y-66040000D01*
X108585000Y-66040000D02*
X107950000Y-66675000D01*
X107950000Y-66675000D02*
X102870000Y-66675000D01*
X102870000Y-66675000D02*
X102235000Y-67310000D01*
X102235000Y-67310000D02*
X102235000Y-73660000D01*
X157480000Y-60325000D02*
X109220000Y-60325000D01*
X185420000Y-60325000D02*
X157480000Y-60325000D01*
X195580000Y-109220000D02*
X198120000Y-109220000D01*
X198755000Y-108585000D02*
X198755000Y-97790000D01*
X198755000Y-97790000D02*
X198755000Y-81280000D01*
X198755000Y-81280000D02*
X198755000Y-67310000D01*
X198755000Y-67310000D02*
X198120000Y-66675000D01*
X198120000Y-66675000D02*
X193675000Y-66675000D01*
X192405000Y-60960000D02*
X191770000Y-60325000D01*
X192405000Y-65405000D02*
X192405000Y-60960000D01*
X191770000Y-60325000D02*
X185420000Y-60325000D01*
X193040000Y-66675000D02*
X192405000Y-66040000D01*
X192405000Y-66040000D02*
X192405000Y-65405000D01*
X193675000Y-66675000D02*
X193040000Y-66675000D01*
X121285000Y-118745000D02*
X153670000Y-118745000D01*
X153670000Y-118745000D02*
X157480000Y-118745000D01*
X157480000Y-118745000D02*
X160655000Y-118745000D01*
X109140000Y-78740000D02*
X109140000Y-85010000D01*
X109140000Y-85010000D02*
X109220000Y-85090000D01*
X185420000Y-106600000D02*
X185420000Y-106680000D01*
X185420000Y-106680000D02*
X187960000Y-109220000D01*
X187960000Y-109220000D02*
X195580000Y-109220000D01*
X177800000Y-107950000D02*
X184070000Y-107950000D01*
X184070000Y-107950000D02*
X185420000Y-106600000D01*
X189230000Y-114300000D02*
X182880000Y-114300000D01*
D34*
X183515000Y-92710000D02*
X182880000Y-93345000D01*
X182880000Y-93345000D02*
X182880000Y-95885000D01*
X182880000Y-95885000D02*
X182245000Y-96520000D01*
X182245000Y-96520000D02*
X180340000Y-96520000D01*
X180340000Y-96520000D02*
X156845000Y-96520000D01*
X156845000Y-96520000D02*
X156210000Y-97155000D01*
X156210000Y-97155000D02*
X156210000Y-98425000D01*
X156210000Y-98425000D02*
X155575000Y-99060000D01*
X155575000Y-99060000D02*
X136525000Y-99060000D01*
X183515000Y-92710000D02*
X186690000Y-92710000D01*
X135890000Y-99060000D02*
X136525000Y-99060000D01*
X167132000Y-88900000D02*
X167005000Y-89027000D01*
X167005000Y-89027000D02*
X167005000Y-91440000D01*
X179070000Y-92710000D02*
X179070000Y-92075000D01*
X165735000Y-91440000D02*
X165100000Y-91440000D01*
X178435000Y-91440000D02*
X167005000Y-91440000D01*
X167005000Y-91440000D02*
X165735000Y-91440000D01*
X179070000Y-92075000D02*
X178435000Y-91440000D01*
X165100000Y-91440000D02*
X163830000Y-90170000D01*
X163830000Y-90170000D02*
X163195000Y-90170000D01*
X165100000Y-91440000D02*
X163830000Y-90170000D01*
X160020000Y-90170000D02*
X163195000Y-90170000D01*
X179070000Y-92710000D02*
X179070000Y-93980000D01*
X160274000Y-90424000D02*
X160020000Y-90170000D01*
X118745000Y-107315000D02*
X124460000Y-107315000D01*
X123825000Y-114300000D02*
X127635000Y-114300000D01*
X111760000Y-96520000D02*
X125730000Y-96520000D01*
X128270000Y-97790000D02*
X114300000Y-97790000D01*
X116840000Y-99060000D02*
X130810000Y-99060000D01*
X119380000Y-100330000D02*
X133350000Y-100330000D01*
X148590000Y-96520000D02*
X129540000Y-96520000D01*
X123190000Y-110490000D02*
X143510000Y-110490000D01*
X144145000Y-109855000D02*
X144145000Y-107950000D01*
X143510000Y-110490000D02*
X144145000Y-109855000D01*
X149352000Y-88900000D02*
X160020000Y-88900000D01*
X149352000Y-88900000D02*
X148844000Y-88900000D01*
X148844000Y-88900000D02*
X147828000Y-88900000D01*
X147320000Y-92710000D02*
X132715000Y-92710000D01*
X147828000Y-88900000D02*
X147320000Y-88900000D01*
X132080000Y-92710000D02*
X132715000Y-92710000D01*
X186690000Y-85090000D02*
X186690000Y-88900000D01*
X185928000Y-88900000D02*
X186690000Y-88900000D01*
X186690000Y-88900000D02*
X189992000Y-88900000D01*
X191008000Y-92456000D02*
X190500000Y-91948000D01*
X191008000Y-92456000D02*
X195326000Y-92456000D01*
X190500000Y-89408000D02*
X189992000Y-88900000D01*
X190500000Y-91948000D02*
X190500000Y-89408000D01*
X195580000Y-92710000D02*
X195326000Y-92456000D01*
X179070000Y-88900000D02*
X185928000Y-88900000D01*
X150495000Y-81280000D02*
X153035000Y-78740000D01*
X154940000Y-78740000D02*
X155575000Y-78105000D01*
X153035000Y-78740000D02*
X154940000Y-78740000D01*
X147955000Y-93980000D02*
X148590000Y-93980000D01*
X148590000Y-81280000D02*
X149225000Y-81280000D01*
X170180000Y-73025000D02*
X160020000Y-73025000D01*
X190500000Y-71755000D02*
X191135000Y-71120000D01*
X195580000Y-71120000D02*
X191770000Y-71120000D01*
X190500000Y-72390000D02*
X189865000Y-73025000D01*
X190500000Y-71755000D02*
X190500000Y-72390000D01*
X191770000Y-71120000D02*
X191135000Y-71120000D01*
X170180000Y-73025000D02*
X189865000Y-73025000D01*
X150495000Y-81280000D02*
X149225000Y-81280000D01*
X155575000Y-74295000D02*
X155575000Y-78105000D01*
X156845000Y-73025000D02*
X155575000Y-74295000D01*
X160020000Y-73025000D02*
X156845000Y-73025000D01*
X104140000Y-93980000D02*
X147955000Y-93980000D01*
X185420000Y-73660000D02*
X157480000Y-73660000D01*
X189865000Y-73660000D02*
X185420000Y-73660000D01*
X190500000Y-74295000D02*
X189865000Y-73660000D01*
X190500000Y-76200000D02*
X190500000Y-74295000D01*
X191135000Y-76835000D02*
X190500000Y-76200000D01*
X194945000Y-76835000D02*
X191135000Y-76835000D01*
X106680000Y-95250000D02*
X148590000Y-95250000D01*
X148590000Y-95250000D02*
X149860000Y-95250000D01*
X153670000Y-79375000D02*
X151765000Y-81280000D01*
X155575000Y-79375000D02*
X153670000Y-79375000D01*
X156210000Y-78740000D02*
X155575000Y-79375000D01*
X156210000Y-74930000D02*
X156210000Y-78740000D01*
X157480000Y-73660000D02*
X156210000Y-74930000D01*
X195580000Y-76200000D02*
X194945000Y-76835000D01*
X153035000Y-77470000D02*
X153670000Y-77470000D01*
X154305000Y-76835000D02*
X154305000Y-76200000D01*
X153670000Y-77470000D02*
X154305000Y-76835000D01*
X182245000Y-71755000D02*
X182880000Y-71755000D01*
X155575000Y-71755000D02*
X182245000Y-71755000D01*
X154305000Y-73025000D02*
X155575000Y-71755000D01*
X154305000Y-76200000D02*
X154305000Y-73025000D01*
X133350000Y-74295000D02*
X133350000Y-76835000D01*
X133985000Y-77470000D02*
X153035000Y-77470000D01*
X133350000Y-76835000D02*
X133985000Y-77470000D01*
X161925000Y-69215000D02*
X162560000Y-69215000D01*
X149860000Y-69215000D02*
X161925000Y-69215000D01*
X146050000Y-71120000D02*
X152400000Y-71120000D01*
X145415000Y-71120000D02*
X144780000Y-70485000D01*
X144780000Y-70485000D02*
X144780000Y-69215000D01*
X146050000Y-71120000D02*
X145415000Y-71120000D01*
X153670000Y-69850000D02*
X167005000Y-69850000D01*
X152400000Y-71120000D02*
X153670000Y-69850000D01*
X167640000Y-69850000D02*
X167005000Y-69850000D01*
X144780000Y-69215000D02*
X144780000Y-69850000D01*
X172085000Y-70485000D02*
X172720000Y-70485000D01*
X153035000Y-71755000D02*
X154305000Y-70485000D01*
X154305000Y-70485000D02*
X172085000Y-70485000D01*
X140970000Y-69215000D02*
X140970000Y-71120000D01*
X141605000Y-71755000D02*
X140970000Y-71120000D01*
X153035000Y-71755000D02*
X141605000Y-71755000D01*
X152400000Y-76835000D02*
X153035000Y-76835000D01*
X153670000Y-76200000D02*
X153670000Y-74930000D01*
X153035000Y-76835000D02*
X153670000Y-76200000D01*
X137160000Y-76200000D02*
X137160000Y-74295000D01*
X137795000Y-76835000D02*
X152400000Y-76835000D01*
X137160000Y-76200000D02*
X137795000Y-76835000D01*
X153670000Y-74930000D02*
X153670000Y-72390000D01*
X153670000Y-72390000D02*
X154940000Y-71120000D01*
X154940000Y-71120000D02*
X177165000Y-71120000D01*
X177800000Y-71120000D02*
X177165000Y-71120000D01*
X153670000Y-78105000D02*
X154305000Y-78105000D01*
X154940000Y-77470000D02*
X154940000Y-76835000D01*
X154305000Y-78105000D02*
X154940000Y-77470000D01*
X187960000Y-72390000D02*
X187325000Y-72390000D01*
X154940000Y-76835000D02*
X154940000Y-73660000D01*
X154940000Y-73660000D02*
X156210000Y-72390000D01*
X156210000Y-72390000D02*
X187325000Y-72390000D01*
X129540000Y-77470000D02*
X130175000Y-78105000D01*
X130175000Y-78105000D02*
X153035000Y-78105000D01*
X129540000Y-77470000D02*
X129540000Y-74295000D01*
X153035000Y-78105000D02*
X153670000Y-78105000D01*
X163830000Y-99060000D02*
X167640000Y-99060000D01*
X167640000Y-102870000D02*
X163830000Y-102870000D01*
X121920000Y-111760000D02*
X142240000Y-111760000D01*
X142875000Y-112395000D02*
X144145000Y-112395000D01*
X142240000Y-111760000D02*
X142875000Y-112395000D01*
X158750000Y-102870000D02*
X152400000Y-102870000D01*
M02*
