G04 #@! TF.FileFunction,Copper,L1,Top,Signal*
%FSLAX46Y46*%
G04 Gerber Fmt 4.6, Leading zero omitted, Abs format (unit mm)*
G04 Created by KiCad (PCBNEW 4.0.5+dfsg1-4+deb9u1) date Tue Nov 15 17:13:48 2022*
%MOMM*%
%LPD*%
G01*
G04 APERTURE LIST*
%ADD10C,0.100000*%
%ADD11C,0.150000*%
%ADD12O,1.700000X1.700000*%
%ADD13R,1.700000X1.700000*%
%ADD14R,1.700000X3.500000*%
%ADD15R,3.500000X1.700000*%
%ADD16C,1.600000*%
%ADD17O,1.600000X1.600000*%
%ADD18R,3.000000X3.000000*%
%ADD19C,3.000000*%
%ADD20R,1.727200X2.032000*%
%ADD21O,1.727200X2.032000*%
%ADD22R,2.000000X2.000000*%
%ADD23C,2.000000*%
%ADD24R,2.200000X2.200000*%
%ADD25O,2.200000X2.200000*%
%ADD26O,5.080000X3.840000*%
%ADD27R,2.032000X2.032000*%
%ADD28O,2.032000X2.032000*%
%ADD29O,1.501140X0.899160*%
%ADD30O,1.200000X1.600000*%
%ADD31O,1.200000X1.200000*%
%ADD32C,0.800000*%
%ADD33C,0.600000*%
%ADD34C,1.000000*%
%ADD35C,0.250000*%
G04 APERTURE END LIST*
D10*
D11*
X193802000Y-68834000D02*
X193802000Y-128524000D01*
X96012000Y-68834000D02*
X193802000Y-68834000D01*
X96012000Y-128524000D02*
X96012000Y-68834000D01*
X193802000Y-128524000D02*
X96012000Y-128524000D01*
D12*
X191262000Y-85344000D03*
X188722000Y-85344000D03*
D13*
X186182000Y-85344000D03*
D12*
X183642000Y-85344000D03*
X181102000Y-85344000D03*
X178562000Y-85344000D03*
X176022000Y-85344000D03*
D13*
X173482000Y-85344000D03*
D12*
X170942000Y-85344000D03*
X168402000Y-85344000D03*
X165862000Y-85344000D03*
X163322000Y-85344000D03*
D13*
X160782000Y-85344000D03*
D12*
X158242000Y-85344000D03*
X155702000Y-85344000D03*
X153162000Y-85344000D03*
X150622000Y-85344000D03*
D13*
X148082000Y-85344000D03*
D12*
X145542000Y-85344000D03*
X143002000Y-85344000D03*
X143002000Y-103124000D03*
X145542000Y-103124000D03*
D13*
X148082000Y-103124000D03*
D12*
X150622000Y-103124000D03*
X153162000Y-103124000D03*
X155702000Y-103124000D03*
X158242000Y-103124000D03*
D13*
X160782000Y-103124000D03*
D12*
X163322000Y-103124000D03*
X165862000Y-103124000D03*
X168402000Y-103124000D03*
X170942000Y-103124000D03*
D13*
X173482000Y-103124000D03*
D12*
X176022000Y-103124000D03*
X178562000Y-103124000D03*
X181102000Y-103124000D03*
X183642000Y-103124000D03*
D13*
X186182000Y-103124000D03*
D12*
X188722000Y-103124000D03*
X191262000Y-103124000D03*
D14*
X191262000Y-84444000D03*
X188722000Y-84444000D03*
X186182000Y-84444000D03*
X183642000Y-84444000D03*
X181102000Y-84444000D03*
X178562000Y-84444000D03*
X176022000Y-84444000D03*
X173482000Y-84444000D03*
X170942000Y-84444000D03*
X168402000Y-84444000D03*
X165862000Y-84444000D03*
X163322000Y-84444000D03*
X160782000Y-84444000D03*
X158242000Y-84444000D03*
X155702000Y-84444000D03*
X153162000Y-84444000D03*
X150622000Y-84444000D03*
X148082000Y-84444000D03*
X145542000Y-84444000D03*
X143002000Y-84444000D03*
X191262000Y-104024000D03*
X188722000Y-104024000D03*
X186182000Y-104024000D03*
X183642000Y-104024000D03*
X181102000Y-104024000D03*
X178562000Y-104024000D03*
X176022000Y-104024000D03*
X173482000Y-104024000D03*
X170942000Y-104024000D03*
X168402000Y-104024000D03*
X165862000Y-104024000D03*
X163322000Y-104024000D03*
X160782000Y-104024000D03*
X158242000Y-104024000D03*
X155702000Y-104024000D03*
X153162000Y-104024000D03*
X150622000Y-104024000D03*
X148082000Y-104024000D03*
X145542000Y-104024000D03*
X143002000Y-104024000D03*
D15*
X142332000Y-91694000D03*
D12*
X143232000Y-91694000D03*
D15*
X142332000Y-94234000D03*
D13*
X143232000Y-94234000D03*
D15*
X142332000Y-96774000D03*
D12*
X143232000Y-96774000D03*
D16*
X146177000Y-75819000D03*
D17*
X151257000Y-75819000D03*
D18*
X99822000Y-100584000D03*
D19*
X99822000Y-95504000D03*
X99822000Y-90424000D03*
D20*
X184277000Y-71374000D03*
D21*
X181737000Y-71374000D03*
X179197000Y-71374000D03*
X176657000Y-71374000D03*
X174117000Y-71374000D03*
X171577000Y-71374000D03*
X169037000Y-71374000D03*
X166497000Y-71374000D03*
X163957000Y-71374000D03*
X161417000Y-71374000D03*
X158877000Y-71374000D03*
X156337000Y-71374000D03*
X153797000Y-71374000D03*
X151257000Y-71374000D03*
X148717000Y-71374000D03*
X146177000Y-71374000D03*
D22*
X109982000Y-86614000D03*
D23*
X109982000Y-81614000D03*
D16*
X180594000Y-76454000D03*
X185594000Y-76454000D03*
X122682000Y-99314000D03*
X122682000Y-94314000D03*
X191262000Y-109474000D03*
X186262000Y-109474000D03*
X117602000Y-89154000D03*
X117602000Y-84154000D03*
D24*
X127762000Y-80264000D03*
D25*
X117602000Y-80264000D03*
D24*
X108712000Y-103124000D03*
D25*
X116332000Y-103124000D03*
D26*
X106172000Y-73914000D03*
X112522000Y-73914000D03*
X122047000Y-73914000D03*
X128397000Y-73914000D03*
D18*
X99822000Y-84074000D03*
D19*
X99822000Y-78994000D03*
D18*
X99822000Y-117094000D03*
D19*
X99822000Y-112014000D03*
X99822000Y-106934000D03*
D27*
X141732000Y-72644000D03*
D28*
X141732000Y-75184000D03*
D27*
X137922000Y-72644000D03*
D28*
X137922000Y-75184000D03*
D27*
X135382000Y-72644000D03*
D28*
X135382000Y-75184000D03*
D19*
X112522000Y-124714000D03*
X132842000Y-124714000D03*
X127762000Y-124714000D03*
D18*
X137922000Y-124714000D03*
D19*
X122682000Y-124714000D03*
X117602000Y-124714000D03*
X107442000Y-124714000D03*
D16*
X116332000Y-112014000D03*
D17*
X116332000Y-106934000D03*
D16*
X116332000Y-94234000D03*
D17*
X116332000Y-99314000D03*
D16*
X109982000Y-112014000D03*
D17*
X109982000Y-106934000D03*
D16*
X128270000Y-99314000D03*
D17*
X128270000Y-94234000D03*
D16*
X165354000Y-80010000D03*
D17*
X160274000Y-80010000D03*
D16*
X135382000Y-112014000D03*
D17*
X135382000Y-106934000D03*
D16*
X180467000Y-80264000D03*
D17*
X185547000Y-80264000D03*
D16*
X151257000Y-80264000D03*
D17*
X146177000Y-80264000D03*
D29*
X108712000Y-95504000D03*
X108712000Y-96774000D03*
X108712000Y-94234000D03*
X135382000Y-98044000D03*
X135382000Y-96774000D03*
X135382000Y-99314000D03*
D30*
X173482000Y-76454000D03*
D31*
X172212000Y-77724000D03*
X173482000Y-78994000D03*
D16*
X165862000Y-113919000D03*
D17*
X165862000Y-108839000D03*
D16*
X162052000Y-113919000D03*
D17*
X162052000Y-108839000D03*
D16*
X158242000Y-113919000D03*
D17*
X158242000Y-108839000D03*
D16*
X154432000Y-113919000D03*
D17*
X154432000Y-108839000D03*
D16*
X150622000Y-113919000D03*
D17*
X150622000Y-108839000D03*
D16*
X145542000Y-113919000D03*
D17*
X145542000Y-108839000D03*
D16*
X131572000Y-89154000D03*
D17*
X136652000Y-89154000D03*
D16*
X131572000Y-85344000D03*
D17*
X136652000Y-85344000D03*
D16*
X165862000Y-124079000D03*
D17*
X165862000Y-118999000D03*
D16*
X162052000Y-124079000D03*
D17*
X162052000Y-118999000D03*
D16*
X158242000Y-124079000D03*
D17*
X158242000Y-118999000D03*
D16*
X154432000Y-124079000D03*
D17*
X154432000Y-118999000D03*
D16*
X150622000Y-124079000D03*
D17*
X150622000Y-118999000D03*
D16*
X145542000Y-124079000D03*
D17*
X145542000Y-118999000D03*
D16*
X122682000Y-89154000D03*
D17*
X127762000Y-89154000D03*
D16*
X122682000Y-85344000D03*
D17*
X127762000Y-85344000D03*
D32*
X149098000Y-100838000D03*
X186182000Y-100838000D03*
X173482000Y-100838000D03*
X160782000Y-100838000D03*
D33*
X159512000Y-89154000D03*
X170942000Y-80899000D03*
X176657000Y-80899000D03*
X167767000Y-73914000D03*
X171577000Y-73914000D03*
X169672000Y-91694000D03*
X183642000Y-91694000D03*
X181102000Y-90424000D03*
X167132000Y-90424000D03*
X164592000Y-89154000D03*
X178562000Y-89154000D03*
X162052000Y-87884000D03*
X176022000Y-87884000D03*
X148082000Y-95504000D03*
X148082000Y-99314000D03*
X163322000Y-95504000D03*
X146812000Y-106934000D03*
X146812000Y-94234000D03*
X191262000Y-94234000D03*
X145542000Y-92964000D03*
X188722000Y-92964000D03*
X143637000Y-106934000D03*
X112522000Y-116459000D03*
X132842000Y-118999000D03*
X127762000Y-118364000D03*
X122682000Y-117729000D03*
X117602000Y-117094000D03*
X107442000Y-115824000D03*
X165862000Y-91694000D03*
X146812000Y-91694000D03*
D34*
X117602000Y-89154000D02*
X119126000Y-89154000D01*
X121920000Y-80264000D02*
X127762000Y-80264000D01*
X120396000Y-81788000D02*
X121920000Y-80264000D01*
X120396000Y-87884000D02*
X120396000Y-81788000D01*
X119126000Y-89154000D02*
X120396000Y-87884000D01*
X181737000Y-71374000D02*
X181737000Y-69469000D01*
X181737000Y-71374000D02*
X181737000Y-75311000D01*
X181737000Y-75311000D02*
X180594000Y-76454000D01*
X148717000Y-69469000D02*
X149352000Y-69469000D01*
X149352000Y-69469000D02*
X181737000Y-69469000D01*
X193167000Y-109474000D02*
X193167000Y-76454000D01*
X186817000Y-70104000D02*
X186182000Y-69469000D01*
X186817000Y-75184000D02*
X186817000Y-75501500D01*
X186817000Y-75501500D02*
X186817000Y-70104000D01*
X187452000Y-75819000D02*
X186817000Y-75184000D01*
X188087000Y-75819000D02*
X187452000Y-75819000D01*
X192532000Y-75819000D02*
X188087000Y-75819000D01*
X193167000Y-76454000D02*
X192532000Y-75819000D01*
X181737000Y-69469000D02*
X184277000Y-69469000D01*
X186182000Y-69469000D02*
X184277000Y-69469000D01*
X109982000Y-112014000D02*
X109982000Y-122174000D01*
X109982000Y-122174000D02*
X109982000Y-127889000D01*
X135382000Y-112014000D02*
X135382000Y-127889000D01*
X109982000Y-86614000D02*
X108077000Y-86614000D01*
X97282000Y-87884000D02*
X96647000Y-88519000D01*
X106807000Y-87884000D02*
X97282000Y-87884000D01*
X108077000Y-86614000D02*
X106807000Y-87884000D01*
X193167000Y-109474000D02*
X191262000Y-109474000D01*
X191262000Y-103124000D02*
X191262000Y-109474000D01*
X122047000Y-73914000D02*
X128397000Y-73914000D01*
X148717000Y-71374000D02*
X148717000Y-69469000D01*
X148082000Y-69469000D02*
X148717000Y-69469000D01*
X128397000Y-70104000D02*
X129032000Y-69469000D01*
X129032000Y-69469000D02*
X148082000Y-69469000D01*
X128397000Y-73914000D02*
X128397000Y-70104000D01*
X96647000Y-120904000D02*
X97282000Y-121539000D01*
X96647000Y-88519000D02*
X96647000Y-120904000D01*
X103632000Y-127889000D02*
X109982000Y-127889000D01*
X109982000Y-127889000D02*
X135382000Y-127889000D01*
X135382000Y-127889000D02*
X145542000Y-127889000D01*
X102997000Y-127254000D02*
X103632000Y-127889000D01*
X102997000Y-122174000D02*
X102997000Y-127254000D01*
X102362000Y-121539000D02*
X102997000Y-122174000D01*
X97282000Y-121539000D02*
X102362000Y-121539000D01*
X193167000Y-120904000D02*
X193167000Y-109474000D01*
X192532000Y-121539000D02*
X193167000Y-120904000D01*
X187452000Y-121539000D02*
X192532000Y-121539000D01*
X186817000Y-122174000D02*
X187452000Y-121539000D01*
X186817000Y-127254000D02*
X186817000Y-122174000D01*
X127762000Y-80264000D02*
X127762000Y-74549000D01*
X127762000Y-74549000D02*
X128397000Y-73914000D01*
X145542000Y-127889000D02*
X147447000Y-127889000D01*
X186182000Y-127889000D02*
X186817000Y-127254000D01*
X185594000Y-76454000D02*
X185594000Y-80217000D01*
X185594000Y-80217000D02*
X185547000Y-80264000D01*
X184277000Y-71374000D02*
X184277000Y-75137000D01*
X184277000Y-75137000D02*
X185594000Y-76454000D01*
X149098000Y-100838000D02*
X149352000Y-100838000D01*
X149352000Y-100584000D02*
X149352000Y-100838000D01*
X148082000Y-103124000D02*
X148082000Y-101854000D01*
X148082000Y-101854000D02*
X149352000Y-100584000D01*
X149352000Y-100838000D02*
X149352000Y-98044000D01*
X148082000Y-87249000D02*
X148082000Y-85344000D01*
X149352000Y-88519000D02*
X148082000Y-87249000D01*
X149352000Y-98044000D02*
X149352000Y-88519000D01*
X160782000Y-103124000D02*
X160782000Y-100838000D01*
X160782000Y-85344000D02*
X160782000Y-100838000D01*
X186182000Y-85344000D02*
X186182000Y-100838000D01*
X186182000Y-100838000D02*
X186182000Y-103124000D01*
X173482000Y-85344000D02*
X173482000Y-100838000D01*
X173482000Y-100838000D02*
X173482000Y-103124000D01*
X173482000Y-78994000D02*
X173482000Y-85344000D01*
X109982000Y-81614000D02*
X109902000Y-81614000D01*
X117602000Y-84154000D02*
X117602000Y-80264000D01*
X99822000Y-84074000D02*
X103632000Y-84074000D01*
X103632000Y-84074000D02*
X104902000Y-84074000D01*
X104902000Y-84074000D02*
X106172000Y-82804000D01*
X106172000Y-82804000D02*
X106172000Y-73914000D01*
D35*
X109982000Y-106934000D02*
X105537000Y-106934000D01*
X105537000Y-95504000D02*
X104902000Y-96139000D01*
X104902000Y-96139000D02*
X104902000Y-105029000D01*
X108712000Y-95504000D02*
X105537000Y-95504000D01*
X105537000Y-106934000D02*
X104902000Y-106299000D01*
X104902000Y-106299000D02*
X104902000Y-105029000D01*
X159512000Y-81534000D02*
X159512000Y-89154000D01*
X160147000Y-80899000D02*
X159512000Y-81534000D01*
X160147000Y-80137000D02*
X160147000Y-80899000D01*
X160274000Y-80010000D02*
X160147000Y-80137000D01*
X109855000Y-106807000D02*
X109982000Y-106934000D01*
X176657000Y-71374000D02*
X176657000Y-80899000D01*
X170942000Y-80899000D02*
X170942000Y-85344000D01*
X171577000Y-71374000D02*
X171577000Y-73914000D01*
X168402000Y-81534000D02*
X168402000Y-85344000D01*
X167767000Y-80899000D02*
X168402000Y-81534000D01*
X167767000Y-73914000D02*
X167767000Y-80899000D01*
X183642000Y-85344000D02*
X183642000Y-91694000D01*
X169037000Y-80899000D02*
X169672000Y-81534000D01*
X169672000Y-81534000D02*
X169672000Y-87249000D01*
X169037000Y-80899000D02*
X169037000Y-70739000D01*
X169672000Y-91694000D02*
X169672000Y-87249000D01*
X167132000Y-87884000D02*
X167132000Y-90424000D01*
X166497000Y-80899000D02*
X167132000Y-81534000D01*
X167132000Y-81534000D02*
X167132000Y-87884000D01*
X166497000Y-71374000D02*
X166497000Y-80899000D01*
X181102000Y-90424000D02*
X181102000Y-85344000D01*
X178562000Y-85344000D02*
X178562000Y-89154000D01*
X164592000Y-89154000D02*
X164592000Y-87249000D01*
X163957000Y-71374000D02*
X163957000Y-80899000D01*
X164592000Y-81534000D02*
X164592000Y-87249000D01*
X164592000Y-87249000D02*
X164592000Y-87884000D01*
X163957000Y-80899000D02*
X164592000Y-81534000D01*
X176022000Y-85344000D02*
X176022000Y-87884000D01*
X161417000Y-80899000D02*
X162052000Y-81534000D01*
X162052000Y-81534000D02*
X162052000Y-87884000D01*
X161417000Y-80899000D02*
X161417000Y-71374000D01*
X158877000Y-71374000D02*
X158877000Y-80899000D01*
X158242000Y-81534000D02*
X158242000Y-85344000D01*
X158877000Y-80899000D02*
X158242000Y-81534000D01*
X156337000Y-71374000D02*
X156337000Y-80899000D01*
X155702000Y-81534000D02*
X155702000Y-85344000D01*
X156337000Y-80899000D02*
X155702000Y-81534000D01*
X153797000Y-71374000D02*
X153797000Y-80899000D01*
X153162000Y-81534000D02*
X153162000Y-85344000D01*
X153797000Y-80899000D02*
X153162000Y-81534000D01*
X153797000Y-72009000D02*
X153797000Y-72009000D01*
X153162000Y-82804000D02*
X153162000Y-85979000D01*
X151257000Y-71374000D02*
X151257000Y-73279000D01*
X149352000Y-81534000D02*
X150622000Y-82804000D01*
X148717000Y-80899000D02*
X149352000Y-81534000D01*
X148717000Y-74549000D02*
X148717000Y-80899000D01*
X149352000Y-73914000D02*
X148717000Y-74549000D01*
X150622000Y-73914000D02*
X149352000Y-73914000D01*
X151257000Y-73279000D02*
X150622000Y-73914000D01*
X150622000Y-82804000D02*
X150622000Y-85344000D01*
X150622000Y-82804000D02*
X150622000Y-85344000D01*
X163322000Y-85344000D02*
X163322000Y-95504000D01*
X148082000Y-99314000D02*
X148082000Y-95504000D01*
X135382000Y-99314000D02*
X135382000Y-106934000D01*
X146177000Y-80264000D02*
X146177000Y-80899000D01*
X146177000Y-80899000D02*
X145542000Y-81534000D01*
X145542000Y-81534000D02*
X145542000Y-85344000D01*
X165354000Y-80010000D02*
X165354000Y-81026000D01*
X165862000Y-81534000D02*
X165862000Y-85344000D01*
X165354000Y-81026000D02*
X165862000Y-81534000D01*
X116332000Y-106934000D02*
X122047000Y-106934000D01*
X122682000Y-106299000D02*
X122682000Y-105664000D01*
X122047000Y-106934000D02*
X122682000Y-106299000D01*
X116332000Y-103124000D02*
X116332000Y-106934000D01*
X122682000Y-99314000D02*
X122682000Y-105410000D01*
X122682000Y-105410000D02*
X122682000Y-105664000D01*
X146812000Y-94234000D02*
X146812000Y-106934000D01*
X191262000Y-85344000D02*
X191262000Y-94234000D01*
X145542000Y-92964000D02*
X145542000Y-100584000D01*
X145542000Y-100584000D02*
X144907000Y-101219000D01*
X144907000Y-101219000D02*
X144272000Y-101854000D01*
X144272000Y-101854000D02*
X144272000Y-106299000D01*
X188722000Y-92964000D02*
X188722000Y-85344000D01*
X143637000Y-106934000D02*
X144272000Y-106299000D01*
X99822000Y-100584000D02*
X103632000Y-100584000D01*
X104902000Y-108839000D02*
X112522000Y-108839000D01*
X104267000Y-108204000D02*
X104902000Y-108839000D01*
X104267000Y-101219000D02*
X104267000Y-108204000D01*
X103632000Y-100584000D02*
X104267000Y-101219000D01*
X116332000Y-112014000D02*
X113157000Y-112014000D01*
X112522000Y-111379000D02*
X112522000Y-110744000D01*
X113157000Y-112014000D02*
X112522000Y-111379000D01*
X108712000Y-96774000D02*
X111887000Y-96774000D01*
X112522000Y-97409000D02*
X112522000Y-98044000D01*
X111887000Y-96774000D02*
X112522000Y-97409000D01*
X112522000Y-98298000D02*
X112522000Y-98044000D01*
X112522000Y-110490000D02*
X112522000Y-108839000D01*
X112522000Y-108839000D02*
X112522000Y-98298000D01*
X112522000Y-110744000D02*
X112522000Y-110490000D01*
X112522000Y-116459000D02*
X112522000Y-124714000D01*
X162052000Y-118999000D02*
X162052000Y-113919000D01*
X132842000Y-118999000D02*
X132842000Y-124714000D01*
X145542000Y-118999000D02*
X145542000Y-113919000D01*
X127762000Y-124714000D02*
X127762000Y-118364000D01*
X150622000Y-113919000D02*
X150622000Y-118999000D01*
X122682000Y-117729000D02*
X122682000Y-124714000D01*
X154432000Y-118999000D02*
X154432000Y-113919000D01*
X117602000Y-124714000D02*
X117602000Y-117094000D01*
X158242000Y-113919000D02*
X158242000Y-118999000D01*
X107442000Y-124714000D02*
X107442000Y-115824000D01*
X165862000Y-113919000D02*
X165862000Y-118999000D01*
X134112000Y-86614000D02*
X134112000Y-87884000D01*
X133477000Y-89154000D02*
X131572000Y-89154000D01*
X134112000Y-88519000D02*
X133477000Y-89154000D01*
X134112000Y-87884000D02*
X134112000Y-88519000D01*
X137922000Y-75184000D02*
X137922000Y-79629000D01*
X134747000Y-80264000D02*
X134112000Y-80899000D01*
X137287000Y-80264000D02*
X134747000Y-80264000D01*
X137922000Y-79629000D02*
X137287000Y-80264000D01*
X134112000Y-80899000D02*
X134112000Y-86614000D01*
X131572000Y-85344000D02*
X131572000Y-79502000D01*
X135382000Y-78232000D02*
X135382000Y-75184000D01*
X134874000Y-78740000D02*
X135382000Y-78232000D01*
X132334000Y-78740000D02*
X134874000Y-78740000D01*
X131572000Y-79502000D02*
X132334000Y-78740000D01*
X180467000Y-80264000D02*
X179832000Y-80264000D01*
X179197000Y-79629000D02*
X179197000Y-71374000D01*
X179832000Y-80264000D02*
X179197000Y-79629000D01*
X146177000Y-71374000D02*
X146177000Y-75819000D01*
X165862000Y-108839000D02*
X165227000Y-108839000D01*
X165227000Y-108839000D02*
X163322000Y-106934000D01*
X163322000Y-106934000D02*
X163322000Y-103124000D01*
X162052000Y-108839000D02*
X161417000Y-108839000D01*
X161417000Y-108839000D02*
X158242000Y-105664000D01*
X158242000Y-105664000D02*
X158242000Y-103124000D01*
X158242000Y-108839000D02*
X157607000Y-108839000D01*
X157607000Y-108839000D02*
X155702000Y-106934000D01*
X155702000Y-106934000D02*
X155702000Y-103124000D01*
X154432000Y-108839000D02*
X154432000Y-108204000D01*
X154432000Y-108204000D02*
X153162000Y-106934000D01*
X153162000Y-106934000D02*
X153162000Y-103124000D01*
X150622000Y-108839000D02*
X150622000Y-103124000D01*
X145542000Y-108839000D02*
X145542000Y-103124000D01*
X139446000Y-102870000D02*
X139700000Y-103124000D01*
X138430000Y-89154000D02*
X138938000Y-89662000D01*
X138938000Y-89662000D02*
X138938000Y-102362000D01*
X138938000Y-102362000D02*
X139446000Y-102870000D01*
X136652000Y-89154000D02*
X138430000Y-89154000D01*
X139700000Y-103124000D02*
X143002000Y-103124000D01*
X144272000Y-87884000D02*
X144907000Y-88519000D01*
X141732000Y-77724000D02*
X142367000Y-78359000D01*
X142367000Y-78359000D02*
X143002000Y-78359000D01*
X143002000Y-78359000D02*
X143637000Y-78359000D01*
X143637000Y-78359000D02*
X144272000Y-78994000D01*
X144272000Y-78994000D02*
X144272000Y-87884000D01*
X141732000Y-75184000D02*
X141732000Y-77724000D01*
X165862000Y-91694000D02*
X165862000Y-103124000D01*
X146812000Y-89154000D02*
X146812000Y-91694000D01*
X146177000Y-88519000D02*
X146812000Y-89154000D01*
X144907000Y-88519000D02*
X146177000Y-88519000D01*
D34*
X122682000Y-89154000D02*
X125476000Y-91948000D01*
X142748000Y-121285000D02*
X145542000Y-124079000D01*
X142748000Y-110744000D02*
X142748000Y-121285000D01*
X141224000Y-109220000D02*
X142748000Y-110744000D01*
X128016000Y-109220000D02*
X141224000Y-109220000D01*
X125476000Y-106680000D02*
X128016000Y-109220000D01*
X125476000Y-101600000D02*
X125476000Y-106680000D01*
X125476000Y-91948000D02*
X125476000Y-101600000D01*
X147447000Y-127889000D02*
X150622000Y-127889000D01*
X150622000Y-127889000D02*
X154432000Y-127889000D01*
X154432000Y-127889000D02*
X158242000Y-127889000D01*
X158242000Y-127889000D02*
X162052000Y-127889000D01*
X162052000Y-127889000D02*
X165862000Y-127889000D01*
X165862000Y-127889000D02*
X186182000Y-127889000D01*
X122682000Y-85344000D02*
X122682000Y-89154000D01*
M02*
