G04 #@! TF.FileFunction,Copper,L2,Bot,Signal*
%FSLAX46Y46*%
G04 Gerber Fmt 4.6, Leading zero omitted, Abs format (unit mm)*
G04 Created by KiCad (PCBNEW 4.0.5+dfsg1-4+deb9u1) date Tue Nov 15 17:13:48 2022*
%MOMM*%
%LPD*%
G01*
G04 APERTURE LIST*
%ADD10C,0.100000*%
%ADD11C,0.150000*%
%ADD12C,0.300000*%
%ADD13O,1.700000X1.700000*%
%ADD14R,1.700000X1.700000*%
%ADD15C,1.600000*%
%ADD16O,1.600000X1.600000*%
%ADD17R,3.000000X3.000000*%
%ADD18C,3.000000*%
%ADD19R,1.727200X2.032000*%
%ADD20O,1.727200X2.032000*%
%ADD21R,2.000000X2.000000*%
%ADD22C,2.000000*%
%ADD23R,2.200000X2.200000*%
%ADD24O,2.200000X2.200000*%
%ADD25O,5.080000X3.840000*%
%ADD26R,2.032000X2.032000*%
%ADD27O,2.032000X2.032000*%
%ADD28O,1.501140X0.899160*%
%ADD29O,1.200000X1.600000*%
%ADD30O,1.200000X1.200000*%
%ADD31C,0.800000*%
%ADD32C,0.600000*%
%ADD33C,1.000000*%
%ADD34C,0.250000*%
G04 APERTURE END LIST*
D10*
D11*
X164821524Y-75001381D02*
X164821524Y-74001381D01*
X164583429Y-74001381D01*
X164440571Y-74049000D01*
X164345333Y-74144238D01*
X164297714Y-74239476D01*
X164250095Y-74429952D01*
X164250095Y-74572810D01*
X164297714Y-74763286D01*
X164345333Y-74858524D01*
X164440571Y-74953762D01*
X164583429Y-75001381D01*
X164821524Y-75001381D01*
X163821524Y-75001381D02*
X163821524Y-74001381D01*
X163250095Y-75001381D01*
X163250095Y-74001381D01*
X162773905Y-74906143D02*
X162726286Y-74953762D01*
X162773905Y-75001381D01*
X162821524Y-74953762D01*
X162773905Y-74906143D01*
X162773905Y-75001381D01*
X162773905Y-74382333D02*
X162726286Y-74429952D01*
X162773905Y-74477571D01*
X162821524Y-74429952D01*
X162773905Y-74382333D01*
X162773905Y-74477571D01*
X161059619Y-74001381D02*
X161535810Y-74001381D01*
X161583429Y-74477571D01*
X161535810Y-74429952D01*
X161440572Y-74382333D01*
X161202476Y-74382333D01*
X161107238Y-74429952D01*
X161059619Y-74477571D01*
X161012000Y-74572810D01*
X161012000Y-74810905D01*
X161059619Y-74906143D01*
X161107238Y-74953762D01*
X161202476Y-75001381D01*
X161440572Y-75001381D01*
X161535810Y-74953762D01*
X161583429Y-74906143D01*
X160535810Y-75001381D02*
X160345334Y-75001381D01*
X160250095Y-74953762D01*
X160202476Y-74906143D01*
X160107238Y-74763286D01*
X160059619Y-74572810D01*
X160059619Y-74191857D01*
X160107238Y-74096619D01*
X160154857Y-74049000D01*
X160250095Y-74001381D01*
X160440572Y-74001381D01*
X160535810Y-74049000D01*
X160583429Y-74096619D01*
X160631048Y-74191857D01*
X160631048Y-74429952D01*
X160583429Y-74525190D01*
X160535810Y-74572810D01*
X160440572Y-74620429D01*
X160250095Y-74620429D01*
X160154857Y-74572810D01*
X160107238Y-74525190D01*
X160059619Y-74429952D01*
X158916762Y-73953762D02*
X159773905Y-75239476D01*
X158631048Y-74096619D02*
X158583429Y-74049000D01*
X158488191Y-74001381D01*
X158250095Y-74001381D01*
X158154857Y-74049000D01*
X158107238Y-74096619D01*
X158059619Y-74191857D01*
X158059619Y-74287095D01*
X158107238Y-74429952D01*
X158678667Y-75001381D01*
X158059619Y-75001381D01*
X157678667Y-74096619D02*
X157631048Y-74049000D01*
X157535810Y-74001381D01*
X157297714Y-74001381D01*
X157202476Y-74049000D01*
X157154857Y-74096619D01*
X157107238Y-74191857D01*
X157107238Y-74287095D01*
X157154857Y-74429952D01*
X157726286Y-75001381D01*
X157107238Y-75001381D01*
X155964381Y-73953762D02*
X156821524Y-75239476D01*
X155440572Y-74001381D02*
X155345333Y-74001381D01*
X155250095Y-74049000D01*
X155202476Y-74096619D01*
X155154857Y-74191857D01*
X155107238Y-74382333D01*
X155107238Y-74620429D01*
X155154857Y-74810905D01*
X155202476Y-74906143D01*
X155250095Y-74953762D01*
X155345333Y-75001381D01*
X155440572Y-75001381D01*
X155535810Y-74953762D01*
X155583429Y-74906143D01*
X155631048Y-74810905D01*
X155678667Y-74620429D01*
X155678667Y-74382333D01*
X155631048Y-74191857D01*
X155583429Y-74096619D01*
X155535810Y-74049000D01*
X155440572Y-74001381D01*
X154773905Y-74001381D02*
X154154857Y-74001381D01*
X154488191Y-74382333D01*
X154345333Y-74382333D01*
X154250095Y-74429952D01*
X154202476Y-74477571D01*
X154154857Y-74572810D01*
X154154857Y-74810905D01*
X154202476Y-74906143D01*
X154250095Y-74953762D01*
X154345333Y-75001381D01*
X154631048Y-75001381D01*
X154726286Y-74953762D01*
X154773905Y-74906143D01*
D12*
X157638428Y-97365429D02*
X157566999Y-97294000D01*
X157424142Y-97222571D01*
X157066999Y-97222571D01*
X156924142Y-97294000D01*
X156852713Y-97365429D01*
X156781285Y-97508286D01*
X156781285Y-97651143D01*
X156852713Y-97865429D01*
X157709856Y-98722571D01*
X156781285Y-98722571D01*
X155852714Y-97222571D02*
X155709857Y-97222571D01*
X155567000Y-97294000D01*
X155495571Y-97365429D01*
X155424142Y-97508286D01*
X155352714Y-97794000D01*
X155352714Y-98151143D01*
X155424142Y-98436857D01*
X155495571Y-98579714D01*
X155567000Y-98651143D01*
X155709857Y-98722571D01*
X155852714Y-98722571D01*
X155995571Y-98651143D01*
X156067000Y-98579714D01*
X156138428Y-98436857D01*
X156209857Y-98151143D01*
X156209857Y-97794000D01*
X156138428Y-97508286D01*
X156067000Y-97365429D01*
X155995571Y-97294000D01*
X155852714Y-97222571D01*
X154781286Y-97365429D02*
X154709857Y-97294000D01*
X154567000Y-97222571D01*
X154209857Y-97222571D01*
X154067000Y-97294000D01*
X153995571Y-97365429D01*
X153924143Y-97508286D01*
X153924143Y-97651143D01*
X153995571Y-97865429D01*
X154852714Y-98722571D01*
X153924143Y-98722571D01*
X153352715Y-97365429D02*
X153281286Y-97294000D01*
X153138429Y-97222571D01*
X152781286Y-97222571D01*
X152638429Y-97294000D01*
X152567000Y-97365429D01*
X152495572Y-97508286D01*
X152495572Y-97651143D01*
X152567000Y-97865429D01*
X153424143Y-98722571D01*
X152495572Y-98722571D01*
X189037859Y-98468571D02*
X189037859Y-96968571D01*
X188395002Y-98468571D02*
X188395002Y-97682857D01*
X188466431Y-97540000D01*
X188609288Y-97468571D01*
X188823573Y-97468571D01*
X188966431Y-97540000D01*
X189037859Y-97611429D01*
X187895002Y-97468571D02*
X187323573Y-97468571D01*
X187680716Y-96968571D02*
X187680716Y-98254286D01*
X187609288Y-98397143D01*
X187466430Y-98468571D01*
X187323573Y-98468571D01*
X187037859Y-97468571D02*
X186466430Y-97468571D01*
X186823573Y-96968571D02*
X186823573Y-98254286D01*
X186752145Y-98397143D01*
X186609287Y-98468571D01*
X186466430Y-98468571D01*
X185966430Y-97468571D02*
X185966430Y-98968571D01*
X185966430Y-97540000D02*
X185823573Y-97468571D01*
X185537859Y-97468571D01*
X185395002Y-97540000D01*
X185323573Y-97611429D01*
X185252144Y-97754286D01*
X185252144Y-98182857D01*
X185323573Y-98325714D01*
X185395002Y-98397143D01*
X185537859Y-98468571D01*
X185823573Y-98468571D01*
X185966430Y-98397143D01*
X184609287Y-98325714D02*
X184537859Y-98397143D01*
X184609287Y-98468571D01*
X184680716Y-98397143D01*
X184609287Y-98325714D01*
X184609287Y-98468571D01*
X184609287Y-97540000D02*
X184537859Y-97611429D01*
X184609287Y-97682857D01*
X184680716Y-97611429D01*
X184609287Y-97540000D01*
X184609287Y-97682857D01*
X182823573Y-96897143D02*
X184109287Y-98825714D01*
X181252144Y-96897143D02*
X182537858Y-98825714D01*
X180895000Y-97468571D02*
X180609286Y-98468571D01*
X180323572Y-97754286D01*
X180037857Y-98468571D01*
X179752143Y-97468571D01*
X179323571Y-97468571D02*
X179037857Y-98468571D01*
X178752143Y-97754286D01*
X178466428Y-98468571D01*
X178180714Y-97468571D01*
X177752142Y-97468571D02*
X177466428Y-98468571D01*
X177180714Y-97754286D01*
X176894999Y-98468571D01*
X176609285Y-97468571D01*
X176037856Y-98325714D02*
X175966428Y-98397143D01*
X176037856Y-98468571D01*
X176109285Y-98397143D01*
X176037856Y-98325714D01*
X176037856Y-98468571D01*
X175323570Y-97468571D02*
X175323570Y-98968571D01*
X175323570Y-97540000D02*
X175180713Y-97468571D01*
X174894999Y-97468571D01*
X174752142Y-97540000D01*
X174680713Y-97611429D01*
X174609284Y-97754286D01*
X174609284Y-98182857D01*
X174680713Y-98325714D01*
X174752142Y-98397143D01*
X174894999Y-98468571D01*
X175180713Y-98468571D01*
X175323570Y-98397143D01*
X173752141Y-98468571D02*
X173894999Y-98397143D01*
X173966427Y-98325714D01*
X174037856Y-98182857D01*
X174037856Y-97754286D01*
X173966427Y-97611429D01*
X173894999Y-97540000D01*
X173752141Y-97468571D01*
X173537856Y-97468571D01*
X173394999Y-97540000D01*
X173323570Y-97611429D01*
X173252141Y-97754286D01*
X173252141Y-98182857D01*
X173323570Y-98325714D01*
X173394999Y-98397143D01*
X173537856Y-98468571D01*
X173752141Y-98468571D01*
X172752141Y-97468571D02*
X171966427Y-97468571D01*
X172752141Y-98468571D01*
X171966427Y-98468571D01*
X171466427Y-98397143D02*
X171323570Y-98468571D01*
X171037855Y-98468571D01*
X170894998Y-98397143D01*
X170823570Y-98254286D01*
X170823570Y-98182857D01*
X170894998Y-98040000D01*
X171037855Y-97968571D01*
X171252141Y-97968571D01*
X171394998Y-97897143D01*
X171466427Y-97754286D01*
X171466427Y-97682857D01*
X171394998Y-97540000D01*
X171252141Y-97468571D01*
X171037855Y-97468571D01*
X170894998Y-97540000D01*
X169537855Y-98468571D02*
X169537855Y-97682857D01*
X169609284Y-97540000D01*
X169752141Y-97468571D01*
X170037855Y-97468571D01*
X170180712Y-97540000D01*
X169537855Y-98397143D02*
X169680712Y-98468571D01*
X170037855Y-98468571D01*
X170180712Y-98397143D01*
X170252141Y-98254286D01*
X170252141Y-98111429D01*
X170180712Y-97968571D01*
X170037855Y-97897143D01*
X169680712Y-97897143D01*
X169537855Y-97825714D01*
X168823569Y-98468571D02*
X168823569Y-97468571D01*
X168823569Y-97754286D02*
X168752141Y-97611429D01*
X168680712Y-97540000D01*
X168537855Y-97468571D01*
X168394998Y-97468571D01*
X168037855Y-97468571D02*
X167252141Y-97468571D01*
X168037855Y-98468571D01*
X167252141Y-98468571D01*
X166752141Y-98397143D02*
X166609284Y-98468571D01*
X166323569Y-98468571D01*
X166180712Y-98397143D01*
X166109284Y-98254286D01*
X166109284Y-98182857D01*
X166180712Y-98040000D01*
X166323569Y-97968571D01*
X166537855Y-97968571D01*
X166680712Y-97897143D01*
X166752141Y-97754286D01*
X166752141Y-97682857D01*
X166680712Y-97540000D01*
X166537855Y-97468571D01*
X166323569Y-97468571D01*
X166180712Y-97540000D01*
X165466426Y-98325714D02*
X165394998Y-98397143D01*
X165466426Y-98468571D01*
X165537855Y-98397143D01*
X165466426Y-98325714D01*
X165466426Y-98468571D01*
X164752140Y-98468571D02*
X164752140Y-96968571D01*
X164109283Y-98468571D02*
X164109283Y-97682857D01*
X164180712Y-97540000D01*
X164323569Y-97468571D01*
X164537854Y-97468571D01*
X164680712Y-97540000D01*
X164752140Y-97611429D01*
X162752140Y-97468571D02*
X162752140Y-98468571D01*
X163394997Y-97468571D02*
X163394997Y-98254286D01*
X163323569Y-98397143D01*
X163180711Y-98468571D01*
X162966426Y-98468571D01*
X162823569Y-98397143D01*
X162752140Y-98325714D01*
D11*
X193802000Y-68834000D02*
X193802000Y-128524000D01*
X96012000Y-68834000D02*
X193802000Y-68834000D01*
X96012000Y-128524000D02*
X96012000Y-68834000D01*
X193802000Y-128524000D02*
X96012000Y-128524000D01*
D13*
X191262000Y-85344000D03*
X188722000Y-85344000D03*
D14*
X186182000Y-85344000D03*
D13*
X183642000Y-85344000D03*
X181102000Y-85344000D03*
X178562000Y-85344000D03*
X176022000Y-85344000D03*
D14*
X173482000Y-85344000D03*
D13*
X170942000Y-85344000D03*
X168402000Y-85344000D03*
X165862000Y-85344000D03*
X163322000Y-85344000D03*
D14*
X160782000Y-85344000D03*
D13*
X158242000Y-85344000D03*
X155702000Y-85344000D03*
X153162000Y-85344000D03*
X150622000Y-85344000D03*
D14*
X148082000Y-85344000D03*
D13*
X145542000Y-85344000D03*
X143002000Y-85344000D03*
X143002000Y-103124000D03*
X145542000Y-103124000D03*
D14*
X148082000Y-103124000D03*
D13*
X150622000Y-103124000D03*
X153162000Y-103124000D03*
X155702000Y-103124000D03*
X158242000Y-103124000D03*
D14*
X160782000Y-103124000D03*
D13*
X163322000Y-103124000D03*
X165862000Y-103124000D03*
X168402000Y-103124000D03*
X170942000Y-103124000D03*
D14*
X173482000Y-103124000D03*
D13*
X176022000Y-103124000D03*
X178562000Y-103124000D03*
X181102000Y-103124000D03*
X183642000Y-103124000D03*
D14*
X186182000Y-103124000D03*
D13*
X188722000Y-103124000D03*
X191262000Y-103124000D03*
X143232000Y-91694000D03*
D14*
X143232000Y-94234000D03*
D13*
X143232000Y-96774000D03*
D15*
X146177000Y-75819000D03*
D16*
X151257000Y-75819000D03*
D17*
X99822000Y-100584000D03*
D18*
X99822000Y-95504000D03*
X99822000Y-90424000D03*
D19*
X184277000Y-71374000D03*
D20*
X181737000Y-71374000D03*
X179197000Y-71374000D03*
X176657000Y-71374000D03*
X174117000Y-71374000D03*
X171577000Y-71374000D03*
X169037000Y-71374000D03*
X166497000Y-71374000D03*
X163957000Y-71374000D03*
X161417000Y-71374000D03*
X158877000Y-71374000D03*
X156337000Y-71374000D03*
X153797000Y-71374000D03*
X151257000Y-71374000D03*
X148717000Y-71374000D03*
X146177000Y-71374000D03*
D21*
X109982000Y-86614000D03*
D22*
X109982000Y-81614000D03*
D15*
X180594000Y-76454000D03*
X185594000Y-76454000D03*
X122682000Y-99314000D03*
X122682000Y-94314000D03*
X191262000Y-109474000D03*
X186262000Y-109474000D03*
X117602000Y-89154000D03*
X117602000Y-84154000D03*
D23*
X127762000Y-80264000D03*
D24*
X117602000Y-80264000D03*
D23*
X108712000Y-103124000D03*
D24*
X116332000Y-103124000D03*
D25*
X106172000Y-73914000D03*
X112522000Y-73914000D03*
X122047000Y-73914000D03*
X128397000Y-73914000D03*
D17*
X99822000Y-84074000D03*
D18*
X99822000Y-78994000D03*
D17*
X99822000Y-117094000D03*
D18*
X99822000Y-112014000D03*
X99822000Y-106934000D03*
D26*
X141732000Y-72644000D03*
D27*
X141732000Y-75184000D03*
D26*
X137922000Y-72644000D03*
D27*
X137922000Y-75184000D03*
D26*
X135382000Y-72644000D03*
D27*
X135382000Y-75184000D03*
D18*
X112522000Y-124714000D03*
X132842000Y-124714000D03*
X127762000Y-124714000D03*
D17*
X137922000Y-124714000D03*
D18*
X122682000Y-124714000D03*
X117602000Y-124714000D03*
X107442000Y-124714000D03*
D15*
X116332000Y-112014000D03*
D16*
X116332000Y-106934000D03*
D15*
X116332000Y-94234000D03*
D16*
X116332000Y-99314000D03*
D15*
X109982000Y-112014000D03*
D16*
X109982000Y-106934000D03*
D15*
X128270000Y-99314000D03*
D16*
X128270000Y-94234000D03*
D15*
X165354000Y-80010000D03*
D16*
X160274000Y-80010000D03*
D15*
X135382000Y-112014000D03*
D16*
X135382000Y-106934000D03*
D15*
X180467000Y-80264000D03*
D16*
X185547000Y-80264000D03*
D15*
X151257000Y-80264000D03*
D16*
X146177000Y-80264000D03*
D28*
X108712000Y-95504000D03*
X108712000Y-96774000D03*
X108712000Y-94234000D03*
X135382000Y-98044000D03*
X135382000Y-96774000D03*
X135382000Y-99314000D03*
D29*
X173482000Y-76454000D03*
D30*
X172212000Y-77724000D03*
X173482000Y-78994000D03*
D15*
X165862000Y-113919000D03*
D16*
X165862000Y-108839000D03*
D15*
X162052000Y-113919000D03*
D16*
X162052000Y-108839000D03*
D15*
X158242000Y-113919000D03*
D16*
X158242000Y-108839000D03*
D15*
X154432000Y-113919000D03*
D16*
X154432000Y-108839000D03*
D15*
X150622000Y-113919000D03*
D16*
X150622000Y-108839000D03*
D15*
X145542000Y-113919000D03*
D16*
X145542000Y-108839000D03*
D15*
X131572000Y-89154000D03*
D16*
X136652000Y-89154000D03*
D15*
X131572000Y-85344000D03*
D16*
X136652000Y-85344000D03*
D15*
X165862000Y-124079000D03*
D16*
X165862000Y-118999000D03*
D15*
X162052000Y-124079000D03*
D16*
X162052000Y-118999000D03*
D15*
X158242000Y-124079000D03*
D16*
X158242000Y-118999000D03*
D15*
X154432000Y-124079000D03*
D16*
X154432000Y-118999000D03*
D15*
X150622000Y-124079000D03*
D16*
X150622000Y-118999000D03*
D15*
X145542000Y-124079000D03*
D16*
X145542000Y-118999000D03*
D15*
X122682000Y-89154000D03*
D16*
X127762000Y-89154000D03*
D15*
X122682000Y-85344000D03*
D16*
X127762000Y-85344000D03*
D31*
X149098000Y-100838000D03*
X186182000Y-100838000D03*
X173482000Y-100838000D03*
X160782000Y-100838000D03*
D32*
X159512000Y-89154000D03*
X170942000Y-80899000D03*
X176657000Y-80899000D03*
X167767000Y-73914000D03*
X171577000Y-73914000D03*
X169672000Y-91694000D03*
X183642000Y-91694000D03*
X181102000Y-90424000D03*
X167132000Y-90424000D03*
X164592000Y-89154000D03*
X178562000Y-89154000D03*
X162052000Y-87884000D03*
X176022000Y-87884000D03*
X148082000Y-95504000D03*
X148082000Y-99314000D03*
X163322000Y-95504000D03*
X146812000Y-106934000D03*
X146812000Y-94234000D03*
X191262000Y-94234000D03*
X145542000Y-92964000D03*
X188722000Y-92964000D03*
X143637000Y-106934000D03*
X112522000Y-116459000D03*
X132842000Y-118999000D03*
X127762000Y-118364000D03*
X122682000Y-117729000D03*
X117602000Y-117094000D03*
X107442000Y-115824000D03*
X165862000Y-91694000D03*
X146812000Y-91694000D03*
D33*
X108712000Y-94234000D02*
X111252000Y-91694000D01*
X111252000Y-91694000D02*
X111252000Y-89154000D01*
X117602000Y-89154000D02*
X111252000Y-89154000D01*
X109982000Y-87884000D02*
X109982000Y-86614000D01*
X111252000Y-89154000D02*
X109982000Y-87884000D01*
X181737000Y-69469000D02*
X179197000Y-69469000D01*
X186817000Y-75184000D02*
X186817000Y-70104000D01*
X186817000Y-70104000D02*
X186182000Y-69469000D01*
X186182000Y-69469000D02*
X181737000Y-69469000D01*
X148082000Y-97409000D02*
X148463000Y-97409000D01*
X148463000Y-97409000D02*
X149098000Y-98044000D01*
X149098000Y-100838000D02*
X149098000Y-98044000D01*
X184404000Y-100838000D02*
X186182000Y-100838000D01*
X186182000Y-100838000D02*
X186182000Y-101854000D01*
X144907000Y-94234000D02*
X148082000Y-97409000D01*
X143232000Y-94234000D02*
X144907000Y-94234000D01*
X135382000Y-96774000D02*
X135382000Y-94234000D01*
X128270000Y-94234000D02*
X134874000Y-94234000D01*
X134874000Y-94234000D02*
X135382000Y-94234000D01*
X135382000Y-94234000D02*
X143232000Y-94234000D01*
X128270000Y-94234000D02*
X128190000Y-94314000D01*
X128190000Y-94314000D02*
X122682000Y-94314000D01*
X160782000Y-103124000D02*
X160782000Y-101346000D01*
X173482000Y-103124000D02*
X173482000Y-100838000D01*
X186182000Y-103124000D02*
X186182000Y-101854000D01*
X184404000Y-100838000D02*
X173482000Y-100838000D01*
X149098000Y-100838000D02*
X148082000Y-101854000D01*
X150622000Y-100838000D02*
X149098000Y-100838000D01*
X148082000Y-101854000D02*
X148082000Y-103124000D01*
X173482000Y-100838000D02*
X160782000Y-100838000D01*
X160782000Y-100838000D02*
X150622000Y-100838000D01*
X185547000Y-80264000D02*
X193167000Y-80264000D01*
X186262000Y-109474000D02*
X186262000Y-110824000D01*
X186817000Y-111379000D02*
X193167000Y-111379000D01*
X186262000Y-110824000D02*
X186817000Y-111379000D01*
X135382000Y-72644000D02*
X135382000Y-69469000D01*
X117602000Y-80264000D02*
X117602000Y-70104000D01*
X118237000Y-69469000D02*
X135382000Y-69469000D01*
X135382000Y-69469000D02*
X134747000Y-69469000D01*
X117602000Y-70104000D02*
X118237000Y-69469000D01*
X97282000Y-78994000D02*
X96647000Y-79629000D01*
X99822000Y-90424000D02*
X96647000Y-90424000D01*
X99822000Y-106934000D02*
X96647000Y-106934000D01*
X137922000Y-124714000D02*
X137922000Y-127889000D01*
X174117000Y-71374000D02*
X174117000Y-69469000D01*
X137922000Y-72644000D02*
X137922000Y-69469000D01*
X179197000Y-69469000D02*
X174117000Y-69469000D01*
X188087000Y-75819000D02*
X187452000Y-75819000D01*
X193167000Y-111379000D02*
X193167000Y-99949000D01*
X187452000Y-75819000D02*
X186817000Y-75184000D01*
X193167000Y-99949000D02*
X193167000Y-80264000D01*
X193167000Y-80264000D02*
X193167000Y-76454000D01*
X192532000Y-75819000D02*
X188087000Y-75819000D01*
X193167000Y-76454000D02*
X192532000Y-75819000D01*
X193167000Y-114554000D02*
X193167000Y-111379000D01*
X186182000Y-127889000D02*
X186817000Y-127254000D01*
X186817000Y-127254000D02*
X186817000Y-122174000D01*
X186817000Y-122174000D02*
X187452000Y-121539000D01*
X187452000Y-121539000D02*
X192532000Y-121539000D01*
X192532000Y-121539000D02*
X193167000Y-120904000D01*
X193167000Y-120904000D02*
X193167000Y-114554000D01*
X137922000Y-127889000D02*
X186182000Y-127889000D01*
X109982000Y-127889000D02*
X137922000Y-127889000D01*
X99822000Y-78994000D02*
X97282000Y-78994000D01*
X96647000Y-79629000D02*
X96647000Y-90424000D01*
X96647000Y-90424000D02*
X96647000Y-106934000D01*
X96647000Y-106934000D02*
X96647000Y-120904000D01*
X96647000Y-120904000D02*
X97282000Y-121539000D01*
X97282000Y-121539000D02*
X101727000Y-121539000D01*
X102997000Y-127254000D02*
X103632000Y-127889000D01*
X102997000Y-122809000D02*
X102997000Y-127254000D01*
X103632000Y-127889000D02*
X109982000Y-127889000D01*
X102362000Y-121539000D02*
X102997000Y-122174000D01*
X102997000Y-122174000D02*
X102997000Y-122809000D01*
X101727000Y-121539000D02*
X102362000Y-121539000D01*
X174117000Y-69469000D02*
X141732000Y-69469000D01*
X137922000Y-69469000D02*
X134747000Y-69469000D01*
X186262000Y-109474000D02*
X186262000Y-103204000D01*
X186262000Y-103204000D02*
X186182000Y-103124000D01*
X109982000Y-81614000D02*
X109982000Y-81534000D01*
X109982000Y-81534000D02*
X107442000Y-78994000D01*
X107442000Y-78994000D02*
X99822000Y-78994000D01*
X117602000Y-80264000D02*
X111332000Y-80264000D01*
X111332000Y-80264000D02*
X109982000Y-81614000D01*
X141732000Y-72644000D02*
X141732000Y-69469000D01*
X141732000Y-69469000D02*
X137922000Y-69469000D01*
X106172000Y-73914000D02*
X112522000Y-73914000D01*
D34*
X111887000Y-95504000D02*
X112522000Y-94869000D01*
X112522000Y-94869000D02*
X112522000Y-92329000D01*
X112522000Y-92329000D02*
X113157000Y-91694000D01*
X113157000Y-91694000D02*
X115062000Y-91694000D01*
X115062000Y-91694000D02*
X138557000Y-91694000D01*
X138557000Y-91694000D02*
X139192000Y-91059000D01*
X139192000Y-91059000D02*
X139192000Y-89789000D01*
X139192000Y-89789000D02*
X139827000Y-89154000D01*
X139827000Y-89154000D02*
X158877000Y-89154000D01*
X111887000Y-95504000D02*
X108712000Y-95504000D01*
X159512000Y-89154000D02*
X158877000Y-89154000D01*
X128270000Y-99314000D02*
X128397000Y-99187000D01*
X128397000Y-99187000D02*
X128397000Y-96774000D01*
X116332000Y-95504000D02*
X116332000Y-96139000D01*
X129667000Y-96774000D02*
X130302000Y-96774000D01*
X116967000Y-96774000D02*
X128397000Y-96774000D01*
X128397000Y-96774000D02*
X129667000Y-96774000D01*
X116332000Y-96139000D02*
X116967000Y-96774000D01*
X130302000Y-96774000D02*
X131572000Y-98044000D01*
X131572000Y-98044000D02*
X132207000Y-98044000D01*
X130302000Y-96774000D02*
X131572000Y-98044000D01*
X135382000Y-98044000D02*
X132207000Y-98044000D01*
X116332000Y-95504000D02*
X116332000Y-94234000D01*
X135128000Y-97790000D02*
X135382000Y-98044000D01*
X176657000Y-80899000D02*
X170942000Y-80899000D01*
X171577000Y-73914000D02*
X167767000Y-73914000D01*
X183642000Y-91694000D02*
X169672000Y-91694000D01*
X167132000Y-90424000D02*
X181102000Y-90424000D01*
X178562000Y-89154000D02*
X164592000Y-89154000D01*
X176022000Y-87884000D02*
X162052000Y-87884000D01*
X172212000Y-77724000D02*
X151892000Y-77724000D01*
X151257000Y-78359000D02*
X151257000Y-80264000D01*
X151892000Y-77724000D02*
X151257000Y-78359000D01*
X146050000Y-99314000D02*
X135382000Y-99314000D01*
X146050000Y-99314000D02*
X146558000Y-99314000D01*
X146558000Y-99314000D02*
X147574000Y-99314000D01*
X148082000Y-95504000D02*
X162687000Y-95504000D01*
X147574000Y-99314000D02*
X148082000Y-99314000D01*
X163322000Y-95504000D02*
X162687000Y-95504000D01*
X108712000Y-103124000D02*
X108712000Y-99314000D01*
X109474000Y-99314000D02*
X108712000Y-99314000D01*
X108712000Y-99314000D02*
X105410000Y-99314000D01*
X104394000Y-95758000D02*
X104902000Y-96266000D01*
X104394000Y-95758000D02*
X100076000Y-95758000D01*
X104902000Y-98806000D02*
X105410000Y-99314000D01*
X104902000Y-96266000D02*
X104902000Y-98806000D01*
X99822000Y-95504000D02*
X100076000Y-95758000D01*
X116332000Y-99314000D02*
X109474000Y-99314000D01*
X144907000Y-106934000D02*
X142367000Y-109474000D01*
X140462000Y-109474000D02*
X139827000Y-110109000D01*
X142367000Y-109474000D02*
X140462000Y-109474000D01*
X147447000Y-94234000D02*
X146812000Y-94234000D01*
X146812000Y-106934000D02*
X146177000Y-106934000D01*
X125222000Y-115189000D02*
X135382000Y-115189000D01*
X104902000Y-116459000D02*
X104267000Y-117094000D01*
X99822000Y-117094000D02*
X103632000Y-117094000D01*
X104902000Y-115824000D02*
X105537000Y-115189000D01*
X104902000Y-116459000D02*
X104902000Y-115824000D01*
X103632000Y-117094000D02*
X104267000Y-117094000D01*
X125222000Y-115189000D02*
X105537000Y-115189000D01*
X144907000Y-106934000D02*
X146177000Y-106934000D01*
X139827000Y-113919000D02*
X139827000Y-110109000D01*
X138557000Y-115189000D02*
X139827000Y-113919000D01*
X135382000Y-115189000D02*
X138557000Y-115189000D01*
X191262000Y-94234000D02*
X147447000Y-94234000D01*
X109982000Y-114554000D02*
X137922000Y-114554000D01*
X105537000Y-114554000D02*
X109982000Y-114554000D01*
X104902000Y-113919000D02*
X105537000Y-114554000D01*
X104902000Y-112014000D02*
X104902000Y-113919000D01*
X104267000Y-111379000D02*
X104902000Y-112014000D01*
X100457000Y-111379000D02*
X104267000Y-111379000D01*
X188722000Y-92964000D02*
X146812000Y-92964000D01*
X146812000Y-92964000D02*
X145542000Y-92964000D01*
X141732000Y-108839000D02*
X143637000Y-106934000D01*
X139827000Y-108839000D02*
X141732000Y-108839000D01*
X139192000Y-109474000D02*
X139827000Y-108839000D01*
X139192000Y-113284000D02*
X139192000Y-109474000D01*
X137922000Y-114554000D02*
X139192000Y-113284000D01*
X99822000Y-112014000D02*
X100457000Y-111379000D01*
X142367000Y-110744000D02*
X141732000Y-110744000D01*
X141097000Y-111379000D02*
X141097000Y-112014000D01*
X141732000Y-110744000D02*
X141097000Y-111379000D01*
X113157000Y-116459000D02*
X112522000Y-116459000D01*
X139827000Y-116459000D02*
X113157000Y-116459000D01*
X141097000Y-115189000D02*
X139827000Y-116459000D01*
X141097000Y-112014000D02*
X141097000Y-115189000D01*
X162052000Y-113919000D02*
X162052000Y-111379000D01*
X161417000Y-110744000D02*
X142367000Y-110744000D01*
X162052000Y-111379000D02*
X161417000Y-110744000D01*
X133477000Y-118999000D02*
X132842000Y-118999000D01*
X145542000Y-118999000D02*
X133477000Y-118999000D01*
X149352000Y-117094000D02*
X143002000Y-117094000D01*
X149987000Y-117094000D02*
X150622000Y-117729000D01*
X150622000Y-117729000D02*
X150622000Y-118999000D01*
X149352000Y-117094000D02*
X149987000Y-117094000D01*
X141732000Y-118364000D02*
X128397000Y-118364000D01*
X143002000Y-117094000D02*
X141732000Y-118364000D01*
X127762000Y-118364000D02*
X128397000Y-118364000D01*
X150622000Y-118999000D02*
X150622000Y-118364000D01*
X123317000Y-117729000D02*
X122682000Y-117729000D01*
X142367000Y-116459000D02*
X141097000Y-117729000D01*
X141097000Y-117729000D02*
X123317000Y-117729000D01*
X154432000Y-118999000D02*
X154432000Y-117094000D01*
X153797000Y-116459000D02*
X154432000Y-117094000D01*
X142367000Y-116459000D02*
X153797000Y-116459000D01*
X143002000Y-111379000D02*
X142367000Y-111379000D01*
X141732000Y-112014000D02*
X141732000Y-113284000D01*
X142367000Y-111379000D02*
X141732000Y-112014000D01*
X158242000Y-112014000D02*
X158242000Y-113919000D01*
X157607000Y-111379000D02*
X143002000Y-111379000D01*
X158242000Y-112014000D02*
X157607000Y-111379000D01*
X141732000Y-113284000D02*
X141732000Y-115824000D01*
X141732000Y-115824000D02*
X140462000Y-117094000D01*
X140462000Y-117094000D02*
X118237000Y-117094000D01*
X117602000Y-117094000D02*
X118237000Y-117094000D01*
X141732000Y-110109000D02*
X141097000Y-110109000D01*
X140462000Y-110744000D02*
X140462000Y-111379000D01*
X141097000Y-110109000D02*
X140462000Y-110744000D01*
X107442000Y-115824000D02*
X108077000Y-115824000D01*
X140462000Y-111379000D02*
X140462000Y-114554000D01*
X140462000Y-114554000D02*
X139192000Y-115824000D01*
X139192000Y-115824000D02*
X108077000Y-115824000D01*
X165862000Y-110744000D02*
X165227000Y-110109000D01*
X165227000Y-110109000D02*
X142367000Y-110109000D01*
X165862000Y-110744000D02*
X165862000Y-113919000D01*
X142367000Y-110109000D02*
X141732000Y-110109000D01*
X131572000Y-89154000D02*
X127762000Y-89154000D01*
X127762000Y-85344000D02*
X131572000Y-85344000D01*
X173482000Y-76454000D02*
X153162000Y-76454000D01*
X152527000Y-75819000D02*
X151257000Y-75819000D01*
X153162000Y-76454000D02*
X152527000Y-75819000D01*
X136652000Y-85344000D02*
X143002000Y-85344000D01*
X146812000Y-91694000D02*
X165862000Y-91694000D01*
D33*
X181102000Y-103124000D02*
X181102000Y-122936000D01*
X181102000Y-122936000D02*
X179959000Y-124079000D01*
X179959000Y-124079000D02*
X145542000Y-124079000D01*
M02*
