M48
;DRILL file {KiCad 4.0.5+dfsg1-4+deb9u1} date Tue Nov 15 17:13:54 2022
;FORMAT={-:-/ absolute / metric / decimal}
FMAT,2
METRIC,TZ
T1C0.400
T2C0.600
T3C0.700
T4C0.800
T5C1.000
T6C1.016
T7C1.020
T8C1.100
T9C1.400
T10C1.520
%
G90
G05
M71
T1
X107.442Y-115.824
X112.522Y-116.459
X117.602Y-117.094
X122.682Y-117.729
X127.762Y-118.364
X132.842Y-118.999
X143.637Y-106.934
X145.542Y-92.964
X146.812Y-91.694
X146.812Y-94.234
X146.812Y-106.934
X148.082Y-95.504
X148.082Y-99.314
X159.512Y-89.154
X162.052Y-87.884
X163.322Y-95.504
X164.592Y-89.154
X165.862Y-91.694
X167.132Y-90.424
X167.767Y-73.914
X169.672Y-91.694
X170.942Y-80.899
X171.577Y-73.914
X176.022Y-87.884
X176.657Y-80.899
X178.562Y-89.154
X181.102Y-90.424
X183.642Y-91.694
X188.722Y-92.964
X191.262Y-94.234
T2
X108.712Y-94.234
X108.712Y-95.504
X108.712Y-96.774
X135.382Y-96.774
X135.382Y-98.044
X135.382Y-99.314
X149.098Y-100.838
X160.782Y-100.838
X173.482Y-100.838
X186.182Y-100.838
T3
X172.212Y-77.724
X173.482Y-76.454
X173.482Y-78.994
T4
X109.982Y-106.934
X109.982Y-112.014
X116.332Y-94.234
X116.332Y-99.314
X116.332Y-106.934
X116.332Y-112.014
X117.602Y-84.154
X117.602Y-89.154
X122.682Y-85.344
X122.682Y-89.154
X122.682Y-94.314
X122.682Y-99.314
X127.762Y-85.344
X127.762Y-89.154
X128.27Y-94.234
X128.27Y-99.314
X131.572Y-85.344
X131.572Y-89.154
X135.382Y-106.934
X135.382Y-112.014
X136.652Y-85.344
X136.652Y-89.154
X145.542Y-108.839
X145.542Y-113.919
X145.542Y-118.999
X145.542Y-124.079
X146.177Y-75.819
X146.177Y-80.264
X150.622Y-108.839
X150.622Y-113.919
X150.622Y-118.999
X150.622Y-124.079
X151.257Y-75.819
X151.257Y-80.264
X154.432Y-108.839
X154.432Y-113.919
X154.432Y-118.999
X154.432Y-124.079
X158.242Y-108.839
X158.242Y-113.919
X158.242Y-118.999
X158.242Y-124.079
X160.274Y-80.01
X162.052Y-108.839
X162.052Y-113.919
X162.052Y-118.999
X162.052Y-124.079
X165.354Y-80.01
X165.862Y-108.839
X165.862Y-113.919
X165.862Y-118.999
X165.862Y-124.079
X180.467Y-80.264
X180.594Y-76.454
X185.547Y-80.264
X185.594Y-76.454
X186.262Y-109.474
X191.262Y-109.474
T5
X109.982Y-81.614
X109.982Y-86.614
T6
X135.382Y-72.644
X135.382Y-75.184
X137.922Y-72.644
X137.922Y-75.184
X141.732Y-72.644
X141.732Y-75.184
X146.177Y-71.374
X148.717Y-71.374
X151.257Y-71.374
X153.797Y-71.374
X156.337Y-71.374
X158.877Y-71.374
X161.417Y-71.374
X163.957Y-71.374
X166.497Y-71.374
X169.037Y-71.374
X171.577Y-71.374
X174.117Y-71.374
X176.657Y-71.374
X179.197Y-71.374
X181.737Y-71.374
X184.277Y-71.374
T7
X143.002Y-85.344
X143.002Y-103.124
X143.232Y-91.694
X143.232Y-94.234
X143.232Y-96.774
X145.542Y-85.344
X145.542Y-103.124
X148.082Y-85.344
X148.082Y-103.124
X150.622Y-85.344
X150.622Y-103.124
X153.162Y-85.344
X153.162Y-103.124
X155.702Y-85.344
X155.702Y-103.124
X158.242Y-85.344
X158.242Y-103.124
X160.782Y-85.344
X160.782Y-103.124
X163.322Y-85.344
X163.322Y-103.124
X165.862Y-85.344
X165.862Y-103.124
X168.402Y-85.344
X168.402Y-103.124
X170.942Y-85.344
X170.942Y-103.124
X173.482Y-85.344
X173.482Y-103.124
X176.022Y-85.344
X176.022Y-103.124
X178.562Y-85.344
X178.562Y-103.124
X181.102Y-85.344
X181.102Y-103.124
X183.642Y-85.344
X183.642Y-103.124
X186.182Y-85.344
X186.182Y-103.124
X188.722Y-85.344
X188.722Y-103.124
X191.262Y-85.344
X191.262Y-103.124
T8
X108.712Y-103.124
X116.332Y-103.124
X117.602Y-80.264
X127.762Y-80.264
T9
X106.172Y-73.914
X112.522Y-73.914
X122.047Y-73.914
X128.397Y-73.914
T10
X99.822Y-78.994
X99.822Y-84.074
X99.822Y-90.424
X99.822Y-95.504
X99.822Y-100.584
X99.822Y-106.934
X99.822Y-112.014
X99.822Y-117.094
X107.442Y-124.714
X112.522Y-124.714
X117.602Y-124.714
X122.682Y-124.714
X127.762Y-124.714
X132.842Y-124.714
X137.922Y-124.714
T0
M30
