%FSLAX45Y45*%
G04 Gerber Fmt 4.5, Leading zero omitted, Abs format (unit mm)*
G04 Created by KiCad (PCBNEW 4.0.5+dfsg1-4+deb9u1) date Wed Oct 19 21:41:26 2022*
%MOMM*%
%LPD*%
G01*
G04 APERTURE LIST*
%ADD10C,0.127000*%
%ADD11C,0.150000*%
%ADD12C,0.200000*%
%ADD13C,0.300000*%
G04 APERTURE END LIST*
D10*
D11*
X19380200Y-6883400D02*
X19380200Y-12852400D01*
X9601200Y-6883400D02*
X19380200Y-6883400D01*
X9601200Y-12852400D02*
X9601200Y-6883400D01*
X19380200Y-12852400D02*
X9601200Y-12852400D01*
D12*
X9680200Y-6962400D02*
X10030200Y-7312400D01*
X10030200Y-6962400D02*
X9680200Y-7312400D01*
X9680200Y-12423400D02*
X10030200Y-12773400D01*
X10030200Y-12423400D02*
X9680200Y-12773400D01*
X11890000Y-10874000D02*
X12240000Y-11224000D01*
X12240000Y-10874000D02*
X11890000Y-11224000D01*
X18951200Y-6962400D02*
X19301200Y-7312400D01*
X19301200Y-6962400D02*
X18951200Y-7312400D01*
X18951200Y-12423400D02*
X19301200Y-12773400D01*
X19301200Y-12423400D02*
X18951200Y-12773400D01*
D13*
X9865129Y-13325614D02*
X9865129Y-13025614D01*
X9936557Y-13025614D01*
X9979414Y-13039900D01*
X10007986Y-13068471D01*
X10022271Y-13097043D01*
X10036557Y-13154186D01*
X10036557Y-13197043D01*
X10022271Y-13254186D01*
X10007986Y-13282757D01*
X9979414Y-13311329D01*
X9936557Y-13325614D01*
X9865129Y-13325614D01*
X10165129Y-13325614D02*
X10165129Y-13125614D01*
X10165129Y-13182757D02*
X10179414Y-13154186D01*
X10193700Y-13139900D01*
X10222271Y-13125614D01*
X10250843Y-13125614D01*
X10350843Y-13325614D02*
X10350843Y-13125614D01*
X10350843Y-13025614D02*
X10336557Y-13039900D01*
X10350843Y-13054186D01*
X10365129Y-13039900D01*
X10350843Y-13025614D01*
X10350843Y-13054186D01*
X10536557Y-13325614D02*
X10507986Y-13311329D01*
X10493700Y-13282757D01*
X10493700Y-13025614D01*
X10693700Y-13325614D02*
X10665129Y-13311329D01*
X10650843Y-13282757D01*
X10650843Y-13025614D01*
X11036557Y-13325614D02*
X11036557Y-13025614D01*
X11136557Y-13239900D01*
X11236557Y-13025614D01*
X11236557Y-13325614D01*
X11507986Y-13325614D02*
X11507986Y-13168471D01*
X11493700Y-13139900D01*
X11465128Y-13125614D01*
X11407986Y-13125614D01*
X11379414Y-13139900D01*
X11507986Y-13311329D02*
X11479414Y-13325614D01*
X11407986Y-13325614D01*
X11379414Y-13311329D01*
X11365128Y-13282757D01*
X11365128Y-13254186D01*
X11379414Y-13225614D01*
X11407986Y-13211329D01*
X11479414Y-13211329D01*
X11507986Y-13197043D01*
X11650843Y-13125614D02*
X11650843Y-13425614D01*
X11650843Y-13139900D02*
X11679414Y-13125614D01*
X11736557Y-13125614D01*
X11765128Y-13139900D01*
X11779414Y-13154186D01*
X11793700Y-13182757D01*
X11793700Y-13268471D01*
X11779414Y-13297043D01*
X11765128Y-13311329D01*
X11736557Y-13325614D01*
X11679414Y-13325614D01*
X11650843Y-13311329D01*
X11922271Y-13297043D02*
X11936557Y-13311329D01*
X11922271Y-13325614D01*
X11907986Y-13311329D01*
X11922271Y-13297043D01*
X11922271Y-13325614D01*
X11922271Y-13139900D02*
X11936557Y-13154186D01*
X11922271Y-13168471D01*
X11907986Y-13154186D01*
X11922271Y-13139900D01*
X11922271Y-13168471D01*
X9243700Y-13644900D02*
X9593700Y-13994900D01*
X9593700Y-13644900D02*
X9243700Y-13994900D01*
X9836557Y-13655614D02*
X10022271Y-13655614D01*
X9922271Y-13769900D01*
X9965129Y-13769900D01*
X9993700Y-13784186D01*
X10007986Y-13798471D01*
X10022271Y-13827043D01*
X10022271Y-13898471D01*
X10007986Y-13927043D01*
X9993700Y-13941329D01*
X9965129Y-13955614D01*
X9879414Y-13955614D01*
X9850843Y-13941329D01*
X9836557Y-13927043D01*
X10150843Y-13927043D02*
X10165129Y-13941329D01*
X10150843Y-13955614D01*
X10136557Y-13941329D01*
X10150843Y-13927043D01*
X10150843Y-13955614D01*
X10436557Y-13655614D02*
X10293700Y-13655614D01*
X10279414Y-13798471D01*
X10293700Y-13784186D01*
X10322271Y-13769900D01*
X10393700Y-13769900D01*
X10422271Y-13784186D01*
X10436557Y-13798471D01*
X10450843Y-13827043D01*
X10450843Y-13898471D01*
X10436557Y-13927043D01*
X10422271Y-13941329D01*
X10393700Y-13955614D01*
X10322271Y-13955614D01*
X10293700Y-13941329D01*
X10279414Y-13927043D01*
X10636557Y-13655614D02*
X10665129Y-13655614D01*
X10693700Y-13669900D01*
X10707986Y-13684186D01*
X10722271Y-13712757D01*
X10736557Y-13769900D01*
X10736557Y-13841329D01*
X10722271Y-13898471D01*
X10707986Y-13927043D01*
X10693700Y-13941329D01*
X10665129Y-13955614D01*
X10636557Y-13955614D01*
X10607986Y-13941329D01*
X10593700Y-13927043D01*
X10579414Y-13898471D01*
X10565129Y-13841329D01*
X10565129Y-13769900D01*
X10579414Y-13712757D01*
X10593700Y-13684186D01*
X10607986Y-13669900D01*
X10636557Y-13655614D01*
X10865129Y-13955614D02*
X10865129Y-13755614D01*
X10865129Y-13784186D02*
X10879414Y-13769900D01*
X10907986Y-13755614D01*
X10950843Y-13755614D01*
X10979414Y-13769900D01*
X10993700Y-13798471D01*
X10993700Y-13955614D01*
X10993700Y-13798471D02*
X11007986Y-13769900D01*
X11036557Y-13755614D01*
X11079414Y-13755614D01*
X11107986Y-13769900D01*
X11122271Y-13798471D01*
X11122271Y-13955614D01*
X11265128Y-13955614D02*
X11265128Y-13755614D01*
X11265128Y-13784186D02*
X11279414Y-13769900D01*
X11307986Y-13755614D01*
X11350843Y-13755614D01*
X11379414Y-13769900D01*
X11393700Y-13798471D01*
X11393700Y-13955614D01*
X11393700Y-13798471D02*
X11407986Y-13769900D01*
X11436557Y-13755614D01*
X11479414Y-13755614D01*
X11507986Y-13769900D01*
X11522271Y-13798471D01*
X11522271Y-13955614D01*
X12107986Y-13641329D02*
X11850843Y-14027043D01*
X12493700Y-13655614D02*
X12522271Y-13655614D01*
X12550843Y-13669900D01*
X12565128Y-13684186D01*
X12579414Y-13712757D01*
X12593700Y-13769900D01*
X12593700Y-13841329D01*
X12579414Y-13898471D01*
X12565128Y-13927043D01*
X12550843Y-13941329D01*
X12522271Y-13955614D01*
X12493700Y-13955614D01*
X12465128Y-13941329D01*
X12450843Y-13927043D01*
X12436557Y-13898471D01*
X12422271Y-13841329D01*
X12422271Y-13769900D01*
X12436557Y-13712757D01*
X12450843Y-13684186D01*
X12465128Y-13669900D01*
X12493700Y-13655614D01*
X12722271Y-13927043D02*
X12736557Y-13941329D01*
X12722271Y-13955614D01*
X12707986Y-13941329D01*
X12722271Y-13927043D01*
X12722271Y-13955614D01*
X13022271Y-13955614D02*
X12850843Y-13955614D01*
X12936557Y-13955614D02*
X12936557Y-13655614D01*
X12907985Y-13698471D01*
X12879414Y-13727043D01*
X12850843Y-13741329D01*
X13122271Y-13655614D02*
X13307985Y-13655614D01*
X13207985Y-13769900D01*
X13250843Y-13769900D01*
X13279414Y-13784186D01*
X13293700Y-13798471D01*
X13307985Y-13827043D01*
X13307985Y-13898471D01*
X13293700Y-13927043D01*
X13279414Y-13941329D01*
X13250843Y-13955614D01*
X13165128Y-13955614D01*
X13136557Y-13941329D01*
X13122271Y-13927043D01*
X13479414Y-13784186D02*
X13450843Y-13769900D01*
X13436557Y-13755614D01*
X13422271Y-13727043D01*
X13422271Y-13712757D01*
X13436557Y-13684186D01*
X13450843Y-13669900D01*
X13479414Y-13655614D01*
X13536557Y-13655614D01*
X13565128Y-13669900D01*
X13579414Y-13684186D01*
X13593700Y-13712757D01*
X13593700Y-13727043D01*
X13579414Y-13755614D01*
X13565128Y-13769900D01*
X13536557Y-13784186D01*
X13479414Y-13784186D01*
X13450843Y-13798471D01*
X13436557Y-13812757D01*
X13422271Y-13841329D01*
X13422271Y-13898471D01*
X13436557Y-13927043D01*
X13450843Y-13941329D01*
X13479414Y-13955614D01*
X13536557Y-13955614D01*
X13565128Y-13941329D01*
X13579414Y-13927043D01*
X13593700Y-13898471D01*
X13593700Y-13841329D01*
X13579414Y-13812757D01*
X13565128Y-13798471D01*
X13536557Y-13784186D01*
X13707986Y-13655614D02*
X13707986Y-13712757D01*
X13822271Y-13655614D02*
X13822271Y-13712757D01*
X14265128Y-14069900D02*
X14250843Y-14055614D01*
X14222271Y-14012757D01*
X14207985Y-13984186D01*
X14193700Y-13941329D01*
X14179414Y-13869900D01*
X14179414Y-13812757D01*
X14193700Y-13741329D01*
X14207985Y-13698471D01*
X14222271Y-13669900D01*
X14250843Y-13627043D01*
X14265128Y-13612757D01*
X14522271Y-13655614D02*
X14379414Y-13655614D01*
X14365128Y-13798471D01*
X14379414Y-13784186D01*
X14407985Y-13769900D01*
X14479414Y-13769900D01*
X14507985Y-13784186D01*
X14522271Y-13798471D01*
X14536557Y-13827043D01*
X14536557Y-13898471D01*
X14522271Y-13927043D01*
X14507985Y-13941329D01*
X14479414Y-13955614D01*
X14407985Y-13955614D01*
X14379414Y-13941329D01*
X14365128Y-13927043D01*
X14893700Y-13955614D02*
X14893700Y-13655614D01*
X15022271Y-13955614D02*
X15022271Y-13798471D01*
X15007985Y-13769900D01*
X14979414Y-13755614D01*
X14936557Y-13755614D01*
X14907985Y-13769900D01*
X14893700Y-13784186D01*
X15207985Y-13955614D02*
X15179414Y-13941329D01*
X15165128Y-13927043D01*
X15150843Y-13898471D01*
X15150843Y-13812757D01*
X15165128Y-13784186D01*
X15179414Y-13769900D01*
X15207985Y-13755614D01*
X15250843Y-13755614D01*
X15279414Y-13769900D01*
X15293700Y-13784186D01*
X15307985Y-13812757D01*
X15307985Y-13898471D01*
X15293700Y-13927043D01*
X15279414Y-13941329D01*
X15250843Y-13955614D01*
X15207985Y-13955614D01*
X15479414Y-13955614D02*
X15450843Y-13941329D01*
X15436557Y-13912757D01*
X15436557Y-13655614D01*
X15707986Y-13941329D02*
X15679414Y-13955614D01*
X15622271Y-13955614D01*
X15593700Y-13941329D01*
X15579414Y-13912757D01*
X15579414Y-13798471D01*
X15593700Y-13769900D01*
X15622271Y-13755614D01*
X15679414Y-13755614D01*
X15707986Y-13769900D01*
X15722271Y-13798471D01*
X15722271Y-13827043D01*
X15579414Y-13855614D01*
X15836557Y-13941329D02*
X15865128Y-13955614D01*
X15922271Y-13955614D01*
X15950843Y-13941329D01*
X15965128Y-13912757D01*
X15965128Y-13898471D01*
X15950843Y-13869900D01*
X15922271Y-13855614D01*
X15879414Y-13855614D01*
X15850843Y-13841329D01*
X15836557Y-13812757D01*
X15836557Y-13798471D01*
X15850843Y-13769900D01*
X15879414Y-13755614D01*
X15922271Y-13755614D01*
X15950843Y-13769900D01*
X16065128Y-14069900D02*
X16079414Y-14055614D01*
X16107986Y-14012757D01*
X16122271Y-13984186D01*
X16136557Y-13941329D01*
X16150843Y-13869900D01*
X16150843Y-13812757D01*
X16136557Y-13741329D01*
X16122271Y-13698471D01*
X16107986Y-13669900D01*
X16079414Y-13627043D01*
X16065128Y-13612757D01*
X16607986Y-14069900D02*
X16593700Y-14055614D01*
X16565128Y-14012757D01*
X16550843Y-13984186D01*
X16536557Y-13941329D01*
X16522271Y-13869900D01*
X16522271Y-13812757D01*
X16536557Y-13741329D01*
X16550843Y-13698471D01*
X16565128Y-13669900D01*
X16593700Y-13627043D01*
X16607986Y-13612757D01*
X16722271Y-13755614D02*
X16722271Y-13955614D01*
X16722271Y-13784186D02*
X16736557Y-13769900D01*
X16765128Y-13755614D01*
X16807986Y-13755614D01*
X16836557Y-13769900D01*
X16850843Y-13798471D01*
X16850843Y-13955614D01*
X17036557Y-13955614D02*
X17007986Y-13941329D01*
X16993700Y-13927043D01*
X16979414Y-13898471D01*
X16979414Y-13812757D01*
X16993700Y-13784186D01*
X17007986Y-13769900D01*
X17036557Y-13755614D01*
X17079414Y-13755614D01*
X17107986Y-13769900D01*
X17122271Y-13784186D01*
X17136557Y-13812757D01*
X17136557Y-13898471D01*
X17122271Y-13927043D01*
X17107986Y-13941329D01*
X17079414Y-13955614D01*
X17036557Y-13955614D01*
X17222271Y-13755614D02*
X17336557Y-13755614D01*
X17265129Y-13655614D02*
X17265129Y-13912757D01*
X17279414Y-13941329D01*
X17307986Y-13955614D01*
X17336557Y-13955614D01*
X17665129Y-13755614D02*
X17665129Y-14055614D01*
X17665129Y-13769900D02*
X17693700Y-13755614D01*
X17750843Y-13755614D01*
X17779414Y-13769900D01*
X17793700Y-13784186D01*
X17807986Y-13812757D01*
X17807986Y-13898471D01*
X17793700Y-13927043D01*
X17779414Y-13941329D01*
X17750843Y-13955614D01*
X17693700Y-13955614D01*
X17665129Y-13941329D01*
X17979414Y-13955614D02*
X17950843Y-13941329D01*
X17936557Y-13912757D01*
X17936557Y-13655614D01*
X18222271Y-13955614D02*
X18222271Y-13798471D01*
X18207986Y-13769900D01*
X18179414Y-13755614D01*
X18122271Y-13755614D01*
X18093700Y-13769900D01*
X18222271Y-13941329D02*
X18193700Y-13955614D01*
X18122271Y-13955614D01*
X18093700Y-13941329D01*
X18079414Y-13912757D01*
X18079414Y-13884186D01*
X18093700Y-13855614D01*
X18122271Y-13841329D01*
X18193700Y-13841329D01*
X18222271Y-13827043D01*
X18322271Y-13755614D02*
X18436557Y-13755614D01*
X18365129Y-13655614D02*
X18365129Y-13912757D01*
X18379414Y-13941329D01*
X18407986Y-13955614D01*
X18436557Y-13955614D01*
X18650843Y-13941329D02*
X18622272Y-13955614D01*
X18565129Y-13955614D01*
X18536557Y-13941329D01*
X18522272Y-13912757D01*
X18522272Y-13798471D01*
X18536557Y-13769900D01*
X18565129Y-13755614D01*
X18622272Y-13755614D01*
X18650843Y-13769900D01*
X18665129Y-13798471D01*
X18665129Y-13827043D01*
X18522272Y-13855614D01*
X18922272Y-13955614D02*
X18922272Y-13655614D01*
X18922272Y-13941329D02*
X18893700Y-13955614D01*
X18836557Y-13955614D01*
X18807986Y-13941329D01*
X18793700Y-13927043D01*
X18779414Y-13898471D01*
X18779414Y-13812757D01*
X18793700Y-13784186D01*
X18807986Y-13769900D01*
X18836557Y-13755614D01*
X18893700Y-13755614D01*
X18922272Y-13769900D01*
X19036557Y-14069900D02*
X19050843Y-14055614D01*
X19079414Y-14012757D01*
X19093700Y-13984186D01*
X19107986Y-13941329D01*
X19122272Y-13869900D01*
X19122272Y-13812757D01*
X19107986Y-13741329D01*
X19093700Y-13698471D01*
X19079414Y-13669900D01*
X19050843Y-13627043D01*
X19036557Y-13612757D01*
M02*
