%FSLAX45Y45*%
G04 Gerber Fmt 4.5, Leading zero omitted, Abs format (unit mm)*
G04 Created by KiCad (PCBNEW 4.0.5+dfsg1-4+deb9u1) date Tue Nov 15 17:13:55 2022*
%MOMM*%
%LPD*%
G01*
G04 APERTURE LIST*
%ADD10C,0.127000*%
%ADD11C,0.150000*%
%ADD12C,0.200000*%
%ADD13C,0.300000*%
G04 APERTURE END LIST*
D10*
D11*
X19380200Y-6883400D02*
X19380200Y-12852400D01*
X9601200Y-6883400D02*
X19380200Y-6883400D01*
X9601200Y-12852400D02*
X9601200Y-6883400D01*
X19380200Y-12852400D02*
X9601200Y-12852400D01*
D12*
X10724200Y-11562400D02*
X10764200Y-11602400D01*
X10764200Y-11562400D02*
X10724200Y-11602400D01*
X11232200Y-11625900D02*
X11272200Y-11665900D01*
X11272200Y-11625900D02*
X11232200Y-11665900D01*
X11740200Y-11689400D02*
X11780200Y-11729400D01*
X11780200Y-11689400D02*
X11740200Y-11729400D01*
X12248200Y-11752900D02*
X12288200Y-11792900D01*
X12288200Y-11752900D02*
X12248200Y-11792900D01*
X12756200Y-11816400D02*
X12796200Y-11856400D01*
X12796200Y-11816400D02*
X12756200Y-11856400D01*
X13264200Y-11879900D02*
X13304200Y-11919900D01*
X13304200Y-11879900D02*
X13264200Y-11919900D01*
X14343700Y-10673400D02*
X14383700Y-10713400D01*
X14383700Y-10673400D02*
X14343700Y-10713400D01*
X14534200Y-9276400D02*
X14574200Y-9316400D01*
X14574200Y-9276400D02*
X14534200Y-9316400D01*
X14661200Y-9149400D02*
X14701200Y-9189400D01*
X14701200Y-9149400D02*
X14661200Y-9189400D01*
X14661200Y-9403400D02*
X14701200Y-9443400D01*
X14701200Y-9403400D02*
X14661200Y-9443400D01*
X14661200Y-10673400D02*
X14701200Y-10713400D01*
X14701200Y-10673400D02*
X14661200Y-10713400D01*
X14788200Y-9530400D02*
X14828200Y-9570400D01*
X14828200Y-9530400D02*
X14788200Y-9570400D01*
X14788200Y-9911400D02*
X14828200Y-9951400D01*
X14828200Y-9911400D02*
X14788200Y-9951400D01*
X15931200Y-8895400D02*
X15971200Y-8935400D01*
X15971200Y-8895400D02*
X15931200Y-8935400D01*
X16185200Y-8768400D02*
X16225200Y-8808400D01*
X16225200Y-8768400D02*
X16185200Y-8808400D01*
X16312200Y-9530400D02*
X16352200Y-9570400D01*
X16352200Y-9530400D02*
X16312200Y-9570400D01*
X16439200Y-8895400D02*
X16479200Y-8935400D01*
X16479200Y-8895400D02*
X16439200Y-8935400D01*
X16566200Y-9149400D02*
X16606200Y-9189400D01*
X16606200Y-9149400D02*
X16566200Y-9189400D01*
X16693200Y-9022400D02*
X16733200Y-9062400D01*
X16733200Y-9022400D02*
X16693200Y-9062400D01*
X16756700Y-7371400D02*
X16796700Y-7411400D01*
X16796700Y-7371400D02*
X16756700Y-7411400D01*
X16947200Y-9149400D02*
X16987200Y-9189400D01*
X16987200Y-9149400D02*
X16947200Y-9189400D01*
X17074200Y-8069900D02*
X17114200Y-8109900D01*
X17114200Y-8069900D02*
X17074200Y-8109900D01*
X17137700Y-7371400D02*
X17177700Y-7411400D01*
X17177700Y-7371400D02*
X17137700Y-7411400D01*
X17582200Y-8768400D02*
X17622200Y-8808400D01*
X17622200Y-8768400D02*
X17582200Y-8808400D01*
X17645700Y-8069900D02*
X17685700Y-8109900D01*
X17685700Y-8069900D02*
X17645700Y-8109900D01*
X17836200Y-8895400D02*
X17876200Y-8935400D01*
X17876200Y-8895400D02*
X17836200Y-8935400D01*
X18090200Y-9022400D02*
X18130200Y-9062400D01*
X18130200Y-9022400D02*
X18090200Y-9062400D01*
X18344200Y-9149400D02*
X18384200Y-9189400D01*
X18384200Y-9149400D02*
X18344200Y-9189400D01*
X18852200Y-9276400D02*
X18892200Y-9316400D01*
X18892200Y-9276400D02*
X18852200Y-9316400D01*
X19106200Y-9403400D02*
X19146200Y-9443400D01*
X19146200Y-9403400D02*
X19106200Y-9443400D01*
X10901200Y-9423400D02*
G75*
G03X10901200Y-9423400I-30000J0D01*
G01*
X10901200Y-9550400D02*
G75*
G03X10901200Y-9550400I-30000J0D01*
G01*
X10901200Y-9677400D02*
G75*
G03X10901200Y-9677400I-30000J0D01*
G01*
X13568200Y-9677400D02*
G75*
G03X13568200Y-9677400I-30000J0D01*
G01*
X13568200Y-9804400D02*
G75*
G03X13568200Y-9804400I-30000J0D01*
G01*
X13568200Y-9931400D02*
G75*
G03X13568200Y-9931400I-30000J0D01*
G01*
X14939800Y-10083800D02*
G75*
G03X14939800Y-10083800I-30000J0D01*
G01*
X16108200Y-10083800D02*
G75*
G03X16108200Y-10083800I-30000J0D01*
G01*
X17378200Y-10083800D02*
G75*
G03X17378200Y-10083800I-30000J0D01*
G01*
X18648200Y-10083800D02*
G75*
G03X18648200Y-10083800I-30000J0D01*
G01*
X17221200Y-7737400D02*
X17221200Y-7807400D01*
X17186200Y-7772400D02*
X17256200Y-7772400D01*
X17348200Y-7610400D02*
X17348200Y-7680400D01*
X17313200Y-7645400D02*
X17383200Y-7645400D01*
X17348200Y-7864400D02*
X17348200Y-7934400D01*
X17313200Y-7899400D02*
X17383200Y-7899400D01*
X11026485Y-10721685D02*
X11026485Y-10665116D01*
X10969916Y-10665116D01*
X10969916Y-10721685D01*
X11026485Y-10721685D01*
X11026485Y-11229684D02*
X11026485Y-11173116D01*
X10969916Y-11173116D01*
X10969916Y-11229684D01*
X11026485Y-11229684D01*
X11661484Y-9451685D02*
X11661484Y-9395116D01*
X11604915Y-9395116D01*
X11604915Y-9451685D01*
X11661484Y-9451685D01*
X11661484Y-9959685D02*
X11661484Y-9903116D01*
X11604915Y-9903116D01*
X11604915Y-9959685D01*
X11661484Y-9959685D01*
X11661484Y-10721685D02*
X11661484Y-10665116D01*
X11604915Y-10665116D01*
X11604915Y-10721685D01*
X11661484Y-10721685D01*
X11661484Y-11229684D02*
X11661484Y-11173116D01*
X11604915Y-11173116D01*
X11604915Y-11229684D01*
X11661484Y-11229684D01*
X11788484Y-8443685D02*
X11788484Y-8387115D01*
X11731915Y-8387115D01*
X11731915Y-8443685D01*
X11788484Y-8443685D01*
X11788484Y-8943685D02*
X11788484Y-8887116D01*
X11731915Y-8887116D01*
X11731915Y-8943685D01*
X11788484Y-8943685D01*
X12296484Y-8562685D02*
X12296484Y-8506116D01*
X12239915Y-8506116D01*
X12239915Y-8562685D01*
X12296484Y-8562685D01*
X12296484Y-8943685D02*
X12296484Y-8887116D01*
X12239915Y-8887116D01*
X12239915Y-8943685D01*
X12296484Y-8943685D01*
X12296484Y-9459685D02*
X12296484Y-9403116D01*
X12239915Y-9403116D01*
X12239915Y-9459685D01*
X12296484Y-9459685D01*
X12296484Y-9959685D02*
X12296484Y-9903116D01*
X12239915Y-9903116D01*
X12239915Y-9959685D01*
X12296484Y-9959685D01*
X12804484Y-8562685D02*
X12804484Y-8506116D01*
X12747915Y-8506116D01*
X12747915Y-8562685D01*
X12804484Y-8562685D01*
X12804484Y-8943685D02*
X12804484Y-8887116D01*
X12747915Y-8887116D01*
X12747915Y-8943685D01*
X12804484Y-8943685D01*
X12855284Y-9451685D02*
X12855284Y-9395116D01*
X12798715Y-9395116D01*
X12798715Y-9451685D01*
X12855284Y-9451685D01*
X12855284Y-9959685D02*
X12855284Y-9903116D01*
X12798715Y-9903116D01*
X12798715Y-9959685D01*
X12855284Y-9959685D01*
X13185484Y-8562685D02*
X13185484Y-8506116D01*
X13128915Y-8506116D01*
X13128915Y-8562685D01*
X13185484Y-8562685D01*
X13185484Y-8943685D02*
X13185484Y-8887116D01*
X13128915Y-8887116D01*
X13128915Y-8943685D01*
X13185484Y-8943685D01*
X13566484Y-10721685D02*
X13566484Y-10665116D01*
X13509915Y-10665116D01*
X13509915Y-10721685D01*
X13566484Y-10721685D01*
X13566484Y-11229684D02*
X13566484Y-11173116D01*
X13509915Y-11173116D01*
X13509915Y-11229684D01*
X13566484Y-11229684D01*
X13693484Y-8562685D02*
X13693484Y-8506116D01*
X13636915Y-8506116D01*
X13636915Y-8562685D01*
X13693484Y-8562685D01*
X13693484Y-8943685D02*
X13693484Y-8887116D01*
X13636915Y-8887116D01*
X13636915Y-8943685D01*
X13693484Y-8943685D01*
X14582484Y-10912185D02*
X14582484Y-10855616D01*
X14525915Y-10855616D01*
X14525915Y-10912185D01*
X14582484Y-10912185D01*
X14582484Y-11420184D02*
X14582484Y-11363615D01*
X14525915Y-11363615D01*
X14525915Y-11420184D01*
X14582484Y-11420184D01*
X14582484Y-11928184D02*
X14582484Y-11871615D01*
X14525915Y-11871615D01*
X14525915Y-11928184D01*
X14582484Y-11928184D01*
X14582484Y-12436184D02*
X14582484Y-12379615D01*
X14525915Y-12379615D01*
X14525915Y-12436184D01*
X14582484Y-12436184D01*
X14645984Y-7610184D02*
X14645984Y-7553615D01*
X14589415Y-7553615D01*
X14589415Y-7610184D01*
X14645984Y-7610184D01*
X14645984Y-8054684D02*
X14645984Y-7998115D01*
X14589415Y-7998115D01*
X14589415Y-8054684D01*
X14645984Y-8054684D01*
X15090484Y-10912185D02*
X15090484Y-10855616D01*
X15033915Y-10855616D01*
X15033915Y-10912185D01*
X15090484Y-10912185D01*
X15090484Y-11420184D02*
X15090484Y-11363615D01*
X15033915Y-11363615D01*
X15033915Y-11420184D01*
X15090484Y-11420184D01*
X15090484Y-11928184D02*
X15090484Y-11871615D01*
X15033915Y-11871615D01*
X15033915Y-11928184D01*
X15090484Y-11928184D01*
X15090484Y-12436184D02*
X15090484Y-12379615D01*
X15033915Y-12379615D01*
X15033915Y-12436184D01*
X15090484Y-12436184D01*
X15153984Y-7610184D02*
X15153984Y-7553615D01*
X15097415Y-7553615D01*
X15097415Y-7610184D01*
X15153984Y-7610184D01*
X15153984Y-8054684D02*
X15153984Y-7998115D01*
X15097415Y-7998115D01*
X15097415Y-8054684D01*
X15153984Y-8054684D01*
X15471484Y-10912185D02*
X15471484Y-10855616D01*
X15414915Y-10855616D01*
X15414915Y-10912185D01*
X15471484Y-10912185D01*
X15471484Y-11420184D02*
X15471484Y-11363615D01*
X15414915Y-11363615D01*
X15414915Y-11420184D01*
X15471484Y-11420184D01*
X15471484Y-11928184D02*
X15471484Y-11871615D01*
X15414915Y-11871615D01*
X15414915Y-11928184D01*
X15471484Y-11928184D01*
X15471484Y-12436184D02*
X15471484Y-12379615D01*
X15414915Y-12379615D01*
X15414915Y-12436184D01*
X15471484Y-12436184D01*
X15852484Y-10912185D02*
X15852484Y-10855616D01*
X15795915Y-10855616D01*
X15795915Y-10912185D01*
X15852484Y-10912185D01*
X15852484Y-11420184D02*
X15852484Y-11363615D01*
X15795915Y-11363615D01*
X15795915Y-11420184D01*
X15852484Y-11420184D01*
X15852484Y-11928184D02*
X15852484Y-11871615D01*
X15795915Y-11871615D01*
X15795915Y-11928184D01*
X15852484Y-11928184D01*
X15852484Y-12436184D02*
X15852484Y-12379615D01*
X15795915Y-12379615D01*
X15795915Y-12436184D01*
X15852484Y-12436184D01*
X16055684Y-8029284D02*
X16055684Y-7972715D01*
X15999115Y-7972715D01*
X15999115Y-8029284D01*
X16055684Y-8029284D01*
X16233484Y-10912185D02*
X16233484Y-10855616D01*
X16176915Y-10855616D01*
X16176915Y-10912185D01*
X16233484Y-10912185D01*
X16233484Y-11420184D02*
X16233484Y-11363615D01*
X16176915Y-11363615D01*
X16176915Y-11420184D01*
X16233484Y-11420184D01*
X16233484Y-11928184D02*
X16233484Y-11871615D01*
X16176915Y-11871615D01*
X16176915Y-11928184D01*
X16233484Y-11928184D01*
X16233484Y-12436184D02*
X16233484Y-12379615D01*
X16176915Y-12379615D01*
X16176915Y-12436184D01*
X16233484Y-12436184D01*
X16563684Y-8029284D02*
X16563684Y-7972715D01*
X16507115Y-7972715D01*
X16507115Y-8029284D01*
X16563684Y-8029284D01*
X16614484Y-10912185D02*
X16614484Y-10855616D01*
X16557915Y-10855616D01*
X16557915Y-10912185D01*
X16614484Y-10912185D01*
X16614484Y-11420184D02*
X16614484Y-11363615D01*
X16557915Y-11363615D01*
X16557915Y-11420184D01*
X16614484Y-11420184D01*
X16614484Y-11928184D02*
X16614484Y-11871615D01*
X16557915Y-11871615D01*
X16557915Y-11928184D01*
X16614484Y-11928184D01*
X16614484Y-12436184D02*
X16614484Y-12379615D01*
X16557915Y-12379615D01*
X16557915Y-12436184D01*
X16614484Y-12436184D01*
X18074985Y-8054684D02*
X18074985Y-7998115D01*
X18018416Y-7998115D01*
X18018416Y-8054684D01*
X18074985Y-8054684D01*
X18087685Y-7673684D02*
X18087685Y-7617115D01*
X18031116Y-7617115D01*
X18031116Y-7673684D01*
X18087685Y-7673684D01*
X18582985Y-8054684D02*
X18582985Y-7998115D01*
X18526416Y-7998115D01*
X18526416Y-8054684D01*
X18582985Y-8054684D01*
X18587685Y-7673684D02*
X18587685Y-7617115D01*
X18531116Y-7617115D01*
X18531116Y-7673684D01*
X18587685Y-7673684D01*
X18654485Y-10975685D02*
X18654485Y-10919116D01*
X18597916Y-10919116D01*
X18597916Y-10975685D01*
X18654485Y-10975685D01*
X19154485Y-10975685D02*
X19154485Y-10919116D01*
X19097916Y-10919116D01*
X19097916Y-10975685D01*
X19154485Y-10975685D01*
X10998200Y-8211400D02*
X11048200Y-8161400D01*
X10998200Y-8111400D01*
X10948200Y-8161400D01*
X10998200Y-8211400D01*
X10998200Y-8711400D02*
X11048200Y-8661400D01*
X10998200Y-8611400D01*
X10948200Y-8661400D01*
X10998200Y-8711400D01*
X13487400Y-7213600D02*
X13589000Y-7315200D01*
X13589000Y-7213600D02*
X13487400Y-7315200D01*
X13589000Y-7264400D02*
G75*
G03X13589000Y-7264400I-50800J0D01*
G01*
X13487400Y-7467600D02*
X13589000Y-7569200D01*
X13589000Y-7467600D02*
X13487400Y-7569200D01*
X13589000Y-7518400D02*
G75*
G03X13589000Y-7518400I-50800J0D01*
G01*
X13741400Y-7213600D02*
X13843000Y-7315200D01*
X13843000Y-7213600D02*
X13741400Y-7315200D01*
X13843000Y-7264400D02*
G75*
G03X13843000Y-7264400I-50800J0D01*
G01*
X13741400Y-7467600D02*
X13843000Y-7569200D01*
X13843000Y-7467600D02*
X13741400Y-7569200D01*
X13843000Y-7518400D02*
G75*
G03X13843000Y-7518400I-50800J0D01*
G01*
X14122400Y-7213600D02*
X14224000Y-7315200D01*
X14224000Y-7213600D02*
X14122400Y-7315200D01*
X14224000Y-7264400D02*
G75*
G03X14224000Y-7264400I-50800J0D01*
G01*
X14122400Y-7467600D02*
X14224000Y-7569200D01*
X14224000Y-7467600D02*
X14122400Y-7569200D01*
X14224000Y-7518400D02*
G75*
G03X14224000Y-7518400I-50800J0D01*
G01*
X14566900Y-7086600D02*
X14668500Y-7188200D01*
X14668500Y-7086600D02*
X14566900Y-7188200D01*
X14668500Y-7137400D02*
G75*
G03X14668500Y-7137400I-50800J0D01*
G01*
X14820900Y-7086600D02*
X14922500Y-7188200D01*
X14922500Y-7086600D02*
X14820900Y-7188200D01*
X14922500Y-7137400D02*
G75*
G03X14922500Y-7137400I-50800J0D01*
G01*
X15074900Y-7086600D02*
X15176500Y-7188200D01*
X15176500Y-7086600D02*
X15074900Y-7188200D01*
X15176500Y-7137400D02*
G75*
G03X15176500Y-7137400I-50800J0D01*
G01*
X15328900Y-7086600D02*
X15430500Y-7188200D01*
X15430500Y-7086600D02*
X15328900Y-7188200D01*
X15430500Y-7137400D02*
G75*
G03X15430500Y-7137400I-50800J0D01*
G01*
X15582900Y-7086600D02*
X15684500Y-7188200D01*
X15684500Y-7086600D02*
X15582900Y-7188200D01*
X15684500Y-7137400D02*
G75*
G03X15684500Y-7137400I-50800J0D01*
G01*
X15836900Y-7086600D02*
X15938500Y-7188200D01*
X15938500Y-7086600D02*
X15836900Y-7188200D01*
X15938500Y-7137400D02*
G75*
G03X15938500Y-7137400I-50800J0D01*
G01*
X16090900Y-7086600D02*
X16192500Y-7188200D01*
X16192500Y-7086600D02*
X16090900Y-7188200D01*
X16192500Y-7137400D02*
G75*
G03X16192500Y-7137400I-50800J0D01*
G01*
X16344900Y-7086600D02*
X16446500Y-7188200D01*
X16446500Y-7086600D02*
X16344900Y-7188200D01*
X16446500Y-7137400D02*
G75*
G03X16446500Y-7137400I-50800J0D01*
G01*
X16598900Y-7086600D02*
X16700500Y-7188200D01*
X16700500Y-7086600D02*
X16598900Y-7188200D01*
X16700500Y-7137400D02*
G75*
G03X16700500Y-7137400I-50800J0D01*
G01*
X16852900Y-7086600D02*
X16954500Y-7188200D01*
X16954500Y-7086600D02*
X16852900Y-7188200D01*
X16954500Y-7137400D02*
G75*
G03X16954500Y-7137400I-50800J0D01*
G01*
X17106900Y-7086600D02*
X17208500Y-7188200D01*
X17208500Y-7086600D02*
X17106900Y-7188200D01*
X17208500Y-7137400D02*
G75*
G03X17208500Y-7137400I-50800J0D01*
G01*
X17360900Y-7086600D02*
X17462500Y-7188200D01*
X17462500Y-7086600D02*
X17360900Y-7188200D01*
X17462500Y-7137400D02*
G75*
G03X17462500Y-7137400I-50800J0D01*
G01*
X17614900Y-7086600D02*
X17716500Y-7188200D01*
X17716500Y-7086600D02*
X17614900Y-7188200D01*
X17716500Y-7137400D02*
G75*
G03X17716500Y-7137400I-50800J0D01*
G01*
X17868900Y-7086600D02*
X17970500Y-7188200D01*
X17970500Y-7086600D02*
X17868900Y-7188200D01*
X17970500Y-7137400D02*
G75*
G03X17970500Y-7137400I-50800J0D01*
G01*
X18122900Y-7086600D02*
X18224500Y-7188200D01*
X18224500Y-7086600D02*
X18122900Y-7188200D01*
X18224500Y-7137400D02*
G75*
G03X18224500Y-7137400I-50800J0D01*
G01*
X18376900Y-7086600D02*
X18478500Y-7188200D01*
X18478500Y-7086600D02*
X18376900Y-7188200D01*
X18478500Y-7137400D02*
G75*
G03X18478500Y-7137400I-50800J0D01*
G01*
X14249200Y-8483400D02*
X14351200Y-8585400D01*
X14351200Y-8483400D02*
X14249200Y-8585400D01*
X14300200Y-8483400D02*
X14300200Y-8585400D01*
X14249200Y-8534400D02*
X14351200Y-8534400D01*
X14249200Y-10261400D02*
X14351200Y-10363400D01*
X14351200Y-10261400D02*
X14249200Y-10363400D01*
X14300200Y-10261400D02*
X14300200Y-10363400D01*
X14249200Y-10312400D02*
X14351200Y-10312400D01*
X14272200Y-9118400D02*
X14374200Y-9220400D01*
X14374200Y-9118400D02*
X14272200Y-9220400D01*
X14323200Y-9118400D02*
X14323200Y-9220400D01*
X14272200Y-9169400D02*
X14374200Y-9169400D01*
X14272200Y-9372400D02*
X14374200Y-9474400D01*
X14374200Y-9372400D02*
X14272200Y-9474400D01*
X14323200Y-9372400D02*
X14323200Y-9474400D01*
X14272200Y-9423400D02*
X14374200Y-9423400D01*
X14272200Y-9626400D02*
X14374200Y-9728400D01*
X14374200Y-9626400D02*
X14272200Y-9728400D01*
X14323200Y-9626400D02*
X14323200Y-9728400D01*
X14272200Y-9677400D02*
X14374200Y-9677400D01*
X14503200Y-8483400D02*
X14605200Y-8585400D01*
X14605200Y-8483400D02*
X14503200Y-8585400D01*
X14554200Y-8483400D02*
X14554200Y-8585400D01*
X14503200Y-8534400D02*
X14605200Y-8534400D01*
X14503200Y-10261400D02*
X14605200Y-10363400D01*
X14605200Y-10261400D02*
X14503200Y-10363400D01*
X14554200Y-10261400D02*
X14554200Y-10363400D01*
X14503200Y-10312400D02*
X14605200Y-10312400D01*
X14757200Y-8483400D02*
X14859200Y-8585400D01*
X14859200Y-8483400D02*
X14757200Y-8585400D01*
X14808200Y-8483400D02*
X14808200Y-8585400D01*
X14757200Y-8534400D02*
X14859200Y-8534400D01*
X14757200Y-10261400D02*
X14859200Y-10363400D01*
X14859200Y-10261400D02*
X14757200Y-10363400D01*
X14808200Y-10261400D02*
X14808200Y-10363400D01*
X14757200Y-10312400D02*
X14859200Y-10312400D01*
X15011200Y-8483400D02*
X15113200Y-8585400D01*
X15113200Y-8483400D02*
X15011200Y-8585400D01*
X15062200Y-8483400D02*
X15062200Y-8585400D01*
X15011200Y-8534400D02*
X15113200Y-8534400D01*
X15011200Y-10261400D02*
X15113200Y-10363400D01*
X15113200Y-10261400D02*
X15011200Y-10363400D01*
X15062200Y-10261400D02*
X15062200Y-10363400D01*
X15011200Y-10312400D02*
X15113200Y-10312400D01*
X15265200Y-8483400D02*
X15367200Y-8585400D01*
X15367200Y-8483400D02*
X15265200Y-8585400D01*
X15316200Y-8483400D02*
X15316200Y-8585400D01*
X15265200Y-8534400D02*
X15367200Y-8534400D01*
X15265200Y-10261400D02*
X15367200Y-10363400D01*
X15367200Y-10261400D02*
X15265200Y-10363400D01*
X15316200Y-10261400D02*
X15316200Y-10363400D01*
X15265200Y-10312400D02*
X15367200Y-10312400D01*
X15519200Y-8483400D02*
X15621200Y-8585400D01*
X15621200Y-8483400D02*
X15519200Y-8585400D01*
X15570200Y-8483400D02*
X15570200Y-8585400D01*
X15519200Y-8534400D02*
X15621200Y-8534400D01*
X15519200Y-10261400D02*
X15621200Y-10363400D01*
X15621200Y-10261400D02*
X15519200Y-10363400D01*
X15570200Y-10261400D02*
X15570200Y-10363400D01*
X15519200Y-10312400D02*
X15621200Y-10312400D01*
X15773200Y-8483400D02*
X15875200Y-8585400D01*
X15875200Y-8483400D02*
X15773200Y-8585400D01*
X15824200Y-8483400D02*
X15824200Y-8585400D01*
X15773200Y-8534400D02*
X15875200Y-8534400D01*
X15773200Y-10261400D02*
X15875200Y-10363400D01*
X15875200Y-10261400D02*
X15773200Y-10363400D01*
X15824200Y-10261400D02*
X15824200Y-10363400D01*
X15773200Y-10312400D02*
X15875200Y-10312400D01*
X16027200Y-8483400D02*
X16129200Y-8585400D01*
X16129200Y-8483400D02*
X16027200Y-8585400D01*
X16078200Y-8483400D02*
X16078200Y-8585400D01*
X16027200Y-8534400D02*
X16129200Y-8534400D01*
X16027200Y-10261400D02*
X16129200Y-10363400D01*
X16129200Y-10261400D02*
X16027200Y-10363400D01*
X16078200Y-10261400D02*
X16078200Y-10363400D01*
X16027200Y-10312400D02*
X16129200Y-10312400D01*
X16281200Y-8483400D02*
X16383200Y-8585400D01*
X16383200Y-8483400D02*
X16281200Y-8585400D01*
X16332200Y-8483400D02*
X16332200Y-8585400D01*
X16281200Y-8534400D02*
X16383200Y-8534400D01*
X16281200Y-10261400D02*
X16383200Y-10363400D01*
X16383200Y-10261400D02*
X16281200Y-10363400D01*
X16332200Y-10261400D02*
X16332200Y-10363400D01*
X16281200Y-10312400D02*
X16383200Y-10312400D01*
X16535200Y-8483400D02*
X16637200Y-8585400D01*
X16637200Y-8483400D02*
X16535200Y-8585400D01*
X16586200Y-8483400D02*
X16586200Y-8585400D01*
X16535200Y-8534400D02*
X16637200Y-8534400D01*
X16535200Y-10261400D02*
X16637200Y-10363400D01*
X16637200Y-10261400D02*
X16535200Y-10363400D01*
X16586200Y-10261400D02*
X16586200Y-10363400D01*
X16535200Y-10312400D02*
X16637200Y-10312400D01*
X16789200Y-8483400D02*
X16891200Y-8585400D01*
X16891200Y-8483400D02*
X16789200Y-8585400D01*
X16840200Y-8483400D02*
X16840200Y-8585400D01*
X16789200Y-8534400D02*
X16891200Y-8534400D01*
X16789200Y-10261400D02*
X16891200Y-10363400D01*
X16891200Y-10261400D02*
X16789200Y-10363400D01*
X16840200Y-10261400D02*
X16840200Y-10363400D01*
X16789200Y-10312400D02*
X16891200Y-10312400D01*
X17043200Y-8483400D02*
X17145200Y-8585400D01*
X17145200Y-8483400D02*
X17043200Y-8585400D01*
X17094200Y-8483400D02*
X17094200Y-8585400D01*
X17043200Y-8534400D02*
X17145200Y-8534400D01*
X17043200Y-10261400D02*
X17145200Y-10363400D01*
X17145200Y-10261400D02*
X17043200Y-10363400D01*
X17094200Y-10261400D02*
X17094200Y-10363400D01*
X17043200Y-10312400D02*
X17145200Y-10312400D01*
X17297200Y-8483400D02*
X17399200Y-8585400D01*
X17399200Y-8483400D02*
X17297200Y-8585400D01*
X17348200Y-8483400D02*
X17348200Y-8585400D01*
X17297200Y-8534400D02*
X17399200Y-8534400D01*
X17297200Y-10261400D02*
X17399200Y-10363400D01*
X17399200Y-10261400D02*
X17297200Y-10363400D01*
X17348200Y-10261400D02*
X17348200Y-10363400D01*
X17297200Y-10312400D02*
X17399200Y-10312400D01*
X17551200Y-8483400D02*
X17653200Y-8585400D01*
X17653200Y-8483400D02*
X17551200Y-8585400D01*
X17602200Y-8483400D02*
X17602200Y-8585400D01*
X17551200Y-8534400D02*
X17653200Y-8534400D01*
X17551200Y-10261400D02*
X17653200Y-10363400D01*
X17653200Y-10261400D02*
X17551200Y-10363400D01*
X17602200Y-10261400D02*
X17602200Y-10363400D01*
X17551200Y-10312400D02*
X17653200Y-10312400D01*
X17805200Y-8483400D02*
X17907200Y-8585400D01*
X17907200Y-8483400D02*
X17805200Y-8585400D01*
X17856200Y-8483400D02*
X17856200Y-8585400D01*
X17805200Y-8534400D02*
X17907200Y-8534400D01*
X17805200Y-10261400D02*
X17907200Y-10363400D01*
X17907200Y-10261400D02*
X17805200Y-10363400D01*
X17856200Y-10261400D02*
X17856200Y-10363400D01*
X17805200Y-10312400D02*
X17907200Y-10312400D01*
X18059200Y-8483400D02*
X18161200Y-8585400D01*
X18161200Y-8483400D02*
X18059200Y-8585400D01*
X18110200Y-8483400D02*
X18110200Y-8585400D01*
X18059200Y-8534400D02*
X18161200Y-8534400D01*
X18059200Y-10261400D02*
X18161200Y-10363400D01*
X18161200Y-10261400D02*
X18059200Y-10363400D01*
X18110200Y-10261400D02*
X18110200Y-10363400D01*
X18059200Y-10312400D02*
X18161200Y-10312400D01*
X18313200Y-8483400D02*
X18415200Y-8585400D01*
X18415200Y-8483400D02*
X18313200Y-8585400D01*
X18364200Y-8483400D02*
X18364200Y-8585400D01*
X18313200Y-8534400D02*
X18415200Y-8534400D01*
X18313200Y-10261400D02*
X18415200Y-10363400D01*
X18415200Y-10261400D02*
X18313200Y-10363400D01*
X18364200Y-10261400D02*
X18364200Y-10363400D01*
X18313200Y-10312400D02*
X18415200Y-10312400D01*
X18567200Y-8483400D02*
X18669200Y-8585400D01*
X18669200Y-8483400D02*
X18567200Y-8585400D01*
X18618200Y-8483400D02*
X18618200Y-8585400D01*
X18567200Y-8534400D02*
X18669200Y-8534400D01*
X18567200Y-10261400D02*
X18669200Y-10363400D01*
X18669200Y-10261400D02*
X18567200Y-10363400D01*
X18618200Y-10261400D02*
X18618200Y-10363400D01*
X18567200Y-10312400D02*
X18669200Y-10312400D01*
X18821200Y-8483400D02*
X18923200Y-8585400D01*
X18923200Y-8483400D02*
X18821200Y-8585400D01*
X18872200Y-8483400D02*
X18872200Y-8585400D01*
X18821200Y-8534400D02*
X18923200Y-8534400D01*
X18821200Y-10261400D02*
X18923200Y-10363400D01*
X18923200Y-10261400D02*
X18821200Y-10363400D01*
X18872200Y-10261400D02*
X18872200Y-10363400D01*
X18821200Y-10312400D02*
X18923200Y-10312400D01*
X19075200Y-8483400D02*
X19177200Y-8585400D01*
X19177200Y-8483400D02*
X19075200Y-8585400D01*
X19126200Y-8483400D02*
X19126200Y-8585400D01*
X19075200Y-8534400D02*
X19177200Y-8534400D01*
X19075200Y-10261400D02*
X19177200Y-10363400D01*
X19177200Y-10261400D02*
X19075200Y-10363400D01*
X19126200Y-10261400D02*
X19126200Y-10363400D01*
X19075200Y-10312400D02*
X19177200Y-10312400D01*
X10816200Y-10257400D02*
X10926200Y-10367400D01*
X10926200Y-10257400D02*
X10816200Y-10367400D01*
X10910091Y-10351291D02*
X10910091Y-10273509D01*
X10832309Y-10273509D01*
X10832309Y-10351291D01*
X10910091Y-10351291D01*
X11578200Y-10257400D02*
X11688200Y-10367400D01*
X11688200Y-10257400D02*
X11578200Y-10367400D01*
X11672091Y-10351291D02*
X11672091Y-10273509D01*
X11594309Y-10273509D01*
X11594309Y-10351291D01*
X11672091Y-10351291D01*
X11705200Y-7971400D02*
X11815200Y-8081400D01*
X11815200Y-7971400D02*
X11705200Y-8081400D01*
X11799091Y-8065291D02*
X11799091Y-7987509D01*
X11721309Y-7987509D01*
X11721309Y-8065291D01*
X11799091Y-8065291D01*
X12721200Y-7971400D02*
X12831200Y-8081400D01*
X12831200Y-7971400D02*
X12721200Y-8081400D01*
X12815091Y-8065291D02*
X12815091Y-7987509D01*
X12737309Y-7987509D01*
X12737309Y-8065291D01*
X12815091Y-8065291D01*
X10547200Y-7321400D02*
X10687200Y-7461400D01*
X10687200Y-7321400D02*
X10547200Y-7461400D01*
X10617200Y-7461400D02*
X10687200Y-7391400D01*
X10617200Y-7321400D01*
X10547200Y-7391400D01*
X10617200Y-7461400D01*
X11182200Y-7321400D02*
X11322200Y-7461400D01*
X11322200Y-7321400D02*
X11182200Y-7461400D01*
X11252200Y-7461400D02*
X11322200Y-7391400D01*
X11252200Y-7321400D01*
X11182200Y-7391400D01*
X11252200Y-7461400D01*
X12134700Y-7321400D02*
X12274700Y-7461400D01*
X12274700Y-7321400D02*
X12134700Y-7461400D01*
X12204700Y-7461400D02*
X12274700Y-7391400D01*
X12204700Y-7321400D01*
X12134700Y-7391400D01*
X12204700Y-7461400D01*
X12769700Y-7321400D02*
X12909700Y-7461400D01*
X12909700Y-7321400D02*
X12769700Y-7461400D01*
X12839700Y-7461400D02*
X12909700Y-7391400D01*
X12839700Y-7321400D01*
X12769700Y-7391400D01*
X12839700Y-7461400D01*
X9982200Y-7823400D02*
X9982200Y-7975400D01*
X9906200Y-7899400D02*
X10058200Y-7899400D01*
X10058200Y-7899400D02*
G75*
G03X10058200Y-7899400I-76000J0D01*
G01*
X9982200Y-8331400D02*
X9982200Y-8483400D01*
X9906200Y-8407400D02*
X10058200Y-8407400D01*
X10058200Y-8407400D02*
G75*
G03X10058200Y-8407400I-76000J0D01*
G01*
X9982200Y-8966400D02*
X9982200Y-9118400D01*
X9906200Y-9042400D02*
X10058200Y-9042400D01*
X10058200Y-9042400D02*
G75*
G03X10058200Y-9042400I-76000J0D01*
G01*
X9982200Y-9474400D02*
X9982200Y-9626400D01*
X9906200Y-9550400D02*
X10058200Y-9550400D01*
X10058200Y-9550400D02*
G75*
G03X10058200Y-9550400I-76000J0D01*
G01*
X9982200Y-9982400D02*
X9982200Y-10134400D01*
X9906200Y-10058400D02*
X10058200Y-10058400D01*
X10058200Y-10058400D02*
G75*
G03X10058200Y-10058400I-76000J0D01*
G01*
X9982200Y-10617400D02*
X9982200Y-10769400D01*
X9906200Y-10693400D02*
X10058200Y-10693400D01*
X10058200Y-10693400D02*
G75*
G03X10058200Y-10693400I-76000J0D01*
G01*
X9982200Y-11125400D02*
X9982200Y-11277400D01*
X9906200Y-11201400D02*
X10058200Y-11201400D01*
X10058200Y-11201400D02*
G75*
G03X10058200Y-11201400I-76000J0D01*
G01*
X9982200Y-11633400D02*
X9982200Y-11785400D01*
X9906200Y-11709400D02*
X10058200Y-11709400D01*
X10058200Y-11709400D02*
G75*
G03X10058200Y-11709400I-76000J0D01*
G01*
X10744200Y-12395400D02*
X10744200Y-12547400D01*
X10668200Y-12471400D02*
X10820200Y-12471400D01*
X10820200Y-12471400D02*
G75*
G03X10820200Y-12471400I-76000J0D01*
G01*
X11252200Y-12395400D02*
X11252200Y-12547400D01*
X11176200Y-12471400D02*
X11328200Y-12471400D01*
X11328200Y-12471400D02*
G75*
G03X11328200Y-12471400I-76000J0D01*
G01*
X11760200Y-12395400D02*
X11760200Y-12547400D01*
X11684200Y-12471400D02*
X11836200Y-12471400D01*
X11836200Y-12471400D02*
G75*
G03X11836200Y-12471400I-76000J0D01*
G01*
X12268200Y-12395400D02*
X12268200Y-12547400D01*
X12192200Y-12471400D02*
X12344200Y-12471400D01*
X12344200Y-12471400D02*
G75*
G03X12344200Y-12471400I-76000J0D01*
G01*
X12776200Y-12395400D02*
X12776200Y-12547400D01*
X12700200Y-12471400D02*
X12852200Y-12471400D01*
X12852200Y-12471400D02*
G75*
G03X12852200Y-12471400I-76000J0D01*
G01*
X13284200Y-12395400D02*
X13284200Y-12547400D01*
X13208200Y-12471400D02*
X13360200Y-12471400D01*
X13360200Y-12471400D02*
G75*
G03X13360200Y-12471400I-76000J0D01*
G01*
X13792200Y-12395400D02*
X13792200Y-12547400D01*
X13716200Y-12471400D02*
X13868200Y-12471400D01*
X13868200Y-12471400D02*
G75*
G03X13868200Y-12471400I-76000J0D01*
G01*
D13*
X9865129Y-13325614D02*
X9865129Y-13025614D01*
X9936557Y-13025614D01*
X9979414Y-13039900D01*
X10007986Y-13068471D01*
X10022271Y-13097043D01*
X10036557Y-13154186D01*
X10036557Y-13197043D01*
X10022271Y-13254186D01*
X10007986Y-13282757D01*
X9979414Y-13311329D01*
X9936557Y-13325614D01*
X9865129Y-13325614D01*
X10165129Y-13325614D02*
X10165129Y-13125614D01*
X10165129Y-13182757D02*
X10179414Y-13154186D01*
X10193700Y-13139900D01*
X10222271Y-13125614D01*
X10250843Y-13125614D01*
X10350843Y-13325614D02*
X10350843Y-13125614D01*
X10350843Y-13025614D02*
X10336557Y-13039900D01*
X10350843Y-13054186D01*
X10365129Y-13039900D01*
X10350843Y-13025614D01*
X10350843Y-13054186D01*
X10536557Y-13325614D02*
X10507986Y-13311329D01*
X10493700Y-13282757D01*
X10493700Y-13025614D01*
X10693700Y-13325614D02*
X10665129Y-13311329D01*
X10650843Y-13282757D01*
X10650843Y-13025614D01*
X11036557Y-13325614D02*
X11036557Y-13025614D01*
X11136557Y-13239900D01*
X11236557Y-13025614D01*
X11236557Y-13325614D01*
X11507986Y-13325614D02*
X11507986Y-13168471D01*
X11493700Y-13139900D01*
X11465128Y-13125614D01*
X11407986Y-13125614D01*
X11379414Y-13139900D01*
X11507986Y-13311329D02*
X11479414Y-13325614D01*
X11407986Y-13325614D01*
X11379414Y-13311329D01*
X11365128Y-13282757D01*
X11365128Y-13254186D01*
X11379414Y-13225614D01*
X11407986Y-13211329D01*
X11479414Y-13211329D01*
X11507986Y-13197043D01*
X11650843Y-13125614D02*
X11650843Y-13425614D01*
X11650843Y-13139900D02*
X11679414Y-13125614D01*
X11736557Y-13125614D01*
X11765128Y-13139900D01*
X11779414Y-13154186D01*
X11793700Y-13182757D01*
X11793700Y-13268471D01*
X11779414Y-13297043D01*
X11765128Y-13311329D01*
X11736557Y-13325614D01*
X11679414Y-13325614D01*
X11650843Y-13311329D01*
X11922271Y-13297043D02*
X11936557Y-13311329D01*
X11922271Y-13325614D01*
X11907986Y-13311329D01*
X11922271Y-13297043D01*
X11922271Y-13325614D01*
X11922271Y-13139900D02*
X11936557Y-13154186D01*
X11922271Y-13168471D01*
X11907986Y-13154186D01*
X11922271Y-13139900D01*
X11922271Y-13168471D01*
X9553700Y-13799900D02*
X9593700Y-13839900D01*
X9593700Y-13799900D02*
X9553700Y-13839900D01*
X9922271Y-13655614D02*
X9950843Y-13655614D01*
X9979414Y-13669900D01*
X9993700Y-13684186D01*
X10007986Y-13712757D01*
X10022271Y-13769900D01*
X10022271Y-13841329D01*
X10007986Y-13898471D01*
X9993700Y-13927043D01*
X9979414Y-13941329D01*
X9950843Y-13955614D01*
X9922271Y-13955614D01*
X9893700Y-13941329D01*
X9879414Y-13927043D01*
X9865129Y-13898471D01*
X9850843Y-13841329D01*
X9850843Y-13769900D01*
X9865129Y-13712757D01*
X9879414Y-13684186D01*
X9893700Y-13669900D01*
X9922271Y-13655614D01*
X10150843Y-13927043D02*
X10165129Y-13941329D01*
X10150843Y-13955614D01*
X10136557Y-13941329D01*
X10150843Y-13927043D01*
X10150843Y-13955614D01*
X10422271Y-13755614D02*
X10422271Y-13955614D01*
X10350843Y-13641329D02*
X10279414Y-13855614D01*
X10465128Y-13855614D01*
X10636557Y-13655614D02*
X10665129Y-13655614D01*
X10693700Y-13669900D01*
X10707986Y-13684186D01*
X10722271Y-13712757D01*
X10736557Y-13769900D01*
X10736557Y-13841329D01*
X10722271Y-13898471D01*
X10707986Y-13927043D01*
X10693700Y-13941329D01*
X10665129Y-13955614D01*
X10636557Y-13955614D01*
X10607986Y-13941329D01*
X10593700Y-13927043D01*
X10579414Y-13898471D01*
X10565129Y-13841329D01*
X10565129Y-13769900D01*
X10579414Y-13712757D01*
X10593700Y-13684186D01*
X10607986Y-13669900D01*
X10636557Y-13655614D01*
X10865129Y-13955614D02*
X10865129Y-13755614D01*
X10865129Y-13784186D02*
X10879414Y-13769900D01*
X10907986Y-13755614D01*
X10950843Y-13755614D01*
X10979414Y-13769900D01*
X10993700Y-13798471D01*
X10993700Y-13955614D01*
X10993700Y-13798471D02*
X11007986Y-13769900D01*
X11036557Y-13755614D01*
X11079414Y-13755614D01*
X11107986Y-13769900D01*
X11122271Y-13798471D01*
X11122271Y-13955614D01*
X11265128Y-13955614D02*
X11265128Y-13755614D01*
X11265128Y-13784186D02*
X11279414Y-13769900D01*
X11307986Y-13755614D01*
X11350843Y-13755614D01*
X11379414Y-13769900D01*
X11393700Y-13798471D01*
X11393700Y-13955614D01*
X11393700Y-13798471D02*
X11407986Y-13769900D01*
X11436557Y-13755614D01*
X11479414Y-13755614D01*
X11507986Y-13769900D01*
X11522271Y-13798471D01*
X11522271Y-13955614D01*
X12107986Y-13641329D02*
X11850843Y-14027043D01*
X12493700Y-13655614D02*
X12522271Y-13655614D01*
X12550843Y-13669900D01*
X12565128Y-13684186D01*
X12579414Y-13712757D01*
X12593700Y-13769900D01*
X12593700Y-13841329D01*
X12579414Y-13898471D01*
X12565128Y-13927043D01*
X12550843Y-13941329D01*
X12522271Y-13955614D01*
X12493700Y-13955614D01*
X12465128Y-13941329D01*
X12450843Y-13927043D01*
X12436557Y-13898471D01*
X12422271Y-13841329D01*
X12422271Y-13769900D01*
X12436557Y-13712757D01*
X12450843Y-13684186D01*
X12465128Y-13669900D01*
X12493700Y-13655614D01*
X12722271Y-13927043D02*
X12736557Y-13941329D01*
X12722271Y-13955614D01*
X12707986Y-13941329D01*
X12722271Y-13927043D01*
X12722271Y-13955614D01*
X12922271Y-13655614D02*
X12950843Y-13655614D01*
X12979414Y-13669900D01*
X12993700Y-13684186D01*
X13007985Y-13712757D01*
X13022271Y-13769900D01*
X13022271Y-13841329D01*
X13007985Y-13898471D01*
X12993700Y-13927043D01*
X12979414Y-13941329D01*
X12950843Y-13955614D01*
X12922271Y-13955614D01*
X12893700Y-13941329D01*
X12879414Y-13927043D01*
X12865128Y-13898471D01*
X12850843Y-13841329D01*
X12850843Y-13769900D01*
X12865128Y-13712757D01*
X12879414Y-13684186D01*
X12893700Y-13669900D01*
X12922271Y-13655614D01*
X13307985Y-13955614D02*
X13136557Y-13955614D01*
X13222271Y-13955614D02*
X13222271Y-13655614D01*
X13193700Y-13698471D01*
X13165128Y-13727043D01*
X13136557Y-13741329D01*
X13565128Y-13655614D02*
X13507985Y-13655614D01*
X13479414Y-13669900D01*
X13465128Y-13684186D01*
X13436557Y-13727043D01*
X13422271Y-13784186D01*
X13422271Y-13898471D01*
X13436557Y-13927043D01*
X13450843Y-13941329D01*
X13479414Y-13955614D01*
X13536557Y-13955614D01*
X13565128Y-13941329D01*
X13579414Y-13927043D01*
X13593700Y-13898471D01*
X13593700Y-13827043D01*
X13579414Y-13798471D01*
X13565128Y-13784186D01*
X13536557Y-13769900D01*
X13479414Y-13769900D01*
X13450843Y-13784186D01*
X13436557Y-13798471D01*
X13422271Y-13827043D01*
X13707986Y-13655614D02*
X13707986Y-13712757D01*
X13822271Y-13655614D02*
X13822271Y-13712757D01*
X14265128Y-14069900D02*
X14250843Y-14055614D01*
X14222271Y-14012757D01*
X14207985Y-13984186D01*
X14193700Y-13941329D01*
X14179414Y-13869900D01*
X14179414Y-13812757D01*
X14193700Y-13741329D01*
X14207985Y-13698471D01*
X14222271Y-13669900D01*
X14250843Y-13627043D01*
X14265128Y-13612757D01*
X14350843Y-13655614D02*
X14536557Y-13655614D01*
X14436557Y-13769900D01*
X14479414Y-13769900D01*
X14507985Y-13784186D01*
X14522271Y-13798471D01*
X14536557Y-13827043D01*
X14536557Y-13898471D01*
X14522271Y-13927043D01*
X14507985Y-13941329D01*
X14479414Y-13955614D01*
X14393700Y-13955614D01*
X14365128Y-13941329D01*
X14350843Y-13927043D01*
X14722271Y-13655614D02*
X14750843Y-13655614D01*
X14779414Y-13669900D01*
X14793700Y-13684186D01*
X14807985Y-13712757D01*
X14822271Y-13769900D01*
X14822271Y-13841329D01*
X14807985Y-13898471D01*
X14793700Y-13927043D01*
X14779414Y-13941329D01*
X14750843Y-13955614D01*
X14722271Y-13955614D01*
X14693700Y-13941329D01*
X14679414Y-13927043D01*
X14665128Y-13898471D01*
X14650843Y-13841329D01*
X14650843Y-13769900D01*
X14665128Y-13712757D01*
X14679414Y-13684186D01*
X14693700Y-13669900D01*
X14722271Y-13655614D01*
X15179414Y-13955614D02*
X15179414Y-13655614D01*
X15307985Y-13955614D02*
X15307985Y-13798471D01*
X15293700Y-13769900D01*
X15265128Y-13755614D01*
X15222271Y-13755614D01*
X15193700Y-13769900D01*
X15179414Y-13784186D01*
X15493700Y-13955614D02*
X15465128Y-13941329D01*
X15450843Y-13927043D01*
X15436557Y-13898471D01*
X15436557Y-13812757D01*
X15450843Y-13784186D01*
X15465128Y-13769900D01*
X15493700Y-13755614D01*
X15536557Y-13755614D01*
X15565128Y-13769900D01*
X15579414Y-13784186D01*
X15593700Y-13812757D01*
X15593700Y-13898471D01*
X15579414Y-13927043D01*
X15565128Y-13941329D01*
X15536557Y-13955614D01*
X15493700Y-13955614D01*
X15765128Y-13955614D02*
X15736557Y-13941329D01*
X15722271Y-13912757D01*
X15722271Y-13655614D01*
X15993700Y-13941329D02*
X15965128Y-13955614D01*
X15907986Y-13955614D01*
X15879414Y-13941329D01*
X15865128Y-13912757D01*
X15865128Y-13798471D01*
X15879414Y-13769900D01*
X15907986Y-13755614D01*
X15965128Y-13755614D01*
X15993700Y-13769900D01*
X16007986Y-13798471D01*
X16007986Y-13827043D01*
X15865128Y-13855614D01*
X16122271Y-13941329D02*
X16150843Y-13955614D01*
X16207986Y-13955614D01*
X16236557Y-13941329D01*
X16250843Y-13912757D01*
X16250843Y-13898471D01*
X16236557Y-13869900D01*
X16207986Y-13855614D01*
X16165128Y-13855614D01*
X16136557Y-13841329D01*
X16122271Y-13812757D01*
X16122271Y-13798471D01*
X16136557Y-13769900D01*
X16165128Y-13755614D01*
X16207986Y-13755614D01*
X16236557Y-13769900D01*
X16350843Y-14069900D02*
X16365128Y-14055614D01*
X16393700Y-14012757D01*
X16407986Y-13984186D01*
X16422271Y-13941329D01*
X16436557Y-13869900D01*
X16436557Y-13812757D01*
X16422271Y-13741329D01*
X16407986Y-13698471D01*
X16393700Y-13669900D01*
X16365128Y-13627043D01*
X16350843Y-13612757D01*
X9593700Y-14215900D02*
G75*
G03X9593700Y-14215900I-30000J0D01*
G01*
X9922271Y-14051614D02*
X9950843Y-14051614D01*
X9979414Y-14065900D01*
X9993700Y-14080186D01*
X10007986Y-14108757D01*
X10022271Y-14165900D01*
X10022271Y-14237329D01*
X10007986Y-14294471D01*
X9993700Y-14323043D01*
X9979414Y-14337329D01*
X9950843Y-14351614D01*
X9922271Y-14351614D01*
X9893700Y-14337329D01*
X9879414Y-14323043D01*
X9865129Y-14294471D01*
X9850843Y-14237329D01*
X9850843Y-14165900D01*
X9865129Y-14108757D01*
X9879414Y-14080186D01*
X9893700Y-14065900D01*
X9922271Y-14051614D01*
X10150843Y-14323043D02*
X10165129Y-14337329D01*
X10150843Y-14351614D01*
X10136557Y-14337329D01*
X10150843Y-14323043D01*
X10150843Y-14351614D01*
X10422271Y-14051614D02*
X10365128Y-14051614D01*
X10336557Y-14065900D01*
X10322271Y-14080186D01*
X10293700Y-14123043D01*
X10279414Y-14180186D01*
X10279414Y-14294471D01*
X10293700Y-14323043D01*
X10307986Y-14337329D01*
X10336557Y-14351614D01*
X10393700Y-14351614D01*
X10422271Y-14337329D01*
X10436557Y-14323043D01*
X10450843Y-14294471D01*
X10450843Y-14223043D01*
X10436557Y-14194471D01*
X10422271Y-14180186D01*
X10393700Y-14165900D01*
X10336557Y-14165900D01*
X10307986Y-14180186D01*
X10293700Y-14194471D01*
X10279414Y-14223043D01*
X10636557Y-14051614D02*
X10665129Y-14051614D01*
X10693700Y-14065900D01*
X10707986Y-14080186D01*
X10722271Y-14108757D01*
X10736557Y-14165900D01*
X10736557Y-14237329D01*
X10722271Y-14294471D01*
X10707986Y-14323043D01*
X10693700Y-14337329D01*
X10665129Y-14351614D01*
X10636557Y-14351614D01*
X10607986Y-14337329D01*
X10593700Y-14323043D01*
X10579414Y-14294471D01*
X10565129Y-14237329D01*
X10565129Y-14165900D01*
X10579414Y-14108757D01*
X10593700Y-14080186D01*
X10607986Y-14065900D01*
X10636557Y-14051614D01*
X10865129Y-14351614D02*
X10865129Y-14151614D01*
X10865129Y-14180186D02*
X10879414Y-14165900D01*
X10907986Y-14151614D01*
X10950843Y-14151614D01*
X10979414Y-14165900D01*
X10993700Y-14194471D01*
X10993700Y-14351614D01*
X10993700Y-14194471D02*
X11007986Y-14165900D01*
X11036557Y-14151614D01*
X11079414Y-14151614D01*
X11107986Y-14165900D01*
X11122271Y-14194471D01*
X11122271Y-14351614D01*
X11265128Y-14351614D02*
X11265128Y-14151614D01*
X11265128Y-14180186D02*
X11279414Y-14165900D01*
X11307986Y-14151614D01*
X11350843Y-14151614D01*
X11379414Y-14165900D01*
X11393700Y-14194471D01*
X11393700Y-14351614D01*
X11393700Y-14194471D02*
X11407986Y-14165900D01*
X11436557Y-14151614D01*
X11479414Y-14151614D01*
X11507986Y-14165900D01*
X11522271Y-14194471D01*
X11522271Y-14351614D01*
X12107986Y-14037329D02*
X11850843Y-14423043D01*
X12493700Y-14051614D02*
X12522271Y-14051614D01*
X12550843Y-14065900D01*
X12565128Y-14080186D01*
X12579414Y-14108757D01*
X12593700Y-14165900D01*
X12593700Y-14237329D01*
X12579414Y-14294471D01*
X12565128Y-14323043D01*
X12550843Y-14337329D01*
X12522271Y-14351614D01*
X12493700Y-14351614D01*
X12465128Y-14337329D01*
X12450843Y-14323043D01*
X12436557Y-14294471D01*
X12422271Y-14237329D01*
X12422271Y-14165900D01*
X12436557Y-14108757D01*
X12450843Y-14080186D01*
X12465128Y-14065900D01*
X12493700Y-14051614D01*
X12722271Y-14323043D02*
X12736557Y-14337329D01*
X12722271Y-14351614D01*
X12707986Y-14337329D01*
X12722271Y-14323043D01*
X12722271Y-14351614D01*
X12922271Y-14051614D02*
X12950843Y-14051614D01*
X12979414Y-14065900D01*
X12993700Y-14080186D01*
X13007985Y-14108757D01*
X13022271Y-14165900D01*
X13022271Y-14237329D01*
X13007985Y-14294471D01*
X12993700Y-14323043D01*
X12979414Y-14337329D01*
X12950843Y-14351614D01*
X12922271Y-14351614D01*
X12893700Y-14337329D01*
X12879414Y-14323043D01*
X12865128Y-14294471D01*
X12850843Y-14237329D01*
X12850843Y-14165900D01*
X12865128Y-14108757D01*
X12879414Y-14080186D01*
X12893700Y-14065900D01*
X12922271Y-14051614D01*
X13136557Y-14080186D02*
X13150843Y-14065900D01*
X13179414Y-14051614D01*
X13250843Y-14051614D01*
X13279414Y-14065900D01*
X13293700Y-14080186D01*
X13307985Y-14108757D01*
X13307985Y-14137329D01*
X13293700Y-14180186D01*
X13122271Y-14351614D01*
X13307985Y-14351614D01*
X13565128Y-14151614D02*
X13565128Y-14351614D01*
X13493700Y-14037329D02*
X13422271Y-14251614D01*
X13607985Y-14251614D01*
X13707986Y-14051614D02*
X13707986Y-14108757D01*
X13822271Y-14051614D02*
X13822271Y-14108757D01*
X14265128Y-14465900D02*
X14250843Y-14451614D01*
X14222271Y-14408757D01*
X14207985Y-14380186D01*
X14193700Y-14337329D01*
X14179414Y-14265900D01*
X14179414Y-14208757D01*
X14193700Y-14137329D01*
X14207985Y-14094471D01*
X14222271Y-14065900D01*
X14250843Y-14023043D01*
X14265128Y-14008757D01*
X14536557Y-14351614D02*
X14365128Y-14351614D01*
X14450843Y-14351614D02*
X14450843Y-14051614D01*
X14422271Y-14094471D01*
X14393700Y-14123043D01*
X14365128Y-14137329D01*
X14722271Y-14051614D02*
X14750843Y-14051614D01*
X14779414Y-14065900D01*
X14793700Y-14080186D01*
X14807985Y-14108757D01*
X14822271Y-14165900D01*
X14822271Y-14237329D01*
X14807985Y-14294471D01*
X14793700Y-14323043D01*
X14779414Y-14337329D01*
X14750843Y-14351614D01*
X14722271Y-14351614D01*
X14693700Y-14337329D01*
X14679414Y-14323043D01*
X14665128Y-14294471D01*
X14650843Y-14237329D01*
X14650843Y-14165900D01*
X14665128Y-14108757D01*
X14679414Y-14080186D01*
X14693700Y-14065900D01*
X14722271Y-14051614D01*
X15179414Y-14351614D02*
X15179414Y-14051614D01*
X15307985Y-14351614D02*
X15307985Y-14194471D01*
X15293700Y-14165900D01*
X15265128Y-14151614D01*
X15222271Y-14151614D01*
X15193700Y-14165900D01*
X15179414Y-14180186D01*
X15493700Y-14351614D02*
X15465128Y-14337329D01*
X15450843Y-14323043D01*
X15436557Y-14294471D01*
X15436557Y-14208757D01*
X15450843Y-14180186D01*
X15465128Y-14165900D01*
X15493700Y-14151614D01*
X15536557Y-14151614D01*
X15565128Y-14165900D01*
X15579414Y-14180186D01*
X15593700Y-14208757D01*
X15593700Y-14294471D01*
X15579414Y-14323043D01*
X15565128Y-14337329D01*
X15536557Y-14351614D01*
X15493700Y-14351614D01*
X15765128Y-14351614D02*
X15736557Y-14337329D01*
X15722271Y-14308757D01*
X15722271Y-14051614D01*
X15993700Y-14337329D02*
X15965128Y-14351614D01*
X15907986Y-14351614D01*
X15879414Y-14337329D01*
X15865128Y-14308757D01*
X15865128Y-14194471D01*
X15879414Y-14165900D01*
X15907986Y-14151614D01*
X15965128Y-14151614D01*
X15993700Y-14165900D01*
X16007986Y-14194471D01*
X16007986Y-14223043D01*
X15865128Y-14251614D01*
X16122271Y-14337329D02*
X16150843Y-14351614D01*
X16207986Y-14351614D01*
X16236557Y-14337329D01*
X16250843Y-14308757D01*
X16250843Y-14294471D01*
X16236557Y-14265900D01*
X16207986Y-14251614D01*
X16165128Y-14251614D01*
X16136557Y-14237329D01*
X16122271Y-14208757D01*
X16122271Y-14194471D01*
X16136557Y-14165900D01*
X16165128Y-14151614D01*
X16207986Y-14151614D01*
X16236557Y-14165900D01*
X16350843Y-14465900D02*
X16365128Y-14451614D01*
X16393700Y-14408757D01*
X16407986Y-14380186D01*
X16422271Y-14337329D01*
X16436557Y-14265900D01*
X16436557Y-14208757D01*
X16422271Y-14137329D01*
X16407986Y-14094471D01*
X16393700Y-14065900D01*
X16365128Y-14023043D01*
X16350843Y-14008757D01*
X9558700Y-14576900D02*
X9558700Y-14646900D01*
X9523700Y-14611900D02*
X9593700Y-14611900D01*
X9922271Y-14447614D02*
X9950843Y-14447614D01*
X9979414Y-14461900D01*
X9993700Y-14476186D01*
X10007986Y-14504757D01*
X10022271Y-14561900D01*
X10022271Y-14633329D01*
X10007986Y-14690471D01*
X9993700Y-14719043D01*
X9979414Y-14733329D01*
X9950843Y-14747614D01*
X9922271Y-14747614D01*
X9893700Y-14733329D01*
X9879414Y-14719043D01*
X9865129Y-14690471D01*
X9850843Y-14633329D01*
X9850843Y-14561900D01*
X9865129Y-14504757D01*
X9879414Y-14476186D01*
X9893700Y-14461900D01*
X9922271Y-14447614D01*
X10150843Y-14719043D02*
X10165129Y-14733329D01*
X10150843Y-14747614D01*
X10136557Y-14733329D01*
X10150843Y-14719043D01*
X10150843Y-14747614D01*
X10265128Y-14447614D02*
X10465128Y-14447614D01*
X10336557Y-14747614D01*
X10636557Y-14447614D02*
X10665129Y-14447614D01*
X10693700Y-14461900D01*
X10707986Y-14476186D01*
X10722271Y-14504757D01*
X10736557Y-14561900D01*
X10736557Y-14633329D01*
X10722271Y-14690471D01*
X10707986Y-14719043D01*
X10693700Y-14733329D01*
X10665129Y-14747614D01*
X10636557Y-14747614D01*
X10607986Y-14733329D01*
X10593700Y-14719043D01*
X10579414Y-14690471D01*
X10565129Y-14633329D01*
X10565129Y-14561900D01*
X10579414Y-14504757D01*
X10593700Y-14476186D01*
X10607986Y-14461900D01*
X10636557Y-14447614D01*
X10865129Y-14747614D02*
X10865129Y-14547614D01*
X10865129Y-14576186D02*
X10879414Y-14561900D01*
X10907986Y-14547614D01*
X10950843Y-14547614D01*
X10979414Y-14561900D01*
X10993700Y-14590471D01*
X10993700Y-14747614D01*
X10993700Y-14590471D02*
X11007986Y-14561900D01*
X11036557Y-14547614D01*
X11079414Y-14547614D01*
X11107986Y-14561900D01*
X11122271Y-14590471D01*
X11122271Y-14747614D01*
X11265128Y-14747614D02*
X11265128Y-14547614D01*
X11265128Y-14576186D02*
X11279414Y-14561900D01*
X11307986Y-14547614D01*
X11350843Y-14547614D01*
X11379414Y-14561900D01*
X11393700Y-14590471D01*
X11393700Y-14747614D01*
X11393700Y-14590471D02*
X11407986Y-14561900D01*
X11436557Y-14547614D01*
X11479414Y-14547614D01*
X11507986Y-14561900D01*
X11522271Y-14590471D01*
X11522271Y-14747614D01*
X12107986Y-14433329D02*
X11850843Y-14819043D01*
X12493700Y-14447614D02*
X12522271Y-14447614D01*
X12550843Y-14461900D01*
X12565128Y-14476186D01*
X12579414Y-14504757D01*
X12593700Y-14561900D01*
X12593700Y-14633329D01*
X12579414Y-14690471D01*
X12565128Y-14719043D01*
X12550843Y-14733329D01*
X12522271Y-14747614D01*
X12493700Y-14747614D01*
X12465128Y-14733329D01*
X12450843Y-14719043D01*
X12436557Y-14690471D01*
X12422271Y-14633329D01*
X12422271Y-14561900D01*
X12436557Y-14504757D01*
X12450843Y-14476186D01*
X12465128Y-14461900D01*
X12493700Y-14447614D01*
X12722271Y-14719043D02*
X12736557Y-14733329D01*
X12722271Y-14747614D01*
X12707986Y-14733329D01*
X12722271Y-14719043D01*
X12722271Y-14747614D01*
X12922271Y-14447614D02*
X12950843Y-14447614D01*
X12979414Y-14461900D01*
X12993700Y-14476186D01*
X13007985Y-14504757D01*
X13022271Y-14561900D01*
X13022271Y-14633329D01*
X13007985Y-14690471D01*
X12993700Y-14719043D01*
X12979414Y-14733329D01*
X12950843Y-14747614D01*
X12922271Y-14747614D01*
X12893700Y-14733329D01*
X12879414Y-14719043D01*
X12865128Y-14690471D01*
X12850843Y-14633329D01*
X12850843Y-14561900D01*
X12865128Y-14504757D01*
X12879414Y-14476186D01*
X12893700Y-14461900D01*
X12922271Y-14447614D01*
X13136557Y-14476186D02*
X13150843Y-14461900D01*
X13179414Y-14447614D01*
X13250843Y-14447614D01*
X13279414Y-14461900D01*
X13293700Y-14476186D01*
X13307985Y-14504757D01*
X13307985Y-14533329D01*
X13293700Y-14576186D01*
X13122271Y-14747614D01*
X13307985Y-14747614D01*
X13479414Y-14576186D02*
X13450843Y-14561900D01*
X13436557Y-14547614D01*
X13422271Y-14519043D01*
X13422271Y-14504757D01*
X13436557Y-14476186D01*
X13450843Y-14461900D01*
X13479414Y-14447614D01*
X13536557Y-14447614D01*
X13565128Y-14461900D01*
X13579414Y-14476186D01*
X13593700Y-14504757D01*
X13593700Y-14519043D01*
X13579414Y-14547614D01*
X13565128Y-14561900D01*
X13536557Y-14576186D01*
X13479414Y-14576186D01*
X13450843Y-14590471D01*
X13436557Y-14604757D01*
X13422271Y-14633329D01*
X13422271Y-14690471D01*
X13436557Y-14719043D01*
X13450843Y-14733329D01*
X13479414Y-14747614D01*
X13536557Y-14747614D01*
X13565128Y-14733329D01*
X13579414Y-14719043D01*
X13593700Y-14690471D01*
X13593700Y-14633329D01*
X13579414Y-14604757D01*
X13565128Y-14590471D01*
X13536557Y-14576186D01*
X13707986Y-14447614D02*
X13707986Y-14504757D01*
X13822271Y-14447614D02*
X13822271Y-14504757D01*
X14265128Y-14861900D02*
X14250843Y-14847614D01*
X14222271Y-14804757D01*
X14207985Y-14776186D01*
X14193700Y-14733329D01*
X14179414Y-14661900D01*
X14179414Y-14604757D01*
X14193700Y-14533329D01*
X14207985Y-14490471D01*
X14222271Y-14461900D01*
X14250843Y-14419043D01*
X14265128Y-14404757D01*
X14350843Y-14447614D02*
X14536557Y-14447614D01*
X14436557Y-14561900D01*
X14479414Y-14561900D01*
X14507985Y-14576186D01*
X14522271Y-14590471D01*
X14536557Y-14619043D01*
X14536557Y-14690471D01*
X14522271Y-14719043D01*
X14507985Y-14733329D01*
X14479414Y-14747614D01*
X14393700Y-14747614D01*
X14365128Y-14733329D01*
X14350843Y-14719043D01*
X14893700Y-14747614D02*
X14893700Y-14447614D01*
X15022271Y-14747614D02*
X15022271Y-14590471D01*
X15007985Y-14561900D01*
X14979414Y-14547614D01*
X14936557Y-14547614D01*
X14907985Y-14561900D01*
X14893700Y-14576186D01*
X15207985Y-14747614D02*
X15179414Y-14733329D01*
X15165128Y-14719043D01*
X15150843Y-14690471D01*
X15150843Y-14604757D01*
X15165128Y-14576186D01*
X15179414Y-14561900D01*
X15207985Y-14547614D01*
X15250843Y-14547614D01*
X15279414Y-14561900D01*
X15293700Y-14576186D01*
X15307985Y-14604757D01*
X15307985Y-14690471D01*
X15293700Y-14719043D01*
X15279414Y-14733329D01*
X15250843Y-14747614D01*
X15207985Y-14747614D01*
X15479414Y-14747614D02*
X15450843Y-14733329D01*
X15436557Y-14704757D01*
X15436557Y-14447614D01*
X15707986Y-14733329D02*
X15679414Y-14747614D01*
X15622271Y-14747614D01*
X15593700Y-14733329D01*
X15579414Y-14704757D01*
X15579414Y-14590471D01*
X15593700Y-14561900D01*
X15622271Y-14547614D01*
X15679414Y-14547614D01*
X15707986Y-14561900D01*
X15722271Y-14590471D01*
X15722271Y-14619043D01*
X15579414Y-14647614D01*
X15836557Y-14733329D02*
X15865128Y-14747614D01*
X15922271Y-14747614D01*
X15950843Y-14733329D01*
X15965128Y-14704757D01*
X15965128Y-14690471D01*
X15950843Y-14661900D01*
X15922271Y-14647614D01*
X15879414Y-14647614D01*
X15850843Y-14633329D01*
X15836557Y-14604757D01*
X15836557Y-14590471D01*
X15850843Y-14561900D01*
X15879414Y-14547614D01*
X15922271Y-14547614D01*
X15950843Y-14561900D01*
X16065128Y-14861900D02*
X16079414Y-14847614D01*
X16107986Y-14804757D01*
X16122271Y-14776186D01*
X16136557Y-14733329D01*
X16150843Y-14661900D01*
X16150843Y-14604757D01*
X16136557Y-14533329D01*
X16122271Y-14490471D01*
X16107986Y-14461900D01*
X16079414Y-14419043D01*
X16065128Y-14404757D01*
X9581984Y-15036185D02*
X9581984Y-14979616D01*
X9525415Y-14979616D01*
X9525415Y-15036185D01*
X9581984Y-15036185D01*
X9922271Y-14843614D02*
X9950843Y-14843614D01*
X9979414Y-14857900D01*
X9993700Y-14872186D01*
X10007986Y-14900757D01*
X10022271Y-14957900D01*
X10022271Y-15029329D01*
X10007986Y-15086471D01*
X9993700Y-15115043D01*
X9979414Y-15129329D01*
X9950843Y-15143614D01*
X9922271Y-15143614D01*
X9893700Y-15129329D01*
X9879414Y-15115043D01*
X9865129Y-15086471D01*
X9850843Y-15029329D01*
X9850843Y-14957900D01*
X9865129Y-14900757D01*
X9879414Y-14872186D01*
X9893700Y-14857900D01*
X9922271Y-14843614D01*
X10150843Y-15115043D02*
X10165129Y-15129329D01*
X10150843Y-15143614D01*
X10136557Y-15129329D01*
X10150843Y-15115043D01*
X10150843Y-15143614D01*
X10336557Y-14972186D02*
X10307986Y-14957900D01*
X10293700Y-14943614D01*
X10279414Y-14915043D01*
X10279414Y-14900757D01*
X10293700Y-14872186D01*
X10307986Y-14857900D01*
X10336557Y-14843614D01*
X10393700Y-14843614D01*
X10422271Y-14857900D01*
X10436557Y-14872186D01*
X10450843Y-14900757D01*
X10450843Y-14915043D01*
X10436557Y-14943614D01*
X10422271Y-14957900D01*
X10393700Y-14972186D01*
X10336557Y-14972186D01*
X10307986Y-14986471D01*
X10293700Y-15000757D01*
X10279414Y-15029329D01*
X10279414Y-15086471D01*
X10293700Y-15115043D01*
X10307986Y-15129329D01*
X10336557Y-15143614D01*
X10393700Y-15143614D01*
X10422271Y-15129329D01*
X10436557Y-15115043D01*
X10450843Y-15086471D01*
X10450843Y-15029329D01*
X10436557Y-15000757D01*
X10422271Y-14986471D01*
X10393700Y-14972186D01*
X10636557Y-14843614D02*
X10665129Y-14843614D01*
X10693700Y-14857900D01*
X10707986Y-14872186D01*
X10722271Y-14900757D01*
X10736557Y-14957900D01*
X10736557Y-15029329D01*
X10722271Y-15086471D01*
X10707986Y-15115043D01*
X10693700Y-15129329D01*
X10665129Y-15143614D01*
X10636557Y-15143614D01*
X10607986Y-15129329D01*
X10593700Y-15115043D01*
X10579414Y-15086471D01*
X10565129Y-15029329D01*
X10565129Y-14957900D01*
X10579414Y-14900757D01*
X10593700Y-14872186D01*
X10607986Y-14857900D01*
X10636557Y-14843614D01*
X10865129Y-15143614D02*
X10865129Y-14943614D01*
X10865129Y-14972186D02*
X10879414Y-14957900D01*
X10907986Y-14943614D01*
X10950843Y-14943614D01*
X10979414Y-14957900D01*
X10993700Y-14986471D01*
X10993700Y-15143614D01*
X10993700Y-14986471D02*
X11007986Y-14957900D01*
X11036557Y-14943614D01*
X11079414Y-14943614D01*
X11107986Y-14957900D01*
X11122271Y-14986471D01*
X11122271Y-15143614D01*
X11265128Y-15143614D02*
X11265128Y-14943614D01*
X11265128Y-14972186D02*
X11279414Y-14957900D01*
X11307986Y-14943614D01*
X11350843Y-14943614D01*
X11379414Y-14957900D01*
X11393700Y-14986471D01*
X11393700Y-15143614D01*
X11393700Y-14986471D02*
X11407986Y-14957900D01*
X11436557Y-14943614D01*
X11479414Y-14943614D01*
X11507986Y-14957900D01*
X11522271Y-14986471D01*
X11522271Y-15143614D01*
X12107986Y-14829329D02*
X11850843Y-15215043D01*
X12493700Y-14843614D02*
X12522271Y-14843614D01*
X12550843Y-14857900D01*
X12565128Y-14872186D01*
X12579414Y-14900757D01*
X12593700Y-14957900D01*
X12593700Y-15029329D01*
X12579414Y-15086471D01*
X12565128Y-15115043D01*
X12550843Y-15129329D01*
X12522271Y-15143614D01*
X12493700Y-15143614D01*
X12465128Y-15129329D01*
X12450843Y-15115043D01*
X12436557Y-15086471D01*
X12422271Y-15029329D01*
X12422271Y-14957900D01*
X12436557Y-14900757D01*
X12450843Y-14872186D01*
X12465128Y-14857900D01*
X12493700Y-14843614D01*
X12722271Y-15115043D02*
X12736557Y-15129329D01*
X12722271Y-15143614D01*
X12707986Y-15129329D01*
X12722271Y-15115043D01*
X12722271Y-15143614D01*
X12922271Y-14843614D02*
X12950843Y-14843614D01*
X12979414Y-14857900D01*
X12993700Y-14872186D01*
X13007985Y-14900757D01*
X13022271Y-14957900D01*
X13022271Y-15029329D01*
X13007985Y-15086471D01*
X12993700Y-15115043D01*
X12979414Y-15129329D01*
X12950843Y-15143614D01*
X12922271Y-15143614D01*
X12893700Y-15129329D01*
X12879414Y-15115043D01*
X12865128Y-15086471D01*
X12850843Y-15029329D01*
X12850843Y-14957900D01*
X12865128Y-14900757D01*
X12879414Y-14872186D01*
X12893700Y-14857900D01*
X12922271Y-14843614D01*
X13122271Y-14843614D02*
X13307985Y-14843614D01*
X13207985Y-14957900D01*
X13250843Y-14957900D01*
X13279414Y-14972186D01*
X13293700Y-14986471D01*
X13307985Y-15015043D01*
X13307985Y-15086471D01*
X13293700Y-15115043D01*
X13279414Y-15129329D01*
X13250843Y-15143614D01*
X13165128Y-15143614D01*
X13136557Y-15129329D01*
X13122271Y-15115043D01*
X13593700Y-15143614D02*
X13422271Y-15143614D01*
X13507985Y-15143614D02*
X13507985Y-14843614D01*
X13479414Y-14886471D01*
X13450843Y-14915043D01*
X13422271Y-14929329D01*
X13707986Y-14843614D02*
X13707986Y-14900757D01*
X13822271Y-14843614D02*
X13822271Y-14900757D01*
X14265128Y-15257900D02*
X14250843Y-15243614D01*
X14222271Y-15200757D01*
X14207985Y-15172186D01*
X14193700Y-15129329D01*
X14179414Y-15057900D01*
X14179414Y-15000757D01*
X14193700Y-14929329D01*
X14207985Y-14886471D01*
X14222271Y-14857900D01*
X14250843Y-14815043D01*
X14265128Y-14800757D01*
X14522271Y-14843614D02*
X14379414Y-14843614D01*
X14365128Y-14986471D01*
X14379414Y-14972186D01*
X14407985Y-14957900D01*
X14479414Y-14957900D01*
X14507985Y-14972186D01*
X14522271Y-14986471D01*
X14536557Y-15015043D01*
X14536557Y-15086471D01*
X14522271Y-15115043D01*
X14507985Y-15129329D01*
X14479414Y-15143614D01*
X14407985Y-15143614D01*
X14379414Y-15129329D01*
X14365128Y-15115043D01*
X14707985Y-14972186D02*
X14679414Y-14957900D01*
X14665128Y-14943614D01*
X14650843Y-14915043D01*
X14650843Y-14900757D01*
X14665128Y-14872186D01*
X14679414Y-14857900D01*
X14707985Y-14843614D01*
X14765128Y-14843614D01*
X14793700Y-14857900D01*
X14807985Y-14872186D01*
X14822271Y-14900757D01*
X14822271Y-14915043D01*
X14807985Y-14943614D01*
X14793700Y-14957900D01*
X14765128Y-14972186D01*
X14707985Y-14972186D01*
X14679414Y-14986471D01*
X14665128Y-15000757D01*
X14650843Y-15029329D01*
X14650843Y-15086471D01*
X14665128Y-15115043D01*
X14679414Y-15129329D01*
X14707985Y-15143614D01*
X14765128Y-15143614D01*
X14793700Y-15129329D01*
X14807985Y-15115043D01*
X14822271Y-15086471D01*
X14822271Y-15029329D01*
X14807985Y-15000757D01*
X14793700Y-14986471D01*
X14765128Y-14972186D01*
X15179414Y-15143614D02*
X15179414Y-14843614D01*
X15307985Y-15143614D02*
X15307985Y-14986471D01*
X15293700Y-14957900D01*
X15265128Y-14943614D01*
X15222271Y-14943614D01*
X15193700Y-14957900D01*
X15179414Y-14972186D01*
X15493700Y-15143614D02*
X15465128Y-15129329D01*
X15450843Y-15115043D01*
X15436557Y-15086471D01*
X15436557Y-15000757D01*
X15450843Y-14972186D01*
X15465128Y-14957900D01*
X15493700Y-14943614D01*
X15536557Y-14943614D01*
X15565128Y-14957900D01*
X15579414Y-14972186D01*
X15593700Y-15000757D01*
X15593700Y-15086471D01*
X15579414Y-15115043D01*
X15565128Y-15129329D01*
X15536557Y-15143614D01*
X15493700Y-15143614D01*
X15765128Y-15143614D02*
X15736557Y-15129329D01*
X15722271Y-15100757D01*
X15722271Y-14843614D01*
X15993700Y-15129329D02*
X15965128Y-15143614D01*
X15907986Y-15143614D01*
X15879414Y-15129329D01*
X15865128Y-15100757D01*
X15865128Y-14986471D01*
X15879414Y-14957900D01*
X15907986Y-14943614D01*
X15965128Y-14943614D01*
X15993700Y-14957900D01*
X16007986Y-14986471D01*
X16007986Y-15015043D01*
X15865128Y-15043614D01*
X16122271Y-15129329D02*
X16150843Y-15143614D01*
X16207986Y-15143614D01*
X16236557Y-15129329D01*
X16250843Y-15100757D01*
X16250843Y-15086471D01*
X16236557Y-15057900D01*
X16207986Y-15043614D01*
X16165128Y-15043614D01*
X16136557Y-15029329D01*
X16122271Y-15000757D01*
X16122271Y-14986471D01*
X16136557Y-14957900D01*
X16165128Y-14943614D01*
X16207986Y-14943614D01*
X16236557Y-14957900D01*
X16350843Y-15257900D02*
X16365128Y-15243614D01*
X16393700Y-15200757D01*
X16407986Y-15172186D01*
X16422271Y-15129329D01*
X16436557Y-15057900D01*
X16436557Y-15000757D01*
X16422271Y-14929329D01*
X16407986Y-14886471D01*
X16393700Y-14857900D01*
X16365128Y-14815043D01*
X16350843Y-14800757D01*
X9543700Y-15453900D02*
X9593700Y-15403900D01*
X9543700Y-15353900D01*
X9493700Y-15403900D01*
X9543700Y-15453900D01*
X10022271Y-15539614D02*
X9850843Y-15539614D01*
X9936557Y-15539614D02*
X9936557Y-15239614D01*
X9907986Y-15282471D01*
X9879414Y-15311043D01*
X9850843Y-15325329D01*
X10150843Y-15511043D02*
X10165129Y-15525329D01*
X10150843Y-15539614D01*
X10136557Y-15525329D01*
X10150843Y-15511043D01*
X10150843Y-15539614D01*
X10350843Y-15239614D02*
X10379414Y-15239614D01*
X10407986Y-15253900D01*
X10422271Y-15268186D01*
X10436557Y-15296757D01*
X10450843Y-15353900D01*
X10450843Y-15425329D01*
X10436557Y-15482471D01*
X10422271Y-15511043D01*
X10407986Y-15525329D01*
X10379414Y-15539614D01*
X10350843Y-15539614D01*
X10322271Y-15525329D01*
X10307986Y-15511043D01*
X10293700Y-15482471D01*
X10279414Y-15425329D01*
X10279414Y-15353900D01*
X10293700Y-15296757D01*
X10307986Y-15268186D01*
X10322271Y-15253900D01*
X10350843Y-15239614D01*
X10636557Y-15239614D02*
X10665129Y-15239614D01*
X10693700Y-15253900D01*
X10707986Y-15268186D01*
X10722271Y-15296757D01*
X10736557Y-15353900D01*
X10736557Y-15425329D01*
X10722271Y-15482471D01*
X10707986Y-15511043D01*
X10693700Y-15525329D01*
X10665129Y-15539614D01*
X10636557Y-15539614D01*
X10607986Y-15525329D01*
X10593700Y-15511043D01*
X10579414Y-15482471D01*
X10565129Y-15425329D01*
X10565129Y-15353900D01*
X10579414Y-15296757D01*
X10593700Y-15268186D01*
X10607986Y-15253900D01*
X10636557Y-15239614D01*
X10865129Y-15539614D02*
X10865129Y-15339614D01*
X10865129Y-15368186D02*
X10879414Y-15353900D01*
X10907986Y-15339614D01*
X10950843Y-15339614D01*
X10979414Y-15353900D01*
X10993700Y-15382471D01*
X10993700Y-15539614D01*
X10993700Y-15382471D02*
X11007986Y-15353900D01*
X11036557Y-15339614D01*
X11079414Y-15339614D01*
X11107986Y-15353900D01*
X11122271Y-15382471D01*
X11122271Y-15539614D01*
X11265128Y-15539614D02*
X11265128Y-15339614D01*
X11265128Y-15368186D02*
X11279414Y-15353900D01*
X11307986Y-15339614D01*
X11350843Y-15339614D01*
X11379414Y-15353900D01*
X11393700Y-15382471D01*
X11393700Y-15539614D01*
X11393700Y-15382471D02*
X11407986Y-15353900D01*
X11436557Y-15339614D01*
X11479414Y-15339614D01*
X11507986Y-15353900D01*
X11522271Y-15382471D01*
X11522271Y-15539614D01*
X12107986Y-15225329D02*
X11850843Y-15611043D01*
X12493700Y-15239614D02*
X12522271Y-15239614D01*
X12550843Y-15253900D01*
X12565128Y-15268186D01*
X12579414Y-15296757D01*
X12593700Y-15353900D01*
X12593700Y-15425329D01*
X12579414Y-15482471D01*
X12565128Y-15511043D01*
X12550843Y-15525329D01*
X12522271Y-15539614D01*
X12493700Y-15539614D01*
X12465128Y-15525329D01*
X12450843Y-15511043D01*
X12436557Y-15482471D01*
X12422271Y-15425329D01*
X12422271Y-15353900D01*
X12436557Y-15296757D01*
X12450843Y-15268186D01*
X12465128Y-15253900D01*
X12493700Y-15239614D01*
X12722271Y-15511043D02*
X12736557Y-15525329D01*
X12722271Y-15539614D01*
X12707986Y-15525329D01*
X12722271Y-15511043D01*
X12722271Y-15539614D01*
X12922271Y-15239614D02*
X12950843Y-15239614D01*
X12979414Y-15253900D01*
X12993700Y-15268186D01*
X13007985Y-15296757D01*
X13022271Y-15353900D01*
X13022271Y-15425329D01*
X13007985Y-15482471D01*
X12993700Y-15511043D01*
X12979414Y-15525329D01*
X12950843Y-15539614D01*
X12922271Y-15539614D01*
X12893700Y-15525329D01*
X12879414Y-15511043D01*
X12865128Y-15482471D01*
X12850843Y-15425329D01*
X12850843Y-15353900D01*
X12865128Y-15296757D01*
X12879414Y-15268186D01*
X12893700Y-15253900D01*
X12922271Y-15239614D01*
X13122271Y-15239614D02*
X13307985Y-15239614D01*
X13207985Y-15353900D01*
X13250843Y-15353900D01*
X13279414Y-15368186D01*
X13293700Y-15382471D01*
X13307985Y-15411043D01*
X13307985Y-15482471D01*
X13293700Y-15511043D01*
X13279414Y-15525329D01*
X13250843Y-15539614D01*
X13165128Y-15539614D01*
X13136557Y-15525329D01*
X13122271Y-15511043D01*
X13450843Y-15539614D02*
X13507985Y-15539614D01*
X13536557Y-15525329D01*
X13550843Y-15511043D01*
X13579414Y-15468186D01*
X13593700Y-15411043D01*
X13593700Y-15296757D01*
X13579414Y-15268186D01*
X13565128Y-15253900D01*
X13536557Y-15239614D01*
X13479414Y-15239614D01*
X13450843Y-15253900D01*
X13436557Y-15268186D01*
X13422271Y-15296757D01*
X13422271Y-15368186D01*
X13436557Y-15396757D01*
X13450843Y-15411043D01*
X13479414Y-15425329D01*
X13536557Y-15425329D01*
X13565128Y-15411043D01*
X13579414Y-15396757D01*
X13593700Y-15368186D01*
X13707986Y-15239614D02*
X13707986Y-15296757D01*
X13822271Y-15239614D02*
X13822271Y-15296757D01*
X14265128Y-15653900D02*
X14250843Y-15639614D01*
X14222271Y-15596757D01*
X14207985Y-15568186D01*
X14193700Y-15525329D01*
X14179414Y-15453900D01*
X14179414Y-15396757D01*
X14193700Y-15325329D01*
X14207985Y-15282471D01*
X14222271Y-15253900D01*
X14250843Y-15211043D01*
X14265128Y-15196757D01*
X14365128Y-15268186D02*
X14379414Y-15253900D01*
X14407985Y-15239614D01*
X14479414Y-15239614D01*
X14507985Y-15253900D01*
X14522271Y-15268186D01*
X14536557Y-15296757D01*
X14536557Y-15325329D01*
X14522271Y-15368186D01*
X14350843Y-15539614D01*
X14536557Y-15539614D01*
X14893700Y-15539614D02*
X14893700Y-15239614D01*
X15022271Y-15539614D02*
X15022271Y-15382471D01*
X15007985Y-15353900D01*
X14979414Y-15339614D01*
X14936557Y-15339614D01*
X14907985Y-15353900D01*
X14893700Y-15368186D01*
X15207985Y-15539614D02*
X15179414Y-15525329D01*
X15165128Y-15511043D01*
X15150843Y-15482471D01*
X15150843Y-15396757D01*
X15165128Y-15368186D01*
X15179414Y-15353900D01*
X15207985Y-15339614D01*
X15250843Y-15339614D01*
X15279414Y-15353900D01*
X15293700Y-15368186D01*
X15307985Y-15396757D01*
X15307985Y-15482471D01*
X15293700Y-15511043D01*
X15279414Y-15525329D01*
X15250843Y-15539614D01*
X15207985Y-15539614D01*
X15479414Y-15539614D02*
X15450843Y-15525329D01*
X15436557Y-15496757D01*
X15436557Y-15239614D01*
X15707986Y-15525329D02*
X15679414Y-15539614D01*
X15622271Y-15539614D01*
X15593700Y-15525329D01*
X15579414Y-15496757D01*
X15579414Y-15382471D01*
X15593700Y-15353900D01*
X15622271Y-15339614D01*
X15679414Y-15339614D01*
X15707986Y-15353900D01*
X15722271Y-15382471D01*
X15722271Y-15411043D01*
X15579414Y-15439614D01*
X15836557Y-15525329D02*
X15865128Y-15539614D01*
X15922271Y-15539614D01*
X15950843Y-15525329D01*
X15965128Y-15496757D01*
X15965128Y-15482471D01*
X15950843Y-15453900D01*
X15922271Y-15439614D01*
X15879414Y-15439614D01*
X15850843Y-15425329D01*
X15836557Y-15396757D01*
X15836557Y-15382471D01*
X15850843Y-15353900D01*
X15879414Y-15339614D01*
X15922271Y-15339614D01*
X15950843Y-15353900D01*
X16065128Y-15653900D02*
X16079414Y-15639614D01*
X16107986Y-15596757D01*
X16122271Y-15568186D01*
X16136557Y-15525329D01*
X16150843Y-15453900D01*
X16150843Y-15396757D01*
X16136557Y-15325329D01*
X16122271Y-15282471D01*
X16107986Y-15253900D01*
X16079414Y-15211043D01*
X16065128Y-15196757D01*
X9492100Y-15749100D02*
X9593700Y-15850700D01*
X9593700Y-15749100D02*
X9492100Y-15850700D01*
X9593700Y-15799900D02*
G75*
G03X9593700Y-15799900I-50800J0D01*
G01*
X10022271Y-15935614D02*
X9850843Y-15935614D01*
X9936557Y-15935614D02*
X9936557Y-15635614D01*
X9907986Y-15678471D01*
X9879414Y-15707043D01*
X9850843Y-15721329D01*
X10150843Y-15907043D02*
X10165129Y-15921329D01*
X10150843Y-15935614D01*
X10136557Y-15921329D01*
X10150843Y-15907043D01*
X10150843Y-15935614D01*
X10350843Y-15635614D02*
X10379414Y-15635614D01*
X10407986Y-15649900D01*
X10422271Y-15664186D01*
X10436557Y-15692757D01*
X10450843Y-15749900D01*
X10450843Y-15821329D01*
X10436557Y-15878471D01*
X10422271Y-15907043D01*
X10407986Y-15921329D01*
X10379414Y-15935614D01*
X10350843Y-15935614D01*
X10322271Y-15921329D01*
X10307986Y-15907043D01*
X10293700Y-15878471D01*
X10279414Y-15821329D01*
X10279414Y-15749900D01*
X10293700Y-15692757D01*
X10307986Y-15664186D01*
X10322271Y-15649900D01*
X10350843Y-15635614D01*
X10565129Y-15664186D02*
X10579414Y-15649900D01*
X10607986Y-15635614D01*
X10679414Y-15635614D01*
X10707986Y-15649900D01*
X10722271Y-15664186D01*
X10736557Y-15692757D01*
X10736557Y-15721329D01*
X10722271Y-15764186D01*
X10550843Y-15935614D01*
X10736557Y-15935614D01*
X10865129Y-15935614D02*
X10865129Y-15735614D01*
X10865129Y-15764186D02*
X10879414Y-15749900D01*
X10907986Y-15735614D01*
X10950843Y-15735614D01*
X10979414Y-15749900D01*
X10993700Y-15778471D01*
X10993700Y-15935614D01*
X10993700Y-15778471D02*
X11007986Y-15749900D01*
X11036557Y-15735614D01*
X11079414Y-15735614D01*
X11107986Y-15749900D01*
X11122271Y-15778471D01*
X11122271Y-15935614D01*
X11265128Y-15935614D02*
X11265128Y-15735614D01*
X11265128Y-15764186D02*
X11279414Y-15749900D01*
X11307986Y-15735614D01*
X11350843Y-15735614D01*
X11379414Y-15749900D01*
X11393700Y-15778471D01*
X11393700Y-15935614D01*
X11393700Y-15778471D02*
X11407986Y-15749900D01*
X11436557Y-15735614D01*
X11479414Y-15735614D01*
X11507986Y-15749900D01*
X11522271Y-15778471D01*
X11522271Y-15935614D01*
X12107986Y-15621329D02*
X11850843Y-16007043D01*
X12493700Y-15635614D02*
X12522271Y-15635614D01*
X12550843Y-15649900D01*
X12565128Y-15664186D01*
X12579414Y-15692757D01*
X12593700Y-15749900D01*
X12593700Y-15821329D01*
X12579414Y-15878471D01*
X12565128Y-15907043D01*
X12550843Y-15921329D01*
X12522271Y-15935614D01*
X12493700Y-15935614D01*
X12465128Y-15921329D01*
X12450843Y-15907043D01*
X12436557Y-15878471D01*
X12422271Y-15821329D01*
X12422271Y-15749900D01*
X12436557Y-15692757D01*
X12450843Y-15664186D01*
X12465128Y-15649900D01*
X12493700Y-15635614D01*
X12722271Y-15907043D02*
X12736557Y-15921329D01*
X12722271Y-15935614D01*
X12707986Y-15921329D01*
X12722271Y-15907043D01*
X12722271Y-15935614D01*
X12922271Y-15635614D02*
X12950843Y-15635614D01*
X12979414Y-15649900D01*
X12993700Y-15664186D01*
X13007985Y-15692757D01*
X13022271Y-15749900D01*
X13022271Y-15821329D01*
X13007985Y-15878471D01*
X12993700Y-15907043D01*
X12979414Y-15921329D01*
X12950843Y-15935614D01*
X12922271Y-15935614D01*
X12893700Y-15921329D01*
X12879414Y-15907043D01*
X12865128Y-15878471D01*
X12850843Y-15821329D01*
X12850843Y-15749900D01*
X12865128Y-15692757D01*
X12879414Y-15664186D01*
X12893700Y-15649900D01*
X12922271Y-15635614D01*
X13279414Y-15735614D02*
X13279414Y-15935614D01*
X13207985Y-15621329D02*
X13136557Y-15835614D01*
X13322271Y-15835614D01*
X13493700Y-15635614D02*
X13522271Y-15635614D01*
X13550843Y-15649900D01*
X13565128Y-15664186D01*
X13579414Y-15692757D01*
X13593700Y-15749900D01*
X13593700Y-15821329D01*
X13579414Y-15878471D01*
X13565128Y-15907043D01*
X13550843Y-15921329D01*
X13522271Y-15935614D01*
X13493700Y-15935614D01*
X13465128Y-15921329D01*
X13450843Y-15907043D01*
X13436557Y-15878471D01*
X13422271Y-15821329D01*
X13422271Y-15749900D01*
X13436557Y-15692757D01*
X13450843Y-15664186D01*
X13465128Y-15649900D01*
X13493700Y-15635614D01*
X13707986Y-15635614D02*
X13707986Y-15692757D01*
X13822271Y-15635614D02*
X13822271Y-15692757D01*
X14265128Y-16049900D02*
X14250843Y-16035614D01*
X14222271Y-15992757D01*
X14207985Y-15964186D01*
X14193700Y-15921329D01*
X14179414Y-15849900D01*
X14179414Y-15792757D01*
X14193700Y-15721329D01*
X14207985Y-15678471D01*
X14222271Y-15649900D01*
X14250843Y-15607043D01*
X14265128Y-15592757D01*
X14365128Y-15664186D02*
X14379414Y-15649900D01*
X14407985Y-15635614D01*
X14479414Y-15635614D01*
X14507985Y-15649900D01*
X14522271Y-15664186D01*
X14536557Y-15692757D01*
X14536557Y-15721329D01*
X14522271Y-15764186D01*
X14350843Y-15935614D01*
X14536557Y-15935614D01*
X14650843Y-15664186D02*
X14665128Y-15649900D01*
X14693700Y-15635614D01*
X14765128Y-15635614D01*
X14793700Y-15649900D01*
X14807985Y-15664186D01*
X14822271Y-15692757D01*
X14822271Y-15721329D01*
X14807985Y-15764186D01*
X14636557Y-15935614D01*
X14822271Y-15935614D01*
X15179414Y-15935614D02*
X15179414Y-15635614D01*
X15307985Y-15935614D02*
X15307985Y-15778471D01*
X15293700Y-15749900D01*
X15265128Y-15735614D01*
X15222271Y-15735614D01*
X15193700Y-15749900D01*
X15179414Y-15764186D01*
X15493700Y-15935614D02*
X15465128Y-15921329D01*
X15450843Y-15907043D01*
X15436557Y-15878471D01*
X15436557Y-15792757D01*
X15450843Y-15764186D01*
X15465128Y-15749900D01*
X15493700Y-15735614D01*
X15536557Y-15735614D01*
X15565128Y-15749900D01*
X15579414Y-15764186D01*
X15593700Y-15792757D01*
X15593700Y-15878471D01*
X15579414Y-15907043D01*
X15565128Y-15921329D01*
X15536557Y-15935614D01*
X15493700Y-15935614D01*
X15765128Y-15935614D02*
X15736557Y-15921329D01*
X15722271Y-15892757D01*
X15722271Y-15635614D01*
X15993700Y-15921329D02*
X15965128Y-15935614D01*
X15907986Y-15935614D01*
X15879414Y-15921329D01*
X15865128Y-15892757D01*
X15865128Y-15778471D01*
X15879414Y-15749900D01*
X15907986Y-15735614D01*
X15965128Y-15735614D01*
X15993700Y-15749900D01*
X16007986Y-15778471D01*
X16007986Y-15807043D01*
X15865128Y-15835614D01*
X16122271Y-15921329D02*
X16150843Y-15935614D01*
X16207986Y-15935614D01*
X16236557Y-15921329D01*
X16250843Y-15892757D01*
X16250843Y-15878471D01*
X16236557Y-15849900D01*
X16207986Y-15835614D01*
X16165128Y-15835614D01*
X16136557Y-15821329D01*
X16122271Y-15792757D01*
X16122271Y-15778471D01*
X16136557Y-15749900D01*
X16165128Y-15735614D01*
X16207986Y-15735614D01*
X16236557Y-15749900D01*
X16350843Y-16049900D02*
X16365128Y-16035614D01*
X16393700Y-15992757D01*
X16407986Y-15964186D01*
X16422271Y-15921329D01*
X16436557Y-15849900D01*
X16436557Y-15792757D01*
X16422271Y-15721329D01*
X16407986Y-15678471D01*
X16393700Y-15649900D01*
X16365128Y-15607043D01*
X16350843Y-15592757D01*
X9491700Y-16144900D02*
X9593700Y-16246900D01*
X9593700Y-16144900D02*
X9491700Y-16246900D01*
X9542700Y-16144900D02*
X9542700Y-16246900D01*
X9491700Y-16195900D02*
X9593700Y-16195900D01*
X10022271Y-16331614D02*
X9850843Y-16331614D01*
X9936557Y-16331614D02*
X9936557Y-16031614D01*
X9907986Y-16074471D01*
X9879414Y-16103043D01*
X9850843Y-16117329D01*
X10150843Y-16303043D02*
X10165129Y-16317329D01*
X10150843Y-16331614D01*
X10136557Y-16317329D01*
X10150843Y-16303043D01*
X10150843Y-16331614D01*
X10350843Y-16031614D02*
X10379414Y-16031614D01*
X10407986Y-16045900D01*
X10422271Y-16060186D01*
X10436557Y-16088757D01*
X10450843Y-16145900D01*
X10450843Y-16217329D01*
X10436557Y-16274471D01*
X10422271Y-16303043D01*
X10407986Y-16317329D01*
X10379414Y-16331614D01*
X10350843Y-16331614D01*
X10322271Y-16317329D01*
X10307986Y-16303043D01*
X10293700Y-16274471D01*
X10279414Y-16217329D01*
X10279414Y-16145900D01*
X10293700Y-16088757D01*
X10307986Y-16060186D01*
X10322271Y-16045900D01*
X10350843Y-16031614D01*
X10565129Y-16060186D02*
X10579414Y-16045900D01*
X10607986Y-16031614D01*
X10679414Y-16031614D01*
X10707986Y-16045900D01*
X10722271Y-16060186D01*
X10736557Y-16088757D01*
X10736557Y-16117329D01*
X10722271Y-16160186D01*
X10550843Y-16331614D01*
X10736557Y-16331614D01*
X10865129Y-16331614D02*
X10865129Y-16131614D01*
X10865129Y-16160186D02*
X10879414Y-16145900D01*
X10907986Y-16131614D01*
X10950843Y-16131614D01*
X10979414Y-16145900D01*
X10993700Y-16174471D01*
X10993700Y-16331614D01*
X10993700Y-16174471D02*
X11007986Y-16145900D01*
X11036557Y-16131614D01*
X11079414Y-16131614D01*
X11107986Y-16145900D01*
X11122271Y-16174471D01*
X11122271Y-16331614D01*
X11265128Y-16331614D02*
X11265128Y-16131614D01*
X11265128Y-16160186D02*
X11279414Y-16145900D01*
X11307986Y-16131614D01*
X11350843Y-16131614D01*
X11379414Y-16145900D01*
X11393700Y-16174471D01*
X11393700Y-16331614D01*
X11393700Y-16174471D02*
X11407986Y-16145900D01*
X11436557Y-16131614D01*
X11479414Y-16131614D01*
X11507986Y-16145900D01*
X11522271Y-16174471D01*
X11522271Y-16331614D01*
X12107986Y-16017329D02*
X11850843Y-16403043D01*
X12493700Y-16031614D02*
X12522271Y-16031614D01*
X12550843Y-16045900D01*
X12565128Y-16060186D01*
X12579414Y-16088757D01*
X12593700Y-16145900D01*
X12593700Y-16217329D01*
X12579414Y-16274471D01*
X12565128Y-16303043D01*
X12550843Y-16317329D01*
X12522271Y-16331614D01*
X12493700Y-16331614D01*
X12465128Y-16317329D01*
X12450843Y-16303043D01*
X12436557Y-16274471D01*
X12422271Y-16217329D01*
X12422271Y-16145900D01*
X12436557Y-16088757D01*
X12450843Y-16060186D01*
X12465128Y-16045900D01*
X12493700Y-16031614D01*
X12722271Y-16303043D02*
X12736557Y-16317329D01*
X12722271Y-16331614D01*
X12707986Y-16317329D01*
X12722271Y-16303043D01*
X12722271Y-16331614D01*
X12922271Y-16031614D02*
X12950843Y-16031614D01*
X12979414Y-16045900D01*
X12993700Y-16060186D01*
X13007985Y-16088757D01*
X13022271Y-16145900D01*
X13022271Y-16217329D01*
X13007985Y-16274471D01*
X12993700Y-16303043D01*
X12979414Y-16317329D01*
X12950843Y-16331614D01*
X12922271Y-16331614D01*
X12893700Y-16317329D01*
X12879414Y-16303043D01*
X12865128Y-16274471D01*
X12850843Y-16217329D01*
X12850843Y-16145900D01*
X12865128Y-16088757D01*
X12879414Y-16060186D01*
X12893700Y-16045900D01*
X12922271Y-16031614D01*
X13279414Y-16131614D02*
X13279414Y-16331614D01*
X13207985Y-16017329D02*
X13136557Y-16231614D01*
X13322271Y-16231614D01*
X13493700Y-16031614D02*
X13522271Y-16031614D01*
X13550843Y-16045900D01*
X13565128Y-16060186D01*
X13579414Y-16088757D01*
X13593700Y-16145900D01*
X13593700Y-16217329D01*
X13579414Y-16274471D01*
X13565128Y-16303043D01*
X13550843Y-16317329D01*
X13522271Y-16331614D01*
X13493700Y-16331614D01*
X13465128Y-16317329D01*
X13450843Y-16303043D01*
X13436557Y-16274471D01*
X13422271Y-16217329D01*
X13422271Y-16145900D01*
X13436557Y-16088757D01*
X13450843Y-16060186D01*
X13465128Y-16045900D01*
X13493700Y-16031614D01*
X13707986Y-16031614D02*
X13707986Y-16088757D01*
X13822271Y-16031614D02*
X13822271Y-16088757D01*
X14265128Y-16445900D02*
X14250843Y-16431614D01*
X14222271Y-16388757D01*
X14207985Y-16360186D01*
X14193700Y-16317329D01*
X14179414Y-16245900D01*
X14179414Y-16188757D01*
X14193700Y-16117329D01*
X14207985Y-16074471D01*
X14222271Y-16045900D01*
X14250843Y-16003043D01*
X14265128Y-15988757D01*
X14507985Y-16131614D02*
X14507985Y-16331614D01*
X14436557Y-16017329D02*
X14365128Y-16231614D01*
X14550843Y-16231614D01*
X14636557Y-16031614D02*
X14822271Y-16031614D01*
X14722271Y-16145900D01*
X14765128Y-16145900D01*
X14793700Y-16160186D01*
X14807985Y-16174471D01*
X14822271Y-16203043D01*
X14822271Y-16274471D01*
X14807985Y-16303043D01*
X14793700Y-16317329D01*
X14765128Y-16331614D01*
X14679414Y-16331614D01*
X14650843Y-16317329D01*
X14636557Y-16303043D01*
X15179414Y-16331614D02*
X15179414Y-16031614D01*
X15307985Y-16331614D02*
X15307985Y-16174471D01*
X15293700Y-16145900D01*
X15265128Y-16131614D01*
X15222271Y-16131614D01*
X15193700Y-16145900D01*
X15179414Y-16160186D01*
X15493700Y-16331614D02*
X15465128Y-16317329D01*
X15450843Y-16303043D01*
X15436557Y-16274471D01*
X15436557Y-16188757D01*
X15450843Y-16160186D01*
X15465128Y-16145900D01*
X15493700Y-16131614D01*
X15536557Y-16131614D01*
X15565128Y-16145900D01*
X15579414Y-16160186D01*
X15593700Y-16188757D01*
X15593700Y-16274471D01*
X15579414Y-16303043D01*
X15565128Y-16317329D01*
X15536557Y-16331614D01*
X15493700Y-16331614D01*
X15765128Y-16331614D02*
X15736557Y-16317329D01*
X15722271Y-16288757D01*
X15722271Y-16031614D01*
X15993700Y-16317329D02*
X15965128Y-16331614D01*
X15907986Y-16331614D01*
X15879414Y-16317329D01*
X15865128Y-16288757D01*
X15865128Y-16174471D01*
X15879414Y-16145900D01*
X15907986Y-16131614D01*
X15965128Y-16131614D01*
X15993700Y-16145900D01*
X16007986Y-16174471D01*
X16007986Y-16203043D01*
X15865128Y-16231614D01*
X16122271Y-16317329D02*
X16150843Y-16331614D01*
X16207986Y-16331614D01*
X16236557Y-16317329D01*
X16250843Y-16288757D01*
X16250843Y-16274471D01*
X16236557Y-16245900D01*
X16207986Y-16231614D01*
X16165128Y-16231614D01*
X16136557Y-16217329D01*
X16122271Y-16188757D01*
X16122271Y-16174471D01*
X16136557Y-16145900D01*
X16165128Y-16131614D01*
X16207986Y-16131614D01*
X16236557Y-16145900D01*
X16350843Y-16445900D02*
X16365128Y-16431614D01*
X16393700Y-16388757D01*
X16407986Y-16360186D01*
X16422271Y-16317329D01*
X16436557Y-16245900D01*
X16436557Y-16188757D01*
X16422271Y-16117329D01*
X16407986Y-16074471D01*
X16393700Y-16045900D01*
X16365128Y-16003043D01*
X16350843Y-15988757D01*
X9483700Y-16536900D02*
X9593700Y-16646900D01*
X9593700Y-16536900D02*
X9483700Y-16646900D01*
X9577591Y-16630791D02*
X9577591Y-16553009D01*
X9499809Y-16553009D01*
X9499809Y-16630791D01*
X9577591Y-16630791D01*
X10022271Y-16727614D02*
X9850843Y-16727614D01*
X9936557Y-16727614D02*
X9936557Y-16427614D01*
X9907986Y-16470471D01*
X9879414Y-16499043D01*
X9850843Y-16513329D01*
X10150843Y-16699043D02*
X10165129Y-16713329D01*
X10150843Y-16727614D01*
X10136557Y-16713329D01*
X10150843Y-16699043D01*
X10150843Y-16727614D01*
X10450843Y-16727614D02*
X10279414Y-16727614D01*
X10365128Y-16727614D02*
X10365128Y-16427614D01*
X10336557Y-16470471D01*
X10307986Y-16499043D01*
X10279414Y-16513329D01*
X10636557Y-16427614D02*
X10665129Y-16427614D01*
X10693700Y-16441900D01*
X10707986Y-16456186D01*
X10722271Y-16484757D01*
X10736557Y-16541900D01*
X10736557Y-16613329D01*
X10722271Y-16670471D01*
X10707986Y-16699043D01*
X10693700Y-16713329D01*
X10665129Y-16727614D01*
X10636557Y-16727614D01*
X10607986Y-16713329D01*
X10593700Y-16699043D01*
X10579414Y-16670471D01*
X10565129Y-16613329D01*
X10565129Y-16541900D01*
X10579414Y-16484757D01*
X10593700Y-16456186D01*
X10607986Y-16441900D01*
X10636557Y-16427614D01*
X10865129Y-16727614D02*
X10865129Y-16527614D01*
X10865129Y-16556186D02*
X10879414Y-16541900D01*
X10907986Y-16527614D01*
X10950843Y-16527614D01*
X10979414Y-16541900D01*
X10993700Y-16570471D01*
X10993700Y-16727614D01*
X10993700Y-16570471D02*
X11007986Y-16541900D01*
X11036557Y-16527614D01*
X11079414Y-16527614D01*
X11107986Y-16541900D01*
X11122271Y-16570471D01*
X11122271Y-16727614D01*
X11265128Y-16727614D02*
X11265128Y-16527614D01*
X11265128Y-16556186D02*
X11279414Y-16541900D01*
X11307986Y-16527614D01*
X11350843Y-16527614D01*
X11379414Y-16541900D01*
X11393700Y-16570471D01*
X11393700Y-16727614D01*
X11393700Y-16570471D02*
X11407986Y-16541900D01*
X11436557Y-16527614D01*
X11479414Y-16527614D01*
X11507986Y-16541900D01*
X11522271Y-16570471D01*
X11522271Y-16727614D01*
X12107986Y-16413329D02*
X11850843Y-16799043D01*
X12493700Y-16427614D02*
X12522271Y-16427614D01*
X12550843Y-16441900D01*
X12565128Y-16456186D01*
X12579414Y-16484757D01*
X12593700Y-16541900D01*
X12593700Y-16613329D01*
X12579414Y-16670471D01*
X12565128Y-16699043D01*
X12550843Y-16713329D01*
X12522271Y-16727614D01*
X12493700Y-16727614D01*
X12465128Y-16713329D01*
X12450843Y-16699043D01*
X12436557Y-16670471D01*
X12422271Y-16613329D01*
X12422271Y-16541900D01*
X12436557Y-16484757D01*
X12450843Y-16456186D01*
X12465128Y-16441900D01*
X12493700Y-16427614D01*
X12722271Y-16699043D02*
X12736557Y-16713329D01*
X12722271Y-16727614D01*
X12707986Y-16713329D01*
X12722271Y-16699043D01*
X12722271Y-16727614D01*
X12922271Y-16427614D02*
X12950843Y-16427614D01*
X12979414Y-16441900D01*
X12993700Y-16456186D01*
X13007985Y-16484757D01*
X13022271Y-16541900D01*
X13022271Y-16613329D01*
X13007985Y-16670471D01*
X12993700Y-16699043D01*
X12979414Y-16713329D01*
X12950843Y-16727614D01*
X12922271Y-16727614D01*
X12893700Y-16713329D01*
X12879414Y-16699043D01*
X12865128Y-16670471D01*
X12850843Y-16613329D01*
X12850843Y-16541900D01*
X12865128Y-16484757D01*
X12879414Y-16456186D01*
X12893700Y-16441900D01*
X12922271Y-16427614D01*
X13279414Y-16527614D02*
X13279414Y-16727614D01*
X13207985Y-16413329D02*
X13136557Y-16627614D01*
X13322271Y-16627614D01*
X13407985Y-16427614D02*
X13593700Y-16427614D01*
X13493700Y-16541900D01*
X13536557Y-16541900D01*
X13565128Y-16556186D01*
X13579414Y-16570471D01*
X13593700Y-16599043D01*
X13593700Y-16670471D01*
X13579414Y-16699043D01*
X13565128Y-16713329D01*
X13536557Y-16727614D01*
X13450843Y-16727614D01*
X13422271Y-16713329D01*
X13407985Y-16699043D01*
X13707986Y-16427614D02*
X13707986Y-16484757D01*
X13822271Y-16427614D02*
X13822271Y-16484757D01*
X14265128Y-16841900D02*
X14250843Y-16827614D01*
X14222271Y-16784757D01*
X14207985Y-16756186D01*
X14193700Y-16713329D01*
X14179414Y-16641900D01*
X14179414Y-16584757D01*
X14193700Y-16513329D01*
X14207985Y-16470471D01*
X14222271Y-16441900D01*
X14250843Y-16399043D01*
X14265128Y-16384757D01*
X14507985Y-16527614D02*
X14507985Y-16727614D01*
X14436557Y-16413329D02*
X14365128Y-16627614D01*
X14550843Y-16627614D01*
X14893700Y-16727614D02*
X14893700Y-16427614D01*
X15022271Y-16727614D02*
X15022271Y-16570471D01*
X15007985Y-16541900D01*
X14979414Y-16527614D01*
X14936557Y-16527614D01*
X14907985Y-16541900D01*
X14893700Y-16556186D01*
X15207985Y-16727614D02*
X15179414Y-16713329D01*
X15165128Y-16699043D01*
X15150843Y-16670471D01*
X15150843Y-16584757D01*
X15165128Y-16556186D01*
X15179414Y-16541900D01*
X15207985Y-16527614D01*
X15250843Y-16527614D01*
X15279414Y-16541900D01*
X15293700Y-16556186D01*
X15307985Y-16584757D01*
X15307985Y-16670471D01*
X15293700Y-16699043D01*
X15279414Y-16713329D01*
X15250843Y-16727614D01*
X15207985Y-16727614D01*
X15479414Y-16727614D02*
X15450843Y-16713329D01*
X15436557Y-16684757D01*
X15436557Y-16427614D01*
X15707986Y-16713329D02*
X15679414Y-16727614D01*
X15622271Y-16727614D01*
X15593700Y-16713329D01*
X15579414Y-16684757D01*
X15579414Y-16570471D01*
X15593700Y-16541900D01*
X15622271Y-16527614D01*
X15679414Y-16527614D01*
X15707986Y-16541900D01*
X15722271Y-16570471D01*
X15722271Y-16599043D01*
X15579414Y-16627614D01*
X15836557Y-16713329D02*
X15865128Y-16727614D01*
X15922271Y-16727614D01*
X15950843Y-16713329D01*
X15965128Y-16684757D01*
X15965128Y-16670471D01*
X15950843Y-16641900D01*
X15922271Y-16627614D01*
X15879414Y-16627614D01*
X15850843Y-16613329D01*
X15836557Y-16584757D01*
X15836557Y-16570471D01*
X15850843Y-16541900D01*
X15879414Y-16527614D01*
X15922271Y-16527614D01*
X15950843Y-16541900D01*
X16065128Y-16841900D02*
X16079414Y-16827614D01*
X16107986Y-16784757D01*
X16122271Y-16756186D01*
X16136557Y-16713329D01*
X16150843Y-16641900D01*
X16150843Y-16584757D01*
X16136557Y-16513329D01*
X16122271Y-16470471D01*
X16107986Y-16441900D01*
X16079414Y-16399043D01*
X16065128Y-16384757D01*
X9453700Y-16917900D02*
X9593700Y-17057900D01*
X9593700Y-16917900D02*
X9453700Y-17057900D01*
X9523700Y-17057900D02*
X9593700Y-16987900D01*
X9523700Y-16917900D01*
X9453700Y-16987900D01*
X9523700Y-17057900D01*
X10022271Y-17123614D02*
X9850843Y-17123614D01*
X9936557Y-17123614D02*
X9936557Y-16823614D01*
X9907986Y-16866472D01*
X9879414Y-16895043D01*
X9850843Y-16909329D01*
X10150843Y-17095043D02*
X10165129Y-17109329D01*
X10150843Y-17123614D01*
X10136557Y-17109329D01*
X10150843Y-17095043D01*
X10150843Y-17123614D01*
X10422271Y-16923614D02*
X10422271Y-17123614D01*
X10350843Y-16809329D02*
X10279414Y-17023614D01*
X10465128Y-17023614D01*
X10636557Y-16823614D02*
X10665129Y-16823614D01*
X10693700Y-16837900D01*
X10707986Y-16852186D01*
X10722271Y-16880757D01*
X10736557Y-16937900D01*
X10736557Y-17009329D01*
X10722271Y-17066472D01*
X10707986Y-17095043D01*
X10693700Y-17109329D01*
X10665129Y-17123614D01*
X10636557Y-17123614D01*
X10607986Y-17109329D01*
X10593700Y-17095043D01*
X10579414Y-17066472D01*
X10565129Y-17009329D01*
X10565129Y-16937900D01*
X10579414Y-16880757D01*
X10593700Y-16852186D01*
X10607986Y-16837900D01*
X10636557Y-16823614D01*
X10865129Y-17123614D02*
X10865129Y-16923614D01*
X10865129Y-16952186D02*
X10879414Y-16937900D01*
X10907986Y-16923614D01*
X10950843Y-16923614D01*
X10979414Y-16937900D01*
X10993700Y-16966472D01*
X10993700Y-17123614D01*
X10993700Y-16966472D02*
X11007986Y-16937900D01*
X11036557Y-16923614D01*
X11079414Y-16923614D01*
X11107986Y-16937900D01*
X11122271Y-16966472D01*
X11122271Y-17123614D01*
X11265128Y-17123614D02*
X11265128Y-16923614D01*
X11265128Y-16952186D02*
X11279414Y-16937900D01*
X11307986Y-16923614D01*
X11350843Y-16923614D01*
X11379414Y-16937900D01*
X11393700Y-16966472D01*
X11393700Y-17123614D01*
X11393700Y-16966472D02*
X11407986Y-16937900D01*
X11436557Y-16923614D01*
X11479414Y-16923614D01*
X11507986Y-16937900D01*
X11522271Y-16966472D01*
X11522271Y-17123614D01*
X12107986Y-16809329D02*
X11850843Y-17195043D01*
X12493700Y-16823614D02*
X12522271Y-16823614D01*
X12550843Y-16837900D01*
X12565128Y-16852186D01*
X12579414Y-16880757D01*
X12593700Y-16937900D01*
X12593700Y-17009329D01*
X12579414Y-17066472D01*
X12565128Y-17095043D01*
X12550843Y-17109329D01*
X12522271Y-17123614D01*
X12493700Y-17123614D01*
X12465128Y-17109329D01*
X12450843Y-17095043D01*
X12436557Y-17066472D01*
X12422271Y-17009329D01*
X12422271Y-16937900D01*
X12436557Y-16880757D01*
X12450843Y-16852186D01*
X12465128Y-16837900D01*
X12493700Y-16823614D01*
X12722271Y-17095043D02*
X12736557Y-17109329D01*
X12722271Y-17123614D01*
X12707986Y-17109329D01*
X12722271Y-17095043D01*
X12722271Y-17123614D01*
X12922271Y-16823614D02*
X12950843Y-16823614D01*
X12979414Y-16837900D01*
X12993700Y-16852186D01*
X13007985Y-16880757D01*
X13022271Y-16937900D01*
X13022271Y-17009329D01*
X13007985Y-17066472D01*
X12993700Y-17095043D01*
X12979414Y-17109329D01*
X12950843Y-17123614D01*
X12922271Y-17123614D01*
X12893700Y-17109329D01*
X12879414Y-17095043D01*
X12865128Y-17066472D01*
X12850843Y-17009329D01*
X12850843Y-16937900D01*
X12865128Y-16880757D01*
X12879414Y-16852186D01*
X12893700Y-16837900D01*
X12922271Y-16823614D01*
X13293700Y-16823614D02*
X13150843Y-16823614D01*
X13136557Y-16966472D01*
X13150843Y-16952186D01*
X13179414Y-16937900D01*
X13250843Y-16937900D01*
X13279414Y-16952186D01*
X13293700Y-16966472D01*
X13307985Y-16995043D01*
X13307985Y-17066472D01*
X13293700Y-17095043D01*
X13279414Y-17109329D01*
X13250843Y-17123614D01*
X13179414Y-17123614D01*
X13150843Y-17109329D01*
X13136557Y-17095043D01*
X13579414Y-16823614D02*
X13436557Y-16823614D01*
X13422271Y-16966472D01*
X13436557Y-16952186D01*
X13465128Y-16937900D01*
X13536557Y-16937900D01*
X13565128Y-16952186D01*
X13579414Y-16966472D01*
X13593700Y-16995043D01*
X13593700Y-17066472D01*
X13579414Y-17095043D01*
X13565128Y-17109329D01*
X13536557Y-17123614D01*
X13465128Y-17123614D01*
X13436557Y-17109329D01*
X13422271Y-17095043D01*
X13707986Y-16823614D02*
X13707986Y-16880757D01*
X13822271Y-16823614D02*
X13822271Y-16880757D01*
X14265128Y-17237900D02*
X14250843Y-17223614D01*
X14222271Y-17180757D01*
X14207985Y-17152186D01*
X14193700Y-17109329D01*
X14179414Y-17037900D01*
X14179414Y-16980757D01*
X14193700Y-16909329D01*
X14207985Y-16866472D01*
X14222271Y-16837900D01*
X14250843Y-16795043D01*
X14265128Y-16780757D01*
X14507985Y-16923614D02*
X14507985Y-17123614D01*
X14436557Y-16809329D02*
X14365128Y-17023614D01*
X14550843Y-17023614D01*
X14893700Y-17123614D02*
X14893700Y-16823614D01*
X15022271Y-17123614D02*
X15022271Y-16966472D01*
X15007985Y-16937900D01*
X14979414Y-16923614D01*
X14936557Y-16923614D01*
X14907985Y-16937900D01*
X14893700Y-16952186D01*
X15207985Y-17123614D02*
X15179414Y-17109329D01*
X15165128Y-17095043D01*
X15150843Y-17066472D01*
X15150843Y-16980757D01*
X15165128Y-16952186D01*
X15179414Y-16937900D01*
X15207985Y-16923614D01*
X15250843Y-16923614D01*
X15279414Y-16937900D01*
X15293700Y-16952186D01*
X15307985Y-16980757D01*
X15307985Y-17066472D01*
X15293700Y-17095043D01*
X15279414Y-17109329D01*
X15250843Y-17123614D01*
X15207985Y-17123614D01*
X15479414Y-17123614D02*
X15450843Y-17109329D01*
X15436557Y-17080757D01*
X15436557Y-16823614D01*
X15707986Y-17109329D02*
X15679414Y-17123614D01*
X15622271Y-17123614D01*
X15593700Y-17109329D01*
X15579414Y-17080757D01*
X15579414Y-16966472D01*
X15593700Y-16937900D01*
X15622271Y-16923614D01*
X15679414Y-16923614D01*
X15707986Y-16937900D01*
X15722271Y-16966472D01*
X15722271Y-16995043D01*
X15579414Y-17023614D01*
X15836557Y-17109329D02*
X15865128Y-17123614D01*
X15922271Y-17123614D01*
X15950843Y-17109329D01*
X15965128Y-17080757D01*
X15965128Y-17066472D01*
X15950843Y-17037900D01*
X15922271Y-17023614D01*
X15879414Y-17023614D01*
X15850843Y-17009329D01*
X15836557Y-16980757D01*
X15836557Y-16966472D01*
X15850843Y-16937900D01*
X15879414Y-16923614D01*
X15922271Y-16923614D01*
X15950843Y-16937900D01*
X16065128Y-17237900D02*
X16079414Y-17223614D01*
X16107986Y-17180757D01*
X16122271Y-17152186D01*
X16136557Y-17109329D01*
X16150843Y-17037900D01*
X16150843Y-16980757D01*
X16136557Y-16909329D01*
X16122271Y-16866472D01*
X16107986Y-16837900D01*
X16079414Y-16795043D01*
X16065128Y-16780757D01*
X9517700Y-17307900D02*
X9517700Y-17459900D01*
X9441700Y-17383900D02*
X9593700Y-17383900D01*
X9593700Y-17383900D02*
G75*
G03X9593700Y-17383900I-76000J0D01*
G01*
X10022271Y-17519614D02*
X9850843Y-17519614D01*
X9936557Y-17519614D02*
X9936557Y-17219614D01*
X9907986Y-17262472D01*
X9879414Y-17291043D01*
X9850843Y-17305329D01*
X10150843Y-17491043D02*
X10165129Y-17505329D01*
X10150843Y-17519614D01*
X10136557Y-17505329D01*
X10150843Y-17491043D01*
X10150843Y-17519614D01*
X10436557Y-17219614D02*
X10293700Y-17219614D01*
X10279414Y-17362472D01*
X10293700Y-17348186D01*
X10322271Y-17333900D01*
X10393700Y-17333900D01*
X10422271Y-17348186D01*
X10436557Y-17362472D01*
X10450843Y-17391043D01*
X10450843Y-17462472D01*
X10436557Y-17491043D01*
X10422271Y-17505329D01*
X10393700Y-17519614D01*
X10322271Y-17519614D01*
X10293700Y-17505329D01*
X10279414Y-17491043D01*
X10565129Y-17248186D02*
X10579414Y-17233900D01*
X10607986Y-17219614D01*
X10679414Y-17219614D01*
X10707986Y-17233900D01*
X10722271Y-17248186D01*
X10736557Y-17276757D01*
X10736557Y-17305329D01*
X10722271Y-17348186D01*
X10550843Y-17519614D01*
X10736557Y-17519614D01*
X10865129Y-17519614D02*
X10865129Y-17319614D01*
X10865129Y-17348186D02*
X10879414Y-17333900D01*
X10907986Y-17319614D01*
X10950843Y-17319614D01*
X10979414Y-17333900D01*
X10993700Y-17362472D01*
X10993700Y-17519614D01*
X10993700Y-17362472D02*
X11007986Y-17333900D01*
X11036557Y-17319614D01*
X11079414Y-17319614D01*
X11107986Y-17333900D01*
X11122271Y-17362472D01*
X11122271Y-17519614D01*
X11265128Y-17519614D02*
X11265128Y-17319614D01*
X11265128Y-17348186D02*
X11279414Y-17333900D01*
X11307986Y-17319614D01*
X11350843Y-17319614D01*
X11379414Y-17333900D01*
X11393700Y-17362472D01*
X11393700Y-17519614D01*
X11393700Y-17362472D02*
X11407986Y-17333900D01*
X11436557Y-17319614D01*
X11479414Y-17319614D01*
X11507986Y-17333900D01*
X11522271Y-17362472D01*
X11522271Y-17519614D01*
X12107986Y-17205329D02*
X11850843Y-17591043D01*
X12493700Y-17219614D02*
X12522271Y-17219614D01*
X12550843Y-17233900D01*
X12565128Y-17248186D01*
X12579414Y-17276757D01*
X12593700Y-17333900D01*
X12593700Y-17405329D01*
X12579414Y-17462472D01*
X12565128Y-17491043D01*
X12550843Y-17505329D01*
X12522271Y-17519614D01*
X12493700Y-17519614D01*
X12465128Y-17505329D01*
X12450843Y-17491043D01*
X12436557Y-17462472D01*
X12422271Y-17405329D01*
X12422271Y-17333900D01*
X12436557Y-17276757D01*
X12450843Y-17248186D01*
X12465128Y-17233900D01*
X12493700Y-17219614D01*
X12722271Y-17491043D02*
X12736557Y-17505329D01*
X12722271Y-17519614D01*
X12707986Y-17505329D01*
X12722271Y-17491043D01*
X12722271Y-17519614D01*
X12922271Y-17219614D02*
X12950843Y-17219614D01*
X12979414Y-17233900D01*
X12993700Y-17248186D01*
X13007985Y-17276757D01*
X13022271Y-17333900D01*
X13022271Y-17405329D01*
X13007985Y-17462472D01*
X12993700Y-17491043D01*
X12979414Y-17505329D01*
X12950843Y-17519614D01*
X12922271Y-17519614D01*
X12893700Y-17505329D01*
X12879414Y-17491043D01*
X12865128Y-17462472D01*
X12850843Y-17405329D01*
X12850843Y-17333900D01*
X12865128Y-17276757D01*
X12879414Y-17248186D01*
X12893700Y-17233900D01*
X12922271Y-17219614D01*
X13279414Y-17219614D02*
X13222271Y-17219614D01*
X13193700Y-17233900D01*
X13179414Y-17248186D01*
X13150843Y-17291043D01*
X13136557Y-17348186D01*
X13136557Y-17462472D01*
X13150843Y-17491043D01*
X13165128Y-17505329D01*
X13193700Y-17519614D01*
X13250843Y-17519614D01*
X13279414Y-17505329D01*
X13293700Y-17491043D01*
X13307985Y-17462472D01*
X13307985Y-17391043D01*
X13293700Y-17362472D01*
X13279414Y-17348186D01*
X13250843Y-17333900D01*
X13193700Y-17333900D01*
X13165128Y-17348186D01*
X13150843Y-17362472D01*
X13136557Y-17391043D01*
X13493700Y-17219614D02*
X13522271Y-17219614D01*
X13550843Y-17233900D01*
X13565128Y-17248186D01*
X13579414Y-17276757D01*
X13593700Y-17333900D01*
X13593700Y-17405329D01*
X13579414Y-17462472D01*
X13565128Y-17491043D01*
X13550843Y-17505329D01*
X13522271Y-17519614D01*
X13493700Y-17519614D01*
X13465128Y-17505329D01*
X13450843Y-17491043D01*
X13436557Y-17462472D01*
X13422271Y-17405329D01*
X13422271Y-17333900D01*
X13436557Y-17276757D01*
X13450843Y-17248186D01*
X13465128Y-17233900D01*
X13493700Y-17219614D01*
X13707986Y-17219614D02*
X13707986Y-17276757D01*
X13822271Y-17219614D02*
X13822271Y-17276757D01*
X14265128Y-17633900D02*
X14250843Y-17619614D01*
X14222271Y-17576757D01*
X14207985Y-17548186D01*
X14193700Y-17505329D01*
X14179414Y-17433900D01*
X14179414Y-17376757D01*
X14193700Y-17305329D01*
X14207985Y-17262472D01*
X14222271Y-17233900D01*
X14250843Y-17191043D01*
X14265128Y-17176757D01*
X14536557Y-17519614D02*
X14365128Y-17519614D01*
X14450843Y-17519614D02*
X14450843Y-17219614D01*
X14422271Y-17262472D01*
X14393700Y-17291043D01*
X14365128Y-17305329D01*
X14807985Y-17219614D02*
X14665128Y-17219614D01*
X14650843Y-17362472D01*
X14665128Y-17348186D01*
X14693700Y-17333900D01*
X14765128Y-17333900D01*
X14793700Y-17348186D01*
X14807985Y-17362472D01*
X14822271Y-17391043D01*
X14822271Y-17462472D01*
X14807985Y-17491043D01*
X14793700Y-17505329D01*
X14765128Y-17519614D01*
X14693700Y-17519614D01*
X14665128Y-17505329D01*
X14650843Y-17491043D01*
X15179414Y-17519614D02*
X15179414Y-17219614D01*
X15307985Y-17519614D02*
X15307985Y-17362472D01*
X15293700Y-17333900D01*
X15265128Y-17319614D01*
X15222271Y-17319614D01*
X15193700Y-17333900D01*
X15179414Y-17348186D01*
X15493700Y-17519614D02*
X15465128Y-17505329D01*
X15450843Y-17491043D01*
X15436557Y-17462472D01*
X15436557Y-17376757D01*
X15450843Y-17348186D01*
X15465128Y-17333900D01*
X15493700Y-17319614D01*
X15536557Y-17319614D01*
X15565128Y-17333900D01*
X15579414Y-17348186D01*
X15593700Y-17376757D01*
X15593700Y-17462472D01*
X15579414Y-17491043D01*
X15565128Y-17505329D01*
X15536557Y-17519614D01*
X15493700Y-17519614D01*
X15765128Y-17519614D02*
X15736557Y-17505329D01*
X15722271Y-17476757D01*
X15722271Y-17219614D01*
X15993700Y-17505329D02*
X15965128Y-17519614D01*
X15907986Y-17519614D01*
X15879414Y-17505329D01*
X15865128Y-17476757D01*
X15865128Y-17362472D01*
X15879414Y-17333900D01*
X15907986Y-17319614D01*
X15965128Y-17319614D01*
X15993700Y-17333900D01*
X16007986Y-17362472D01*
X16007986Y-17391043D01*
X15865128Y-17419614D01*
X16122271Y-17505329D02*
X16150843Y-17519614D01*
X16207986Y-17519614D01*
X16236557Y-17505329D01*
X16250843Y-17476757D01*
X16250843Y-17462472D01*
X16236557Y-17433900D01*
X16207986Y-17419614D01*
X16165128Y-17419614D01*
X16136557Y-17405329D01*
X16122271Y-17376757D01*
X16122271Y-17362472D01*
X16136557Y-17333900D01*
X16165128Y-17319614D01*
X16207986Y-17319614D01*
X16236557Y-17333900D01*
X16350843Y-17633900D02*
X16365128Y-17619614D01*
X16393700Y-17576757D01*
X16407986Y-17548186D01*
X16422271Y-17505329D01*
X16436557Y-17433900D01*
X16436557Y-17376757D01*
X16422271Y-17305329D01*
X16407986Y-17262472D01*
X16393700Y-17233900D01*
X16365128Y-17191043D01*
X16350843Y-17176757D01*
M02*
